<svg xmlns="http://www.w3.org/2000/svg" xmlns:xlink="http://www.w3.org/1999/xlink" contentStyleType="text/css" height="473px" preserveAspectRatio="none" style="width:269px;height:473px;background:#FFFFFF;" version="1.1" viewBox="0 0 269 473" width="269px" zoomAndPan="magnify"><defs/><g><!--cluster ????--><g id="cluster_&#26045;&#35373;&#24773;&#22577;"><path d="M76.5,367.42 L133.5,367.42 A3.75,3.75 0 0 1 136,369.92 L143,389.9083 L191.5,389.9083 A2.5,2.5 0 0 1 194,392.4083 L194,463.92 A2.5,2.5 0 0 1 191.5,466.42 L76.5,466.42 A2.5,2.5 0 0 1 74,463.92 L74,369.92 A2.5,2.5 0 0 1 76.5,367.42 " fill="none" style="stroke:#000000;stroke-width:1.5;"/><line style="stroke:#000000;stroke-width:1.5;" x1="74" x2="143" y1="389.9083" y2="389.9083"/><text fill="#000000" font-family="sans-serif" font-size="14" font-weight="bold" lengthAdjust="spacing" textLength="56" x="78" y="382.9552">&#26045;&#35373;&#24773;&#22577;</text></g><!--cluster ??--><g id="cluster_&#20303;&#25152;"><path d="M11.5,6 L40.5,6 A3.75,3.75 0 0 1 43,8.5 L50,28.4883 L256.5,28.4883 A2.5,2.5 0 0 1 259,30.9883 L259,168.46 A2.5,2.5 0 0 1 256.5,170.96 L11.5,170.96 A2.5,2.5 0 0 1 9,168.46 L9,8.5 A2.5,2.5 0 0 1 11.5,6 " fill="none" style="stroke:#000000;stroke-width:1.5;"/><line style="stroke:#000000;stroke-width:1.5;" x1="9" x2="50" y1="28.4883" y2="28.4883"/><text fill="#000000" font-family="sans-serif" font-size="14" font-weight="bold" lengthAdjust="spacing" textLength="28" x="13" y="21.5352">&#20303;&#25152;</text></g><!--cluster ???--><g id="cluster_&#12456;&#12522;&#12450;"><path d="M8.5,194.96 L51.5,194.96 A3.75,3.75 0 0 1 54,197.46 L61,217.4483 L259.5,217.4483 A2.5,2.5 0 0 1 262,219.9483 L262,340.92 A2.5,2.5 0 0 1 259.5,343.42 L8.5,343.42 A2.5,2.5 0 0 1 6,340.92 L6,197.46 A2.5,2.5 0 0 1 8.5,194.96 " fill="none" style="stroke:#000000;stroke-width:1.5;"/><line style="stroke:#000000;stroke-width:1.5;" x1="6" x2="61" y1="217.4483" y2="217.4483"/><text fill="#000000" font-family="sans-serif" font-size="14" font-weight="bold" lengthAdjust="spacing" textLength="42" x="10" y="210.4952">&#12456;&#12522;&#12450;</text></g><!--class facilities--><g id="elem_facilities"><rect codeLine="4" fill="#F1F1F1" height="48" id="facilities" rx="2.5" ry="2.5" style="stroke:#181818;stroke-width:0.5;" width="88.4102" x="89.79" y="402.42"/><ellipse cx="104.79" cy="418.42" fill="#ADD1B2" rx="11" ry="11" style="stroke:#181818;stroke-width:1.0;"/><path d="M108.4043,424.92 L100.6845,424.92 L100.6845,412.5269 L108.4043,412.5269 L108.4043,414.6851 L103.1333,414.6851 L103.1333,417.358 L107.9062,417.358 L107.9062,419.5162 L103.1333,419.5162 L103.1333,422.7618 L108.4043,422.7618 Z " fill="#000000"/><text fill="#000000" font-family="sans-serif" font-size="14" lengthAdjust="spacing" textLength="56.4102" x="118.79" y="423.711">facilities</text><line style="stroke:#181818;stroke-width:0.5;" x1="90.79" x2="177.2002" y1="434.42" y2="434.42"/><line style="stroke:#181818;stroke-width:0.5;" x1="90.79" x2="177.2002" y1="442.42" y2="442.42"/></g><!--class addresses--><g id="elem_addresses"><rect codeLine="8" fill="#F1F1F1" height="113.9531" id="addresses" rx="2.5" ry="2.5" style="stroke:#181818;stroke-width:0.5;" width="218.4043" x="24.8" y="41"/><ellipse cx="95.7058" cy="57" fill="#ADD1B2" rx="11" ry="11" style="stroke:#181818;stroke-width:1.0;"/><path d="M99.32,63.5 L91.6003,63.5 L91.6003,51.1069 L99.32,51.1069 L99.32,53.2651 L94.049,53.2651 L94.049,55.938 L98.822,55.938 L98.822,58.0962 L94.049,58.0962 L94.049,61.3418 L99.32,61.3418 Z " fill="#000000"/><text fill="#000000" font-family="sans-serif" font-size="14" lengthAdjust="spacing" textLength="68.0928" x="116.2058" y="62.291">addresses</text><line style="stroke:#181818;stroke-width:0.5;" x1="25.8" x2="242.2043" y1="73" y2="73"/><ellipse cx="35.8" cy="86.7441" fill="#000000" rx="3" ry="3" style="stroke:#000000;stroke-width:1.0;"/><text fill="#000000" font-family="sans-serif" font-size="14" lengthAdjust="spacing" textLength="131.3936" x="44.8" y="90.5352">int address_id &#171;PK&#187;</text><line style="stroke:#181818;stroke-width:1.0;" x1="25.8" x2="242.2043" y1="97.4883" y2="97.4883"/><text fill="#000000" font-family="sans-serif" font-size="14" lengthAdjust="spacing" textLength="153.5557" x="30.8" y="115.0234">int zip_code "&#37109;&#20415;&#30058;&#21495;"</text><text fill="#000000" font-family="sans-serif" font-size="14" lengthAdjust="spacing" textLength="140.041" x="30.8" y="131.5117">string address "&#20303;&#25152;"</text><text fill="#000000" font-family="sans-serif" font-size="14" lengthAdjust="spacing" textLength="206.4043" x="30.8" y="148">int area_id &#171;FK&#187; "&#22320;&#22495;&#12456;&#12522;&#12450;ID"</text></g><!--class areas--><g id="elem_areas"><rect codeLine="18" fill="#F1F1F1" height="97.4648" id="areas" rx="2.5" ry="2.5" style="stroke:#181818;stroke-width:0.5;" width="223.2578" x="22.37" y="229.96"/><ellipse cx="111.6849" cy="245.96" fill="#ADD1B2" rx="11" ry="11" style="stroke:#181818;stroke-width:1.0;"/><path d="M115.2992,252.46 L107.5795,252.46 L107.5795,240.0669 L115.2992,240.0669 L115.2992,242.2251 L110.0282,242.2251 L110.0282,244.898 L114.8012,244.898 L114.8012,247.0562 L110.0282,247.0562 L110.0282,250.3018 L115.2992,250.3018 Z " fill="#000000"/><text fill="#000000" font-family="sans-serif" font-size="14" lengthAdjust="spacing" textLength="36.1279" x="132.1849" y="251.251">areas</text><line style="stroke:#181818;stroke-width:0.5;" x1="23.37" x2="244.6278" y1="261.96" y2="261.96"/><ellipse cx="33.37" cy="275.7041" fill="#000000" rx="3" ry="3" style="stroke:#000000;stroke-width:1.0;"/><text fill="#000000" font-family="sans-serif" font-size="14" lengthAdjust="spacing" textLength="71.2373" x="42.37" y="279.4952">int id &#171;PK&#187;</text><line style="stroke:#181818;stroke-width:1.0;" x1="23.37" x2="244.6278" y1="286.4483" y2="286.4483"/><text fill="#000000" font-family="sans-serif" font-size="14" lengthAdjust="spacing" textLength="211.2578" x="28.37" y="303.9834">string area_code "&#22320;&#22495;&#12456;&#12522;&#12450;&#21517;"</text><text fill="#000000" font-family="sans-serif" font-size="14" lengthAdjust="spacing" textLength="201.749" x="28.37" y="320.4717">string facility_id &#171;FK&#187; "&#26045;&#35373;ID"</text></g><!--link addresses to areas--><g id="link_addresses_areas"><path codeLine="26" d="M134,173.16 C134,197.04 134,198.52 134,221.49 " fill="none" id="addresses-areas" style="stroke:#181818;stroke-width:1.0;"/><line style="stroke:#181818;stroke-width:1.0;" x1="134" x2="128" y1="163.16" y2="155.16"/><line style="stroke:#181818;stroke-width:1.0;" x1="134" x2="140" y1="163.16" y2="155.16"/><line style="stroke:#181818;stroke-width:1.0;" x1="134" x2="134" y1="163.16" y2="155.16"/><ellipse cx="134" cy="169.16" fill="none" rx="4" ry="4" style="stroke:#181818;stroke-width:1.0;"/><line style="stroke:#181818;stroke-width:1.0;" x1="138" x2="130" y1="225.49" y2="225.49"/><line style="stroke:#181818;stroke-width:1.0;" x1="138" x2="130" y1="222.49" y2="222.49"/><line style="stroke:#181818;stroke-width:1.0;" x1="134" x2="134" y1="221.49" y2="229.49"/></g><!--link areas to facilities--><g id="link_areas_facilities"><path codeLine="27" d="M134,345.88 C134,370.89 134,374.17 134,394.28 " fill="none" id="areas-facilities" style="stroke:#181818;stroke-width:1.0;"/><line style="stroke:#181818;stroke-width:1.0;" x1="134" x2="128" y1="335.88" y2="327.88"/><line style="stroke:#181818;stroke-width:1.0;" x1="134" x2="140" y1="335.88" y2="327.88"/><line style="stroke:#181818;stroke-width:1.0;" x1="134" x2="134" y1="335.88" y2="327.88"/><ellipse cx="134" cy="341.88" fill="none" rx="4" ry="4" style="stroke:#181818;stroke-width:1.0;"/><line style="stroke:#181818;stroke-width:1.0;" x1="138" x2="130" y1="398.28" y2="398.28"/><line style="stroke:#181818;stroke-width:1.0;" x1="138" x2="130" y1="395.28" y2="395.28"/><line style="stroke:#181818;stroke-width:1.0;" x1="134" x2="134" y1="394.28" y2="402.28"/></g><!--SRC=[AyxEp2j8B4hCLSZ9p4ijgIn8LSWlAid8v-8gI4pEJanFLNWsRU-B5MkVDRS-NR1HePfBGI4rhoIpf58XBJ4vCoUp93ErcAiMeVh9tlvddGt8wX9JKefIYujJYy622WfQ2fbv9J3H-CmK1HkR06yxEx2ShYwO0YceoYo8JyvFILLGUjcyzSc-_S-dhdhQlrq9B5zSKfIPbmupGq49OgaIN6zYKMeYn6GteCaAIa_dR7WwV_xZfXMFcrSzRbhawG9IMeliRBWSYik1ng2w6gjhOQu1MGfnCPfzJoVqehWR6dALo4w4X3AIon31LfklgrjJ0t4D5yHDK26aAE020000]--></g></svg>