<svg xmlns="http://www.w3.org/2000/svg" xmlns:xlink="http://www.w3.org/1999/xlink" contentStyleType="text/css" height="537px" preserveAspectRatio="none" style="width:546px;height:537px;background:#FFFFFF;" version="1.1" viewBox="0 0 546 537" width="546px" zoomAndPan="magnify"><defs/><g><!--cluster ????--><g id="cluster_&#26045;&#35373;&#24773;&#22577;"><path d="M349.5,431 L406.4998,431 A3.75,3.75 0 0 1 408.9998,433.5 L415.9998,453.2969 L466.5,453.2969 A2.5,2.5 0 0 1 469,455.7969 L469,527.5 A2.5,2.5 0 0 1 466.5,530 L349.5,530 A2.5,2.5 0 0 1 347,527.5 L347,433.5 A2.5,2.5 0 0 1 349.5,431 " fill="none" style="stroke:#000000;stroke-width:1.5;"/><line style="stroke:#000000;stroke-width:1.5;" x1="347" x2="415.9998" y1="453.2969" y2="453.2969"/><text fill="#000000" font-family="sans-serif" font-size="14" font-weight="bold" lengthAdjust="spacing" textLength="55.9998" x="351" y="445.9951">&#26045;&#35373;&#24773;&#22577;</text></g><!--cluster ??--><g id="cluster_&#20303;&#25152;"><path d="M295.5,6 L324.4999,6 A3.75,3.75 0 0 1 326.9999,8.5 L333.9999,28.2969 L520.5,28.2969 A2.5,2.5 0 0 1 523,30.7969 L523,232.5 A2.5,2.5 0 0 1 520.5,235 L295.5,235 A2.5,2.5 0 0 1 293,232.5 L293,8.5 A2.5,2.5 0 0 1 295.5,6 " fill="none" style="stroke:#000000;stroke-width:1.5;"/><line style="stroke:#000000;stroke-width:1.5;" x1="293" x2="333.9999" y1="28.2969" y2="28.2969"/><text fill="#000000" font-family="sans-serif" font-size="14" font-weight="bold" lengthAdjust="spacing" textLength="27.9999" x="297" y="20.9951">&#20303;&#25152;</text></g><!--cluster ???--><g id="cluster_&#12456;&#12522;&#12450;"><path d="M8.5,259 L51.4998,259 A3.75,3.75 0 0 1 53.9998,261.5 L60.9998,281.2969 L536.5,281.2969 A2.5,2.5 0 0 1 539,283.7969 L539,404.5 A2.5,2.5 0 0 1 536.5,407 L8.5,407 A2.5,2.5 0 0 1 6,404.5 L6,261.5 A2.5,2.5 0 0 1 8.5,259 " fill="none" style="stroke:#000000;stroke-width:1.5;"/><line style="stroke:#000000;stroke-width:1.5;" x1="6" x2="60.9998" y1="281.2969" y2="281.2969"/><text fill="#000000" font-family="sans-serif" font-size="14" font-weight="bold" lengthAdjust="spacing" textLength="41.9998" x="10" y="273.9951">&#12456;&#12522;&#12450;</text></g><!--class facilities--><g id="elem_facilities"><rect codeLine="4" fill="#F1F1F1" height="48" id="facilities" rx="2.5" ry="2.5" style="stroke:#181818;stroke-width:0.5;" width="90.1602" x="363" y="466"/><ellipse cx="378" cy="482" fill="#ADD1B2" rx="11" ry="11" style="stroke:#181818;stroke-width:1;"/><path d="M382.1094,488 L374.3906,488 L374.3906,475.6094 L382.1094,475.6094 L382.1094,477.7656 L376.8438,477.7656 L376.8438,480.4375 L381.6094,480.4375 L381.6094,482.5938 L376.8438,482.5938 L376.8438,485.8438 L382.1094,485.8438 L382.1094,488 Z " fill="#000000"/><text fill="#000000" font-family="sans-serif" font-size="14" lengthAdjust="spacing" textLength="58.1602" x="392" y="486.8467">facilities</text><line style="stroke:#181818;stroke-width:0.5;" x1="364" x2="452.1602" y1="498" y2="498"/><line style="stroke:#181818;stroke-width:0.5;" x1="364" x2="452.1602" y1="506" y2="506"/></g><!--class addresses--><g id="elem_addresses"><rect codeLine="8" fill="#F1F1F1" height="178.375" id="addresses" rx="2.5" ry="2.5" style="stroke:#181818;stroke-width:0.5;" width="198.4501" x="309" y="41"/><ellipse cx="368.3666" cy="57" fill="#ADD1B2" rx="11" ry="11" style="stroke:#181818;stroke-width:1;"/><path d="M372.476,63 L364.7573,63 L364.7573,50.6094 L372.476,50.6094 L372.476,52.7656 L367.2104,52.7656 L367.2104,55.4375 L371.976,55.4375 L371.976,57.5938 L367.2104,57.5938 L367.2104,60.8438 L372.476,60.8438 L372.476,63 Z " fill="#000000"/><text fill="#000000" font-family="sans-serif" font-size="14" lengthAdjust="spacing" textLength="71.2168" x="388.8666" y="61.8467">addresses</text><line style="stroke:#181818;stroke-width:0.5;" x1="310" x2="506.4501" y1="73" y2="73"/><ellipse cx="320" cy="86.6484" fill="#000000" rx="3" ry="3" style="stroke:#000000;stroke-width:1;"/><text fill="#000000" font-family="sans-serif" font-size="14" lengthAdjust="spacing" textLength="163.0098" x="329" y="89.9951">binary address_id &#171;PK&#187;</text><line style="stroke:#181818;stroke-width:1;" x1="310" x2="506.4501" y1="97.2969" y2="97.2969"/><text fill="#000000" font-family="sans-serif" font-size="14" lengthAdjust="spacing" textLength="156.9187" x="315" y="114.292">int zip_code "&#37109;&#20415;&#30058;&#21495;"</text><text fill="#000000" font-family="sans-serif" font-size="14" lengthAdjust="spacing" textLength="163.1942" x="315" y="130.5889">string prefecture "&#20303;&#25152;"</text><text fill="#000000" font-family="sans-serif" font-size="14" lengthAdjust="spacing" textLength="143.3289" x="315" y="146.8857">string city "&#24066;&#21306;&#30010;&#26449;"</text><text fill="#000000" font-family="sans-serif" font-size="14" lengthAdjust="spacing" textLength="186.4501" x="315" y="163.1826">string address_line1 "&#30010;&#21517;"</text><text fill="#000000" font-family="sans-serif" font-size="14" lengthAdjust="spacing" textLength="186.4501" x="315" y="179.4795">string address_line2 "&#30058;&#22320;"</text><text fill="#000000" font-family="sans-serif" font-size="14" lengthAdjust="spacing" textLength="143.6776" x="315" y="195.7764">string latitude "&#32239;&#24230;"</text><text fill="#000000" font-family="sans-serif" font-size="14" lengthAdjust="spacing" textLength="155.9344" x="315" y="212.0732">string longitude "&#32076;&#24230;"</text></g><!--class areas--><g id="elem_areas"><rect codeLine="22" fill="#F1F1F1" height="96.8906" id="areas" rx="2.5" ry="2.5" style="stroke:#181818;stroke-width:0.5;" width="230.2574" x="293" y="294"/><ellipse cx="384.4681" cy="310" fill="#ADD1B2" rx="11" ry="11" style="stroke:#181818;stroke-width:1;"/><path d="M388.5775,316 L380.8587,316 L380.8587,303.6094 L388.5775,303.6094 L388.5775,305.7656 L383.3118,305.7656 L383.3118,308.4375 L388.0775,308.4375 L388.0775,310.5938 L383.3118,310.5938 L383.3118,313.8438 L388.5775,313.8438 L388.5775,316 Z " fill="#000000"/><text fill="#000000" font-family="sans-serif" font-size="14" lengthAdjust="spacing" textLength="38.8213" x="404.9681" y="314.8467">areas</text><line style="stroke:#181818;stroke-width:0.5;" x1="294" x2="522.2574" y1="326" y2="326"/><ellipse cx="304" cy="339.6484" fill="#000000" rx="3" ry="3" style="stroke:#000000;stroke-width:1;"/><text fill="#000000" font-family="sans-serif" font-size="14" lengthAdjust="spacing" textLength="100.7002" x="313" y="342.9951">binary id &#171;PK&#187;</text><line style="stroke:#181818;stroke-width:1;" x1="294" x2="522.2574" y1="350.2969" y2="350.2969"/><text fill="#000000" font-family="sans-serif" font-size="14" lengthAdjust="spacing" textLength="218.2574" x="299" y="367.292">string area_code "&#22320;&#22495;&#12456;&#12522;&#12450;&#21517;"</text><text fill="#000000" font-family="sans-serif" font-size="14" lengthAdjust="spacing" textLength="214.1971" x="299" y="383.5889">binary facility_id &#171;FK&#187; "&#26045;&#35373;ID"</text></g><!--class areas_addresses--><g id="elem_areas_addresses"><rect codeLine="29" fill="#F1F1F1" height="96.8906" id="areas_addresses" rx="2.5" ry="2.5" style="stroke:#181818;stroke-width:0.5;" width="234.8583" x="22.5" y="294"/><ellipse cx="77.1601" cy="310" fill="#ADD1B2" rx="11" ry="11" style="stroke:#181818;stroke-width:1;"/><path d="M81.2695,316 L73.5507,316 L73.5507,303.6094 L81.2695,303.6094 L81.2695,305.7656 L76.0038,305.7656 L76.0038,308.4375 L80.7695,308.4375 L80.7695,310.5938 L76.0038,310.5938 L76.0038,313.8438 L81.2695,313.8438 L81.2695,316 Z " fill="#000000"/><text fill="#000000" font-family="sans-serif" font-size="14" lengthAdjust="spacing" textLength="117.0381" x="97.6601" y="314.8467">areas_addresses</text><line style="stroke:#181818;stroke-width:0.5;" x1="23.5" x2="256.3583" y1="326" y2="326"/><ellipse cx="33.5" cy="339.6484" fill="#000000" rx="3" ry="3" style="stroke:#000000;stroke-width:1;"/><text fill="#000000" font-family="sans-serif" font-size="14" lengthAdjust="spacing" textLength="100.7002" x="42.5" y="342.9951">binary id &#171;PK&#187;</text><line style="stroke:#181818;stroke-width:1;" x1="23.5" x2="256.3583" y1="350.2969" y2="350.2969"/><text fill="#000000" font-family="sans-serif" font-size="14" lengthAdjust="spacing" textLength="213.076" x="28.5" y="367.292">binary area_id &#171;FK&#187; "&#12456;&#12522;&#12450;ID"</text><text fill="#000000" font-family="sans-serif" font-size="14" lengthAdjust="spacing" textLength="222.8583" x="28.5" y="383.5889">binary address_id &#171;FK&#187; "&#20303;&#25152;ID"</text></g><!--link addresses to areas--><g id="link_addresses_areas"><path codeLine="37" d="M408,237.2 C408,262.75 408,253.66 408,275.79 " fill="none" id="addresses-areas" style="stroke:#181818;stroke-width:1;"/><line style="stroke:#181818;stroke-width:1;" x1="408" x2="402" y1="227.2" y2="219.2"/><line style="stroke:#181818;stroke-width:1;" x1="408" x2="414" y1="227.2" y2="219.2"/><line style="stroke:#181818;stroke-width:1;" x1="408" x2="408" y1="227.2" y2="219.2"/><ellipse cx="408" cy="233.2" fill="none" rx="4" ry="4" style="stroke:#181818;stroke-width:1;"/><line style="stroke:#181818;stroke-width:1;" x1="408" x2="414" y1="285.79" y2="293.79"/><line style="stroke:#181818;stroke-width:1;" x1="408" x2="402" y1="285.79" y2="293.79"/><line style="stroke:#181818;stroke-width:1;" x1="408" x2="408" y1="285.79" y2="293.79"/><ellipse cx="408" cy="279.79" fill="none" rx="4" ry="4" style="stroke:#181818;stroke-width:1;"/></g><!--link areas to facilities--><g id="link_areas_facilities"><path codeLine="38" d="M408,409.21 C408,434.21 408,437.58 408,457.76 " fill="none" id="areas-facilities" style="stroke:#181818;stroke-width:1;"/><line style="stroke:#181818;stroke-width:1;" x1="408" x2="402" y1="399.21" y2="391.21"/><line style="stroke:#181818;stroke-width:1;" x1="408" x2="414" y1="399.21" y2="391.21"/><line style="stroke:#181818;stroke-width:1;" x1="408" x2="408" y1="399.21" y2="391.21"/><ellipse cx="408" cy="405.21" fill="none" rx="4" ry="4" style="stroke:#181818;stroke-width:1;"/><line style="stroke:#181818;stroke-width:1;" x1="412" x2="404" y1="461.76" y2="461.76"/><line style="stroke:#181818;stroke-width:1;" x1="412" x2="404" y1="458.76" y2="458.76"/><line style="stroke:#181818;stroke-width:1;" x1="408" x2="408" y1="457.76" y2="465.76"/></g><!--SRC=[TPB1IiD048RlUOeXHo47FPUUH10lla5PasrTMZTXipt4DY097eHA5TIJKl4WfI3geLGArOTfDzMtS9DDqaJRqyB-_yvyyy-wJK8TnD09j0Z5t7Cms8mVsvhc8BE96XYYkzdty2KApyNZEtGq04mvuHxKaKbQX1FiQlxAlPZreukpeWzP5iEkYzta4c0BZWX5B1Tgn89AvV2WMaramqWEGZcS4gTcsXO6_ISSBpw_bhSZqP_eYUvoHcW378RhsEHj9asgTKasOm1TV0IYDrtUJAE7wvAS4SIZRuCk7UBgSgDZHpeamVrRoT52Sifs3BcSl8hfSrcqQIDJnxrKzOjvpOFXF1pDWwTIP0oZVt6jZId3b0_Ig2IV60poilb0QPLqQvvAVK-M0rrjU7zNmVt1g6tStrgWRBSnKA55pgEwmDe_eAngZHcDv5a1-BPXs1t5fQcGugjkj_WPjLy0]--></g></svg>