<svg xmlns="http://www.w3.org/2000/svg" xmlns:xlink="http://www.w3.org/1999/xlink" contentStyleType="text/css" height="433px" preserveAspectRatio="none" style="width:793px;height:433px;background:#FFFFFF;" version="1.1" viewBox="0 0 793 433" width="793px" zoomAndPan="magnify"><defs/><g><!--cluster ????--><g id="cluster_&#26045;&#35373;&#24773;&#22577;"><path d="M8.5,6 L65.4998,6 A3.75,3.75 0 0 1 67.9998,8.5 L74.9998,28.2969 L783.5,28.2969 A2.5,2.5 0 0 1 786,30.7969 L786,423.5 A2.5,2.5 0 0 1 783.5,426 L8.5,426 A2.5,2.5 0 0 1 6,423.5 L6,8.5 A2.5,2.5 0 0 1 8.5,6 " fill="none" style="stroke:#000000;stroke-width:1.5;"/><line style="stroke:#000000;stroke-width:1.5;" x1="6" x2="74.9998" y1="28.2969" y2="28.2969"/><text fill="#000000" font-family="sans-serif" font-size="14" font-weight="bold" lengthAdjust="spacing" textLength="55.9998" x="10" y="20.9951">&#26045;&#35373;&#24773;&#22577;</text></g><!--class facilities--><g id="elem_facilities"><rect codeLine="3" fill="#F1F1F1" height="96.8906" id="facilities" rx="2.5" ry="2.5" style="stroke:#181818;stroke-width:0.5;" width="234.8583" x="278.5" y="41"/><ellipse cx="362.5991" cy="57" fill="#ADD1B2" rx="11" ry="11" style="stroke:#181818;stroke-width:1;"/><path d="M366.7084,63 L358.9897,63 L358.9897,50.6094 L366.7084,50.6094 L366.7084,52.7656 L361.4428,52.7656 L361.4428,55.4375 L366.2084,55.4375 L366.2084,57.5938 L361.4428,57.5938 L361.4428,60.8438 L366.7084,60.8438 L366.7084,63 Z " fill="#000000"/><text fill="#000000" font-family="sans-serif" font-size="14" lengthAdjust="spacing" textLength="58.1602" x="383.0991" y="61.8467">facilities</text><line style="stroke:#181818;stroke-width:0.5;" x1="279.5" x2="512.3583" y1="73" y2="73"/><ellipse cx="289.5" cy="86.6484" fill="#000000" rx="3" ry="3" style="stroke:#000000;stroke-width:1;"/><text fill="#000000" font-family="sans-serif" font-size="14" lengthAdjust="spacing" textLength="100.7002" x="298.5" y="89.9951">binary id &#171;PK&#187;</text><line style="stroke:#181818;stroke-width:1;" x1="279.5" x2="512.3583" y1="97.2969" y2="97.2969"/><text fill="#000000" font-family="sans-serif" font-size="14" lengthAdjust="spacing" textLength="143.6707" x="284.5" y="114.292">string name "&#26045;&#35373;&#21517;"</text><text fill="#000000" font-family="sans-serif" font-size="14" lengthAdjust="spacing" textLength="222.8583" x="284.5" y="130.5889">binary address_id &#171;FK&#187; "&#20303;&#25152;ID"</text></g><!--class positions--><g id="elem_positions"><rect codeLine="9" fill="#F1F1F1" height="96.8906" id="positions" rx="2.5" ry="2.5" style="stroke:#181818;stroke-width:0.5;" width="226.1971" x="22" y="198"/><ellipse cx="99.475" cy="214" fill="#ADD1B2" rx="11" ry="11" style="stroke:#181818;stroke-width:1;"/><path d="M103.5844,220 L95.8657,220 L95.8657,207.6094 L103.5844,207.6094 L103.5844,209.7656 L98.3188,209.7656 L98.3188,212.4375 L103.0844,212.4375 L103.0844,214.5938 L98.3188,214.5938 L98.3188,217.8438 L103.5844,217.8438 L103.5844,220 Z " fill="#000000"/><text fill="#000000" font-family="sans-serif" font-size="14" lengthAdjust="spacing" textLength="62.7471" x="119.975" y="218.8467">positions</text><line style="stroke:#181818;stroke-width:0.5;" x1="23" x2="247.1971" y1="230" y2="230"/><ellipse cx="33" cy="243.6484" fill="#000000" rx="3" ry="3" style="stroke:#000000;stroke-width:1;"/><text fill="#000000" font-family="sans-serif" font-size="14" lengthAdjust="spacing" textLength="160.9384" x="42" y="246.9951">binary id &#171;PK&#187; "&#24441;&#32887;ID"</text><line style="stroke:#181818;stroke-width:1;" x1="23" x2="247.1971" y1="254.2969" y2="254.2969"/><text fill="#000000" font-family="sans-serif" font-size="14" lengthAdjust="spacing" textLength="143.6707" x="28" y="271.292">string name "&#24441;&#32887;&#21517;"</text><text fill="#000000" font-family="sans-serif" font-size="14" lengthAdjust="spacing" textLength="214.1971" x="28" y="287.5889">binary facility_id &#171;FK&#187; "&#26045;&#35373;ID"</text></g><!--class teams--><g id="elem_teams"><rect codeLine="16" fill="#F1F1F1" height="96.8906" id="teams" rx="2.5" ry="2.5" style="stroke:#181818;stroke-width:0.5;" width="226.1971" x="283" y="198"/><ellipse cx="370.0419" cy="214" fill="#ADD1B2" rx="11" ry="11" style="stroke:#181818;stroke-width:1;"/><path d="M374.1513,220 L366.4326,220 L366.4326,207.6094 L374.1513,207.6094 L374.1513,209.7656 L368.8857,209.7656 L368.8857,212.4375 L373.6513,212.4375 L373.6513,214.5938 L368.8857,214.5938 L368.8857,217.8438 L374.1513,217.8438 L374.1513,220 Z " fill="#000000"/><text fill="#000000" font-family="sans-serif" font-size="14" lengthAdjust="spacing" textLength="43.6133" x="390.5419" y="218.8467">teams</text><line style="stroke:#181818;stroke-width:0.5;" x1="284" x2="508.1971" y1="230" y2="230"/><ellipse cx="294" cy="243.6484" fill="#000000" rx="3" ry="3" style="stroke:#000000;stroke-width:1;"/><text fill="#000000" font-family="sans-serif" font-size="14" lengthAdjust="spacing" textLength="100.7002" x="303" y="246.9951">binary id &#171;PK&#187;</text><line style="stroke:#181818;stroke-width:1;" x1="284" x2="508.1971" y1="254.2969" y2="254.2969"/><text fill="#000000" font-family="sans-serif" font-size="14" lengthAdjust="spacing" textLength="157.6707" x="289" y="271.292">string name "&#12481;&#12540;&#12512;&#21517;"</text><text fill="#000000" font-family="sans-serif" font-size="14" lengthAdjust="spacing" textLength="214.1971" x="289" y="287.5889">binary facility_id &#171;FK&#187; "&#26045;&#35373;ID"</text></g><g id="elem_GMN6"><path d="M70.5,355 L70.5,410.3984 A0,0 0 0 0 70.5,410.3984 L199.2833,410.3984 A0,0 0 0 0 199.2833,410.3984 L199.2833,365 L189.2833,355 L139,355 L135,295.21 L131,355 L70.5,355 A0,0 0 0 0 70.5,355 " fill="#FEFFDD" style="stroke:#181818;stroke-width:0.5;"/><path d="M189.2833,355 L189.2833,365 L199.2833,365 L189.2833,355 " fill="#FEFFDD" style="stroke:#181818;stroke-width:0.5;"/><text fill="#000000" font-family="sans-serif" font-size="13" lengthAdjust="spacing" textLength="94.7833" x="76.5" y="372.0669">1: &#12510;&#12493;&#12540;&#12472;&#12515;&#12540;</text><text fill="#000000" font-family="sans-serif" font-size="13" lengthAdjust="spacing" textLength="107.7833" x="76.5" y="387.1997">2: &#12481;&#12540;&#12512;&#12522;&#12540;&#12480;&#12540;</text><text fill="#000000" font-family="sans-serif" font-size="13" lengthAdjust="spacing" textLength="68.7833" x="76.5" y="402.3325">2: &#12513;&#12531;&#12496;&#12540;</text></g><!--class departments--><g id="elem_departments"><rect codeLine="29" fill="#F1F1F1" height="96.8906" id="departments" rx="2.5" ry="2.5" style="stroke:#181818;stroke-width:0.5;" width="226.1971" x="544" y="198"/><ellipse cx="607.7895" cy="214" fill="#ADD1B2" rx="11" ry="11" style="stroke:#181818;stroke-width:1;"/><path d="M611.8989,220 L604.1801,220 L604.1801,207.6094 L611.8989,207.6094 L611.8989,209.7656 L606.6332,209.7656 L606.6332,212.4375 L611.3989,212.4375 L611.3989,214.5938 L606.6332,214.5938 L606.6332,217.8438 L611.8989,217.8438 L611.8989,220 Z " fill="#000000"/><text fill="#000000" font-family="sans-serif" font-size="14" lengthAdjust="spacing" textLength="90.1182" x="628.2895" y="218.8467">departments</text><line style="stroke:#181818;stroke-width:0.5;" x1="545" x2="769.1971" y1="230" y2="230"/><ellipse cx="555" cy="243.6484" fill="#000000" rx="3" ry="3" style="stroke:#000000;stroke-width:1;"/><text fill="#000000" font-family="sans-serif" font-size="14" lengthAdjust="spacing" textLength="100.7002" x="564" y="246.9951">binary id &#171;PK&#187;</text><line style="stroke:#181818;stroke-width:1;" x1="545" x2="769.1971" y1="254.2969" y2="254.2969"/><text fill="#000000" font-family="sans-serif" font-size="14" lengthAdjust="spacing" textLength="143.6707" x="550" y="271.292">string name "&#37096;&#32626;&#21517;"</text><text fill="#000000" font-family="sans-serif" font-size="14" lengthAdjust="spacing" textLength="214.1971" x="550" y="287.5889">binary facility_id &#171;FK&#187; "&#26045;&#35373;ID"</text></g><g id="elem_GMN10"><path d="M605.5,362.5 L605.5,402.7656 A0,0 0 0 0 605.5,402.7656 L708.2833,402.7656 A0,0 0 0 0 708.2833,402.7656 L708.2833,372.5 L698.2833,362.5 L661,362.5 L657,295.21 L653,362.5 L605.5,362.5 A0,0 0 0 0 605.5,362.5 " fill="#FEFFDD" style="stroke:#181818;stroke-width:0.5;"/><path d="M698.2833,362.5 L698.2833,372.5 L708.2833,372.5 L698.2833,362.5 " fill="#FEFFDD" style="stroke:#181818;stroke-width:0.5;"/><text fill="#000000" font-family="sans-serif" font-size="13" lengthAdjust="spacing" textLength="55.7832" x="611.5" y="379.5669">1: &#30475;&#35703;&#37096;</text><text fill="#000000" font-family="sans-serif" font-size="13" lengthAdjust="spacing" textLength="81.7833" x="611.5" y="394.6997">2: &#12522;&#12495;&#12499;&#12522;&#37096;</text></g><!--link facilities to positions--><g id="link_facilities_positions"><path codeLine="40" d="M270.48,90 C201.2,90 135,90 135,90 C135,90 135,143.9 135,189.84 " fill="none" id="facilities-positions" style="stroke:#181818;stroke-width:1;"/><line style="stroke:#181818;stroke-width:1;" x1="274.48" x2="274.48" y1="86" y2="94"/><line style="stroke:#181818;stroke-width:1;" x1="271.48" x2="271.48" y1="86" y2="94"/><line style="stroke:#181818;stroke-width:1;" x1="270.48" x2="278.48" y1="90" y2="90"/><line style="stroke:#181818;stroke-width:1;" x1="139" x2="131" y1="193.84" y2="193.84"/><line style="stroke:#181818;stroke-width:1;" x1="139" x2="131" y1="190.84" y2="190.84"/><line style="stroke:#181818;stroke-width:1;" x1="135" x2="135" y1="189.84" y2="197.84"/></g><!--link facilities to teams--><g id="link_facilities_teams"><path codeLine="41" d="M396,146.32 C396,165.31 396,171.02 396,189.98 " fill="none" id="facilities-teams" style="stroke:#181818;stroke-width:1;"/><line style="stroke:#181818;stroke-width:1;" x1="392" x2="400" y1="142.32" y2="142.32"/><line style="stroke:#181818;stroke-width:1;" x1="392" x2="400" y1="145.32" y2="145.32"/><line style="stroke:#181818;stroke-width:1;" x1="396" x2="396" y1="146.32" y2="138.32"/><line style="stroke:#181818;stroke-width:1;" x1="400" x2="392" y1="193.98" y2="193.98"/><line style="stroke:#181818;stroke-width:1;" x1="400" x2="392" y1="190.98" y2="190.98"/><line style="stroke:#181818;stroke-width:1;" x1="396" x2="396" y1="189.98" y2="197.98"/></g><!--link facilities to departments--><g id="link_facilities_departments"><path codeLine="42" d="M521.52,90 C590.8,90 657,90 657,90 C657,90 657,143.9 657,189.84 " fill="none" id="facilities-departments" style="stroke:#181818;stroke-width:1;"/><line style="stroke:#181818;stroke-width:1;" x1="517.52" x2="517.52" y1="94" y2="86"/><line style="stroke:#181818;stroke-width:1;" x1="520.52" x2="520.52" y1="94" y2="86"/><line style="stroke:#181818;stroke-width:1;" x1="521.52" x2="513.52" y1="90" y2="90"/><line style="stroke:#181818;stroke-width:1;" x1="661" x2="653" y1="193.84" y2="193.84"/><line style="stroke:#181818;stroke-width:1;" x1="661" x2="653" y1="190.84" y2="190.84"/><line style="stroke:#181818;stroke-width:1;" x1="657" x2="657" y1="189.84" y2="197.84"/></g><!--SRC=[hP91IyCm68Rl-nKVFGezw576JYA85_-1P6ismzQajBaKAsm63o9Z0y6JoCJB47PG3rEmloQsg__2DEbif_CoFFNhz-RB-pv9WYwX7lAH2pr2CGyz3Cpd9wpceLONTJ2aDt4sdQNY8faymMaD05DEU0Xjr28zmWaET1TW2vg48Zy4ua2zVdJOQEYsRUjFm7r2Eq2HYy4oUoRZeQMrOWuvZe-3u5ZFxwjvi3xYKNhPFzZBrvsLtXuBb3EZVrk3bSHlsM1kHjUdC2j-fYYumceCatSPeyp1CN8tm9TY8CMx59EDl2dZ69gCS-O2QvTdeJVQtWKfxgGOvWRdhr8yg48hExbI-4hng8l-YdWlnOiKOzF3rD5E5Le7guV2NVMt0VEdc2xYv_y0hiHO8YzkhxBPN5cKC0fm9CMrAapxcmUgBpUAR3kALixmjwflUQrIZQAYVW40]--></g></svg>