<svg xmlns="http://www.w3.org/2000/svg" xmlns:xlink="http://www.w3.org/1999/xlink" contentStyleType="text/css" height="434px" preserveAspectRatio="none" style="width:765px;height:434px;background:#FFFFFF;" version="1.1" viewBox="0 0 765 434" width="765px" zoomAndPan="magnify"><defs/><g><!--cluster ????--><g id="cluster_&#26045;&#35373;&#24773;&#22577;"><path d="M8.5,6 L65.5,6 A3.75,3.75 0 0 1 68,8.5 L75,28.4883 L755.5,28.4883 A2.5,2.5 0 0 1 758,30.9883 L758,425.36 A2.5,2.5 0 0 1 755.5,427.86 L8.5,427.86 A2.5,2.5 0 0 1 6,425.36 L6,8.5 A2.5,2.5 0 0 1 8.5,6 " fill="none" style="stroke:#000000;stroke-width:1.5;"/><line style="stroke:#000000;stroke-width:1.5;" x1="6" x2="75" y1="28.4883" y2="28.4883"/><text fill="#000000" font-family="sans-serif" font-size="14" font-weight="bold" lengthAdjust="spacing" textLength="56" x="10" y="21.5352">&#26045;&#35373;&#24773;&#22577;</text></g><!--class facilities--><g id="elem_facilities"><rect codeLine="3" fill="#F1F1F1" height="97.4648" id="facilities" rx="2.5" ry="2.5" style="stroke:#181818;stroke-width:0.5;" width="224.9189" x="269.54" y="41"/><ellipse cx="349.5444" cy="57" fill="#ADD1B2" rx="11" ry="11" style="stroke:#181818;stroke-width:1.0;"/><path d="M353.1587,63.5 L345.4389,63.5 L345.4389,51.1069 L353.1587,51.1069 L353.1587,53.2651 L347.8877,53.2651 L347.8877,55.938 L352.6606,55.938 L352.6606,58.0962 L347.8877,58.0962 L347.8877,61.3418 L353.1587,61.3418 Z " fill="#000000"/><text fill="#000000" font-family="sans-serif" font-size="14" lengthAdjust="spacing" textLength="56.4102" x="370.0444" y="62.291">facilities</text><line style="stroke:#181818;stroke-width:0.5;" x1="270.54" x2="493.4589" y1="73" y2="73"/><ellipse cx="280.54" cy="86.7441" fill="#000000" rx="3" ry="3" style="stroke:#000000;stroke-width:1.0;"/><text fill="#000000" font-family="sans-serif" font-size="14" lengthAdjust="spacing" textLength="95.5869" x="289.54" y="90.5352">binary id &#171;PK&#187;</text><line style="stroke:#181818;stroke-width:1.0;" x1="270.54" x2="493.4589" y1="97.4883" y2="97.4883"/><text fill="#000000" font-family="sans-serif" font-size="14" lengthAdjust="spacing" textLength="138.1748" x="275.54" y="115.0234">string name "&#26045;&#35373;&#21517;"</text><text fill="#000000" font-family="sans-serif" font-size="14" lengthAdjust="spacing" textLength="212.9189" x="275.54" y="131.5117">binary address_id &#171;FK&#187; "&#20303;&#25152;ID"</text></g><!--class positions--><g id="elem_positions"><rect codeLine="9" fill="#F1F1F1" height="97.4648" id="positions" rx="2.5" ry="2.5" style="stroke:#181818;stroke-width:0.5;" width="216.5039" x="21.75" y="198.46"/><ellipse cx="94.6006" cy="214.46" fill="#ADD1B2" rx="11" ry="11" style="stroke:#181818;stroke-width:1.0;"/><path d="M98.2148,220.96 L90.4951,220.96 L90.4951,208.5669 L98.2148,208.5669 L98.2148,210.7251 L92.9438,210.7251 L92.9438,213.398 L97.7168,213.398 L97.7168,215.5562 L92.9438,215.5562 L92.9438,218.8018 L98.2148,218.8018 Z " fill="#000000"/><text fill="#000000" font-family="sans-serif" font-size="14" lengthAdjust="spacing" textLength="62.3027" x="115.1006" y="219.751">positions</text><line style="stroke:#181818;stroke-width:0.5;" x1="22.75" x2="237.2539" y1="230.46" y2="230.46"/><ellipse cx="32.75" cy="244.2041" fill="#000000" rx="3" ry="3" style="stroke:#000000;stroke-width:1.0;"/><text fill="#000000" font-family="sans-serif" font-size="14" lengthAdjust="spacing" textLength="152.9951" x="41.75" y="247.9952">binary id &#171;PK&#187; "&#24441;&#32887;ID"</text><line style="stroke:#181818;stroke-width:1.0;" x1="22.75" x2="237.2539" y1="254.9483" y2="254.9483"/><text fill="#000000" font-family="sans-serif" font-size="14" lengthAdjust="spacing" textLength="138.1748" x="27.75" y="272.4834">string name "&#24441;&#32887;&#21517;"</text><text fill="#000000" font-family="sans-serif" font-size="14" lengthAdjust="spacing" textLength="204.5039" x="27.75" y="288.9717">binary facility_id &#171;FK&#187; "&#26045;&#35373;ID"</text></g><!--class teams--><g id="elem_teams"><rect codeLine="16" fill="#F1F1F1" height="97.4648" id="teams" rx="2.5" ry="2.5" style="stroke:#181818;stroke-width:0.5;" width="216.5039" x="273.75" y="198.46"/><ellipse cx="357.2646" cy="214.46" fill="#ADD1B2" rx="11" ry="11" style="stroke:#181818;stroke-width:1.0;"/><path d="M360.8789,220.96 L353.1592,220.96 L353.1592,208.5669 L360.8789,208.5669 L360.8789,210.7251 L355.6079,210.7251 L355.6079,213.398 L360.3809,213.398 L360.3809,215.5562 L355.6079,215.5562 L355.6079,218.8018 L360.8789,218.8018 Z " fill="#000000"/><text fill="#000000" font-family="sans-serif" font-size="14" lengthAdjust="spacing" textLength="40.9746" x="377.7646" y="219.751">teams</text><line style="stroke:#181818;stroke-width:0.5;" x1="274.75" x2="489.2539" y1="230.46" y2="230.46"/><ellipse cx="284.75" cy="244.2041" fill="#000000" rx="3" ry="3" style="stroke:#000000;stroke-width:1.0;"/><text fill="#000000" font-family="sans-serif" font-size="14" lengthAdjust="spacing" textLength="95.5869" x="293.75" y="247.9952">binary id &#171;PK&#187;</text><line style="stroke:#181818;stroke-width:1.0;" x1="274.75" x2="489.2539" y1="254.9483" y2="254.9483"/><text fill="#000000" font-family="sans-serif" font-size="14" lengthAdjust="spacing" textLength="152.1748" x="279.75" y="272.4834">string name "&#12481;&#12540;&#12512;&#21517;"</text><text fill="#000000" font-family="sans-serif" font-size="14" lengthAdjust="spacing" textLength="204.5039" x="279.75" y="288.9717">binary facility_id &#171;FK&#187; "&#26045;&#35373;ID"</text></g><g id="elem_GMN6"><path d="M65.78,355.93 L65.78,411.8616 A0,0 0 0 0 65.78,411.8616 L194.2268,411.8616 A0,0 0 0 0 194.2268,411.8616 L194.2268,365.93 L184.2268,355.93 L134,355.93 L130,296.16 L126,355.93 L65.78,355.93 A0,0 0 0 0 65.78,355.93 " fill="#FEFFDD" style="stroke:#181818;stroke-width:0.5;"/><path d="M184.2268,355.93 L184.2268,365.93 L194.2268,365.93 L184.2268,355.93 " fill="#FEFFDD" style="stroke:#181818;stroke-width:0.5;"/><text fill="#000000" font-family="sans-serif" font-size="13" lengthAdjust="spacing" textLength="94.4468" x="71.78" y="373.4984">1: &#12510;&#12493;&#12540;&#12472;&#12515;&#12540;</text><text fill="#000000" font-family="sans-serif" font-size="13" lengthAdjust="spacing" textLength="107.4468" x="71.78" y="388.8089">2: &#12481;&#12540;&#12512;&#12522;&#12540;&#12480;&#12540;</text><text fill="#000000" font-family="sans-serif" font-size="13" lengthAdjust="spacing" textLength="68.4468" x="71.78" y="404.1195">2: &#12513;&#12531;&#12496;&#12540;</text></g><!--class departments--><g id="elem_departments"><rect codeLine="29" fill="#F1F1F1" height="97.4648" id="departments" rx="2.5" ry="2.5" style="stroke:#181818;stroke-width:0.5;" width="216.5039" x="525.75" y="198.46"/><ellipse cx="586.7266" cy="214.46" fill="#ADD1B2" rx="11" ry="11" style="stroke:#181818;stroke-width:1.0;"/><path d="M590.3408,220.96 L582.6211,220.96 L582.6211,208.5669 L590.3408,208.5669 L590.3408,210.7251 L585.0698,210.7251 L585.0698,213.398 L589.8428,213.398 L589.8428,215.5562 L585.0698,215.5562 L585.0698,218.8018 L590.3408,218.8018 Z " fill="#000000"/><text fill="#000000" font-family="sans-serif" font-size="14" lengthAdjust="spacing" textLength="86.0508" x="607.2266" y="219.751">departments</text><line style="stroke:#181818;stroke-width:0.5;" x1="526.75" x2="741.2539" y1="230.46" y2="230.46"/><ellipse cx="536.75" cy="244.2041" fill="#000000" rx="3" ry="3" style="stroke:#000000;stroke-width:1.0;"/><text fill="#000000" font-family="sans-serif" font-size="14" lengthAdjust="spacing" textLength="95.5869" x="545.75" y="247.9952">binary id &#171;PK&#187;</text><line style="stroke:#181818;stroke-width:1.0;" x1="526.75" x2="741.2539" y1="254.9483" y2="254.9483"/><text fill="#000000" font-family="sans-serif" font-size="14" lengthAdjust="spacing" textLength="138.1748" x="531.75" y="272.4834">string name "&#37096;&#32626;&#21517;"</text><text fill="#000000" font-family="sans-serif" font-size="14" lengthAdjust="spacing" textLength="204.5039" x="531.75" y="288.9717">binary facility_id &#171;FK&#187; "&#26045;&#35373;ID"</text></g><g id="elem_GMN10"><path d="M582.78,363.58 L582.78,404.2011 A0,0 0 0 0 582.78,404.2011 L685.2268,404.2011 A0,0 0 0 0 685.2268,404.2011 L685.2268,373.58 L675.2268,363.58 L638,363.58 L634,296.16 L630,363.58 L582.78,363.58 A0,0 0 0 0 582.78,363.58 " fill="#FEFFDD" style="stroke:#181818;stroke-width:0.5;"/><path d="M675.2268,363.58 L675.2268,373.58 L685.2268,373.58 L675.2268,363.58 " fill="#FEFFDD" style="stroke:#181818;stroke-width:0.5;"/><text fill="#000000" font-family="sans-serif" font-size="13" lengthAdjust="spacing" textLength="55.4468" x="588.78" y="381.1484">1: &#30475;&#35703;&#37096;</text><text fill="#000000" font-family="sans-serif" font-size="13" lengthAdjust="spacing" textLength="81.4468" x="588.78" y="396.4589">2: &#12522;&#12495;&#12499;&#12522;&#37096;</text></g><!--link facilities to positions--><g id="link_facilities_positions"><path codeLine="40" d="M261.27,89.73 C194.17,89.73 130,89.73 130,89.73 C130,89.73 130,144.01 130,190.24 " fill="none" id="facilities-positions" style="stroke:#181818;stroke-width:1.0;"/><line style="stroke:#181818;stroke-width:1.0;" x1="265.27" x2="265.27" y1="85.73" y2="93.73"/><line style="stroke:#181818;stroke-width:1.0;" x1="262.27" x2="262.27" y1="85.73" y2="93.73"/><line style="stroke:#181818;stroke-width:1.0;" x1="261.27" x2="269.27" y1="89.73" y2="89.73"/><line style="stroke:#181818;stroke-width:1.0;" x1="134" x2="126" y1="194.24" y2="194.24"/><line style="stroke:#181818;stroke-width:1.0;" x1="134" x2="126" y1="191.24" y2="191.24"/><line style="stroke:#181818;stroke-width:1.0;" x1="130" x2="130" y1="190.24" y2="198.24"/></g><!--link facilities to teams--><g id="link_facilities_teams"><path codeLine="41" d="M382,146.69 C382,165.56 382,171.1 382,190 " fill="none" id="facilities-teams" style="stroke:#181818;stroke-width:1.0;"/><line style="stroke:#181818;stroke-width:1.0;" x1="378" x2="386" y1="142.69" y2="142.69"/><line style="stroke:#181818;stroke-width:1.0;" x1="378" x2="386" y1="145.69" y2="145.69"/><line style="stroke:#181818;stroke-width:1.0;" x1="382" x2="382" y1="146.69" y2="138.69"/><line style="stroke:#181818;stroke-width:1.0;" x1="386" x2="378" y1="194" y2="194"/><line style="stroke:#181818;stroke-width:1.0;" x1="386" x2="378" y1="191" y2="191"/><line style="stroke:#181818;stroke-width:1.0;" x1="382" x2="382" y1="190" y2="198"/></g><!--link facilities to departments--><g id="link_facilities_departments"><path codeLine="42" d="M502.73,89.73 C569.83,89.73 634,89.73 634,89.73 C634,89.73 634,144.01 634,190.24 " fill="none" id="facilities-departments" style="stroke:#181818;stroke-width:1.0;"/><line style="stroke:#181818;stroke-width:1.0;" x1="498.73" x2="498.73" y1="93.73" y2="85.73"/><line style="stroke:#181818;stroke-width:1.0;" x1="501.73" x2="501.73" y1="93.73" y2="85.73"/><line style="stroke:#181818;stroke-width:1.0;" x1="502.73" x2="494.73" y1="89.73" y2="89.73"/><line style="stroke:#181818;stroke-width:1.0;" x1="638" x2="630" y1="194.24" y2="194.24"/><line style="stroke:#181818;stroke-width:1.0;" x1="638" x2="630" y1="191.24" y2="191.24"/><line style="stroke:#181818;stroke-width:1.0;" x1="634" x2="634" y1="190.24" y2="198.24"/></g><!--SRC=[hP91IyCm68Rl-nKVFGezw576JYA85_-1P6ismzQajBaKAsm63o9Z0y6JoCJB47PG3rEmloQsg__2DEbif_CoFFNhz-RB-pv9WYwX7lAH2pr2CGyz3Cpd9wpceLONTJ2aDt4sdQNY8faymMaD05DEU0Xjr28zmWaET1TW2vg48Zy4ua2zVdJOQEYsRUjFm7r2Eq2HYy4oUoRZeQMrOWuvZe-3u5ZFxwjvi3xYKNhPFzZBrvsLtXuBb3EZVrk3bSHlsM1kHjUdC2j-fYYumceCatSPeyp1CN8tm9TY8CMx59EDl2dZ69gCS-O2QvTdeJVQtWKfxgGOvWRdhr8yg48hExbI-4hng8l-YdWlnOiKOzF3rD5E5Le7guV2NVMt0VEdc2xYv_y0hiHO8YzkhxBPN5cKC0fm9CMrAapxcmUgBpUAR3kALixmjwflUQrIZQAYVW40]--></g></svg>