<svg xmlns="http://www.w3.org/2000/svg" xmlns:xlink="http://www.w3.org/1999/xlink" contentStyleType="text/css" height="508px" preserveAspectRatio="none" style="width:847px;height:508px;background:#FFFFFF;" version="1.1" viewBox="0 0 847 508" width="847px" zoomAndPan="magnify"><defs/><g><!--cluster ?????--><g id="cluster_&#32076;&#21942;&#12487;&#12540;&#12479;"><path d="M8.5,6 L79.4997,6 A3.75,3.75 0 0 1 81.9997,8.5 L88.9997,28.2969 L691.5,28.2969 A2.5,2.5 0 0 1 694,30.7969 L694,498.5 A2.5,2.5 0 0 1 691.5,501 L8.5,501 A2.5,2.5 0 0 1 6,498.5 L6,8.5 A2.5,2.5 0 0 1 8.5,6 " fill="none" style="stroke:#000000;stroke-width:1.5;"/><line style="stroke:#000000;stroke-width:1.5;" x1="6" x2="88.9997" y1="28.2969" y2="28.2969"/><text fill="#000000" font-family="sans-serif" font-size="14" font-weight="bold" lengthAdjust="spacing" textLength="69.9997" x="10" y="20.9951">&#32076;&#21942;&#12487;&#12540;&#12479;</text></g><!--cluster ????--><g id="cluster_&#26045;&#35373;&#24773;&#22577;"><path d="M720.5,385.5 L777.4998,385.5 A3.75,3.75 0 0 1 779.9998,388 L786.9998,407.7969 L837.5,407.7969 A2.5,2.5 0 0 1 840,410.2969 L840,482 A2.5,2.5 0 0 1 837.5,484.5 L720.5,484.5 A2.5,2.5 0 0 1 718,482 L718,388 A2.5,2.5 0 0 1 720.5,385.5 " fill="none" style="stroke:#000000;stroke-width:1.5;"/><line style="stroke:#000000;stroke-width:1.5;" x1="718" x2="786.9998" y1="407.7969" y2="407.7969"/><text fill="#000000" font-family="sans-serif" font-size="14" font-weight="bold" lengthAdjust="spacing" textLength="55.9998" x="722" y="400.4951">&#26045;&#35373;&#24773;&#22577;</text></g><!--class labor_management_item_names--><g id="elem_labor_management_item_names"><rect codeLine="4" fill="#F1F1F1" height="80.5938" id="labor_management_item_names" rx="2.5" ry="2.5" style="stroke:#181818;stroke-width:0.5;" width="261.0859" x="22.5" y="404"/><ellipse cx="37.5" cy="420" fill="#ADD1B2" rx="11" ry="11" style="stroke:#181818;stroke-width:1;"/><path d="M41.6094,426 L33.8906,426 L33.8906,413.6094 L41.6094,413.6094 L41.6094,415.7656 L36.3438,415.7656 L36.3438,418.4375 L41.1094,418.4375 L41.1094,420.5938 L36.3438,420.5938 L36.3438,423.8438 L41.6094,423.8438 L41.6094,426 Z " fill="#000000"/><text fill="#000000" font-family="sans-serif" font-size="14" lengthAdjust="spacing" textLength="229.0859" x="51.5" y="424.8467">labor_management_item_names</text><line style="stroke:#181818;stroke-width:0.5;" x1="23.5" x2="282.5859" y1="436" y2="436"/><ellipse cx="33.5" cy="449.6484" fill="#000000" rx="3" ry="3" style="stroke:#000000;stroke-width:1;"/><text fill="#000000" font-family="sans-serif" font-size="14" lengthAdjust="spacing" textLength="81.9697" x="42.5" y="452.9951">ulid id &#171;PK&#187;</text><line style="stroke:#181818;stroke-width:1;" x1="23.5" x2="282.5859" y1="460.2969" y2="460.2969"/><text fill="#000000" font-family="sans-serif" font-size="14" lengthAdjust="spacing" textLength="213.6704" x="28.5" y="477.292">string name "&#32076;&#21942;&#25968;&#20516;&#12398;&#38917;&#30446;&#21517;"</text></g><!--class labor_management_items--><g id="elem_labor_management_items"><rect codeLine="10" fill="#F1F1F1" height="145.7813" id="labor_management_items" rx="2.5" ry="2.5" style="stroke:#181818;stroke-width:0.5;" width="466.6099" x="210.5" y="198"/><ellipse cx="348.3635" cy="214" fill="#ADD1B2" rx="11" ry="11" style="stroke:#181818;stroke-width:1;"/><path d="M352.4729,220 L344.7542,220 L344.7542,207.6094 L352.4729,207.6094 L352.4729,209.7656 L347.2073,209.7656 L347.2073,212.4375 L351.9729,212.4375 L351.9729,214.5938 L347.2073,214.5938 L347.2073,217.8438 L352.4729,217.8438 L352.4729,220 Z " fill="#000000"/><text fill="#000000" font-family="sans-serif" font-size="14" lengthAdjust="spacing" textLength="182.3828" x="368.8635" y="218.8467">labor_management_items</text><line style="stroke:#181818;stroke-width:0.5;" x1="211.5" x2="676.1099" y1="230" y2="230"/><ellipse cx="221.5" cy="243.6484" fill="#000000" rx="3" ry="3" style="stroke:#000000;stroke-width:1;"/><text fill="#000000" font-family="sans-serif" font-size="14" lengthAdjust="spacing" textLength="81.9697" x="230.5" y="246.9951">ulid id &#171;PK&#187;</text><line style="stroke:#181818;stroke-width:1;" x1="211.5" x2="676.1099" y1="254.2969" y2="254.2969"/><text fill="#000000" font-family="sans-serif" font-size="14" lengthAdjust="spacing" textLength="195.4667" x="216.5" y="271.292">ulid facility_id &#171;FK&#187; "&#26045;&#35373;ID"</text><text fill="#000000" font-family="sans-serif" font-size="14" lengthAdjust="spacing" textLength="419.8902" x="216.5" y="287.5889">ulid monthly_labor_management_id &#171;FK&#187; "&#26376;&#27425;&#32076;&#21942;&#12487;&#12540;&#12479;ID"</text><text fill="#000000" font-family="sans-serif" font-size="14" lengthAdjust="spacing" textLength="454.6099" x="216.5" y="303.8857">ulid labor_management_item_name_id &#171;FK&#187; "&#32076;&#21942;&#25968;&#20516;&#12398;&#38917;&#30446;&#21517;ID"</text><text fill="#000000" font-family="sans-serif" font-size="14" lengthAdjust="spacing" textLength="113.5652" x="216.5" y="320.1826">int data "&#12487;&#12540;&#12479;"</text><text fill="#000000" font-family="sans-serif" font-size="14" lengthAdjust="spacing" textLength="4.4502" x="216.5" y="336.4795">&#160;</text></g><g id="elem_GMN5"><path d="M318.5,432 L318.5,457.1328 A0,0 0 0 0 318.5,457.1328 L677.5003,457.1328 A0,0 0 0 0 677.5003,457.1328 L677.5003,442 L667.5003,432 L502,432 L498,344.08 L494,432 L318.5,432 A0,0 0 0 0 318.5,432 " fill="#FEFFDD" style="stroke:#181818;stroke-width:0.5;"/><path d="M667.5003,432 L667.5003,442 L677.5003,442 L667.5003,432 " fill="#FEFFDD" style="stroke:#181818;stroke-width:0.5;"/><text fill="#000000" font-family="sans-serif" font-size="13" lengthAdjust="spacing" textLength="338.0003" x="324.5" y="449.0669">&#31639;&#20986;&#12399;&#12469;&#12540;&#12496;&#12540;&#12391;&#34892;&#12356;&#12289;&#35336;&#31639;&#12373;&#12428;&#12383;&#12487;&#12540;&#12479;&#12398;&#12415;&#12434;&#20445;&#23384;&#12377;&#12427;</text></g><!--class manthry_labor_managements--><g id="elem_manthry_labor_managements"><rect codeLine="24" fill="#F1F1F1" height="96.8906" id="manthry_labor_managements" rx="2.5" ry="2.5" style="stroke:#181818;stroke-width:0.5;" width="242.2461" x="379" y="41"/><ellipse cx="394" cy="57" fill="#ADD1B2" rx="11" ry="11" style="stroke:#181818;stroke-width:1;"/><path d="M398.1094,63 L390.3906,63 L390.3906,50.6094 L398.1094,50.6094 L398.1094,52.7656 L392.8438,52.7656 L392.8438,55.4375 L397.6094,55.4375 L397.6094,57.5938 L392.8438,57.5938 L392.8438,60.8438 L398.1094,60.8438 L398.1094,63 Z " fill="#000000"/><text fill="#000000" font-family="sans-serif" font-size="14" lengthAdjust="spacing" textLength="210.2461" x="408" y="61.8467">manthry_labor_managements</text><line style="stroke:#181818;stroke-width:0.5;" x1="380" x2="620.2461" y1="73" y2="73"/><ellipse cx="390" cy="86.6484" fill="#000000" rx="3" ry="3" style="stroke:#000000;stroke-width:1;"/><text fill="#000000" font-family="sans-serif" font-size="14" lengthAdjust="spacing" textLength="81.9697" x="399" y="89.9951">ulid id &#171;PK&#187;</text><line style="stroke:#181818;stroke-width:1;" x1="380" x2="620.2461" y1="97.2969" y2="97.2969"/><text fill="#000000" font-family="sans-serif" font-size="14" lengthAdjust="spacing" textLength="195.4667" x="385" y="114.292">ulid facility_id &#171;FK&#187; "&#26045;&#35373;ID"</text><text fill="#000000" font-family="sans-serif" font-size="14" lengthAdjust="spacing" textLength="112.7861" x="385" y="130.5889">date month "&#26376;"</text></g><!--class facilities--><g id="elem_facilities"><rect codeLine="33" fill="#F1F1F1" height="48" id="facilities" rx="2.5" ry="2.5" style="stroke:#181818;stroke-width:0.5;" width="90.1602" x="734" y="420.5"/><ellipse cx="749" cy="436.5" fill="#ADD1B2" rx="11" ry="11" style="stroke:#181818;stroke-width:1;"/><path d="M753.1094,442.5 L745.3906,442.5 L745.3906,430.1094 L753.1094,430.1094 L753.1094,432.2656 L747.8438,432.2656 L747.8438,434.9375 L752.6094,434.9375 L752.6094,437.0938 L747.8438,437.0938 L747.8438,440.3438 L753.1094,440.3438 L753.1094,442.5 Z " fill="#000000"/><text fill="#000000" font-family="sans-serif" font-size="14" lengthAdjust="spacing" textLength="58.1602" x="763" y="441.3467">facilities</text><line style="stroke:#181818;stroke-width:0.5;" x1="735" x2="823.1602" y1="452.5" y2="452.5"/><line style="stroke:#181818;stroke-width:0.5;" x1="735" x2="823.1602" y1="460.5" y2="460.5"/></g><!--link manthry_labor_managements to labor_management_items--><g id="link_manthry_labor_managements_labor_management_items"><path codeLine="38" d="M500,146.14 C500,164.51 500,159.85 500,179.98 " fill="none" id="manthry_labor_managements-labor_management_items" style="stroke:#181818;stroke-width:1;"/><line style="stroke:#181818;stroke-width:1;" x1="496" x2="504" y1="142.14" y2="142.14"/><line style="stroke:#181818;stroke-width:1;" x1="496" x2="504" y1="145.14" y2="145.14"/><line style="stroke:#181818;stroke-width:1;" x1="500" x2="500" y1="146.14" y2="138.14"/><line style="stroke:#181818;stroke-width:1;" x1="500" x2="506" y1="189.98" y2="197.98"/><line style="stroke:#181818;stroke-width:1;" x1="500" x2="494" y1="189.98" y2="197.98"/><line style="stroke:#181818;stroke-width:1;" x1="500" x2="500" y1="189.98" y2="197.98"/><ellipse cx="500" cy="183.98" fill="none" rx="4" ry="4" style="stroke:#181818;stroke-width:1;"/></g><!--link manthry_labor_managements to facilities--><g id="link_manthry_labor_managements_facilities"><path codeLine="39" d="M629.28,90 C710.26,90 794,90 794,90 C794,90 794,332.62 794,412.41 " fill="none" id="manthry_labor_managements-facilities" style="stroke:#181818;stroke-width:1;"/><line style="stroke:#181818;stroke-width:1;" x1="625.28" x2="625.28" y1="94" y2="86"/><line style="stroke:#181818;stroke-width:1;" x1="628.28" x2="628.28" y1="94" y2="86"/><line style="stroke:#181818;stroke-width:1;" x1="629.28" x2="621.28" y1="90" y2="90"/><line style="stroke:#181818;stroke-width:1;" x1="798" x2="790" y1="416.41" y2="416.41"/><line style="stroke:#181818;stroke-width:1;" x1="798" x2="790" y1="413.41" y2="413.41"/><line style="stroke:#181818;stroke-width:1;" x1="794" x2="794" y1="412.41" y2="420.41"/></g><!--link labor_management_items to labor_management_item_names--><g id="link_labor_management_items_labor_management_item_names"><path codeLine="40" d="M247,362.08 C247,382.45 247,377.86 247,395.65 " fill="none" id="labor_management_items-labor_management_item_names" style="stroke:#181818;stroke-width:1;"/><line style="stroke:#181818;stroke-width:1;" x1="247" x2="241" y1="352.08" y2="344.08"/><line style="stroke:#181818;stroke-width:1;" x1="247" x2="253" y1="352.08" y2="344.08"/><line style="stroke:#181818;stroke-width:1;" x1="247" x2="247" y1="352.08" y2="344.08"/><ellipse cx="247" cy="358.08" fill="none" rx="4" ry="4" style="stroke:#181818;stroke-width:1;"/><line style="stroke:#181818;stroke-width:1;" x1="251" x2="243" y1="399.65" y2="399.65"/><line style="stroke:#181818;stroke-width:1;" x1="251" x2="243" y1="396.65" y2="396.65"/><line style="stroke:#181818;stroke-width:1;" x1="247" x2="247" y1="395.65" y2="403.65"/></g><!--link labor_management_items to facilities--><g id="link_labor_management_items_facilities"><path codeLine="41" d="M685.82,271 C734.83,271 764,271 764,271 C764,271 764,364.7 764,412.38 " fill="none" id="labor_management_items-facilities" style="stroke:#181818;stroke-width:1;"/><line style="stroke:#181818;stroke-width:1;" x1="681.82" x2="681.82" y1="275" y2="267"/><line style="stroke:#181818;stroke-width:1;" x1="684.82" x2="684.82" y1="275" y2="267"/><line style="stroke:#181818;stroke-width:1;" x1="685.82" x2="677.82" y1="271" y2="271"/><line style="stroke:#181818;stroke-width:1;" x1="768" x2="760" y1="416.38" y2="416.38"/><line style="stroke:#181818;stroke-width:1;" x1="768" x2="760" y1="413.38" y2="413.38"/><line style="stroke:#181818;stroke-width:1;" x1="764" x2="764" y1="412.38" y2="420.38"/></g><!--SRC=[hPDVIy9G6CRlzobUTXdi6uXN4KGtVODnrAa7jtDadYv41RSb2Xb8e1KLAGHvaLONTX657-OqjM_HySm_Avbr4OmDtltUvpbxtdU572PvP2CBJ4mCLimRG6sMfOgIHyaSoXWm7JNzpWltwjnxu-uOIWg0GHXcHJ1HWjgwXOZWB57JCJCidI3BA4WCO0UEJ9m2SSLYXmVnk2ngcdmKc8r91kOug87BfFtaL- -uC_pirgPNGxzrgWgqelnY-HSt-IQDajWKChf4zWG2wgJpFkiFzdVLDMPHmh9cKTyq2xLTDoOFlH_XV5E9JYUi4_NXIobC6AGGGw2kN5Hb6GgXp804POnQGDCHuGXkEZptww_SUUJkQAxXjUPtvtxMQtBdc5UTMRyX6EwqkIigjoihSIBkZBbxzZ6-yGSNtBdaxecSHagQXoOZR5dMtWpj7uSZSZ22uSZyWzseh5Sre2TUpUy-X_TqeOmNQobxbEZpbikQHajHQMxlAvT3Rah4jbQe1BVyFb6TcnPV]--></g></svg>