<?xml version="1.0" encoding="UTF-8" standalone="no"?><svg xmlns="http://www.w3.org/2000/svg" xmlns:xlink="http://www.w3.org/1999/xlink" contentScriptType="application/ecmascript" contentStyleType="text/css" height="492px" preserveAspectRatio="none" style="width:845px;height:492px;" version="1.1" viewBox="0 0 845 492" width="845px" zoomAndPan="magnify"><defs><filter height="300%" id="f1n43isifydl9s" width="300%" x="-1" y="-1"><feGaussianBlur result="blurOut" stdDeviation="2.0"/><feColorMatrix in="blurOut" result="blurOut2" type="matrix" values="0 0 0 0 0 0 0 0 0 0 0 0 0 0 0 0 0 0 .4 0"/><feOffset dx="4.0" dy="4.0" in="blurOut2" result="blurOut3"/><feBlend in="SourceGraphic" in2="blurOut3" mode="normal"/></filter></defs><g><!--MD5=[99ea8e9b35d8532954e1d791d0ed7561]
cluster 経営データ--><polygon fill="#FFFFFF" filter="url(#f1n43isifydl9s)" points="22,24,98,24,105,46.2969,683,46.2969,683,480,22,480,22,24" style="stroke: #000000; stroke-width: 1.5;"/><line style="stroke: #000000; stroke-width: 1.5;" x1="22" x2="105" y1="46.2969" y2="46.2969"/><text fill="#000000" font-family="sans-serif" font-size="14" font-weight="bold" lengthAdjust="spacingAndGlyphs" textLength="70" x="26" y="38.9951">経営データ</text><!--MD5=[eace04a6a715c010434b3f14fc7f454a]
cluster 施設情報--><polygon fill="#FFFFFF" filter="url(#f1n43isifydl9s)" points="707,368,769,368,776,390.2969,823,390.2969,823,467,707,467,707,368" style="stroke: #000000; stroke-width: 1.5;"/><line style="stroke: #000000; stroke-width: 1.5;" x1="707" x2="776" y1="390.2969" y2="390.2969"/><text fill="#000000" font-family="sans-serif" font-size="14" font-weight="bold" lengthAdjust="spacingAndGlyphs" textLength="56" x="711" y="382.9951">施設情報</text><!--MD5=[215d8fd2e13580ab3e19cb9a9ec26cf7]
class labor_management_item_names--><rect fill="#FEFECE" filter="url(#f1n43isifydl9s)" height="73.6094" id="labor_management_item_names" style="stroke: #A80036; stroke-width: 1.5;" width="234" x="38" y="390"/><ellipse cx="53" cy="406" fill="#ADD1B2" rx="11" ry="11" style="stroke: #A80036; stroke-width: 1.0;"/><path d="M57.1094,412 L49.3906,412 L49.3906,399.6094 L57.1094,399.6094 L57.1094,401.7656 L51.8438,401.7656 L51.8438,404.4375 L56.6094,404.4375 L56.6094,406.5938 L51.8438,406.5938 L51.8438,409.8438 L57.1094,409.8438 L57.1094,412 Z "/><text fill="#000000" font-family="sans-serif" font-size="12" lengthAdjust="spacingAndGlyphs" textLength="202" x="67" y="410.1543">labor_management_item_names</text><line style="stroke: #A80036; stroke-width: 1.5;" x1="39" x2="271" y1="422" y2="422"/><ellipse cx="49" cy="433" fill="#000000" rx="3" ry="3" style="stroke: #000000; stroke-width: 1.0;"/><text fill="#000000" font-family="sans-serif" font-size="11" lengthAdjust="spacingAndGlyphs" textLength="66" x="58" y="436.2104">ulid id «PK»</text><line style="stroke: #A80036; stroke-width: 1.0;" x1="39" x2="271" y1="442.8047" y2="442.8047"/><text fill="#000000" font-family="sans-serif" font-size="11" lengthAdjust="spacingAndGlyphs" textLength="171" x="44" y="457.0151">string name "経営数値の項目名"</text><!--MD5=[b3f971dd0969b6794ac71d2f5710bb3b]
class labor_management_items--><rect fill="#FEFECE" filter="url(#f1n43isifydl9s)" height="124.8281" id="labor_management_items" style="stroke: #A80036; stroke-width: 1.5;" width="375" x="291.5" y="205"/><ellipse cx="394.25" cy="221" fill="#ADD1B2" rx="11" ry="11" style="stroke: #A80036; stroke-width: 1.0;"/><path d="M398.3594,227 L390.6406,227 L390.6406,214.6094 L398.3594,214.6094 L398.3594,216.7656 L393.0938,216.7656 L393.0938,219.4375 L397.8594,219.4375 L397.8594,221.5938 L393.0938,221.5938 L393.0938,224.8438 L398.3594,224.8438 L398.3594,227 Z "/><text fill="#000000" font-family="sans-serif" font-size="12" lengthAdjust="spacingAndGlyphs" textLength="161" x="414.75" y="225.1543">labor_management_items</text><line style="stroke: #A80036; stroke-width: 1.5;" x1="292.5" x2="665.5" y1="237" y2="237"/><ellipse cx="302.5" cy="248" fill="#000000" rx="3" ry="3" style="stroke: #000000; stroke-width: 1.0;"/><text fill="#000000" font-family="sans-serif" font-size="11" lengthAdjust="spacingAndGlyphs" textLength="66" x="311.5" y="251.2104">ulid id «PK»</text><line style="stroke: #A80036; stroke-width: 1.0;" x1="292.5" x2="665.5" y1="257.8047" y2="257.8047"/><text fill="#000000" font-family="sans-serif" font-size="11" lengthAdjust="spacingAndGlyphs" textLength="154" x="297.5" y="272.0151">ulid facility_id «FK» "施設ID"</text><text fill="#000000" font-family="sans-serif" font-size="11" lengthAdjust="spacingAndGlyphs" textLength="334" x="297.5" y="284.8198">ulid monthly_labor_management_id «FK» "月次経営データID"</text><text fill="#000000" font-family="sans-serif" font-size="11" lengthAdjust="spacingAndGlyphs" textLength="363" x="297.5" y="297.6245">ulid labor_management_item_name_id «FK» "経営数値の項目名ID"</text><text fill="#000000" font-family="sans-serif" font-size="11" lengthAdjust="spacingAndGlyphs" textLength="90" x="297.5" y="310.4292">int data "データ"</text><text fill="#000000" font-family="sans-serif" font-size="11" lengthAdjust="spacingAndGlyphs" textLength="0" x="301.5" y="323.2339"/><path d="M307.5,414.5 L307.5,439.6328 A0,0 0 0 0 307.5,439.6328 L666.5,439.6328 A0,0 0 0 0 666.5,439.6328 L666.5,424.5 L656.5,414.5 L491,414.5 L487,330.08 L483,414.5 L307.5,414.5 A0,0 0 0 0 307.5,414.5 " fill="#FBFB77" filter="url(#f1n43isifydl9s)" style="stroke: #A80036; stroke-width: 1.0;"/><path d="M656.5,414.5 L656.5,424.5 L666.5,424.5 L656.5,414.5 " fill="#FBFB77" style="stroke: #A80036; stroke-width: 1.0;"/><text fill="#000000" font-family="sans-serif" font-size="13" lengthAdjust="spacingAndGlyphs" textLength="338" x="313.5" y="431.5669">算出はサーバーで行い、計算されたデータのみを保存する</text><!--MD5=[255092d6ec5a9d07ab66d39bec768e35]
class manthry_labor_managements--><rect fill="#FEFECE" filter="url(#f1n43isifydl9s)" height="86.4141" id="manthry_labor_managements" style="stroke: #A80036; stroke-width: 1.5;" width="217" x="409.5" y="59"/><ellipse cx="424.5" cy="75" fill="#ADD1B2" rx="11" ry="11" style="stroke: #A80036; stroke-width: 1.0;"/><path d="M428.6094,81 L420.8906,81 L420.8906,68.6094 L428.6094,68.6094 L428.6094,70.7656 L423.3438,70.7656 L423.3438,73.4375 L428.1094,73.4375 L428.1094,75.5938 L423.3438,75.5938 L423.3438,78.8438 L428.6094,78.8438 L428.6094,81 Z "/><text fill="#000000" font-family="sans-serif" font-size="12" lengthAdjust="spacingAndGlyphs" textLength="185" x="438.5" y="79.1543">manthry_labor_managements</text><line style="stroke: #A80036; stroke-width: 1.5;" x1="410.5" x2="625.5" y1="91" y2="91"/><ellipse cx="420.5" cy="102" fill="#000000" rx="3" ry="3" style="stroke: #000000; stroke-width: 1.0;"/><text fill="#000000" font-family="sans-serif" font-size="11" lengthAdjust="spacingAndGlyphs" textLength="66" x="429.5" y="105.2104">ulid id «PK»</text><line style="stroke: #A80036; stroke-width: 1.0;" x1="410.5" x2="625.5" y1="111.8047" y2="111.8047"/><text fill="#000000" font-family="sans-serif" font-size="11" lengthAdjust="spacingAndGlyphs" textLength="154" x="415.5" y="126.0151">ulid facility_id «FK» "施設ID"</text><text fill="#000000" font-family="sans-serif" font-size="11" lengthAdjust="spacingAndGlyphs" textLength="90" x="415.5" y="138.8198">date month "月"</text><!--MD5=[906b6f3cbaecf3ca9cf95c95e4e1b597]
class facilities--><rect fill="#FEFECE" filter="url(#f1n43isifydl9s)" height="48" id="facilities" style="stroke: #A80036; stroke-width: 1.5;" width="83" x="723.5" y="403"/><ellipse cx="738.5" cy="419" fill="#ADD1B2" rx="11" ry="11" style="stroke: #A80036; stroke-width: 1.0;"/><path d="M742.6094,425 L734.8906,425 L734.8906,412.6094 L742.6094,412.6094 L742.6094,414.7656 L737.3438,414.7656 L737.3438,417.4375 L742.1094,417.4375 L742.1094,419.5938 L737.3438,419.5938 L737.3438,422.8438 L742.6094,422.8438 L742.6094,425 Z "/><text fill="#000000" font-family="sans-serif" font-size="12" lengthAdjust="spacingAndGlyphs" textLength="51" x="752.5" y="423.1543">facilities</text><line style="stroke: #A80036; stroke-width: 1.5;" x1="724.5" x2="805.5" y1="435" y2="435"/><line style="stroke: #A80036; stroke-width: 1.5;" x1="724.5" x2="805.5" y1="443" y2="443"/><!--MD5=[4537bfc987a93aa741d05391f7939a39]
link manthry_labor_managements to labor_management_items--><path d="M518,153.05 C518,153.05 518,196.72 518,196.72 " fill="none" id="manthry_labor_managements-labor_management_items" style="stroke: #A80036; stroke-width: 1.0;"/><line style="stroke: #A80036; stroke-width: 1.0;" x1="518" x2="524" y1="196.72" y2="204.72"/><line style="stroke: #A80036; stroke-width: 1.0;" x1="518" x2="512" y1="196.72" y2="204.72"/><line style="stroke: #A80036; stroke-width: 1.0;" x1="518" x2="518" y1="196.72" y2="204.72"/><ellipse cx="518" cy="190.72" fill="none" rx="4" ry="4" style="stroke: #A80036; stroke-width: 1.0;"/><line style="stroke: #A80036; stroke-width: 1.0;" x1="514" x2="522" y1="149.05" y2="149.05"/><line style="stroke: #A80036; stroke-width: 1.0;" x1="514" x2="522" y1="152.05" y2="152.05"/><line style="stroke: #A80036; stroke-width: 1.0;" x1="518" x2="518" y1="153.05" y2="145.05"/><!--MD5=[9f5f2f43e217666ed2a41ff8415a57ae]
link manthry_labor_managements to facilities--><path d="M633.73,102 C633.73,102 778.83,102 778.83,102 C778.83,102 778.83,395.84 778.83,395.84 " fill="none" id="manthry_labor_managements-facilities" style="stroke: #A80036; stroke-width: 1.0;"/><line style="stroke: #A80036; stroke-width: 1.0;" x1="782.83" x2="774.83" y1="398.84" y2="398.84"/><line style="stroke: #A80036; stroke-width: 1.0;" x1="782.83" x2="774.83" y1="395.84" y2="395.84"/><line style="stroke: #A80036; stroke-width: 1.0;" x1="778.83" x2="778.83" y1="394.84" y2="402.84"/><line style="stroke: #A80036; stroke-width: 1.0;" x1="630.73" x2="630.73" y1="106" y2="98"/><line style="stroke: #A80036; stroke-width: 1.0;" x1="633.73" x2="633.73" y1="106" y2="98"/><line style="stroke: #A80036; stroke-width: 1.0;" x1="634.73" x2="626.73" y1="102" y2="102"/><!--MD5=[c59bf798f68234d85cfd3e991f528a2f]
link labor_management_items to labor_management_item_names--><path d="M299.5,338.35 C299.5,338.35 299.5,397 299.5,397 C299.5,397 280.32,397 280.32,397 " fill="none" id="labor_management_items-labor_management_item_names" style="stroke: #A80036; stroke-width: 1.0;"/><line style="stroke: #A80036; stroke-width: 1.0;" x1="276.32" x2="276.32" y1="401" y2="393"/><line style="stroke: #A80036; stroke-width: 1.0;" x1="279.32" x2="279.32" y1="401" y2="393"/><line style="stroke: #A80036; stroke-width: 1.0;" x1="280.32" x2="272.32" y1="397" y2="397"/><line style="stroke: #A80036; stroke-width: 1.0;" x1="299.5" x2="293.5" y1="338.35" y2="330.35"/><line style="stroke: #A80036; stroke-width: 1.0;" x1="299.5" x2="305.5" y1="338.35" y2="330.35"/><line style="stroke: #A80036; stroke-width: 1.0;" x1="299.5" x2="299.5" y1="338.35" y2="330.35"/><ellipse cx="299.5" cy="344.35" fill="none" rx="4" ry="4" style="stroke: #A80036; stroke-width: 1.0;"/><!--MD5=[b7350ec08d8ddb4f99f4e80ab40fe1af]
link labor_management_items to facilities--><path d="M673.54,268 C673.54,268 751.17,268 751.17,268 C751.17,268 751.17,395.85 751.17,395.85 " fill="none" id="labor_management_items-facilities" style="stroke: #A80036; stroke-width: 1.0;"/><line style="stroke: #A80036; stroke-width: 1.0;" x1="755.17" x2="747.17" y1="398.85" y2="398.85"/><line style="stroke: #A80036; stroke-width: 1.0;" x1="755.17" x2="747.17" y1="395.85" y2="395.85"/><line style="stroke: #A80036; stroke-width: 1.0;" x1="751.17" x2="751.17" y1="394.85" y2="402.85"/><line style="stroke: #A80036; stroke-width: 1.0;" x1="670.54" x2="670.54" y1="272" y2="264"/><line style="stroke: #A80036; stroke-width: 1.0;" x1="673.54" x2="673.54" y1="272" y2="264"/><line style="stroke: #A80036; stroke-width: 1.0;" x1="674.54" x2="666.54" y1="268" y2="268"/><!--MD5=[995d7e5dfcfb952eab06f933f21fa488]
@startuml entity-relationship-diagram
skinparam linetype ortho

package 経営データ {
  entity labor_management_item_names {
    * ulid id <<PK>>
    - -
    string name "経営数値の項目名"
  }

  entity labor_management_items {
    * ulid id <<PK>>
    - -
    ulid facility_id <<FK>> "施設ID"
    ulid monthly_labor_management_id <<FK>> "月次経営データID"
    ulid labor_management_item_name_id <<FK>> "経営数値の項目名ID"
    int data "データ"

  }

  note bottom of labor_management_items
  算出はサーバーで行い、計算されたデータのみを保存する
  end note

  entity manthry_labor_managements {
    * ulid id <<PK>>
    - -
    ulid facility_id <<FK>> "施設ID"
    date month "月"
  }
}

package 施設情報 {
  entity facilities {
  }
}


manthry_labor_managements ||- -o{ labor_management_items
manthry_labor_managements ||- -|| facilities
labor_management_items }o- -|| labor_management_item_names
labor_management_items ||- -|| facilities

@enduml

PlantUML version 1.2020.02(Sun Mar 01 10:22:07 UTC 2020)
(GPL source distribution)
Java Runtime: OpenJDK Runtime Environment
JVM: OpenJDK 64-Bit Server VM
Java Version: 11.0.16+8
Operating System: Linux
Default Encoding: UTF-8
Language: en
Country: null
--></g></svg>