<svg xmlns="http://www.w3.org/2000/svg" xmlns:xlink="http://www.w3.org/1999/xlink" contentStyleType="text/css" height="476px" preserveAspectRatio="none" style="width:607px;height:476px;background:#FFFFFF;" version="1.1" viewBox="0 0 607 476" width="607px" zoomAndPan="magnify"><defs/><g><!--cluster ?????--><g id="cluster_&#32076;&#21942;&#12487;&#12540;&#12479;"><path d="M8.5,6 L79.5,6 A3.75,3.75 0 0 1 82,8.5 L89,28.4883 L453.5,28.4883 A2.5,2.5 0 0 1 456,30.9883 L456,455.55 A2.5,2.5 0 0 1 453.5,458.05 L8.5,458.05 A2.5,2.5 0 0 1 6,455.55 L6,8.5 A2.5,2.5 0 0 1 8.5,6 " fill="none" style="stroke:#000000;stroke-width:1.5;"/><line style="stroke:#000000;stroke-width:1.5;" x1="6" x2="89" y1="28.4883" y2="28.4883"/><text fill="#000000" font-family="sans-serif" font-size="14" font-weight="bold" lengthAdjust="spacing" textLength="70" x="10" y="21.5352">&#32076;&#21942;&#12487;&#12540;&#12479;</text></g><!--cluster ????--><g id="cluster_&#26045;&#35373;&#24773;&#22577;"><path d="M482.5,370.39 L539.5,370.39 A3.75,3.75 0 0 1 542,372.89 L549,392.8783 L597.5,392.8783 A2.5,2.5 0 0 1 600,395.3783 L600,466.89 A2.5,2.5 0 0 1 597.5,469.39 L482.5,469.39 A2.5,2.5 0 0 1 480,466.89 L480,372.89 A2.5,2.5 0 0 1 482.5,370.39 " fill="none" style="stroke:#000000;stroke-width:1.5;"/><line style="stroke:#000000;stroke-width:1.5;" x1="480" x2="549" y1="392.8783" y2="392.8783"/><text fill="#000000" font-family="sans-serif" font-size="14" font-weight="bold" lengthAdjust="spacing" textLength="56" x="484" y="385.9252">&#26045;&#35373;&#24773;&#22577;</text></g><!--class labor_managements--><g id="elem_labor_managements"><rect codeLine="4" fill="#F1F1F1" height="146.9297" id="labor_managements" rx="2.5" ry="2.5" style="stroke:#181818;stroke-width:0.5;" width="418.1436" x="21.93" y="198.46"/><ellipse cx="157.9515" cy="214.46" fill="#ADD1B2" rx="11" ry="11" style="stroke:#181818;stroke-width:1.0;"/><path d="M161.5657,220.96 L153.846,220.96 L153.846,208.5669 L161.5657,208.5669 L161.5657,210.7251 L156.2947,210.7251 L156.2947,213.398 L161.0677,213.398 L161.0677,215.5562 L156.2947,215.5562 L156.2947,218.8018 L161.5657,218.8018 Z " fill="#000000"/><text fill="#000000" font-family="sans-serif" font-size="14" lengthAdjust="spacing" textLength="137.6006" x="178.4515" y="219.751">labor_managements</text><line style="stroke:#181818;stroke-width:0.5;" x1="22.93" x2="439.0736" y1="230.46" y2="230.46"/><ellipse cx="32.93" cy="244.2041" fill="#000000" rx="3" ry="3" style="stroke:#000000;stroke-width:1.0;"/><text fill="#000000" font-family="sans-serif" font-size="14" lengthAdjust="spacing" textLength="78.8594" x="41.93" y="247.9952">ulid id &#171;PK&#187;</text><line style="stroke:#181818;stroke-width:1.0;" x1="22.93" x2="439.0736" y1="254.9483" y2="254.9483"/><text fill="#000000" font-family="sans-serif" font-size="14" lengthAdjust="spacing" textLength="180.1543" x="27.93" y="272.4834">int facility_id &#171;FK&#187; "&#26045;&#35373;ID"</text><text fill="#000000" font-family="sans-serif" font-size="14" lengthAdjust="spacing" textLength="406.1436" x="27.93" y="288.9717">ulid monthly_labor_management_id &#171;FK&#187; "&#26376;&#27425;&#32076;&#21942;&#12487;&#12540;&#12479;ID"</text><text fill="#000000" font-family="sans-serif" font-size="14" lengthAdjust="spacing" textLength="208.1748" x="27.93" y="305.46">string name "&#32076;&#21942;&#25968;&#20516;&#12398;&#38917;&#30446;&#21517;"</text><text fill="#000000" font-family="sans-serif" font-size="14" lengthAdjust="spacing" textLength="108.8008" x="27.93" y="321.9483">int data "&#12487;&#12540;&#12479;"</text><text fill="#000000" font-family="sans-serif" font-size="14" lengthAdjust="spacing" textLength="4.4297" x="27.93" y="338.4366">&#160;</text></g><g id="elem_GMN4"><path d="M51.5,416.73 L51.5,442.0405 A0,0 0 0 0 51.5,442.0405 L410.5,442.0405 A0,0 0 0 0 410.5,442.0405 L410.5,426.73 L400.5,416.73 L235,416.73 L231,345.59 L227,416.73 L51.5,416.73 A0,0 0 0 0 51.5,416.73 " fill="#FEFFDD" style="stroke:#181818;stroke-width:0.5;"/><path d="M400.5,416.73 L400.5,426.73 L410.5,426.73 L400.5,416.73 " fill="#FEFFDD" style="stroke:#181818;stroke-width:0.5;"/><text fill="#000000" font-family="sans-serif" font-size="13" lengthAdjust="spacing" textLength="338" x="57.5" y="434.2984">&#31639;&#20986;&#12399;&#12469;&#12540;&#12496;&#12540;&#12391;&#34892;&#12356;&#12289;&#35336;&#31639;&#12373;&#12428;&#12383;&#12487;&#12540;&#12479;&#12398;&#12415;&#12434;&#20445;&#23384;&#12377;&#12427;</text></g><!--class manthry_labor_managements--><g id="elem_manthry_labor_managements"><rect codeLine="18" fill="#F1F1F1" height="97.4648" id="manthry_labor_managements" rx="2.5" ry="2.5" style="stroke:#181818;stroke-width:0.5;" width="233.0586" x="160.47" y="41"/><ellipse cx="175.47" cy="57" fill="#ADD1B2" rx="11" ry="11" style="stroke:#181818;stroke-width:1.0;"/><path d="M179.0843,63.5 L171.3645,63.5 L171.3645,51.1069 L179.0843,51.1069 L179.0843,53.2651 L173.8133,53.2651 L173.8133,55.938 L178.5862,55.938 L178.5862,58.0962 L173.8133,58.0962 L173.8133,61.3418 L179.0843,61.3418 Z " fill="#000000"/><text fill="#000000" font-family="sans-serif" font-size="14" lengthAdjust="spacing" textLength="201.0586" x="189.47" y="62.291">manthry_labor_managements</text><line style="stroke:#181818;stroke-width:0.5;" x1="161.47" x2="392.5286" y1="73" y2="73"/><ellipse cx="171.47" cy="86.7441" fill="#000000" rx="3" ry="3" style="stroke:#000000;stroke-width:1.0;"/><text fill="#000000" font-family="sans-serif" font-size="14" lengthAdjust="spacing" textLength="78.8594" x="180.47" y="90.5352">ulid id &#171;PK&#187;</text><line style="stroke:#181818;stroke-width:1.0;" x1="161.47" x2="392.5286" y1="97.4883" y2="97.4883"/><text fill="#000000" font-family="sans-serif" font-size="14" lengthAdjust="spacing" textLength="180.1543" x="166.47" y="115.0234">int facility_id &#171;FK&#187; "&#26045;&#35373;ID"</text><text fill="#000000" font-family="sans-serif" font-size="14" lengthAdjust="spacing" textLength="107.1807" x="166.47" y="131.5117">date month "&#26376;"</text></g><!--class facilities--><g id="elem_facilities"><rect codeLine="27" fill="#F1F1F1" height="48" id="facilities" rx="2.5" ry="2.5" style="stroke:#181818;stroke-width:0.5;" width="88.4102" x="495.79" y="405.39"/><ellipse cx="510.79" cy="421.39" fill="#ADD1B2" rx="11" ry="11" style="stroke:#181818;stroke-width:1.0;"/><path d="M514.4043,427.89 L506.6845,427.89 L506.6845,415.4969 L514.4043,415.4969 L514.4043,417.6551 L509.1333,417.6551 L509.1333,420.328 L513.9062,420.328 L513.9062,422.4862 L509.1333,422.4862 L509.1333,425.7318 L514.4043,425.7318 Z " fill="#000000"/><text fill="#000000" font-family="sans-serif" font-size="14" lengthAdjust="spacing" textLength="56.4102" x="524.79" y="426.681">facilities</text><line style="stroke:#181818;stroke-width:0.5;" x1="496.79" x2="583.2002" y1="437.39" y2="437.39"/><line style="stroke:#181818;stroke-width:0.5;" x1="496.79" x2="583.2002" y1="445.39" y2="445.39"/></g><!--link manthry_labor_managements to labor_managements--><g id="link_manthry_labor_managements_labor_managements"><path codeLine="32" d="M277,146.55 C277,164.89 277,160.17 277,180.27 " fill="none" id="manthry_labor_managements-labor_managements" style="stroke:#181818;stroke-width:1.0;"/><line style="stroke:#181818;stroke-width:1.0;" x1="273" x2="281" y1="142.55" y2="142.55"/><line style="stroke:#181818;stroke-width:1.0;" x1="273" x2="281" y1="145.55" y2="145.55"/><line style="stroke:#181818;stroke-width:1.0;" x1="277" x2="277" y1="146.55" y2="138.55"/><line style="stroke:#181818;stroke-width:1.0;" x1="277" x2="283" y1="190.27" y2="198.27"/><line style="stroke:#181818;stroke-width:1.0;" x1="277" x2="271" y1="190.27" y2="198.27"/><line style="stroke:#181818;stroke-width:1.0;" x1="277" x2="277" y1="190.27" y2="198.27"/><ellipse cx="277" cy="184.27" fill="none" rx="4" ry="4" style="stroke:#181818;stroke-width:1.0;"/></g><!--link manthry_labor_managements to facilities--><g id="link_manthry_labor_managements_facilities"><path codeLine="33" d="M401.89,89.73 C472.13,89.73 540,89.73 540,89.73 C540,89.73 540,319.08 540,396.96 " fill="none" id="manthry_labor_managements-facilities" style="stroke:#181818;stroke-width:1.0;"/><line style="stroke:#181818;stroke-width:1.0;" x1="397.89" x2="397.89" y1="93.73" y2="85.73"/><line style="stroke:#181818;stroke-width:1.0;" x1="400.89" x2="400.89" y1="93.73" y2="85.73"/><line style="stroke:#181818;stroke-width:1.0;" x1="401.89" x2="393.89" y1="89.73" y2="89.73"/><line style="stroke:#181818;stroke-width:1.0;" x1="544" x2="536" y1="400.96" y2="400.96"/><line style="stroke:#181818;stroke-width:1.0;" x1="544" x2="536" y1="397.96" y2="397.96"/><line style="stroke:#181818;stroke-width:1.0;" x1="540" x2="540" y1="396.96" y2="404.96"/></g><!--link labor_managements to facilities--><g id="link_labor_managements_facilities"><path codeLine="34" d="M425.29,353.57 C425.29,386.94 425.29,411.06 425.29,411.06 C425.29,411.06 455.11,411.06 487.32,411.06 " fill="none" id="labor_managements-facilities" style="stroke:#181818;stroke-width:1.0;"/><line style="stroke:#181818;stroke-width:1.0;" x1="421.29" x2="429.29" y1="349.57" y2="349.57"/><line style="stroke:#181818;stroke-width:1.0;" x1="421.29" x2="429.29" y1="352.57" y2="352.57"/><line style="stroke:#181818;stroke-width:1.0;" x1="425.29" x2="425.29" y1="353.57" y2="345.57"/><line style="stroke:#181818;stroke-width:1.0;" x1="491.32" x2="491.32" y1="407.06" y2="415.06"/><line style="stroke:#181818;stroke-width:1.0;" x1="488.32" x2="488.32" y1="407.06" y2="415.06"/><line style="stroke:#181818;stroke-width:1.0;" x1="487.32" x2="495.32" y1="411.06" y2="411.06"/></g><!--SRC=[hLBHIW9157tVhxZiOx1_83v54Btq1pBfg8ExCx9E3-8ApfeeP221LbIa4EH3MZtOGnH-pBIh_KNZRAbfHG_1S0VkFUUUCuSfv0ZD8nSvO1EAUJ6FWRayommZZv8vbC4m6JM3pgEircNrMVfZA1a0c7B2Ys2ZFUOc74GLpb6zWXu2RC2-JLAWJYosknEFwwPbwOjG3ccK9BPQaD28BOK0C-oyJFk3xKrJepJVOPHdxM9YLUOBxQ8HtlPMF7vkAN2Nq0nGv60m8qpOlWygrr8CtxgroVamQ1sPSrifn16OyosceIRbMQ6COzXZd3C7M7hzsGeo6Pu4zISfxgG_cj6hhLaLDzDUKue3MH7JVaDXf6XBNtMkvYhAYXHZwH-_ZY-3mQaKPz8_r16djAwnY5ifygoxdiV_nQuIm57iEbbJ1r1U_8K87LPhGVTX-IDyR2Ouig8vnizsFS-oMEcR77-dUDwIaF4Np3i0]--></g></svg>