<?xml version="1.0" encoding="UTF-8" standalone="no"?><svg xmlns="http://www.w3.org/2000/svg" xmlns:xlink="http://www.w3.org/1999/xlink" contentScriptType="application/ecmascript" contentStyleType="text/css" height="358px" preserveAspectRatio="none" style="width:1050px;height:358px;" version="1.1" viewBox="0 0 1050 358" width="1050px" zoomAndPan="magnify"><defs><filter height="300%" id="f1x80au9rkj1gc" width="300%" x="-1" y="-1"><feGaussianBlur result="blurOut" stdDeviation="2.0"/><feColorMatrix in="blurOut" result="blurOut2" type="matrix" values="0 0 0 0 0 0 0 0 0 0 0 0 0 0 0 0 0 0 .4 0"/><feOffset dx="4.0" dy="4.0" in="blurOut2" result="blurOut3"/><feBlend in="SourceGraphic" in2="blurOut3" mode="normal"/></filter></defs><g><!--MD5=[17926c9f6f73500917f0231ee648f0f2]
cluster 患者情報--><polygon fill="#FFFFFF" filter="url(#f1x80au9rkj1gc)" points="22,24,84,24,91,46.2969,434,46.2969,434,334.5,22,334.5,22,24" style="stroke: #000000; stroke-width: 1.5;"/><line style="stroke: #000000; stroke-width: 1.5;" x1="22" x2="91" y1="46.2969" y2="46.2969"/><text fill="#000000" font-family="sans-serif" font-size="14" font-weight="bold" lengthAdjust="spacingAndGlyphs" textLength="56" x="26" y="38.9951">患者情報</text><!--MD5=[2357de52a651de3e3141a47d68960241]
cluster 住所--><polygon fill="#FFFFFF" filter="url(#f1x80au9rkj1gc)" points="458,247,492,247,499,269.2969,588,269.2969,588,346,458,346,458,247" style="stroke: #000000; stroke-width: 1.5;"/><line style="stroke: #000000; stroke-width: 1.5;" x1="458" x2="499" y1="269.2969" y2="269.2969"/><text fill="#000000" font-family="sans-serif" font-size="14" font-weight="bold" lengthAdjust="spacingAndGlyphs" textLength="28" x="462" y="261.9951">住所</text><!--MD5=[eace04a6a715c010434b3f14fc7f454a]
cluster 施設情報--><polygon fill="#FFFFFF" filter="url(#f1x80au9rkj1gc)" points="612,247,674,247,681,269.2969,728,269.2969,728,346,612,346,612,247" style="stroke: #000000; stroke-width: 1.5;"/><line style="stroke: #000000; stroke-width: 1.5;" x1="612" x2="681" y1="269.2969" y2="269.2969"/><text fill="#000000" font-family="sans-serif" font-size="14" font-weight="bold" lengthAdjust="spacingAndGlyphs" textLength="56" x="616" y="261.9951">施設情報</text><!--MD5=[af7553808e27414a6663019e1dd2c0e6]
cluster 職員情報--><polygon fill="#FFFFFF" filter="url(#f1x80au9rkj1gc)" points="752,247,814,247,821,269.2969,852,269.2969,852,346,752,346,752,247" style="stroke: #000000; stroke-width: 1.5;"/><line style="stroke: #000000; stroke-width: 1.5;" x1="752" x2="821" y1="269.2969" y2="269.2969"/><text fill="#000000" font-family="sans-serif" font-size="14" font-weight="bold" lengthAdjust="spacingAndGlyphs" textLength="56" x="756" y="261.9951">職員情報</text><!--MD5=[d43a93bed96446588d3c5fef43396a6d]
cluster 訪問情報--><polygon fill="#FFFFFF" filter="url(#f1x80au9rkj1gc)" points="876,247,938,247,945,269.2969,1028,269.2969,1028,346,876,346,876,247" style="stroke: #000000; stroke-width: 1.5;"/><line style="stroke: #000000; stroke-width: 1.5;" x1="876" x2="945" y1="269.2969" y2="269.2969"/><text fill="#000000" font-family="sans-serif" font-size="14" font-weight="bold" lengthAdjust="spacingAndGlyphs" textLength="56" x="880" y="261.9951">訪問情報</text><!--MD5=[5f57dc4600bb33255e6857fe60f92832]
class patients--><rect fill="#FEFECE" filter="url(#f1x80au9rkj1gc)" height="163.2422" id="patients" style="stroke: #A80036; stroke-width: 1.5;" width="296" x="122" y="59"/><ellipse cx="239.75" cy="75" fill="#ADD1B2" rx="11" ry="11" style="stroke: #A80036; stroke-width: 1.0;"/><path d="M243.8594,81 L236.1406,81 L236.1406,68.6094 L243.8594,68.6094 L243.8594,70.7656 L238.5938,70.7656 L238.5938,73.4375 L243.3594,73.4375 L243.3594,75.5938 L238.5938,75.5938 L238.5938,78.8438 L243.8594,78.8438 L243.8594,81 Z "/><text fill="#000000" font-family="sans-serif" font-size="12" lengthAdjust="spacingAndGlyphs" textLength="52" x="260.25" y="79.1543">patients</text><line style="stroke: #A80036; stroke-width: 1.5;" x1="123" x2="417" y1="91" y2="91"/><text fill="#000000" font-family="sans-serif" font-size="11" lengthAdjust="spacingAndGlyphs" textLength="44" x="128" y="105.2104">患者情報</text><text fill="#000000" font-family="sans-serif" font-size="11" lengthAdjust="spacingAndGlyphs" textLength="148" x="128" y="118.0151">patient_id binary(16) «PK»</text><line style="stroke: #A80036; stroke-width: 1.0;" x1="123" x2="417" y1="124.6094" y2="124.6094"/><text fill="#000000" font-family="sans-serif" font-size="11" lengthAdjust="spacingAndGlyphs" textLength="69" x="128" y="138.8198">name string</text><text fill="#000000" font-family="sans-serif" font-size="11" lengthAdjust="spacingAndGlyphs" textLength="284" x="128" y="151.6245">service_code_id string "受けているサービス内容のID"</text><text fill="#000000" font-family="sans-serif" font-size="11" lengthAdjust="spacingAndGlyphs" textLength="227" x="128" y="164.4292">preferred_datetime string "希望する日時"</text><text fill="#000000" font-family="sans-serif" font-size="11" lengthAdjust="spacingAndGlyphs" textLength="206" x="128" y="177.2339">address_id binary(16)  «FK» "住所ID"</text><text fill="#000000" font-family="sans-serif" font-size="11" lengthAdjust="spacingAndGlyphs" textLength="261" x="128" y="190.0386">preferred_gender string "希望する担当者の性別"</text><text fill="#000000" font-family="sans-serif" font-size="11" lengthAdjust="spacingAndGlyphs" textLength="280" x="128" y="202.8433">staff_id binary(16) «FK» "主に担当している職員のID"</text><text fill="#000000" font-family="sans-serif" font-size="11" lengthAdjust="spacingAndGlyphs" textLength="191" x="128" y="215.6479">facility_id binary(16) «FK» "施設ID"</text><path d="M38,293.5 L38,318.6328 A0,0 0 0 0 38,318.6328 L418,318.6328 A0,0 0 0 0 418,318.6328 L418,303.5 L408,293.5 L274,293.5 L270,222.28 L266,293.5 L38,293.5 A0,0 0 0 0 38,293.5 " fill="#FBFB77" filter="url(#f1x80au9rkj1gc)" style="stroke: #A80036; stroke-width: 1.0;"/><path d="M408,293.5 L408,303.5 L418,303.5 L408,293.5 " fill="#FBFB77" style="stroke: #A80036; stroke-width: 1.0;"/><text fill="#000000" font-family="sans-serif" font-size="13" lengthAdjust="spacingAndGlyphs" textLength="359" x="44" y="310.5669">希望する日時は、午前・午後・指定なしの3つの選択肢がある</text><!--MD5=[d7d6b8ea598e54491e439553c4a99edb]
class addresses--><rect fill="#FEFECE" filter="url(#f1x80au9rkj1gc)" height="48" id="addresses" style="stroke: #A80036; stroke-width: 1.5;" width="98" x="474" y="282"/><ellipse cx="489" cy="298" fill="#ADD1B2" rx="11" ry="11" style="stroke: #A80036; stroke-width: 1.0;"/><path d="M493.1094,304 L485.3906,304 L485.3906,291.6094 L493.1094,291.6094 L493.1094,293.7656 L487.8438,293.7656 L487.8438,296.4375 L492.6094,296.4375 L492.6094,298.5938 L487.8438,298.5938 L487.8438,301.8438 L493.1094,301.8438 L493.1094,304 Z "/><text fill="#000000" font-family="sans-serif" font-size="12" lengthAdjust="spacingAndGlyphs" textLength="66" x="503" y="302.1543">addresses</text><line style="stroke: #A80036; stroke-width: 1.5;" x1="475" x2="571" y1="314" y2="314"/><line style="stroke: #A80036; stroke-width: 1.5;" x1="475" x2="571" y1="322" y2="322"/><!--MD5=[906b6f3cbaecf3ca9cf95c95e4e1b597]
class facilities--><rect fill="#FEFECE" filter="url(#f1x80au9rkj1gc)" height="48" id="facilities" style="stroke: #A80036; stroke-width: 1.5;" width="83" x="628.5" y="282"/><ellipse cx="643.5" cy="298" fill="#ADD1B2" rx="11" ry="11" style="stroke: #A80036; stroke-width: 1.0;"/><path d="M647.6094,304 L639.8906,304 L639.8906,291.6094 L647.6094,291.6094 L647.6094,293.7656 L642.3438,293.7656 L642.3438,296.4375 L647.1094,296.4375 L647.1094,298.5938 L642.3438,298.5938 L642.3438,301.8438 L647.6094,301.8438 L647.6094,304 Z "/><text fill="#000000" font-family="sans-serif" font-size="12" lengthAdjust="spacingAndGlyphs" textLength="51" x="657.5" y="302.1543">facilities</text><line style="stroke: #A80036; stroke-width: 1.5;" x1="629.5" x2="710.5" y1="314" y2="314"/><line style="stroke: #A80036; stroke-width: 1.5;" x1="629.5" x2="710.5" y1="322" y2="322"/><!--MD5=[8413f8248b2da7966d2de021109ec289]
class users--><rect fill="#FEFECE" filter="url(#f1x80au9rkj1gc)" height="48" id="users" style="stroke: #A80036; stroke-width: 1.5;" width="67" x="768.5" y="282"/><ellipse cx="783.5" cy="298" fill="#ADD1B2" rx="11" ry="11" style="stroke: #A80036; stroke-width: 1.0;"/><path d="M787.6094,304 L779.8906,304 L779.8906,291.6094 L787.6094,291.6094 L787.6094,293.7656 L782.3438,293.7656 L782.3438,296.4375 L787.1094,296.4375 L787.1094,298.5938 L782.3438,298.5938 L782.3438,301.8438 L787.6094,301.8438 L787.6094,304 Z "/><text fill="#000000" font-family="sans-serif" font-size="12" lengthAdjust="spacingAndGlyphs" textLength="35" x="797.5" y="302.1543">users</text><line style="stroke: #A80036; stroke-width: 1.5;" x1="769.5" x2="834.5" y1="314" y2="314"/><line style="stroke: #A80036; stroke-width: 1.5;" x1="769.5" x2="834.5" y1="322" y2="322"/><!--MD5=[974c6912de8d83cf8a8aca8903c83a0e]
class service_codes--><rect fill="#FEFECE" filter="url(#f1x80au9rkj1gc)" height="48" id="service_codes" style="stroke: #A80036; stroke-width: 1.5;" width="120" x="892" y="282"/><ellipse cx="907" cy="298" fill="#ADD1B2" rx="11" ry="11" style="stroke: #A80036; stroke-width: 1.0;"/><path d="M911.1094,304 L903.3906,304 L903.3906,291.6094 L911.1094,291.6094 L911.1094,293.7656 L905.8438,293.7656 L905.8438,296.4375 L910.6094,296.4375 L910.6094,298.5938 L905.8438,298.5938 L905.8438,301.8438 L911.1094,301.8438 L911.1094,304 Z "/><text fill="#000000" font-family="sans-serif" font-size="12" lengthAdjust="spacingAndGlyphs" textLength="88" x="921" y="302.1543">service_codes</text><line style="stroke: #A80036; stroke-width: 1.5;" x1="893" x2="1011" y1="314" y2="314"/><line style="stroke: #A80036; stroke-width: 1.5;" x1="893" x2="1011" y1="322" y2="322"/><!--MD5=[d822adadb8a8e444c39cc03d9cfb0ca5]
link patients to facilities--><path d="M425.09,157 C425.09,157 670,157 670,157 C670,157 670,274.73 670,274.73 " fill="none" id="patients-facilities" style="stroke: #A80036; stroke-width: 1.0;"/><line style="stroke: #A80036; stroke-width: 1.0;" x1="674" x2="666" y1="277.73" y2="277.73"/><line style="stroke: #A80036; stroke-width: 1.0;" x1="674" x2="666" y1="274.73" y2="274.73"/><line style="stroke: #A80036; stroke-width: 1.0;" x1="670" x2="670" y1="273.73" y2="281.73"/><line style="stroke: #A80036; stroke-width: 1.0;" x1="422.09" x2="422.09" y1="161" y2="153"/><line style="stroke: #A80036; stroke-width: 1.0;" x1="425.09" x2="425.09" y1="161" y2="153"/><line style="stroke: #A80036; stroke-width: 1.0;" x1="426.09" x2="418.09" y1="157" y2="157"/><!--MD5=[5ca2b119c8b95754b79f9a96772bdf96]
link patients to addresses--><path d="M425.27,190 C425.27,190 523,190 523,190 C523,190 523,274.96 523,274.96 " fill="none" id="patients-addresses" style="stroke: #A80036; stroke-width: 1.0;"/><line style="stroke: #A80036; stroke-width: 1.0;" x1="527" x2="519" y1="277.96" y2="277.96"/><line style="stroke: #A80036; stroke-width: 1.0;" x1="527" x2="519" y1="274.96" y2="274.96"/><line style="stroke: #A80036; stroke-width: 1.0;" x1="523" x2="523" y1="273.96" y2="281.96"/><line style="stroke: #A80036; stroke-width: 1.0;" x1="422.27" x2="422.27" y1="194" y2="186"/><line style="stroke: #A80036; stroke-width: 1.0;" x1="425.27" x2="425.27" y1="194" y2="186"/><line style="stroke: #A80036; stroke-width: 1.0;" x1="426.27" x2="418.27" y1="190" y2="190"/><!--MD5=[af8c97b1e191fdfcbe41f78c35418c66]
link patients to service_codes--><path d="M425.4,92 C425.4,92 952,92 952,92 C952,92 952,274.87 952,274.87 " fill="none" id="patients-service_codes" style="stroke: #A80036; stroke-width: 1.0;"/><line style="stroke: #A80036; stroke-width: 1.0;" x1="956" x2="948" y1="277.87" y2="277.87"/><line style="stroke: #A80036; stroke-width: 1.0;" x1="956" x2="948" y1="274.87" y2="274.87"/><line style="stroke: #A80036; stroke-width: 1.0;" x1="952" x2="952" y1="273.87" y2="281.87"/><line style="stroke: #A80036; stroke-width: 1.0;" x1="422.4" x2="422.4" y1="96" y2="88"/><line style="stroke: #A80036; stroke-width: 1.0;" x1="425.4" x2="425.4" y1="96" y2="88"/><line style="stroke: #A80036; stroke-width: 1.0;" x1="426.4" x2="418.4" y1="92" y2="92"/><!--MD5=[bf57a974b7f8fc277764811bf0957b96]
link patients to users--><path d="M425.19,125 C425.19,125 802,125 802,125 C802,125 802,274.96 802,274.96 " fill="none" id="patients-users" style="stroke: #A80036; stroke-width: 1.0;"/><line style="stroke: #A80036; stroke-width: 1.0;" x1="806" x2="798" y1="277.96" y2="277.96"/><line style="stroke: #A80036; stroke-width: 1.0;" x1="806" x2="798" y1="274.96" y2="274.96"/><line style="stroke: #A80036; stroke-width: 1.0;" x1="802" x2="802" y1="273.96" y2="281.96"/><line style="stroke: #A80036; stroke-width: 1.0;" x1="422.19" x2="422.19" y1="129" y2="121"/><line style="stroke: #A80036; stroke-width: 1.0;" x1="425.19" x2="425.19" y1="129" y2="121"/><line style="stroke: #A80036; stroke-width: 1.0;" x1="426.19" x2="418.19" y1="125" y2="125"/><!--MD5=[6db5a3e31e9dd7a731e1325bc90ffe58]
@startuml entity-relationship-diagram
skinparam linetype ortho

package 患者情報 {
  entity patients {
    患者情報
    patient_id binary(16) <<PK>>
    - -
    name string
    service_code_id string "受けているサービス内容のID"
    preferred_datetime string "希望する日時"
    address_id binary(16)  <<FK>> "住所ID"
    preferred_gender string "希望する担当者の性別"
    staff_id binary(16) <<FK>> "主に担当している職員のID"
    facility_id binary(16) <<FK>> "施設ID"
  }
  note bottom of patients
  希望する日時は、午前・午後・指定なしの3つの選択肢がある
  end note
}

package 住所 {
  entity addresses
}

package 施設情報 {
  entity facilities
}

package 職員情報 {
  entity users
}

package 訪問情報 {
  entity service_codes
}

patients ||- -|| facilities
patients ||- -|| addresses
patients ||- -|| service_codes
patients ||- -|| users
@enduml

PlantUML version 1.2020.02(Sun Mar 01 10:22:07 UTC 2020)
(GPL source distribution)
Java Runtime: OpenJDK Runtime Environment
JVM: OpenJDK 64-Bit Server VM
Java Version: 11.0.16+8
Operating System: Linux
Default Encoding: UTF-8
Language: en
Country: null
--></g></svg>