<svg xmlns="http://www.w3.org/2000/svg" xmlns:xlink="http://www.w3.org/1999/xlink" contentStyleType="text/css" height="383px" preserveAspectRatio="none" style="width:1401px;height:383px;background:#FFFFFF;" version="1.1" viewBox="0 0 1401 383" width="1401px" zoomAndPan="magnify"><defs/><g><!--cluster ????--><g id="cluster_&#24739;&#32773;&#24773;&#22577;"><path d="M8.5,6 L65.4998,6 A3.75,3.75 0 0 1 67.9998,8.5 L74.9998,28.2969 L415.5,28.2969 A2.5,2.5 0 0 1 418,30.7969 L418,362 A2.5,2.5 0 0 1 415.5,364.5 L8.5,364.5 A2.5,2.5 0 0 1 6,362 L6,8.5 A2.5,2.5 0 0 1 8.5,6 " fill="none" style="stroke:#000000;stroke-width:1.5;"/><line style="stroke:#000000;stroke-width:1.5;" x1="6" x2="74.9998" y1="28.2969" y2="28.2969"/><text fill="#000000" font-family="sans-serif" font-size="14" font-weight="bold" lengthAdjust="spacing" textLength="55.9998" x="10" y="20.9951">&#24739;&#32773;&#24773;&#22577;</text></g><!--cluster ??--><g id="cluster_&#20303;&#25152;"><path d="M444.5,277 L473.4999,277 A3.75,3.75 0 0 1 475.9999,279.5 L482.9999,299.2969 L575.5,299.2969 A2.5,2.5 0 0 1 578,301.7969 L578,373.5 A2.5,2.5 0 0 1 575.5,376 L444.5,376 A2.5,2.5 0 0 1 442,373.5 L442,279.5 A2.5,2.5 0 0 1 444.5,277 " fill="none" style="stroke:#000000;stroke-width:1.5;"/><line style="stroke:#000000;stroke-width:1.5;" x1="442" x2="482.9999" y1="299.2969" y2="299.2969"/><text fill="#000000" font-family="sans-serif" font-size="14" font-weight="bold" lengthAdjust="spacing" textLength="27.9999" x="446" y="291.9951">&#20303;&#25152;</text></g><!--cluster ???--><g id="cluster_&#12456;&#12522;&#12450;"><path d="M604.5,277 L647.4998,277 A3.75,3.75 0 0 1 649.9998,279.5 L656.9998,299.2969 L703.5,299.2969 A2.5,2.5 0 0 1 706,301.7969 L706,373.5 A2.5,2.5 0 0 1 703.5,376 L604.5,376 A2.5,2.5 0 0 1 602,373.5 L602,279.5 A2.5,2.5 0 0 1 604.5,277 " fill="none" style="stroke:#000000;stroke-width:1.5;"/><line style="stroke:#000000;stroke-width:1.5;" x1="602" x2="656.9998" y1="299.2969" y2="299.2969"/><text fill="#000000" font-family="sans-serif" font-size="14" font-weight="bold" lengthAdjust="spacing" textLength="41.9998" x="606" y="291.9951">&#12456;&#12522;&#12450;</text></g><!--cluster ????--><g id="cluster_&#26045;&#35373;&#24773;&#22577;"><path d="M732.5,277 L789.4998,277 A3.75,3.75 0 0 1 791.9998,279.5 L798.9998,299.2969 L849.5,299.2969 A2.5,2.5 0 0 1 852,301.7969 L852,373.5 A2.5,2.5 0 0 1 849.5,376 L732.5,376 A2.5,2.5 0 0 1 730,373.5 L730,279.5 A2.5,2.5 0 0 1 732.5,277 " fill="none" style="stroke:#000000;stroke-width:1.5;"/><line style="stroke:#000000;stroke-width:1.5;" x1="730" x2="798.9998" y1="299.2969" y2="299.2969"/><text fill="#000000" font-family="sans-serif" font-size="14" font-weight="bold" lengthAdjust="spacing" textLength="55.9998" x="734" y="291.9951">&#26045;&#35373;&#24773;&#22577;</text></g><!--cluster ????--><g id="cluster_&#32887;&#21729;&#24773;&#22577;"><path d="M878.5,277 L935.4998,277 A3.75,3.75 0 0 1 937.9998,279.5 L944.9998,299.2969 L975.5,299.2969 A2.5,2.5 0 0 1 978,301.7969 L978,373.5 A2.5,2.5 0 0 1 975.5,376 L878.5,376 A2.5,2.5 0 0 1 876,373.5 L876,279.5 A2.5,2.5 0 0 1 878.5,277 " fill="none" style="stroke:#000000;stroke-width:1.5;"/><line style="stroke:#000000;stroke-width:1.5;" x1="876" x2="944.9998" y1="299.2969" y2="299.2969"/><text fill="#000000" font-family="sans-serif" font-size="14" font-weight="bold" lengthAdjust="spacing" textLength="55.9998" x="880" y="291.9951">&#32887;&#21729;&#24773;&#22577;</text></g><!--cluster ??--><g id="cluster_&#20104;&#23450;"><path d="M1004.5,277 L1033.4999,277 A3.75,3.75 0 0 1 1035.9999,279.5 L1042.9999,299.2969 L1205.5,299.2969 A2.5,2.5 0 0 1 1208,301.7969 L1208,373.5 A2.5,2.5 0 0 1 1205.5,376 L1004.5,376 A2.5,2.5 0 0 1 1002,373.5 L1002,279.5 A2.5,2.5 0 0 1 1004.5,277 " fill="none" style="stroke:#000000;stroke-width:1.5;"/><line style="stroke:#000000;stroke-width:1.5;" x1="1002" x2="1042.9999" y1="299.2969" y2="299.2969"/><text fill="#000000" font-family="sans-serif" font-size="14" font-weight="bold" lengthAdjust="spacing" textLength="27.9999" x="1006" y="291.9951">&#20104;&#23450;</text></g><!--cluster ????--><g id="cluster_&#35370;&#21839;&#24773;&#22577;"><path d="M1234.5,277 L1291.4998,277 A3.75,3.75 0 0 1 1293.9998,279.5 L1300.9998,299.2969 L1391.5,299.2969 A2.5,2.5 0 0 1 1394,301.7969 L1394,373.5 A2.5,2.5 0 0 1 1391.5,376 L1234.5,376 A2.5,2.5 0 0 1 1232,373.5 L1232,279.5 A2.5,2.5 0 0 1 1234.5,277 " fill="none" style="stroke:#000000;stroke-width:1.5;"/><line style="stroke:#000000;stroke-width:1.5;" x1="1232" x2="1300.9998" y1="299.2969" y2="299.2969"/><text fill="#000000" font-family="sans-serif" font-size="14" font-weight="bold" lengthAdjust="spacing" textLength="55.9998" x="1236" y="291.9951">&#35370;&#21839;&#24773;&#22577;</text></g><!--class patients--><g id="elem_patients"><rect codeLine="4" fill="#F1F1F1" height="210.9688" id="patients" rx="2.5" ry="2.5" style="stroke:#181818;stroke-width:0.5;" width="338.6546" x="62.5" y="41"/><ellipse cx="199.0202" cy="57" fill="#ADD1B2" rx="11" ry="11" style="stroke:#181818;stroke-width:1;"/><path d="M203.1295,63 L195.4108,63 L195.4108,50.6094 L203.1295,50.6094 L203.1295,52.7656 L197.8639,52.7656 L197.8639,55.4375 L202.6295,55.4375 L202.6295,57.5938 L197.8639,57.5938 L197.8639,60.8438 L203.1295,60.8438 L203.1295,63 Z " fill="#000000"/><text fill="#000000" font-family="sans-serif" font-size="14" lengthAdjust="spacing" textLength="57.1143" x="219.5202" y="61.8467">patients</text><line style="stroke:#181818;stroke-width:0.5;" x1="63.5" x2="400.1546" y1="73" y2="73"/><ellipse cx="73.5" cy="86.6484" fill="#000000" rx="3" ry="3" style="stroke:#000000;stroke-width:1;"/><text fill="#000000" font-family="sans-serif" font-size="14" lengthAdjust="spacing" textLength="138.79" x="82.5" y="89.9951">ulid patient_id &#171;PK&#187;</text><line style="stroke:#181818;stroke-width:1;" x1="63.5" x2="400.1546" y1="97.2969" y2="97.2969"/><text fill="#000000" font-family="sans-serif" font-size="14" lengthAdjust="spacing" textLength="84.3418" x="68.5" y="114.292">string name</text><text fill="#000000" font-family="sans-serif" font-size="14" lengthAdjust="spacing" textLength="326.6546" x="68.5" y="130.5889">string service_code_id "&#21463;&#12369;&#12390;&#12356;&#12427;&#12469;&#12540;&#12499;&#12473;&#20869;&#23481;"</text><text fill="#000000" font-family="sans-serif" font-size="14" lengthAdjust="spacing" textLength="281.9752" x="68.5" y="146.8857">string preferred_datetime "&#24076;&#26395;&#12377;&#12427;&#26085;&#26178;"</text><text fill="#000000" font-family="sans-serif" font-size="14" lengthAdjust="spacing" textLength="222.8583" x="68.5" y="163.1826">binary address_id &#171;FK&#187; "&#20303;&#25152;ID"</text><text fill="#000000" font-family="sans-serif" font-size="14" lengthAdjust="spacing" textLength="324.4056" x="68.5" y="179.4795">string preferred_gender "&#24076;&#26395;&#12377;&#12427;&#25285;&#24403;&#32773;&#12398;&#24615;&#21029;"</text><text fill="#000000" font-family="sans-serif" font-size="14" lengthAdjust="spacing" textLength="292.0034" x="68.5" y="195.7764">string user_id &#171;FK&#187; "&#25285;&#24403;&#12375;&#12390;&#12356;&#12427;&#30475;&#35703;&#24107;ID"</text><text fill="#000000" font-family="sans-serif" font-size="14" lengthAdjust="spacing" textLength="314.4938" x="68.5" y="212.0732">string recurring_schedule_id "&#32368;&#12426;&#36820;&#12375;&#20104;&#23450;ID"</text><text fill="#000000" font-family="sans-serif" font-size="14" lengthAdjust="spacing" textLength="241.0759" x="68.5" y="228.3701">binary area_id &#171;FK&#187; "&#25152;&#23646;&#12456;&#12522;&#12450;ID"</text><text fill="#000000" font-family="sans-serif" font-size="14" lengthAdjust="spacing" textLength="214.1971" x="68.5" y="244.667">binary facility_id &#171;FK&#187; "&#26045;&#35373;ID"</text></g><g id="elem_GMN4"><path d="M22,323.5 L22,348.6328 A0,0 0 0 0 22,348.6328 L402.2713,348.6328 A0,0 0 0 0 402.2713,348.6328 L402.2713,333.5 L392.2713,323.5 L236,323.5 L232,252.05 L228,323.5 L22,323.5 A0,0 0 0 0 22,323.5 " fill="#FEFFDD" style="stroke:#181818;stroke-width:0.5;"/><path d="M392.2713,323.5 L392.2713,333.5 L402.2713,333.5 L392.2713,323.5 " fill="#FEFFDD" style="stroke:#181818;stroke-width:0.5;"/><text fill="#000000" font-family="sans-serif" font-size="13" lengthAdjust="spacing" textLength="359.2713" x="28" y="340.5669">&#24076;&#26395;&#12377;&#12427;&#26085;&#26178;&#12399;&#12289;&#21320;&#21069;&#12539;&#21320;&#24460;&#12539;&#25351;&#23450;&#12394;&#12375;&#12398;3&#12388;&#12398;&#36984;&#25246;&#32930;&#12364;&#12354;&#12427;</text></g><!--class addresses--><g id="elem_addresses"><rect codeLine="23" fill="#F1F1F1" height="48" id="addresses" rx="2.5" ry="2.5" style="stroke:#181818;stroke-width:0.5;" width="103.2168" x="458.5" y="312"/><ellipse cx="473.5" cy="328" fill="#ADD1B2" rx="11" ry="11" style="stroke:#181818;stroke-width:1;"/><path d="M477.6094,334 L469.8906,334 L469.8906,321.6094 L477.6094,321.6094 L477.6094,323.7656 L472.3438,323.7656 L472.3438,326.4375 L477.1094,326.4375 L477.1094,328.5938 L472.3438,328.5938 L472.3438,331.8438 L477.6094,331.8438 L477.6094,334 Z " fill="#000000"/><text fill="#000000" font-family="sans-serif" font-size="14" lengthAdjust="spacing" textLength="71.2168" x="487.5" y="332.8467">addresses</text><line style="stroke:#181818;stroke-width:0.5;" x1="459.5" x2="560.7168" y1="344" y2="344"/><line style="stroke:#181818;stroke-width:0.5;" x1="459.5" x2="560.7168" y1="352" y2="352"/></g><!--class areas--><g id="elem_areas"><rect codeLine="27" fill="#F1F1F1" height="48" id="areas" rx="2.5" ry="2.5" style="stroke:#181818;stroke-width:0.5;" width="70.8213" x="618.5" y="312"/><ellipse cx="633.5" cy="328" fill="#ADD1B2" rx="11" ry="11" style="stroke:#181818;stroke-width:1;"/><path d="M637.6094,334 L629.8906,334 L629.8906,321.6094 L637.6094,321.6094 L637.6094,323.7656 L632.3438,323.7656 L632.3438,326.4375 L637.1094,326.4375 L637.1094,328.5938 L632.3438,328.5938 L632.3438,331.8438 L637.6094,331.8438 L637.6094,334 Z " fill="#000000"/><text fill="#000000" font-family="sans-serif" font-size="14" lengthAdjust="spacing" textLength="38.8213" x="647.5" y="332.8467">areas</text><line style="stroke:#181818;stroke-width:0.5;" x1="619.5" x2="688.3213" y1="344" y2="344"/><line style="stroke:#181818;stroke-width:0.5;" x1="619.5" x2="688.3213" y1="352" y2="352"/></g><!--class facilities--><g id="elem_facilities"><rect codeLine="31" fill="#F1F1F1" height="48" id="facilities" rx="2.5" ry="2.5" style="stroke:#181818;stroke-width:0.5;" width="90.1602" x="746" y="312"/><ellipse cx="761" cy="328" fill="#ADD1B2" rx="11" ry="11" style="stroke:#181818;stroke-width:1;"/><path d="M765.1094,334 L757.3906,334 L757.3906,321.6094 L765.1094,321.6094 L765.1094,323.7656 L759.8438,323.7656 L759.8438,326.4375 L764.6094,326.4375 L764.6094,328.5938 L759.8438,328.5938 L759.8438,331.8438 L765.1094,331.8438 L765.1094,334 Z " fill="#000000"/><text fill="#000000" font-family="sans-serif" font-size="14" lengthAdjust="spacing" textLength="58.1602" x="775" y="332.8467">facilities</text><line style="stroke:#181818;stroke-width:0.5;" x1="747" x2="835.1602" y1="344" y2="344"/><line style="stroke:#181818;stroke-width:0.5;" x1="747" x2="835.1602" y1="352" y2="352"/></g><!--class users--><g id="elem_users"><rect codeLine="35" fill="#F1F1F1" height="48" id="users" rx="2.5" ry="2.5" style="stroke:#181818;stroke-width:0.5;" width="69.8301" x="892" y="312"/><ellipse cx="907" cy="328" fill="#ADD1B2" rx="11" ry="11" style="stroke:#181818;stroke-width:1;"/><path d="M911.1094,334 L903.3906,334 L903.3906,321.6094 L911.1094,321.6094 L911.1094,323.7656 L905.8438,323.7656 L905.8438,326.4375 L910.6094,326.4375 L910.6094,328.5938 L905.8438,328.5938 L905.8438,331.8438 L911.1094,331.8438 L911.1094,334 Z " fill="#000000"/><text fill="#000000" font-family="sans-serif" font-size="14" lengthAdjust="spacing" textLength="37.8301" x="921" y="332.8467">users</text><line style="stroke:#181818;stroke-width:0.5;" x1="893" x2="960.8301" y1="344" y2="344"/><line style="stroke:#181818;stroke-width:0.5;" x1="893" x2="960.8301" y1="352" y2="352"/></g><!--class recurring_schedules--><g id="elem_recurring_schedules"><rect codeLine="39" fill="#F1F1F1" height="48" id="recurring_schedules" rx="2.5" ry="2.5" style="stroke:#181818;stroke-width:0.5;" width="173.1348" x="1018.5" y="312"/><ellipse cx="1033.5" cy="328" fill="#ADD1B2" rx="11" ry="11" style="stroke:#181818;stroke-width:1;"/><path d="M1037.6094,334 L1029.8906,334 L1029.8906,321.6094 L1037.6094,321.6094 L1037.6094,323.7656 L1032.3438,323.7656 L1032.3438,326.4375 L1037.1094,326.4375 L1037.1094,328.5938 L1032.3438,328.5938 L1032.3438,331.8438 L1037.6094,331.8438 L1037.6094,334 Z " fill="#000000"/><text fill="#000000" font-family="sans-serif" font-size="14" lengthAdjust="spacing" textLength="141.1348" x="1047.5" y="332.8467">recurring_schedules</text><line style="stroke:#181818;stroke-width:0.5;" x1="1019.5" x2="1190.6348" y1="344" y2="344"/><line style="stroke:#181818;stroke-width:0.5;" x1="1019.5" x2="1190.6348" y1="352" y2="352"/></g><!--class service_codes--><g id="elem_service_codes"><rect codeLine="43" fill="#F1F1F1" height="48" id="service_codes" rx="2.5" ry="2.5" style="stroke:#181818;stroke-width:0.5;" width="130.2051" x="1248" y="312"/><ellipse cx="1263" cy="328" fill="#ADD1B2" rx="11" ry="11" style="stroke:#181818;stroke-width:1;"/><path d="M1267.1094,334 L1259.3906,334 L1259.3906,321.6094 L1267.1094,321.6094 L1267.1094,323.7656 L1261.8438,323.7656 L1261.8438,326.4375 L1266.6094,326.4375 L1266.6094,328.5938 L1261.8438,328.5938 L1261.8438,331.8438 L1267.1094,331.8438 L1267.1094,334 Z " fill="#000000"/><text fill="#000000" font-family="sans-serif" font-size="14" lengthAdjust="spacing" textLength="98.2051" x="1277" y="332.8467">service_codes</text><line style="stroke:#181818;stroke-width:0.5;" x1="1249" x2="1377.2051" y1="344" y2="344"/><line style="stroke:#181818;stroke-width:0.5;" x1="1249" x2="1377.2051" y1="352" y2="352"/></g><!--link patients to facilities--><g id="link_patients_facilities"><path codeLine="46" d="M409.62,162 C574.11,162 791,162 791,162 C791,162 791,256 791,303.81 " fill="none" id="patients-facilities" style="stroke:#181818;stroke-width:1;"/><line style="stroke:#181818;stroke-width:1;" x1="405.62" x2="405.62" y1="166" y2="158"/><line style="stroke:#181818;stroke-width:1;" x1="408.62" x2="408.62" y1="166" y2="158"/><line style="stroke:#181818;stroke-width:1;" x1="409.62" x2="401.62" y1="162" y2="162"/><line style="stroke:#181818;stroke-width:1;" x1="795" x2="787" y1="307.81" y2="307.81"/><line style="stroke:#181818;stroke-width:1;" x1="795" x2="787" y1="304.81" y2="304.81"/><line style="stroke:#181818;stroke-width:1;" x1="791" x2="791" y1="303.81" y2="311.81"/></g><!--link patients to areas--><g id="link_patients_areas"><path codeLine="47" d="M409.52,192 C526.85,192 654,192 654,192 C654,192 654,262.9 654,303.9 " fill="none" id="patients-areas" style="stroke:#181818;stroke-width:1;"/><line style="stroke:#181818;stroke-width:1;" x1="405.52" x2="405.52" y1="196" y2="188"/><line style="stroke:#181818;stroke-width:1;" x1="408.52" x2="408.52" y1="196" y2="188"/><line style="stroke:#181818;stroke-width:1;" x1="409.52" x2="401.52" y1="192" y2="192"/><line style="stroke:#181818;stroke-width:1;" x1="658" x2="650" y1="307.9" y2="307.9"/><line style="stroke:#181818;stroke-width:1;" x1="658" x2="650" y1="304.9" y2="304.9"/><line style="stroke:#181818;stroke-width:1;" x1="654" x2="654" y1="303.9" y2="311.9"/></g><!--link patients to addresses--><g id="link_patients_addresses"><path codeLine="48" d="M409.72,222 C467.6,222 510,222 510,222 C510,222 510,270.36 510,303.82 " fill="none" id="patients-addresses" style="stroke:#181818;stroke-width:1;"/><line style="stroke:#181818;stroke-width:1;" x1="405.72" x2="405.72" y1="226" y2="218"/><line style="stroke:#181818;stroke-width:1;" x1="408.72" x2="408.72" y1="226" y2="218"/><line style="stroke:#181818;stroke-width:1;" x1="409.72" x2="401.72" y1="222" y2="222"/><line style="stroke:#181818;stroke-width:1;" x1="514" x2="506" y1="307.82" y2="307.82"/><line style="stroke:#181818;stroke-width:1;" x1="514" x2="506" y1="304.82" y2="304.82"/><line style="stroke:#181818;stroke-width:1;" x1="510" x2="510" y1="303.82" y2="311.82"/></g><!--link patients to service_codes--><g id="link_patients_service_codes"><path codeLine="49" d="M409.5,72 C713.73,72 1313,72 1313,72 C1313,72 1313,238.28 1313,303.64 " fill="none" id="patients-service_codes" style="stroke:#181818;stroke-width:1;"/><line style="stroke:#181818;stroke-width:1;" x1="405.5" x2="405.5" y1="76" y2="68"/><line style="stroke:#181818;stroke-width:1;" x1="408.5" x2="408.5" y1="76" y2="68"/><line style="stroke:#181818;stroke-width:1;" x1="409.5" x2="401.5" y1="72" y2="72"/><line style="stroke:#181818;stroke-width:1;" x1="1317" x2="1309" y1="307.64" y2="307.64"/><line style="stroke:#181818;stroke-width:1;" x1="1317" x2="1309" y1="304.64" y2="304.64"/><line style="stroke:#181818;stroke-width:1;" x1="1313" x2="1313" y1="303.64" y2="311.64"/></g><!--link patients to users--><g id="link_patients_users"><path codeLine="50" d="M409.57,132 C615.31,132 927,132 927,132 C927,132 927,249.76 927,303.8 " fill="none" id="patients-users" style="stroke:#181818;stroke-width:1;"/><line style="stroke:#181818;stroke-width:1;" x1="405.57" x2="405.57" y1="136" y2="128"/><line style="stroke:#181818;stroke-width:1;" x1="408.57" x2="408.57" y1="136" y2="128"/><line style="stroke:#181818;stroke-width:1;" x1="409.57" x2="401.57" y1="132" y2="132"/><line style="stroke:#181818;stroke-width:1;" x1="931" x2="923" y1="307.8" y2="307.8"/><line style="stroke:#181818;stroke-width:1;" x1="931" x2="923" y1="304.8" y2="304.8"/><line style="stroke:#181818;stroke-width:1;" x1="927" x2="927" y1="303.8" y2="311.8"/></g><!--link patients to recurring_schedules--><g id="link_patients_recurring_schedules"><path codeLine="51" d="M409.62,102 C663.54,102 1105,102 1105,102 C1105,102 1105,244.05 1105,303.84 " fill="none" id="patients-recurring_schedules" style="stroke:#181818;stroke-width:1;"/><line style="stroke:#181818;stroke-width:1;" x1="405.62" x2="405.62" y1="106" y2="98"/><line style="stroke:#181818;stroke-width:1;" x1="408.62" x2="408.62" y1="106" y2="98"/><line style="stroke:#181818;stroke-width:1;" x1="409.62" x2="401.62" y1="102" y2="102"/><line style="stroke:#181818;stroke-width:1;" x1="1109" x2="1101" y1="307.84" y2="307.84"/><line style="stroke:#181818;stroke-width:1;" x1="1109" x2="1101" y1="304.84" y2="304.84"/><line style="stroke:#181818;stroke-width:1;" x1="1105" x2="1105" y1="303.84" y2="311.84"/></g><!--SRC=[TLDVRn9147_dKsnuDE79rwPFniJuuZSWsxk1RWftP6zfGgJ9xI4AXOOOL59j6gss4apHFfY2YdwOwLxFR-5o1tX_zE6oSpE_typyPdQTFMRLAATLKc4MY4ODYCt5hftBrQYnHyj0VEzzuBRzLbkzlIAFSuI09PXea1eLJ9jEw2Fa3gbNcBds5hMvjVNeuVPs62mKmiCHd5bbOj4gnFyTuFlCWA9Xcx0avjLWXF8voWkKJz3heVSLMp-mDKHlhfwsrNIUZzDh74h0EPX5ameGh0ewmwpldxn1UQpf_kZSF_OYoWwpA6yGQfeS72VgyhxkakHl5WE_wpwuzv_KPR1CuAd4lRPQ3FLmK4vzzwFgd2V8TQqhNY62ennjXDsUz8BBQpNxb2hBmQZpfLLqZ5qmwvLeBBVpB-WT1hzUw1mttpfg-dhDMylYG1CLkwwwEaLlZAq9UcSfT8aQhA8tcM2yMWJZomXue3_B5a1sR27iAh5BcvthI7R2A3-ZAzLHHtMFiFLzQVpiQyFlFzEjefo4qgTtKNxGnsyvymzF0-yCPH-bfxE4LyiCI-OE_jw_Q37ncxVQ7ZXns4Pb0ga7aa15-hANUJKBbimPo6irV9T5BpUR04RRY4EoAqnc7a_Koq4sS_mfh0YhLzPi5WhDPhpHT2WIc_5kXfME96kbev76jFSVilu0]--></g></svg>