<svg xmlns="http://www.w3.org/2000/svg" xmlns:xlink="http://www.w3.org/1999/xlink" contentStyleType="text/css" height="559px" preserveAspectRatio="none" style="width:1302px;height:559px;background:#FFFFFF;" version="1.1" viewBox="0 0 1302 559" width="1302px" zoomAndPan="magnify"><defs/><g><!--cluster ??--><g id="cluster_&#27177;&#38480;"><path d="M8.5,6 L37.4999,6 A3.75,3.75 0 0 1 39.9999,8.5 L46.9999,28.2969 L1014.5,28.2969 A2.5,2.5 0 0 1 1017,30.7969 L1017,549.5 A2.5,2.5 0 0 1 1014.5,552 L8.5,552 A2.5,2.5 0 0 1 6,549.5 L6,8.5 A2.5,2.5 0 0 1 8.5,6 " fill="none" style="stroke:#000000;stroke-width:1.5;"/><line style="stroke:#000000;stroke-width:1.5;" x1="6" x2="46.9999" y1="28.2969" y2="28.2969"/><text fill="#000000" font-family="sans-serif" font-size="14" font-weight="bold" lengthAdjust="spacing" textLength="27.9999" x="10" y="20.9951">&#27177;&#38480;</text></g><!--cluster ????--><g id="cluster_&#32887;&#21729;&#24773;&#22577;"><path d="M1195.5,22.5 L1252.4998,22.5 A3.75,3.75 0 0 1 1254.9998,25 L1261.9998,44.7969 L1292.5,44.7969 A2.5,2.5 0 0 1 1295,47.2969 L1295,119 A2.5,2.5 0 0 1 1292.5,121.5 L1195.5,121.5 A2.5,2.5 0 0 1 1193,119 L1193,25 A2.5,2.5 0 0 1 1195.5,22.5 " fill="none" style="stroke:#000000;stroke-width:1.5;"/><line style="stroke:#000000;stroke-width:1.5;" x1="1193" x2="1261.9998" y1="44.7969" y2="44.7969"/><text fill="#000000" font-family="sans-serif" font-size="14" font-weight="bold" lengthAdjust="spacing" textLength="55.9998" x="1197" y="37.4951">&#32887;&#21729;&#24773;&#22577;</text></g><!--cluster ????--><g id="cluster_&#26045;&#35373;&#24773;&#22577;"><path d="M1043.5,22.5 L1100.4998,22.5 A3.75,3.75 0 0 1 1102.9998,25 L1109.9998,44.7969 L1166.5,44.7969 A2.5,2.5 0 0 1 1169,47.2969 L1169,119 A2.5,2.5 0 0 1 1166.5,121.5 L1043.5,121.5 A2.5,2.5 0 0 1 1041,119 L1041,25 A2.5,2.5 0 0 1 1043.5,22.5 " fill="none" style="stroke:#000000;stroke-width:1.5;"/><line style="stroke:#000000;stroke-width:1.5;" x1="1041" x2="1109.9998" y1="44.7969" y2="44.7969"/><text fill="#000000" font-family="sans-serif" font-size="14" font-weight="bold" lengthAdjust="spacing" textLength="55.9998" x="1045" y="37.4951">&#26045;&#35373;&#24773;&#22577;</text></g><!--class policies--><g id="elem_policies"><rect codeLine="4" fill="#F1F1F1" height="80.5938" id="policies" rx="2.5" ry="2.5" style="stroke:#181818;stroke-width:0.5;" width="183.6706" x="588" y="41"/><ellipse cx="649.2225" cy="57" fill="#ADD1B2" rx="11" ry="11" style="stroke:#181818;stroke-width:1;"/><path d="M653.3319,63 L645.6131,63 L645.6131,50.6094 L653.3319,50.6094 L653.3319,52.7656 L648.0663,52.7656 L648.0663,55.4375 L652.8319,55.4375 L652.8319,57.5938 L648.0663,57.5938 L648.0663,60.8438 L653.3319,60.8438 L653.3319,63 Z " fill="#000000"/><text fill="#000000" font-family="sans-serif" font-size="14" lengthAdjust="spacing" textLength="52.7256" x="669.7225" y="61.8467">policies</text><line style="stroke:#181818;stroke-width:0.5;" x1="589" x2="770.6706" y1="73" y2="73"/><ellipse cx="599" cy="86.6484" fill="#000000" rx="3" ry="3" style="stroke:#000000;stroke-width:1;"/><text fill="#000000" font-family="sans-serif" font-size="14" lengthAdjust="spacing" textLength="100.7002" x="608" y="89.9951">binary id &#171;PK&#187;</text><line style="stroke:#181818;stroke-width:1;" x1="589" x2="770.6706" y1="97.2969" y2="97.2969"/><text fill="#000000" font-family="sans-serif" font-size="14" lengthAdjust="spacing" textLength="171.6706" x="594" y="114.292">string name "&#12509;&#12522;&#12471;&#12540;&#21517;"</text></g><!--class position_policies--><g id="elem_position_policies"><rect codeLine="10" fill="#F1F1F1" height="96.8906" id="position_policies" rx="2.5" ry="2.5" style="stroke:#181818;stroke-width:0.5;" width="248.7625" x="413.5" y="182"/><ellipse cx="476.0419" cy="198" fill="#ADD1B2" rx="11" ry="11" style="stroke:#181818;stroke-width:1;"/><path d="M480.1512,204 L472.4325,204 L472.4325,191.6094 L480.1512,191.6094 L480.1512,193.7656 L474.8856,193.7656 L474.8856,196.4375 L479.6512,196.4375 L479.6512,198.5938 L474.8856,198.5938 L474.8856,201.8438 L480.1512,201.8438 L480.1512,204 Z " fill="#000000"/><text fill="#000000" font-family="sans-serif" font-size="14" lengthAdjust="spacing" textLength="115.1787" x="496.5419" y="202.8467">position_policies</text><line style="stroke:#181818;stroke-width:0.5;" x1="414.5" x2="661.2625" y1="214" y2="214"/><ellipse cx="424.5" cy="227.6484" fill="#000000" rx="3" ry="3" style="stroke:#000000;stroke-width:1;"/><text fill="#000000" font-family="sans-serif" font-size="14" lengthAdjust="spacing" textLength="100.7002" x="433.5" y="230.9951">binary id &#171;PK&#187;</text><line style="stroke:#181818;stroke-width:1;" x1="414.5" x2="661.2625" y1="238.2969" y2="238.2969"/><text fill="#000000" font-family="sans-serif" font-size="14" lengthAdjust="spacing" textLength="223.0018" x="419.5" y="255.292">binary position_id &#171;FK&#187; "&#24441;&#32887;ID"</text><text fill="#000000" font-family="sans-serif" font-size="14" lengthAdjust="spacing" textLength="236.7625" x="419.5" y="271.5889">binary policy_id &#171;FK&#187; "&#12509;&#12522;&#12471;&#12540;ID"</text></g><g id="elem_GMN5"><path d="M21.5,367.5 L21.5,407.7656 L382.9885,407.7656 L382.9885,377.5 L372.9885,367.5 L21.5,367.5 " fill="#FEFFDD" style="stroke:#181818;stroke-width:0.5;"/><path d="M372.9885,367.5 L372.9885,377.5 L382.9885,377.5 L372.9885,367.5 " fill="#FEFFDD" style="stroke:#181818;stroke-width:1;"/><text fill="#000000" font-family="sans-serif" font-size="13" lengthAdjust="spacing" textLength="234.0003" x="27.5" y="384.5669">&#24441;&#32887;&#12372;&#12392;&#12395;&#35373;&#23450;&#12373;&#12428;&#12427;&#12487;&#12501;&#12457;&#12523;&#12488;&#12398;&#27177;&#38480;</text><text fill="#000000" font-family="sans-serif" font-size="13" lengthAdjust="spacing" textLength="340.4885" x="27.5" y="399.6997">&#24441;&#32887;&#12364;&#36861;&#21152;&#12539;&#22793;&#26356;&#12373;&#12428;&#12383;&#38555;&#12395;&#12289;UserPolicy&#12364;&#19978;&#26360;&#12365;&#12373;&#12428;&#12427;</text></g><!--class user_policies--><g id="elem_user_policies"><rect codeLine="21" fill="#F1F1F1" height="96.8906" id="user_policies" rx="2.5" ry="2.5" style="stroke:#181818;stroke-width:0.5;" width="248.7625" x="697.5" y="182"/><ellipse cx="772.5004" cy="198" fill="#ADD1B2" rx="11" ry="11" style="stroke:#181818;stroke-width:1;"/><path d="M776.6097,204 L768.891,204 L768.891,191.6094 L776.6097,191.6094 L776.6097,193.7656 L771.3441,193.7656 L771.3441,196.4375 L776.1097,196.4375 L776.1097,198.5938 L771.3441,198.5938 L771.3441,201.8438 L776.6097,201.8438 L776.6097,204 Z " fill="#000000"/><text fill="#000000" font-family="sans-serif" font-size="14" lengthAdjust="spacing" textLength="90.2617" x="793.0004" y="202.8467">user_policies</text><line style="stroke:#181818;stroke-width:0.5;" x1="698.5" x2="945.2625" y1="214" y2="214"/><ellipse cx="708.5" cy="227.6484" fill="#000000" rx="3" ry="3" style="stroke:#000000;stroke-width:1;"/><text fill="#000000" font-family="sans-serif" font-size="14" lengthAdjust="spacing" textLength="100.7002" x="717.5" y="230.9951">binary id &#171;PK&#187;</text><line style="stroke:#181818;stroke-width:1;" x1="698.5" x2="945.2625" y1="238.2969" y2="238.2969"/><text fill="#000000" font-family="sans-serif" font-size="14" lengthAdjust="spacing" textLength="226.0847" x="703.5" y="255.292">binary user_id &#171;FK&#187; "&#12518;&#12540;&#12470;&#12540;ID"</text><text fill="#000000" font-family="sans-serif" font-size="14" lengthAdjust="spacing" textLength="236.7625" x="703.5" y="271.5889">binary policy_id &#171;FK&#187; "&#12509;&#12522;&#12471;&#12540;ID"</text></g><g id="elem_GMN9"><path d="M418,367.5 L418,407.7656 L608.0002,407.7656 L608.0002,377.5 L598.0002,367.5 L418,367.5 " fill="#FEFFDD" style="stroke:#181818;stroke-width:0.5;"/><path d="M598.0002,367.5 L598.0002,377.5 L608.0002,377.5 L598.0002,367.5 " fill="#FEFFDD" style="stroke:#181818;stroke-width:1;"/><text fill="#000000" font-family="sans-serif" font-size="13" lengthAdjust="spacing" textLength="156.0002" x="424" y="384.5669">&#12518;&#12540;&#12470;&#12540;&#12364;&#25345;&#12387;&#12390;&#12356;&#12427;&#27177;&#38480;</text><text fill="#000000" font-family="sans-serif" font-size="13" lengthAdjust="spacing" textLength="169.0002" x="424" y="399.6997">&#35469;&#21487;&#12395;&#12399;&#12371;&#12398;&#24773;&#22577;&#12434;&#21442;&#29031;&#12377;&#12427;</text></g><!--class user_policy_targets--><g id="elem_user_policy_targets"><rect codeLine="32" fill="#F1F1F1" height="96.8906" id="user_policy_targets" rx="2.5" ry="2.5" style="stroke:#181818;stroke-width:0.5;" width="357.8979" x="643" y="339"/><ellipse cx="749.7702" cy="355" fill="#ADD1B2" rx="11" ry="11" style="stroke:#181818;stroke-width:1;"/><path d="M753.8796,361 L746.1609,361 L746.1609,348.6094 L753.8796,348.6094 L753.8796,350.7656 L748.614,350.7656 L748.614,353.4375 L753.3796,353.4375 L753.3796,355.5938 L748.614,355.5938 L748.614,358.8438 L753.8796,358.8438 L753.8796,361 Z " fill="#000000"/><text fill="#000000" font-family="sans-serif" font-size="14" lengthAdjust="spacing" textLength="135.8574" x="770.2702" y="359.8467">user_policy_targets</text><line style="stroke:#181818;stroke-width:0.5;" x1="644" x2="999.8979" y1="371" y2="371"/><ellipse cx="654" cy="384.6484" fill="#000000" rx="3" ry="3" style="stroke:#000000;stroke-width:1;"/><text fill="#000000" font-family="sans-serif" font-size="14" lengthAdjust="spacing" textLength="100.7002" x="663" y="387.9951">binary id &#171;PK&#187;</text><line style="stroke:#181818;stroke-width:1;" x1="644" x2="999.8979" y1="395.2969" y2="395.2969"/><text fill="#000000" font-family="sans-serif" font-size="14" lengthAdjust="spacing" textLength="330.2983" x="649" y="412.292">binary user_policy_id &#171;FK&#187; "&#12518;&#12540;&#12470;&#12540;&#12509;&#12522;&#12471;&#12540;ID"</text><text fill="#000000" font-family="sans-serif" font-size="14" lengthAdjust="spacing" textLength="345.8979" x="649" y="428.5889">binary target_user_id &#171;FK&#187; "&#12479;&#12540;&#12466;&#12483;&#12488;&#12518;&#12540;&#12470;&#12540;ID"</text></g><g id="elem_GMN13"><path d="M615.5,496 L615.5,536.2656 A0,0 0 0 0 615.5,536.2656 L1000.5003,536.2656 A0,0 0 0 0 1000.5003,536.2656 L1000.5003,506 L990.5003,496 L825.75,496 L821.75,436.08 L817.75,496 L615.5,496 A0,0 0 0 0 615.5,496 " fill="#FEFFDD" style="stroke:#181818;stroke-width:0.5;"/><path d="M990.5003,496 L990.5003,506 L1000.5003,506 L990.5003,496 " fill="#FEFFDD" style="stroke:#181818;stroke-width:0.5;"/><text fill="#000000" font-family="sans-serif" font-size="13" lengthAdjust="spacing" textLength="364.0003" x="621.5" y="513.0669">&#29305;&#23450;&#12398;&#12518;&#12540;&#12470;&#12540;&#12509;&#12522;&#12471;&#12540;&#12395;&#38306;&#36899;&#12377;&#12427;&#12479;&#12540;&#12466;&#12483;&#12488;&#12518;&#12540;&#12470;&#12540;&#12398;&#31649;&#29702;</text><text fill="#000000" font-family="sans-serif" font-size="13" lengthAdjust="spacing" textLength="203.5124" x="621.5" y="528.1997">&#20363;: &#12459;&#12524;&#12531;&#12480;&#12540;&#12398;&#38322;&#35239;&#23550;&#35937;&#12518;&#12540;&#12470;&#12540;</text></g><!--class users--><g id="elem_users"><rect codeLine="45" fill="#F1F1F1" height="48" id="users" rx="2.5" ry="2.5" style="stroke:#181818;stroke-width:0.5;" width="69.8301" x="1209" y="57.5"/><ellipse cx="1224" cy="73.5" fill="#ADD1B2" rx="11" ry="11" style="stroke:#181818;stroke-width:1;"/><path d="M1228.1094,79.5 L1220.3906,79.5 L1220.3906,67.1094 L1228.1094,67.1094 L1228.1094,69.2656 L1222.8438,69.2656 L1222.8438,71.9375 L1227.6094,71.9375 L1227.6094,74.0938 L1222.8438,74.0938 L1222.8438,77.3438 L1228.1094,77.3438 L1228.1094,79.5 Z " fill="#000000"/><text fill="#000000" font-family="sans-serif" font-size="14" lengthAdjust="spacing" textLength="37.8301" x="1238" y="78.3467">users</text><line style="stroke:#181818;stroke-width:0.5;" x1="1210" x2="1277.8301" y1="89.5" y2="89.5"/><line style="stroke:#181818;stroke-width:0.5;" x1="1210" x2="1277.8301" y1="97.5" y2="97.5"/></g><!--class positions--><g id="elem_positions"><rect codeLine="49" fill="#F1F1F1" height="48" id="positions" rx="2.5" ry="2.5" style="stroke:#181818;stroke-width:0.5;" width="94.7471" x="1057.5" y="57.5"/><ellipse cx="1072.5" cy="73.5" fill="#ADD1B2" rx="11" ry="11" style="stroke:#181818;stroke-width:1;"/><path d="M1076.6094,79.5 L1068.8906,79.5 L1068.8906,67.1094 L1076.6094,67.1094 L1076.6094,69.2656 L1071.3438,69.2656 L1071.3438,71.9375 L1076.1094,71.9375 L1076.1094,74.0938 L1071.3438,74.0938 L1071.3438,77.3438 L1076.6094,77.3438 L1076.6094,79.5 Z " fill="#000000"/><text fill="#000000" font-family="sans-serif" font-size="14" lengthAdjust="spacing" textLength="62.7471" x="1086.5" y="78.3467">positions</text><line style="stroke:#181818;stroke-width:0.5;" x1="1058.5" x2="1151.2471" y1="89.5" y2="89.5"/><line style="stroke:#181818;stroke-width:0.5;" x1="1058.5" x2="1151.2471" y1="97.5" y2="97.5"/></g><!--link position_policies to GMN5--><g id="link_position_policies_GMN5"><path d="M413.36,231 C317.74,231 202,231 202,231 C202,231 202,325.09 202,367.36 " fill="none" id="position_policies-GMN5" style="stroke:#181818;stroke-width:1;stroke-dasharray:7.0,7.0;"/></g><!--link user_policies to GMN9--><g id="link_user_policies_GMN9"><path d="M780.5,279.32 C780.5,295.29 780.5,309 780.5,309 C780.5,309 513,309 513,309 C513,309 513,344.03 513,367.28 " fill="none" id="user_policies-GMN9" style="stroke:#181818;stroke-width:1;stroke-dasharray:7.0,7.0;"/></g><!--link policies to position_policies--><g id="link_policies_position_policies"><path codeLine="52" d="M612.83,130.21 C612.83,148.65 612.83,144.6 612.83,163.89 " fill="none" id="policies-position_policies" style="stroke:#181818;stroke-width:1;"/><line style="stroke:#181818;stroke-width:1;" x1="608.83" x2="616.83" y1="126.21" y2="126.21"/><line style="stroke:#181818;stroke-width:1;" x1="608.83" x2="616.83" y1="129.21" y2="129.21"/><line style="stroke:#181818;stroke-width:1;" x1="612.83" x2="612.83" y1="130.21" y2="122.21"/><line style="stroke:#181818;stroke-width:1;" x1="612.83" x2="618.83" y1="173.89" y2="181.89"/><line style="stroke:#181818;stroke-width:1;" x1="612.83" x2="606.83" y1="173.89" y2="181.89"/><line style="stroke:#181818;stroke-width:1;" x1="612.83" x2="612.83" y1="173.89" y2="181.89"/><ellipse cx="612.83" cy="167.89" fill="none" rx="4" ry="4" style="stroke:#181818;stroke-width:1;"/></g><!--link policies to user_policies--><g id="link_policies_user_policies"><path codeLine="53" d="M734.75,130.21 C734.75,148.65 734.75,144.6 734.75,163.89 " fill="none" id="policies-user_policies" style="stroke:#181818;stroke-width:1;"/><line style="stroke:#181818;stroke-width:1;" x1="730.75" x2="738.75" y1="126.21" y2="126.21"/><line style="stroke:#181818;stroke-width:1;" x1="730.75" x2="738.75" y1="129.21" y2="129.21"/><line style="stroke:#181818;stroke-width:1;" x1="734.75" x2="734.75" y1="130.21" y2="122.21"/><line style="stroke:#181818;stroke-width:1;" x1="734.75" x2="740.75" y1="173.89" y2="181.89"/><line style="stroke:#181818;stroke-width:1;" x1="734.75" x2="728.75" y1="173.89" y2="181.89"/><line style="stroke:#181818;stroke-width:1;" x1="734.75" x2="734.75" y1="173.89" y2="181.89"/><ellipse cx="734.75" cy="167.89" fill="none" rx="4" ry="4" style="stroke:#181818;stroke-width:1;"/></g><!--link users to user_policies--><g id="link_users_user_policies"><path codeLine="54" d="M1232.33,113.52 C1232.33,155.78 1232.33,231 1232.33,231 C1232.33,231 1085.25,231 964.51,231 " fill="none" id="users-user_policies" style="stroke:#181818;stroke-width:1;"/><line style="stroke:#181818;stroke-width:1;" x1="1228.33" x2="1236.33" y1="109.52" y2="109.52"/><line style="stroke:#181818;stroke-width:1;" x1="1228.33" x2="1236.33" y1="112.52" y2="112.52"/><line style="stroke:#181818;stroke-width:1;" x1="1232.33" x2="1232.33" y1="113.52" y2="105.52"/><line style="stroke:#181818;stroke-width:1;" x1="954.51" x2="946.51" y1="231" y2="237"/><line style="stroke:#181818;stroke-width:1;" x1="954.51" x2="946.51" y1="231" y2="225"/><line style="stroke:#181818;stroke-width:1;" x1="954.51" x2="946.51" y1="231" y2="231"/><ellipse cx="960.51" cy="231" fill="none" rx="4" ry="4" style="stroke:#181818;stroke-width:1;"/></g><!--link positions to position_policies--><g id="link_positions_position_policies"><path codeLine="55" d="M1105,113.76 C1105,134.16 1105,152 1105,152 C1105,152 637.67,152 637.67,152 C637.67,152 637.67,147.71 637.67,163.68 " fill="none" id="positions-position_policies" style="stroke:#181818;stroke-width:1;"/><line style="stroke:#181818;stroke-width:1;" x1="1101" x2="1109" y1="109.76" y2="109.76"/><line style="stroke:#181818;stroke-width:1;" x1="1101" x2="1109" y1="112.76" y2="112.76"/><line style="stroke:#181818;stroke-width:1;" x1="1105" x2="1105" y1="113.76" y2="105.76"/><line style="stroke:#181818;stroke-width:1;" x1="637.67" x2="643.67" y1="173.68" y2="181.68"/><line style="stroke:#181818;stroke-width:1;" x1="637.67" x2="631.67" y1="173.68" y2="181.68"/><line style="stroke:#181818;stroke-width:1;" x1="637.67" x2="637.67" y1="173.68" y2="181.68"/><ellipse cx="637.67" cy="167.68" fill="none" rx="4" ry="4" style="stroke:#181818;stroke-width:1;"/></g><!--link user_policies to user_policy_targets--><g id="link_user_policies_user_policy_targets"><path codeLine="56" d="M863.5,287.32 C863.5,306.31 863.5,302.02 863.5,320.98 " fill="none" id="user_policies-user_policy_targets" style="stroke:#181818;stroke-width:1;"/><line style="stroke:#181818;stroke-width:1;" x1="859.5" x2="867.5" y1="283.32" y2="283.32"/><line style="stroke:#181818;stroke-width:1;" x1="859.5" x2="867.5" y1="286.32" y2="286.32"/><line style="stroke:#181818;stroke-width:1;" x1="863.5" x2="863.5" y1="287.32" y2="279.32"/><line style="stroke:#181818;stroke-width:1;" x1="863.5" x2="869.5" y1="330.98" y2="338.98"/><line style="stroke:#181818;stroke-width:1;" x1="863.5" x2="857.5" y1="330.98" y2="338.98"/><line style="stroke:#181818;stroke-width:1;" x1="863.5" x2="863.5" y1="330.98" y2="338.98"/><ellipse cx="863.5" cy="324.98" fill="none" rx="4" ry="4" style="stroke:#181818;stroke-width:1;"/></g><!--link users to user_policy_targets--><g id="link_users_user_policy_targets"><path codeLine="57" d="M1255.67,113.55 C1255.67,185.81 1255.67,388 1255.67,388 C1255.67,388 1138.59,388 1019.21,388 " fill="none" id="users-user_policy_targets" style="stroke:#181818;stroke-width:1;"/><line style="stroke:#181818;stroke-width:1;" x1="1251.67" x2="1259.67" y1="109.55" y2="109.55"/><line style="stroke:#181818;stroke-width:1;" x1="1251.67" x2="1259.67" y1="112.55" y2="112.55"/><line style="stroke:#181818;stroke-width:1;" x1="1255.67" x2="1255.67" y1="113.55" y2="105.55"/><line style="stroke:#181818;stroke-width:1;" x1="1009.21" x2="1001.21" y1="388" y2="394"/><line style="stroke:#181818;stroke-width:1;" x1="1009.21" x2="1001.21" y1="388" y2="382"/><line style="stroke:#181818;stroke-width:1;" x1="1009.21" x2="1001.21" y1="388" y2="388"/><ellipse cx="1015.21" cy="388" fill="none" rx="4" ry="4" style="stroke:#181818;stroke-width:1;"/></g><!--SRC=[fPJDJjj058NtUOfHbfNo0XLYXIfLtR3fEZ8mf2E87TdJXGMHCXwW1H8HbJOIH1MaL2502O9M1LG23tCPntwBJiPWndM2Ihl8Z-nppxdtynqxSyGi6RPHHFF4nDGjOMJPz8sLoPICwJcZW97VEGYtwcWXWn0sAQ4kAbdpP9fWHrr3w1cQ8gPXkuZCeB6noLVZu-foBgT-76eJiu1CeuXH5lXdu8VWdGE_4lLQLYhA6TtO8PHOPlv92NVtuc8bUY55A2jwbm4xVpcHJGgbkQlBzBOYSLb-J8jYD6LHQXMHDPjkJdb62S0-0ki0EmewnwAx3UmJU5Nmre6_0ox_7m0_0luUM3UYcIYj1ZSziROB_9VukketVznLivrmkoajeS9UEzYUL5rBzUt5cj-y05QBKnJ06TMl1lEjBFedaAemGQSjkO3tCwRploWJhIa_FKFEw5SPi3rWRM1BSa0DMd1O4nid0onCVcyEYF9biNiAtWUnuVMNzu5j_GKIDqyDku3fqy4C6rdhFJL-N1q5vbDqlHjLVGQS3rOa1VjHVl4SAgc_Ugcshpkg9SajR7m9AtiHfKUofKc_s-hNLvJnxVNwSmIUtE5lmBy3hqIAi74MjFV5oNLmsjABTVhbXpU9t7QnsOgUb_u-6OpZw4A_qPC7AIsyFuAH-7wr5nTpEMjXoFdyKv5SEvKw_5QSCzexURfIBW_FPKHCBFWD]--></g></svg>