<svg xmlns="http://www.w3.org/2000/svg" xmlns:xlink="http://www.w3.org/1999/xlink" contentStyleType="text/css" height="403px" preserveAspectRatio="none" style="width:902px;height:403px;background:#FFFFFF;" version="1.1" viewBox="0 0 902 403" width="902px" zoomAndPan="magnify"><defs/><g><!--cluster ??--><g id="cluster_&#27177;&#38480;"><path d="M8.5,6 L37.5,6 A3.75,3.75 0 0 1 40,8.5 L47,28.4883 L618.5,28.4883 A2.5,2.5 0 0 1 621,30.9883 L621,393.56 A2.5,2.5 0 0 1 618.5,396.06 L8.5,396.06 A2.5,2.5 0 0 1 6,393.56 L6,8.5 A2.5,2.5 0 0 1 8.5,6 " fill="none" style="stroke:#000000;stroke-width:1.5;"/><line style="stroke:#000000;stroke-width:1.5;" x1="6" x2="47" y1="28.4883" y2="28.4883"/><text fill="#000000" font-family="sans-serif" font-size="14" font-weight="bold" lengthAdjust="spacing" textLength="28" x="10" y="21.5352">&#27177;&#38480;</text></g><!--cluster ????--><g id="cluster_&#32887;&#21729;&#24773;&#22577;"><path d="M647.5,22.49 L704.5,22.49 A3.75,3.75 0 0 1 707,24.99 L714,44.9783 L742.5,44.9783 A2.5,2.5 0 0 1 745,47.4783 L745,118.99 A2.5,2.5 0 0 1 742.5,121.49 L647.5,121.49 A2.5,2.5 0 0 1 645,118.99 L645,24.99 A2.5,2.5 0 0 1 647.5,22.49 " fill="none" style="stroke:#000000;stroke-width:1.5;"/><line style="stroke:#000000;stroke-width:1.5;" x1="645" x2="714" y1="44.9783" y2="44.9783"/><text fill="#000000" font-family="sans-serif" font-size="14" font-weight="bold" lengthAdjust="spacing" textLength="56" x="649" y="38.0252">&#32887;&#21729;&#24773;&#22577;</text></g><!--cluster ????--><g id="cluster_&#26045;&#35373;&#24773;&#22577;"><path d="M771.5,22.49 L828.5,22.49 A3.75,3.75 0 0 1 831,24.99 L838,44.9783 L892.5,44.9783 A2.5,2.5 0 0 1 895,47.4783 L895,118.99 A2.5,2.5 0 0 1 892.5,121.49 L771.5,121.49 A2.5,2.5 0 0 1 769,118.99 L769,24.99 A2.5,2.5 0 0 1 771.5,22.49 " fill="none" style="stroke:#000000;stroke-width:1.5;"/><line style="stroke:#000000;stroke-width:1.5;" x1="769" x2="838" y1="44.9783" y2="44.9783"/><text fill="#000000" font-family="sans-serif" font-size="14" font-weight="bold" lengthAdjust="spacing" textLength="56" x="773" y="38.0252">&#26045;&#35373;&#24773;&#22577;</text></g><!--class policies--><g id="elem_policies"><rect codeLine="4" fill="#F1F1F1" height="80.9766" id="policies" rx="2.5" ry="2.5" style="stroke:#181818;stroke-width:0.5;" width="178.1748" x="227.91" y="41"/><ellipse cx="286.9178" cy="57" fill="#ADD1B2" rx="11" ry="11" style="stroke:#181818;stroke-width:1.0;"/><path d="M290.5321,63.5 L282.8123,63.5 L282.8123,51.1069 L290.5321,51.1069 L290.5321,53.2651 L285.2611,53.2651 L285.2611,55.938 L290.034,55.938 L290.034,58.0962 L285.2611,58.0962 L285.2611,61.3418 L290.5321,61.3418 Z " fill="#000000"/><text fill="#000000" font-family="sans-serif" font-size="14" lengthAdjust="spacing" textLength="51.6592" x="307.4178" y="62.291">policies</text><line style="stroke:#181818;stroke-width:0.5;" x1="228.91" x2="405.0848" y1="73" y2="73"/><ellipse cx="238.91" cy="86.7441" fill="#000000" rx="3" ry="3" style="stroke:#000000;stroke-width:1.0;"/><text fill="#000000" font-family="sans-serif" font-size="14" lengthAdjust="spacing" textLength="95.5869" x="247.91" y="90.5352">binary id &#171;PK&#187;</text><line style="stroke:#181818;stroke-width:1.0;" x1="228.91" x2="405.0848" y1="97.4883" y2="97.4883"/><text fill="#000000" font-family="sans-serif" font-size="14" lengthAdjust="spacing" textLength="166.1748" x="233.91" y="115.0234">string name "&#12509;&#12522;&#12471;&#12540;&#21517;"</text></g><!--class position_policies--><g id="elem_position_policies"><rect codeLine="10" fill="#F1F1F1" height="97.4648" id="position_policies" rx="2.5" ry="2.5" style="stroke:#181818;stroke-width:0.5;" width="239.7529" x="335.12" y="181.97"/><ellipse cx="393.8339" cy="197.97" fill="#ADD1B2" rx="11" ry="11" style="stroke:#181818;stroke-width:1.0;"/><path d="M397.4481,204.47 L389.7284,204.47 L389.7284,192.0769 L397.4481,192.0769 L397.4481,194.2351 L392.1771,194.2351 L392.1771,196.908 L396.9501,196.908 L396.9501,199.0662 L392.1771,199.0662 L392.1771,202.3118 L397.4481,202.3118 Z " fill="#000000"/><text fill="#000000" font-family="sans-serif" font-size="14" lengthAdjust="spacing" textLength="113.8252" x="414.3339" y="203.261">position_policies</text><line style="stroke:#181818;stroke-width:0.5;" x1="336.12" x2="573.8729" y1="213.97" y2="213.97"/><ellipse cx="346.12" cy="227.7141" fill="#000000" rx="3" ry="3" style="stroke:#000000;stroke-width:1.0;"/><text fill="#000000" font-family="sans-serif" font-size="14" lengthAdjust="spacing" textLength="95.5869" x="355.12" y="231.5052">binary id &#171;PK&#187;</text><line style="stroke:#181818;stroke-width:1.0;" x1="336.12" x2="573.8729" y1="238.4583" y2="238.4583"/><text fill="#000000" font-family="sans-serif" font-size="14" lengthAdjust="spacing" textLength="214.9287" x="341.12" y="255.9934">binary position_id &#171;FK&#187; "&#24441;&#32887;ID"</text><text fill="#000000" font-family="sans-serif" font-size="14" lengthAdjust="spacing" textLength="227.7529" x="341.12" y="272.4817">binary policy_id &#171;FK&#187; "&#12509;&#12522;&#12471;&#12540;ID"</text></g><g id="elem_GMN5"><path d="M246.83,339.44 L246.83,380.0611 A0,0 0 0 0 246.83,380.0611 L605.1635,380.0611 A0,0 0 0 0 605.1635,380.0611 L605.1635,349.44 L595.1635,339.44 L459,339.44 L455,279.86 L451,339.44 L246.83,339.44 A0,0 0 0 0 246.83,339.44 " fill="#FEFFDD" style="stroke:#181818;stroke-width:0.5;"/><path d="M595.1635,339.44 L595.1635,349.44 L605.1635,349.44 L595.1635,339.44 " fill="#FEFFDD" style="stroke:#181818;stroke-width:0.5;"/><text fill="#000000" font-family="sans-serif" font-size="13" lengthAdjust="spacing" textLength="234" x="252.83" y="357.0084">&#24441;&#32887;&#12372;&#12392;&#12395;&#35373;&#23450;&#12373;&#12428;&#12427;&#12487;&#12501;&#12457;&#12523;&#12488;&#12398;&#27177;&#38480;</text><text fill="#000000" font-family="sans-serif" font-size="13" lengthAdjust="spacing" textLength="337.3335" x="252.83" y="372.3189">&#24441;&#32887;&#12364;&#36861;&#21152;&#12539;&#22793;&#26356;&#12373;&#12428;&#12383;&#38555;&#12395;&#12289;UserPolicy&#12364;&#19978;&#26360;&#12365;&#12373;&#12428;&#12427;</text></g><!--class user_policies--><g id="elem_user_policies"><rect codeLine="21" fill="#F1F1F1" height="97.4648" id="user_policies" rx="2.5" ry="2.5" style="stroke:#181818;stroke-width:0.5;" width="239.7529" x="60.12" y="181.97"/><ellipse cx="131.7401" cy="197.97" fill="#ADD1B2" rx="11" ry="11" style="stroke:#181818;stroke-width:1.0;"/><path d="M135.3544,204.47 L127.6346,204.47 L127.6346,192.0769 L135.3544,192.0769 L135.3544,194.2351 L130.0834,194.2351 L130.0834,196.908 L134.8563,196.908 L134.8563,199.0662 L130.0834,199.0662 L130.0834,202.3118 L135.3544,202.3118 Z " fill="#000000"/><text fill="#000000" font-family="sans-serif" font-size="14" lengthAdjust="spacing" textLength="88.0127" x="152.2401" y="203.261">user_policies</text><line style="stroke:#181818;stroke-width:0.5;" x1="61.12" x2="298.8729" y1="213.97" y2="213.97"/><ellipse cx="71.12" cy="227.7141" fill="#000000" rx="3" ry="3" style="stroke:#000000;stroke-width:1.0;"/><text fill="#000000" font-family="sans-serif" font-size="14" lengthAdjust="spacing" textLength="95.5869" x="80.12" y="231.5052">binary id &#171;PK&#187;</text><line style="stroke:#181818;stroke-width:1.0;" x1="61.12" x2="298.8729" y1="238.4583" y2="238.4583"/><text fill="#000000" font-family="sans-serif" font-size="14" lengthAdjust="spacing" textLength="217.1162" x="66.12" y="255.9934">binary user_id &#171;FK&#187; "&#12518;&#12540;&#12470;&#12540;ID"</text><text fill="#000000" font-family="sans-serif" font-size="14" lengthAdjust="spacing" textLength="227.7529" x="66.12" y="272.4817">binary policy_id &#171;FK&#187; "&#12509;&#12522;&#12471;&#12540;ID"</text></g><g id="elem_GMN9"><path d="M22,339.44 L22,380.0611 A0,0 0 0 0 22,380.0611 L212,380.0611 A0,0 0 0 0 212,380.0611 L212,349.44 L202,339.44 L140.06,339.44 L136.06,279.86 L132.06,339.44 L22,339.44 A0,0 0 0 0 22,339.44 " fill="#FEFFDD" style="stroke:#181818;stroke-width:0.5;"/><path d="M202,339.44 L202,349.44 L212,349.44 L202,339.44 " fill="#FEFFDD" style="stroke:#181818;stroke-width:0.5;"/><text fill="#000000" font-family="sans-serif" font-size="13" lengthAdjust="spacing" textLength="156" x="28" y="357.0084">&#12518;&#12540;&#12470;&#12540;&#12364;&#25345;&#12387;&#12390;&#12356;&#12427;&#27177;&#38480;</text><text fill="#000000" font-family="sans-serif" font-size="13" lengthAdjust="spacing" textLength="169" x="28" y="372.3189">&#35469;&#21487;&#12395;&#12399;&#12371;&#12398;&#24773;&#22577;&#12434;&#21442;&#29031;&#12377;&#12427;</text></g><!--class users--><g id="elem_users"><rect codeLine="34" fill="#F1F1F1" height="48" id="users" rx="2.5" ry="2.5" style="stroke:#181818;stroke-width:0.5;" width="68.4902" x="660.75" y="57.49"/><ellipse cx="675.75" cy="73.49" fill="#ADD1B2" rx="11" ry="11" style="stroke:#181818;stroke-width:1.0;"/><path d="M679.3643,79.99 L671.6445,79.99 L671.6445,67.5969 L679.3643,67.5969 L679.3643,69.7551 L674.0933,69.7551 L674.0933,72.428 L678.8662,72.428 L678.8662,74.5862 L674.0933,74.5862 L674.0933,77.8318 L679.3643,77.8318 Z " fill="#000000"/><text fill="#000000" font-family="sans-serif" font-size="14" lengthAdjust="spacing" textLength="36.4902" x="689.75" y="78.781">users</text><line style="stroke:#181818;stroke-width:0.5;" x1="661.75" x2="728.2402" y1="89.49" y2="89.49"/><line style="stroke:#181818;stroke-width:0.5;" x1="661.75" x2="728.2402" y1="97.49" y2="97.49"/></g><!--class positions--><g id="elem_positions"><rect codeLine="38" fill="#F1F1F1" height="48" id="positions" rx="2.5" ry="2.5" style="stroke:#181818;stroke-width:0.5;" width="94.3027" x="784.85" y="57.49"/><ellipse cx="799.85" cy="73.49" fill="#ADD1B2" rx="11" ry="11" style="stroke:#181818;stroke-width:1.0;"/><path d="M803.4643,79.99 L795.7445,79.99 L795.7445,67.5969 L803.4643,67.5969 L803.4643,69.7551 L798.1933,69.7551 L798.1933,72.428 L802.9662,72.428 L802.9662,74.5862 L798.1933,74.5862 L798.1933,77.8318 L803.4643,77.8318 Z " fill="#000000"/><text fill="#000000" font-family="sans-serif" font-size="14" lengthAdjust="spacing" textLength="62.3027" x="813.85" y="78.781">positions</text><line style="stroke:#181818;stroke-width:0.5;" x1="785.85" x2="878.1527" y1="89.49" y2="89.49"/><line style="stroke:#181818;stroke-width:0.5;" x1="785.85" x2="878.1527" y1="97.49" y2="97.49"/></g><!--link policies to position_policies--><g id="link_policies_position_policies"><path codeLine="41" d="M370.61,130.26 C370.61,148.55 370.61,144.29 370.61,163.48 " fill="none" id="policies-position_policies" style="stroke:#181818;stroke-width:1.0;"/><line style="stroke:#181818;stroke-width:1.0;" x1="366.61" x2="374.61" y1="126.26" y2="126.26"/><line style="stroke:#181818;stroke-width:1.0;" x1="366.61" x2="374.61" y1="129.26" y2="129.26"/><line style="stroke:#181818;stroke-width:1.0;" x1="370.61" x2="370.61" y1="130.26" y2="122.26"/><line style="stroke:#181818;stroke-width:1.0;" x1="370.61" x2="376.61" y1="173.48" y2="181.48"/><line style="stroke:#181818;stroke-width:1.0;" x1="370.61" x2="364.61" y1="173.48" y2="181.48"/><line style="stroke:#181818;stroke-width:1.0;" x1="370.61" x2="370.61" y1="173.48" y2="181.48"/><ellipse cx="370.61" cy="167.48" fill="none" rx="4" ry="4" style="stroke:#181818;stroke-width:1.0;"/></g><!--link policies to user_policies--><g id="link_policies_user_policies"><path codeLine="42" d="M251.9,130.26 C251.9,148.55 251.9,144.29 251.9,163.48 " fill="none" id="policies-user_policies" style="stroke:#181818;stroke-width:1.0;"/><line style="stroke:#181818;stroke-width:1.0;" x1="247.9" x2="255.9" y1="126.26" y2="126.26"/><line style="stroke:#181818;stroke-width:1.0;" x1="247.9" x2="255.9" y1="129.26" y2="129.26"/><line style="stroke:#181818;stroke-width:1.0;" x1="251.9" x2="251.9" y1="130.26" y2="122.26"/><line style="stroke:#181818;stroke-width:1.0;" x1="251.9" x2="257.9" y1="173.48" y2="181.48"/><line style="stroke:#181818;stroke-width:1.0;" x1="251.9" x2="245.9" y1="173.48" y2="181.48"/><line style="stroke:#181818;stroke-width:1.0;" x1="251.9" x2="251.9" y1="173.48" y2="181.48"/><ellipse cx="251.9" cy="167.48" fill="none" rx="4" ry="4" style="stroke:#181818;stroke-width:1.0;"/></g><!--link users to user_policies--><g id="link_users_user_policies"><path codeLine="43" d="M695,113.74 C695,134.13 695,151.97 695,151.97 C695,151.97 275.89,151.97 275.89,151.97 C275.89,151.97 275.89,147.73 275.89,163.74 " fill="none" id="users-user_policies" style="stroke:#181818;stroke-width:1.0;"/><line style="stroke:#181818;stroke-width:1.0;" x1="691" x2="699" y1="109.74" y2="109.74"/><line style="stroke:#181818;stroke-width:1.0;" x1="691" x2="699" y1="112.74" y2="112.74"/><line style="stroke:#181818;stroke-width:1.0;" x1="695" x2="695" y1="113.74" y2="105.74"/><line style="stroke:#181818;stroke-width:1.0;" x1="275.89" x2="281.89" y1="173.74" y2="181.74"/><line style="stroke:#181818;stroke-width:1.0;" x1="275.89" x2="269.89" y1="173.74" y2="181.74"/><line style="stroke:#181818;stroke-width:1.0;" x1="275.89" x2="275.89" y1="173.74" y2="181.74"/><ellipse cx="275.89" cy="167.74" fill="none" rx="4" ry="4" style="stroke:#181818;stroke-width:1.0;"/></g><!--link positions to position_policies--><g id="link_positions_position_policies"><path codeLine="44" d="M832,113.79 C832,156.08 832,230.71 832,230.71 C832,230.71 703.65,230.71 593.32,230.71 " fill="none" id="positions-position_policies" style="stroke:#181818;stroke-width:1.0;"/><line style="stroke:#181818;stroke-width:1.0;" x1="828" x2="836" y1="109.79" y2="109.79"/><line style="stroke:#181818;stroke-width:1.0;" x1="828" x2="836" y1="112.79" y2="112.79"/><line style="stroke:#181818;stroke-width:1.0;" x1="832" x2="832" y1="113.79" y2="105.79"/><line style="stroke:#181818;stroke-width:1.0;" x1="583.32" x2="575.32" y1="230.71" y2="236.71"/><line style="stroke:#181818;stroke-width:1.0;" x1="583.32" x2="575.32" y1="230.71" y2="224.71"/><line style="stroke:#181818;stroke-width:1.0;" x1="583.32" x2="575.32" y1="230.71" y2="230.71"/><ellipse cx="589.32" cy="230.71" fill="none" rx="4" ry="4" style="stroke:#181818;stroke-width:1.0;"/></g><!--SRC=[fPBBIiD058RtVOf3bqBVGBeIGTouSIsfHXtQPaeoBaejE1b5hIqLRz0MiQ9eBwW8uWKjFinnOdqBfvEs9buMwYB9CFEVy__pvJX9OcKCsqX3YbWcosPCe3PRf958nfXD6WicU8tcMsKRSX40qsA4PI53KsIMc8xU0nY11B4CEmja3aP7foRZSRqTY-cFmsnYBO1bf4s8eZX4qKBt3iMJt2v5bI8V2JPs22FKclcLG_ziMAn5uqe4KTbvwFAxYR5eMAYQPuEoO2nVd5UFHPa92SeOJGET_nfEz_GTaEyXRo1lTniNyhAAV1_T8hfRADPHg7KJHHl51l9BdsQejDXzxiX27SMZFDtqQZVzQdxqLgsfbhZ2fntJdjAfbVhblk3Lxf6NXYuQu9pE6u2vf8h-158NXkYSAIxetWxf_1TbA9hk5_HGT_IA7Fa9yZFag-g20MZTLacMhtfOk7hlzeYADLc_HdT7bjtNjNFabKz8yX-ph7ZBtME_8ZZHlK1EKEWTTDIl_2eS384l7i1TNex5QEwR2Vci25zSktv_DFJviVSx]--></g></svg>