<?xml version="1.0" encoding="UTF-8" standalone="no"?><svg xmlns="http://www.w3.org/2000/svg" xmlns:xlink="http://www.w3.org/1999/xlink" contentScriptType="application/ecmascript" contentStyleType="text/css" height="553px" preserveAspectRatio="none" style="width:1252px;height:553px;" version="1.1" viewBox="0 0 1252 553" width="1252px" zoomAndPan="magnify"><defs><filter height="300%" id="f13rucqhworear" width="300%" x="-1" y="-1"><feGaussianBlur result="blurOut" stdDeviation="2.0"/><feColorMatrix in="blurOut" result="blurOut2" type="matrix" values="0 0 0 0 0 0 0 0 0 0 0 0 0 0 0 0 0 0 .4 0"/><feOffset dx="4.0" dy="4.0" in="blurOut2" result="blurOut3"/><feBlend in="SourceGraphic" in2="blurOut3" mode="normal"/></filter></defs><g><!--MD5=[ae09dabfa09c874c19446006d7b92480]
cluster 権限--><polygon fill="#FFFFFF" filter="url(#f13rucqhworear)" points="22,24,56,24,63,46.2969,962,46.2969,962,541,22,541,22,24" style="stroke: #000000; stroke-width: 1.5;"/><line style="stroke: #000000; stroke-width: 1.5;" x1="22" x2="63" y1="46.2969" y2="46.2969"/><text fill="#000000" font-family="sans-serif" font-size="14" font-weight="bold" lengthAdjust="spacingAndGlyphs" textLength="28" x="26" y="38.9951">権限</text><!--MD5=[af7553808e27414a6663019e1dd2c0e6]
cluster 職員情報--><polygon fill="#FFFFFF" filter="url(#f13rucqhworear)" points="1130,37,1192,37,1199,59.2969,1230,59.2969,1230,136,1130,136,1130,37" style="stroke: #000000; stroke-width: 1.5;"/><line style="stroke: #000000; stroke-width: 1.5;" x1="1130" x2="1199" y1="59.2969" y2="59.2969"/><text fill="#000000" font-family="sans-serif" font-size="14" font-weight="bold" lengthAdjust="spacingAndGlyphs" textLength="56" x="1134" y="51.9951">職員情報</text><!--MD5=[eace04a6a715c010434b3f14fc7f454a]
cluster 施設情報--><polygon fill="#FFFFFF" filter="url(#f13rucqhworear)" points="986,37,1048,37,1055,59.2969,1106,59.2969,1106,136,986,136,986,37" style="stroke: #000000; stroke-width: 1.5;"/><line style="stroke: #000000; stroke-width: 1.5;" x1="986" x2="1055" y1="59.2969" y2="59.2969"/><text fill="#000000" font-family="sans-serif" font-size="14" font-weight="bold" lengthAdjust="spacingAndGlyphs" textLength="56" x="990" y="51.9951">施設情報</text><!--MD5=[b6245c3b9fb71e5f96fc6befd4fbd7b3]
class policies--><rect fill="#FEFECE" filter="url(#f13rucqhworear)" height="73.6094" id="policies" style="stroke: #A80036; stroke-width: 1.5;" width="150" x="610" y="59"/><ellipse cx="657.25" cy="75" fill="#ADD1B2" rx="11" ry="11" style="stroke: #A80036; stroke-width: 1.0;"/><path d="M661.3594,81 L653.6406,81 L653.6406,68.6094 L661.3594,68.6094 L661.3594,70.7656 L656.0938,70.7656 L656.0938,73.4375 L660.8594,73.4375 L660.8594,75.5938 L656.0938,75.5938 L656.0938,78.8438 L661.3594,78.8438 L661.3594,81 Z "/><text fill="#000000" font-family="sans-serif" font-size="12" lengthAdjust="spacingAndGlyphs" textLength="47" x="677.75" y="79.1543">policies</text><line style="stroke: #A80036; stroke-width: 1.5;" x1="611" x2="759" y1="91" y2="91"/><ellipse cx="621" cy="102" fill="#000000" rx="3" ry="3" style="stroke: #000000; stroke-width: 1.0;"/><text fill="#000000" font-family="sans-serif" font-size="11" lengthAdjust="spacingAndGlyphs" textLength="81" x="630" y="105.2104">binary id «PK»</text><line style="stroke: #A80036; stroke-width: 1.0;" x1="611" x2="759" y1="111.8047" y2="111.8047"/><text fill="#000000" font-family="sans-serif" font-size="11" lengthAdjust="spacingAndGlyphs" textLength="138" x="616" y="126.0151">string name "ポリシー名"</text><!--MD5=[2f257e76f8e3329912bd507a0dd4f261]
class position_policies--><rect fill="#FEFECE" filter="url(#f13rucqhworear)" height="86.4141" id="position_policies" style="stroke: #A80036; stroke-width: 1.5;" width="199" x="468.5" y="193"/><ellipse cx="512.3" cy="209" fill="#ADD1B2" rx="11" ry="11" style="stroke: #A80036; stroke-width: 1.0;"/><path d="M516.4094,215 L508.6906,215 L508.6906,202.6094 L516.4094,202.6094 L516.4094,204.7656 L511.1437,204.7656 L511.1437,207.4375 L515.9094,207.4375 L515.9094,209.5938 L511.1437,209.5938 L511.1437,212.8438 L516.4094,212.8438 L516.4094,215 Z "/><text fill="#000000" font-family="sans-serif" font-size="12" lengthAdjust="spacingAndGlyphs" textLength="103" x="532.7" y="213.1543">position_policies</text><line style="stroke: #A80036; stroke-width: 1.5;" x1="469.5" x2="666.5" y1="225" y2="225"/><ellipse cx="479.5" cy="236" fill="#000000" rx="3" ry="3" style="stroke: #000000; stroke-width: 1.0;"/><text fill="#000000" font-family="sans-serif" font-size="11" lengthAdjust="spacingAndGlyphs" textLength="81" x="488.5" y="239.2104">binary id «PK»</text><line style="stroke: #A80036; stroke-width: 1.0;" x1="469.5" x2="666.5" y1="245.8047" y2="245.8047"/><text fill="#000000" font-family="sans-serif" font-size="11" lengthAdjust="spacingAndGlyphs" textLength="178" x="474.5" y="260.0151">binary position_id «FK» "役職ID"</text><text fill="#000000" font-family="sans-serif" font-size="11" lengthAdjust="spacingAndGlyphs" textLength="187" x="474.5" y="272.8198">binary policy_id «FK» "ポリシーID"</text><path d="M38,362 L38,402.2656 L398,402.2656 L398,372 L388,362 L38,362 " fill="#FBFB77" filter="url(#f13rucqhworear)" style="stroke: #A80036; stroke-width: 1.0;"/><path d="M388,362 L388,372 L398,372 L388,362 " fill="#FBFB77" style="stroke: #A80036; stroke-width: 1.0;"/><text fill="#000000" font-family="sans-serif" font-size="13" lengthAdjust="spacingAndGlyphs" textLength="234" x="44" y="379.0669">役職ごとに設定されるデフォルトの権限</text><text fill="#000000" font-family="sans-serif" font-size="13" lengthAdjust="spacingAndGlyphs" textLength="339" x="44" y="394.1997">役職が追加・変更された際に、UserPolicyが上書きされる</text><!--MD5=[c4338755aabecda9480e1cd4778f674f]
class user_policies--><rect fill="#FEFECE" filter="url(#f13rucqhworear)" height="86.4141" id="user_policies" style="stroke: #A80036; stroke-width: 1.5;" width="199" x="702.5" y="193"/><ellipse cx="757.25" cy="209" fill="#ADD1B2" rx="11" ry="11" style="stroke: #A80036; stroke-width: 1.0;"/><path d="M761.3594,215 L753.6406,215 L753.6406,202.6094 L761.3594,202.6094 L761.3594,204.7656 L756.0938,204.7656 L756.0938,207.4375 L760.8594,207.4375 L760.8594,209.5938 L756.0938,209.5938 L756.0938,212.8438 L761.3594,212.8438 L761.3594,215 Z "/><text fill="#000000" font-family="sans-serif" font-size="12" lengthAdjust="spacingAndGlyphs" textLength="81" x="777.75" y="213.1543">user_policies</text><line style="stroke: #A80036; stroke-width: 1.5;" x1="703.5" x2="900.5" y1="225" y2="225"/><ellipse cx="713.5" cy="236" fill="#000000" rx="3" ry="3" style="stroke: #000000; stroke-width: 1.0;"/><text fill="#000000" font-family="sans-serif" font-size="11" lengthAdjust="spacingAndGlyphs" textLength="81" x="722.5" y="239.2104">binary id «PK»</text><line style="stroke: #A80036; stroke-width: 1.0;" x1="703.5" x2="900.5" y1="245.8047" y2="245.8047"/><text fill="#000000" font-family="sans-serif" font-size="11" lengthAdjust="spacingAndGlyphs" textLength="181" x="708.5" y="260.0151">binary user_id «FK» "ユーザーID"</text><text fill="#000000" font-family="sans-serif" font-size="11" lengthAdjust="spacingAndGlyphs" textLength="187" x="708.5" y="272.8198">binary policy_id «FK» "ポリシーID"</text><path d="M433,362 L433,402.2656 L623,402.2656 L623,372 L613,362 L433,362 " fill="#FBFB77" filter="url(#f13rucqhworear)" style="stroke: #A80036; stroke-width: 1.0;"/><path d="M613,362 L613,372 L623,372 L613,362 " fill="#FBFB77" style="stroke: #A80036; stroke-width: 1.0;"/><text fill="#000000" font-family="sans-serif" font-size="13" lengthAdjust="spacingAndGlyphs" textLength="156" x="439" y="379.0669">ユーザーが持っている権限</text><text fill="#000000" font-family="sans-serif" font-size="13" lengthAdjust="spacingAndGlyphs" textLength="169" x="439" y="394.1997">認可にはこの情報を参照する</text><!--MD5=[b016a77ebb6b22a5d6d381114c43f7a5]
class user_policy_targets--><rect fill="#FEFECE" filter="url(#f13rucqhworear)" height="86.4141" id="user_policy_targets" style="stroke: #A80036; stroke-width: 1.5;" width="288" x="658" y="339"/><ellipse cx="737.25" cy="355" fill="#ADD1B2" rx="11" ry="11" style="stroke: #A80036; stroke-width: 1.0;"/><path d="M741.3594,361 L733.6406,361 L733.6406,348.6094 L741.3594,348.6094 L741.3594,350.7656 L736.0938,350.7656 L736.0938,353.4375 L740.8594,353.4375 L740.8594,355.5938 L736.0938,355.5938 L736.0938,358.8438 L741.3594,358.8438 L741.3594,361 Z "/><text fill="#000000" font-family="sans-serif" font-size="12" lengthAdjust="spacingAndGlyphs" textLength="121" x="757.75" y="359.1543">user_policy_targets</text><line style="stroke: #A80036; stroke-width: 1.5;" x1="659" x2="945" y1="371" y2="371"/><ellipse cx="669" cy="382" fill="#000000" rx="3" ry="3" style="stroke: #000000; stroke-width: 1.0;"/><text fill="#000000" font-family="sans-serif" font-size="11" lengthAdjust="spacingAndGlyphs" textLength="81" x="678" y="385.2104">binary id «PK»</text><line style="stroke: #A80036; stroke-width: 1.0;" x1="659" x2="945" y1="391.8047" y2="391.8047"/><text fill="#000000" font-family="sans-serif" font-size="11" lengthAdjust="spacingAndGlyphs" textLength="263" x="664" y="406.0151">binary user_policy_id «FK» "ユーザーポリシーID"</text><text fill="#000000" font-family="sans-serif" font-size="11" lengthAdjust="spacingAndGlyphs" textLength="276" x="664" y="418.8198">binary target_user_id «FK» "ターゲットユーザーID"</text><path d="M560.5,485 L560.5,525.2656 A0,0 0 0 0 560.5,525.2656 L945.5,525.2656 A0,0 0 0 0 945.5,525.2656 L945.5,495 L935.5,485 L805.75,485 L801.75,425.02 L797.75,485 L560.5,485 A0,0 0 0 0 560.5,485 " fill="#FBFB77" filter="url(#f13rucqhworear)" style="stroke: #A80036; stroke-width: 1.0;"/><path d="M935.5,485 L935.5,495 L945.5,495 L935.5,485 " fill="#FBFB77" style="stroke: #A80036; stroke-width: 1.0;"/><text fill="#000000" font-family="sans-serif" font-size="13" lengthAdjust="spacingAndGlyphs" textLength="364" x="566.5" y="502.0669">特定のユーザーポリシーに関連するターゲットユーザーの管理</text><text fill="#000000" font-family="sans-serif" font-size="13" lengthAdjust="spacingAndGlyphs" textLength="203" x="566.5" y="517.1997">例: カレンダーの閲覧対象ユーザー</text><!--MD5=[8413f8248b2da7966d2de021109ec289]
class users--><rect fill="#FEFECE" filter="url(#f13rucqhworear)" height="48" id="users" style="stroke: #A80036; stroke-width: 1.5;" width="67" x="1146.5" y="72"/><ellipse cx="1161.5" cy="88" fill="#ADD1B2" rx="11" ry="11" style="stroke: #A80036; stroke-width: 1.0;"/><path d="M1165.6094,94 L1157.8906,94 L1157.8906,81.6094 L1165.6094,81.6094 L1165.6094,83.7656 L1160.3438,83.7656 L1160.3438,86.4375 L1165.1094,86.4375 L1165.1094,88.5938 L1160.3438,88.5938 L1160.3438,91.8438 L1165.6094,91.8438 L1165.6094,94 Z "/><text fill="#000000" font-family="sans-serif" font-size="12" lengthAdjust="spacingAndGlyphs" textLength="35" x="1175.5" y="92.1543">users</text><line style="stroke: #A80036; stroke-width: 1.5;" x1="1147.5" x2="1212.5" y1="104" y2="104"/><line style="stroke: #A80036; stroke-width: 1.5;" x1="1147.5" x2="1212.5" y1="112" y2="112"/><!--MD5=[6c84c4f3a21a87fd355cd02b69660fa8]
class positions--><rect fill="#FEFECE" filter="url(#f13rucqhworear)" height="48" id="positions" style="stroke: #A80036; stroke-width: 1.5;" width="89" x="1001.5" y="72"/><ellipse cx="1016.5" cy="88" fill="#ADD1B2" rx="11" ry="11" style="stroke: #A80036; stroke-width: 1.0;"/><path d="M1020.6094,94 L1012.8906,94 L1012.8906,81.6094 L1020.6094,81.6094 L1020.6094,83.7656 L1015.3438,83.7656 L1015.3438,86.4375 L1020.1094,86.4375 L1020.1094,88.5938 L1015.3438,88.5938 L1015.3438,91.8438 L1020.6094,91.8438 L1020.6094,94 Z "/><text fill="#000000" font-family="sans-serif" font-size="12" lengthAdjust="spacingAndGlyphs" textLength="57" x="1030.5" y="92.1543">positions</text><line style="stroke: #A80036; stroke-width: 1.5;" x1="1002.5" x2="1089.5" y1="104" y2="104"/><line style="stroke: #A80036; stroke-width: 1.5;" x1="1002.5" x2="1089.5" y1="112" y2="112"/><!--MD5=[390e7321322147f8391227fe8b66992c]
link position_policies to GMN5--><path d="M468.17,236 C364.72,236 218,236 218,236 C218,236 218,321.58 218,361.7 " fill="none" id="position_policies-GMN5" style="stroke: #A80036; stroke-width: 1.0; stroke-dasharray: 7.0,7.0;"/><!--MD5=[a0c1a28dc7e625f8f7e1492ec9df0662]
link user_policies to GMN9--><path d="M768.83,279.31 C768.83,295.03 768.83,309 768.83,309 C768.83,309 545.75,309 545.75,309 C545.75,309 545.75,340.07 545.75,361.67 " fill="none" id="user_policies-GMN9" style="stroke: #A80036; stroke-width: 1.0; stroke-dasharray: 7.0,7.0;"/><!--MD5=[08487274bbb669543550a1d509544c9e]
link policies to position_policies--><path d="M629.17,141.15 C629.17,141.15 629.17,184.97 629.17,184.97 " fill="none" id="policies-position_policies" style="stroke: #A80036; stroke-width: 1.0;"/><line style="stroke: #A80036; stroke-width: 1.0;" x1="629.17" x2="635.17" y1="184.97" y2="192.97"/><line style="stroke: #A80036; stroke-width: 1.0;" x1="629.17" x2="623.17" y1="184.97" y2="192.97"/><line style="stroke: #A80036; stroke-width: 1.0;" x1="629.17" x2="629.17" y1="184.97" y2="192.97"/><ellipse cx="629.17" cy="178.97" fill="none" rx="4" ry="4" style="stroke: #A80036; stroke-width: 1.0;"/><line style="stroke: #A80036; stroke-width: 1.0;" x1="625.17" x2="633.17" y1="137.15" y2="137.15"/><line style="stroke: #A80036; stroke-width: 1.0;" x1="625.17" x2="633.17" y1="140.15" y2="140.15"/><line style="stroke: #A80036; stroke-width: 1.0;" x1="629.17" x2="629.17" y1="141.15" y2="133.15"/><!--MD5=[3e410c4ca1440bafa1af5caeb2914890]
link policies to user_policies--><path d="M731.25,141.15 C731.25,141.15 731.25,184.97 731.25,184.97 " fill="none" id="policies-user_policies" style="stroke: #A80036; stroke-width: 1.0;"/><line style="stroke: #A80036; stroke-width: 1.0;" x1="731.25" x2="737.25" y1="184.97" y2="192.97"/><line style="stroke: #A80036; stroke-width: 1.0;" x1="731.25" x2="725.25" y1="184.97" y2="192.97"/><line style="stroke: #A80036; stroke-width: 1.0;" x1="731.25" x2="731.25" y1="184.97" y2="192.97"/><ellipse cx="731.25" cy="178.97" fill="none" rx="4" ry="4" style="stroke: #A80036; stroke-width: 1.0;"/><line style="stroke: #A80036; stroke-width: 1.0;" x1="727.25" x2="735.25" y1="137.15" y2="137.15"/><line style="stroke: #A80036; stroke-width: 1.0;" x1="727.25" x2="735.25" y1="140.15" y2="140.15"/><line style="stroke: #A80036; stroke-width: 1.0;" x1="731.25" x2="731.25" y1="141.15" y2="133.15"/><!--MD5=[60eea88c16a8b6e32b999ef7f1b2f856]
link users to user_policies--><path d="M1168.83,128.07 C1168.83,128.07 1168.83,236 1168.83,236 C1168.83,236 909.75,236 909.75,236 " fill="none" id="users-user_policies" style="stroke: #A80036; stroke-width: 1.0;"/><line style="stroke: #A80036; stroke-width: 1.0;" x1="909.75" x2="901.75" y1="236" y2="242"/><line style="stroke: #A80036; stroke-width: 1.0;" x1="909.75" x2="901.75" y1="236" y2="230"/><line style="stroke: #A80036; stroke-width: 1.0;" x1="909.75" x2="901.75" y1="236" y2="236"/><ellipse cx="915.75" cy="236" fill="none" rx="4" ry="4" style="stroke: #A80036; stroke-width: 1.0;"/><line style="stroke: #A80036; stroke-width: 1.0;" x1="1164.83" x2="1172.83" y1="124.07" y2="124.07"/><line style="stroke: #A80036; stroke-width: 1.0;" x1="1164.83" x2="1172.83" y1="127.07" y2="127.07"/><line style="stroke: #A80036; stroke-width: 1.0;" x1="1168.83" x2="1168.83" y1="128.07" y2="120.07"/><!--MD5=[287a4fc58412cac724cea39acf313a9f]
link positions to position_policies--><path d="M1046,128.19 C1046,128.19 1046,163 1046,163 C1046,163 648.33,163 648.33,163 C648.33,163 648.33,184.69 648.33,184.69 " fill="none" id="positions-position_policies" style="stroke: #A80036; stroke-width: 1.0;"/><line style="stroke: #A80036; stroke-width: 1.0;" x1="648.33" x2="654.33" y1="184.69" y2="192.69"/><line style="stroke: #A80036; stroke-width: 1.0;" x1="648.33" x2="642.33" y1="184.69" y2="192.69"/><line style="stroke: #A80036; stroke-width: 1.0;" x1="648.33" x2="648.33" y1="184.69" y2="192.69"/><ellipse cx="648.33" cy="178.69" fill="none" rx="4" ry="4" style="stroke: #A80036; stroke-width: 1.0;"/><line style="stroke: #A80036; stroke-width: 1.0;" x1="1042" x2="1050" y1="124.19" y2="124.19"/><line style="stroke: #A80036; stroke-width: 1.0;" x1="1042" x2="1050" y1="127.19" y2="127.19"/><line style="stroke: #A80036; stroke-width: 1.0;" x1="1046" x2="1046" y1="128.19" y2="120.19"/><!--MD5=[b76c18be5ef248a587318f3ae98b6419]
link user_policies to user_policy_targets--><path d="M835.17,287.02 C835.17,287.02 835.17,330.79 835.17,330.79 " fill="none" id="user_policies-user_policy_targets" style="stroke: #A80036; stroke-width: 1.0;"/><line style="stroke: #A80036; stroke-width: 1.0;" x1="835.17" x2="841.17" y1="330.79" y2="338.79"/><line style="stroke: #A80036; stroke-width: 1.0;" x1="835.17" x2="829.17" y1="330.79" y2="338.79"/><line style="stroke: #A80036; stroke-width: 1.0;" x1="835.17" x2="835.17" y1="330.79" y2="338.79"/><ellipse cx="835.17" cy="324.79" fill="none" rx="4" ry="4" style="stroke: #A80036; stroke-width: 1.0;"/><line style="stroke: #A80036; stroke-width: 1.0;" x1="831.17" x2="839.17" y1="283.02" y2="283.02"/><line style="stroke: #A80036; stroke-width: 1.0;" x1="831.17" x2="839.17" y1="286.02" y2="286.02"/><line style="stroke: #A80036; stroke-width: 1.0;" x1="835.17" x2="835.17" y1="287.02" y2="279.02"/><!--MD5=[642326cadcde8dc177b835bc50c8ca0b]
link users to user_policy_targets--><path d="M1191.17,128.38 C1191.17,128.38 1191.17,382 1191.17,382 C1191.17,382 954.08,382 954.08,382 " fill="none" id="users-user_policy_targets" style="stroke: #A80036; stroke-width: 1.0;"/><line style="stroke: #A80036; stroke-width: 1.0;" x1="954.08" x2="946.08" y1="382" y2="388"/><line style="stroke: #A80036; stroke-width: 1.0;" x1="954.08" x2="946.08" y1="382" y2="376"/><line style="stroke: #A80036; stroke-width: 1.0;" x1="954.08" x2="946.08" y1="382" y2="382"/><ellipse cx="960.08" cy="382" fill="none" rx="4" ry="4" style="stroke: #A80036; stroke-width: 1.0;"/><line style="stroke: #A80036; stroke-width: 1.0;" x1="1187.17" x2="1195.17" y1="124.38" y2="124.38"/><line style="stroke: #A80036; stroke-width: 1.0;" x1="1187.17" x2="1195.17" y1="127.38" y2="127.38"/><line style="stroke: #A80036; stroke-width: 1.0;" x1="1191.17" x2="1191.17" y1="128.38" y2="120.38"/><!--MD5=[de0cb0b710a55f8504455a6d3b603d97]
@startuml entity-relationship-diagram
skinparam linetype ortho

package 権限 {
  entity policies {
    * binary id <<PK>>
    - -
    string name "ポリシー名"
  }

  entity position_policies {
    * binary id <<PK>>
    - -
    binary position_id <<FK>> "役職ID"
    binary policy_id <<FK>> "ポリシーID"
  }
  note bottom of position_policies
    役職ごとに設定されるデフォルトの権限
    役職が追加・変更された際に、UserPolicyが上書きされる
  end note

  entity user_policies {
    * binary id <<PK>>
    - -
    binary user_id <<FK>> "ユーザーID"
    binary policy_id <<FK>> "ポリシーID"
  }
  note bottom of user_policies
    ユーザーが持っている権限
    認可にはこの情報を参照する
  end note

  entity user_policy_targets {
    * binary id <<PK>>
    - -
    binary user_policy_id <<FK>> "ユーザーポリシーID"
    binary target_user_id <<FK>> "ターゲットユーザーID"
  }
  note bottom of user_policy_targets
    特定のユーザーポリシーに関連するターゲットユーザーの管理
    例: カレンダーの閲覧対象ユーザー
  end note
}

package 職員情報 {
  entity users
}

package 施設情報 {
  entity positions
}

policies ||- -o{ position_policies
policies ||- -o{ user_policies
users ||- -o{ user_policies
positions ||- -o{ position_policies
user_policies ||- -o{ user_policy_targets
users ||- -o{ user_policy_targets
@enduml

PlantUML version 1.2020.02(Sun Mar 01 10:22:07 UTC 2020)
(GPL source distribution)
Java Runtime: OpenJDK Runtime Environment
JVM: OpenJDK 64-Bit Server VM
Java Version: 11.0.16+8
Operating System: Linux
Default Encoding: UTF-8
Language: en
Country: null
--></g></svg>