<svg xmlns="http://www.w3.org/2000/svg" xmlns:xlink="http://www.w3.org/1999/xlink" contentStyleType="text/css" height="1095px" preserveAspectRatio="none" style="width:2009px;height:1095px;background:#FFFFFF;" version="1.1" viewBox="0 0 2009 1095" width="2009px" zoomAndPan="magnify"><defs/><g><!--cluster ??--><g id="cluster_&#20104;&#23450;"><path d="M8.5,6 L37.4999,6 A3.75,3.75 0 0 1 39.9999,8.5 L46.9999,28.2969 L1515.5,28.2969 A2.5,2.5 0 0 1 1518,30.7969 L1518,839.5 A2.5,2.5 0 0 1 1515.5,842 L8.5,842 A2.5,2.5 0 0 1 6,839.5 L6,8.5 A2.5,2.5 0 0 1 8.5,6 " fill="none" style="stroke:#000000;stroke-width:1.5;"/><line style="stroke:#000000;stroke-width:1.5;" x1="6" x2="46.9999" y1="28.2969" y2="28.2969"/><text fill="#000000" font-family="sans-serif" font-size="14" font-weight="bold" lengthAdjust="spacing" textLength="27.9999" x="10" y="20.9951">&#20104;&#23450;</text></g><!--cluster ??--><g id="cluster_&#20303;&#25152;"><path d="M1737.5,989 L1766.4999,989 A3.75,3.75 0 0 1 1768.9999,991.5 L1775.9999,1011.2969 L1868.5,1011.2969 A2.5,2.5 0 0 1 1871,1013.7969 L1871,1085.5 A2.5,2.5 0 0 1 1868.5,1088 L1737.5,1088 A2.5,2.5 0 0 1 1735,1085.5 L1735,991.5 A2.5,2.5 0 0 1 1737.5,989 " fill="none" style="stroke:#000000;stroke-width:1.5;"/><line style="stroke:#000000;stroke-width:1.5;" x1="1735" x2="1775.9999" y1="1011.2969" y2="1011.2969"/><text fill="#000000" font-family="sans-serif" font-size="14" font-weight="bold" lengthAdjust="spacing" textLength="27.9999" x="1739" y="1003.9951">&#20303;&#25152;</text></g><!--cluster ????--><g id="cluster_&#32887;&#21729;&#24773;&#22577;"><path d="M1695.5,423.5 L1752.4998,423.5 A3.75,3.75 0 0 1 1754.9998,426 L1761.9998,445.7969 L1792.5,445.7969 A2.5,2.5 0 0 1 1795,448.2969 L1795,520 A2.5,2.5 0 0 1 1792.5,522.5 L1695.5,522.5 A2.5,2.5 0 0 1 1693,520 L1693,426 A2.5,2.5 0 0 1 1695.5,423.5 " fill="none" style="stroke:#000000;stroke-width:1.5;"/><line style="stroke:#000000;stroke-width:1.5;" x1="1693" x2="1761.9998" y1="445.7969" y2="445.7969"/><text fill="#000000" font-family="sans-serif" font-size="14" font-weight="bold" lengthAdjust="spacing" textLength="55.9998" x="1697" y="438.4951">&#32887;&#21729;&#24773;&#22577;</text></g><!--cluster ????--><g id="cluster_&#24739;&#32773;&#24773;&#22577;"><path d="M1884.5,866 L1941.4998,866 A3.75,3.75 0 0 1 1943.9998,868.5 L1950.9998,888.2969 L1999.5,888.2969 A2.5,2.5 0 0 1 2002,890.7969 L2002,962.5 A2.5,2.5 0 0 1 1999.5,965 L1884.5,965 A2.5,2.5 0 0 1 1882,962.5 L1882,868.5 A2.5,2.5 0 0 1 1884.5,866 " fill="none" style="stroke:#000000;stroke-width:1.5;"/><line style="stroke:#000000;stroke-width:1.5;" x1="1882" x2="1950.9998" y1="888.2969" y2="888.2969"/><text fill="#000000" font-family="sans-serif" font-size="14" font-weight="bold" lengthAdjust="spacing" textLength="55.9998" x="1886" y="880.9951">&#24739;&#32773;&#24773;&#22577;</text></g><!--cluster ????--><g id="cluster_&#35370;&#21839;&#24773;&#22577;"><path d="M1585.5,678 L1642.4998,678 A3.75,3.75 0 0 1 1644.9998,680.5 L1651.9998,700.2969 L1855.5,700.2969 A2.5,2.5 0 0 1 1858,702.7969 L1858,962.5 A2.5,2.5 0 0 1 1855.5,965 L1585.5,965 A2.5,2.5 0 0 1 1583,962.5 L1583,680.5 A2.5,2.5 0 0 1 1585.5,678 " fill="none" style="stroke:#000000;stroke-width:1.5;"/><line style="stroke:#000000;stroke-width:1.5;" x1="1583" x2="1651.9998" y1="700.2969" y2="700.2969"/><text fill="#000000" font-family="sans-serif" font-size="14" font-weight="bold" lengthAdjust="spacing" textLength="55.9998" x="1587" y="692.9951">&#35370;&#21839;&#24773;&#22577;</text></g><!--class schedules--><g id="elem_schedules"><rect codeLine="4" fill="#F1F1F1" height="276.1563" id="schedules" rx="2.5" ry="2.5" style="stroke:#181818;stroke-width:0.5;" width="469.0297" x="1033.5" y="41"/><ellipse cx="1228.7477" cy="57" fill="#ADD1B2" rx="11" ry="11" style="stroke:#181818;stroke-width:1;"/><path d="M1232.8571,63 L1225.1384,63 L1225.1384,50.6094 L1232.8571,50.6094 L1232.8571,52.7656 L1227.5915,52.7656 L1227.5915,55.4375 L1232.3571,55.4375 L1232.3571,57.5938 L1227.5915,57.5938 L1227.5915,60.8438 L1232.8571,60.8438 L1232.8571,63 Z " fill="#000000"/><text fill="#000000" font-family="sans-serif" font-size="14" lengthAdjust="spacing" textLength="70.0342" x="1249.2477" y="61.8467">schedules</text><line style="stroke:#181818;stroke-width:0.5;" x1="1034.5" x2="1501.5297" y1="73" y2="73"/><ellipse cx="1044.5" cy="86.6484" fill="#000000" rx="3" ry="3" style="stroke:#000000;stroke-width:1;"/><text fill="#000000" font-family="sans-serif" font-size="14" lengthAdjust="spacing" textLength="170.4404" x="1053.5" y="89.9951">binary schedule_id &#171;PK&#187;</text><line style="stroke:#181818;stroke-width:1;" x1="1034.5" x2="1501.5297" y1="97.2969" y2="97.2969"/><text fill="#000000" font-family="sans-serif" font-size="14" lengthAdjust="spacing" textLength="187.2703" x="1039.5" y="114.292">binary user_id "&#12518;&#12540;&#12470;&#12540;ID"</text><text fill="#000000" font-family="sans-serif" font-size="14" lengthAdjust="spacing" textLength="270.3198" x="1039.5" y="130.5889">string title "&#20104;&#23450;&#12398;&#12479;&#12452;&#12488;&#12523;&#65288;NULL_OK)"</text><text fill="#000000" font-family="sans-serif" font-size="14" lengthAdjust="spacing" textLength="295.654" x="1039.5" y="146.8857">binary schedule_type_id &#171;FK&#187; "&#20104;&#23450;&#12398;&#31278;&#39006;"</text><text fill="#000000" font-family="sans-serif" font-size="14" lengthAdjust="spacing" textLength="435.9205" x="1039.5" y="163.1826">binary recurring_schedule_id &#171;FK&#187;"&#32368;&#12426;&#36820;&#12375;&#20104;&#23450;ID&#65288;NULL_OK)"</text><text fill="#000000" font-family="sans-serif" font-size="14" lengthAdjust="spacing" textLength="332.0964" x="1039.5" y="179.4795">binary visit_info_id &#171;FK&#187; "&#35370;&#21839;&#24773;&#22577;ID(NULL_OK)"</text><text fill="#000000" font-family="sans-serif" font-size="14" lengthAdjust="spacing" textLength="284.2516" x="1039.5" y="195.7764">string description "&#20104;&#23450;&#12398;&#35500;&#26126;(NULL_OK)"</text><text fill="#000000" font-family="sans-serif" font-size="14" lengthAdjust="spacing" textLength="312.4225" x="1039.5" y="212.0732">datetime visit_date "&#20104;&#23450;&#26085;&#65288;YYYY-MM-DD&#65289;"</text><text fill="#000000" font-family="sans-serif" font-size="14" lengthAdjust="spacing" textLength="290.1442" x="1039.5" y="228.3701">datetime start_time "&#38283;&#22987;&#26178;&#38291;&#65288;HH:MM&#65289;"</text><text fill="#000000" font-family="sans-serif" font-size="14" lengthAdjust="spacing" textLength="283.9098" x="1039.5" y="244.667">datetime end_time "&#32066;&#20102;&#26178;&#38291;&#65288;HH:MM&#65289;"</text><text fill="#000000" font-family="sans-serif" font-size="14" lengthAdjust="spacing" textLength="431.4426" x="1039.5" y="260.9639">boolean is_cancelled"&#12461;&#12515;&#12531;&#12475;&#12523;&#12373;&#12428;&#12383;&#12363;&#12393;&#12358;&#12363;(default=false)"</text><text fill="#000000" font-family="sans-serif" font-size="14" lengthAdjust="spacing" textLength="388.8824" x="1039.5" y="277.2607">boolean is_overtime_work "&#26178;&#38291;&#22806;&#21220;&#21209;&#12363;(default=false)"</text><text fill="#000000" font-family="sans-serif" font-size="14" lengthAdjust="spacing" textLength="429.4604" x="1039.5" y="293.5576">datetime before_change_date "&#22793;&#26356;&#21069;&#12398;&#35370;&#21839;&#26085;&#65288;YYYY-MM-DD"</text><text fill="#000000" font-family="sans-serif" font-size="14" lengthAdjust="spacing" textLength="457.0297" x="1039.5" y="309.8545">datetime before_change_start_time "&#22793;&#26356;&#21069;&#12398;&#38283;&#22987;&#26178;&#38291;&#65288;HH:MM&#65289;"</text></g><g id="elem_GMN4"><path d="M1155.5,455 L1155.5,510.3984 A0,0 0 0 0 1155.5,510.3984 L1502.3445,510.3984 A0,0 0 0 0 1502.3445,510.3984 L1502.3445,465 L1492.3445,455 L1333,455 L1329,317.43 L1325,455 L1155.5,455 A0,0 0 0 0 1155.5,455 " fill="#FEFFDD" style="stroke:#181818;stroke-width:0.5;"/><path d="M1492.3445,455 L1492.3445,465 L1502.3445,465 L1492.3445,455 " fill="#FEFFDD" style="stroke:#181818;stroke-width:0.5;"/><text fill="#000000" font-family="sans-serif" font-size="13" lengthAdjust="spacing" textLength="286.0003" x="1161.5" y="472.0669">&#32368;&#12426;&#36820;&#12375;&#20104;&#23450;&#12391;&#29305;&#23450;&#12398;&#20104;&#23450;&#12398;&#12415;&#22793;&#26356;&#12373;&#12428;&#12383;&#22580;&#21512;&#12289;</text><text fill="#000000" font-family="sans-serif" font-size="13" lengthAdjust="spacing" textLength="247.0003" x="1161.5" y="487.1997">&#12371;&#12398;&#12486;&#12540;&#12502;&#12523;&#12395;&#26032;&#12375;&#12356;&#12524;&#12467;&#12540;&#12489;&#12434;&#36861;&#21152;&#12377;&#12427;</text><text fill="#000000" font-family="sans-serif" font-size="13" lengthAdjust="spacing" textLength="325.8445" x="1161.5" y="502.3325">&#12381;&#12398;&#38555;&#12395;&#12289;&#32368;&#12426;&#36820;&#12375;&#20104;&#23450;&#12398;ID&#12392;&#22793;&#26356;&#21069;&#12398;&#26085;&#26178;&#12434;&#20445;&#23384;&#12377;&#12427;</text></g><!--class schedule_types--><g id="elem_schedule_types"><rect codeLine="28" fill="#F1F1F1" height="80.5938" id="schedule_types" rx="2.5" ry="2.5" style="stroke:#181818;stroke-width:0.5;" width="234.7148" x="22.5" y="138.5"/><ellipse cx="81.4531" cy="154.5" fill="#ADD1B2" rx="11" ry="11" style="stroke:#181818;stroke-width:1;"/><path d="M85.5625,160.5 L77.8438,160.5 L77.8438,148.1094 L85.5625,148.1094 L85.5625,150.2656 L80.2969,150.2656 L80.2969,152.9375 L85.0625,152.9375 L85.0625,155.0938 L80.2969,155.0938 L80.2969,158.3438 L85.5625,158.3438 L85.5625,160.5 Z " fill="#000000"/><text fill="#000000" font-family="sans-serif" font-size="14" lengthAdjust="spacing" textLength="108.3086" x="101.9531" y="159.3467">schedule_types</text><line style="stroke:#181818;stroke-width:0.5;" x1="23.5" x2="256.2148" y1="170.5" y2="170.5"/><ellipse cx="33.5" cy="184.1484" fill="#000000" rx="3" ry="3" style="stroke:#000000;stroke-width:1;"/><text fill="#000000" font-family="sans-serif" font-size="14" lengthAdjust="spacing" textLength="208.7148" x="42.5" y="187.4951">binary schedule_type_id &#171;PK&#187;</text><line style="stroke:#181818;stroke-width:1;" x1="23.5" x2="256.2148" y1="194.7969" y2="194.7969"/><text fill="#000000" font-family="sans-serif" font-size="14" lengthAdjust="spacing" textLength="199.6705" x="28.5" y="211.792">string name "&#20104;&#23450;&#12398;&#12479;&#12452;&#12503;&#21517;"</text></g><g id="elem_GMN8"><path d="M22,462.5 L22,502.7656 A0,0 0 0 0 22,502.7656 L111.7833,502.7656 A0,0 0 0 0 111.7833,502.7656 L111.7833,472.5 L101.7833,462.5 L71.25,462.5 L67.25,219.62 L63.25,462.5 L22,462.5 A0,0 0 0 0 22,462.5 " fill="#FEFFDD" style="stroke:#181818;stroke-width:0.5;"/><path d="M101.7833,462.5 L101.7833,472.5 L111.7833,472.5 L101.7833,462.5 " fill="#FEFFDD" style="stroke:#181818;stroke-width:0.5;"/><text fill="#000000" font-family="sans-serif" font-size="13" lengthAdjust="spacing" textLength="68.7833" x="28" y="479.5669">1: &#36890;&#24120;&#26989;&#21209;</text><text fill="#000000" font-family="sans-serif" font-size="13" lengthAdjust="spacing" textLength="42.7832" x="28" y="494.6997">3: &#35370;&#21839;</text></g><!--class schedule_cancels--><g id="elem_schedule_cancels"><rect codeLine="39" fill="#F1F1F1" height="113.1875" id="schedule_cancels" rx="2.5" ry="2.5" style="stroke:#181818;stroke-width:0.5;" width="354.2885" x="767" y="426"/><ellipse cx="878.7023" cy="442" fill="#ADD1B2" rx="11" ry="11" style="stroke:#181818;stroke-width:1;"/><path d="M882.8117,448 L875.093,448 L875.093,435.6094 L882.8117,435.6094 L882.8117,437.7656 L877.5461,437.7656 L877.5461,440.4375 L882.3117,440.4375 L882.3117,442.5938 L877.5461,442.5938 L877.5461,445.8438 L882.8117,445.8438 L882.8117,448 Z " fill="#000000"/><text fill="#000000" font-family="sans-serif" font-size="14" lengthAdjust="spacing" textLength="122.3838" x="899.2023" y="446.8467">schedule_cancels</text><line style="stroke:#181818;stroke-width:0.5;" x1="768" x2="1120.2885" y1="458" y2="458"/><ellipse cx="778" cy="471.6484" fill="#000000" rx="3" ry="3" style="stroke:#000000;stroke-width:1;"/><text fill="#000000" font-family="sans-serif" font-size="14" lengthAdjust="spacing" textLength="100.7002" x="787" y="474.9951">binary id &#171;PK&#187;</text><line style="stroke:#181818;stroke-width:1;" x1="768" x2="1120.2885" y1="482.2969" y2="482.2969"/><text fill="#000000" font-family="sans-serif" font-size="14" lengthAdjust="spacing" textLength="342.2885" x="773" y="499.292">binary schedule_id &#171;FK&#187; "&#12461;&#12515;&#12531;&#12475;&#12523;&#12373;&#12428;&#12383;&#20104;&#23450;ID"</text><text fill="#000000" font-family="sans-serif" font-size="14" lengthAdjust="spacing" textLength="259.9976" x="773" y="515.5889">string cancel_reason "&#12461;&#12515;&#12531;&#12475;&#12523;&#29702;&#30001;"</text><text fill="#000000" font-family="sans-serif" font-size="14" lengthAdjust="spacing" textLength="266.8951" x="773" y="531.8857">datetime cancel_date "&#12461;&#12515;&#12531;&#12475;&#12523;&#26085;&#26178;"</text></g><!--class recurring_rules--><g id="elem_recurring_rules"><rect codeLine="47" fill="#F1F1F1" height="178.375" id="recurring_rules" rx="2.5" ry="2.5" style="stroke:#181818;stroke-width:0.5;" width="346.2086" x="237" y="648"/><ellipse cx="353.0911" cy="664" fill="#ADD1B2" rx="11" ry="11" style="stroke:#181818;stroke-width:1;"/><path d="M357.2005,670 L349.4817,670 L349.4817,657.6094 L357.2005,657.6094 L357.2005,659.7656 L351.9348,659.7656 L351.9348,662.4375 L356.7005,662.4375 L356.7005,664.5938 L351.9348,664.5938 L351.9348,667.8438 L357.2005,667.8438 L357.2005,670 Z " fill="#000000"/><text fill="#000000" font-family="sans-serif" font-size="14" lengthAdjust="spacing" textLength="105.5264" x="373.5911" y="668.8467">recurring_rules</text><line style="stroke:#181818;stroke-width:0.5;" x1="238" x2="582.2086" y1="680" y2="680"/><text fill="#000000" font-family="sans-serif" font-size="14" lengthAdjust="spacing" textLength="205.9326" x="243" y="696.9951">binary recurring_rule_id &#171;PK&#187;</text><line style="stroke:#181818;stroke-width:1;" x1="238" x2="582.2086" y1="704.2969" y2="704.2969"/><text fill="#000000" font-family="sans-serif" font-size="14" lengthAdjust="spacing" textLength="278.1266" x="243" y="721.292">binary schedule_id: &#12473;&#12465;&#12472;&#12517;&#12540;&#12523;ID &#171;FK&#187;</text><text fill="#000000" font-family="sans-serif" font-size="14" lengthAdjust="spacing" textLength="334.2086" x="243" y="737.5889">int frequency: "&#32368;&#12426;&#36820;&#12375;&#38971;&#24230;&#65288;monthly, weekly)"</text><text fill="#000000" font-family="sans-serif" font-size="14" lengthAdjust="spacing" textLength="162.7772" x="243" y="753.8857">int day_of_week: "&#26332;&#26085;"</text><text fill="#000000" font-family="sans-serif" font-size="14" lengthAdjust="spacing" textLength="185.4315" x="243" y="770.1826">int day_of_month: "&#26376;&#12398;&#26085;"</text><text fill="#000000" font-family="sans-serif" font-size="14" lengthAdjust="spacing" textLength="196.4647" x="243" y="786.4795">int week_of_month: "&#26376;&#12398;&#36913;"</text><text fill="#000000" font-family="sans-serif" font-size="14" lengthAdjust="spacing" textLength="202.8699" x="243" y="802.7764">datetime start_date: "&#38283;&#22987;&#26085;"</text><text fill="#000000" font-family="sans-serif" font-size="14" lengthAdjust="spacing" textLength="196.6356" x="243" y="819.0732">datetime end_date: "&#32066;&#20102;&#26085;"</text></g><g id="elem_GMN13"><path d="M147,470 L147,495.1328 A0,0 0 0 0 147,495.1328 L296,495.1328 L300,647.85 L304,495.1328 L363.0002,495.1328 A0,0 0 0 0 363.0002,495.1328 L363.0002,480 L353.0002,470 L147,470 A0,0 0 0 0 147,470 " fill="#FEFFDD" style="stroke:#181818;stroke-width:0.5;"/><path d="M353.0002,470 L353.0002,480 L363.0002,480 L353.0002,470 " fill="#FEFFDD" style="stroke:#181818;stroke-width:0.5;"/><text fill="#000000" font-family="sans-serif" font-size="13" lengthAdjust="spacing" textLength="195.0002" x="153" y="487.0669">&#32368;&#12426;&#36820;&#12375;&#20104;&#23450;&#12398;&#12523;&#12540;&#12523;&#12434;&#23450;&#32681;&#12377;&#12427;</text></g><!--class recurring_schedules--><g id="elem_recurring_schedules"><rect codeLine="62" fill="#F1F1F1" height="210.9688" id="recurring_schedules" rx="2.5" ry="2.5" style="stroke:#181818;stroke-width:0.5;" width="333.0631" x="398.5" y="377"/><ellipse cx="490.2142" cy="393" fill="#ADD1B2" rx="11" ry="11" style="stroke:#181818;stroke-width:1;"/><path d="M494.3235,399 L486.6048,399 L486.6048,386.6094 L494.3235,386.6094 L494.3235,388.7656 L489.0579,388.7656 L489.0579,391.4375 L493.8235,391.4375 L493.8235,393.5938 L489.0579,393.5938 L489.0579,396.8438 L494.3235,396.8438 L494.3235,399 Z " fill="#000000"/><text fill="#000000" font-family="sans-serif" font-size="14" lengthAdjust="spacing" textLength="141.1348" x="510.7142" y="397.8467">recurring_schedules</text><line style="stroke:#181818;stroke-width:0.5;" x1="399.5" x2="730.5631" y1="409" y2="409"/><text fill="#000000" font-family="sans-serif" font-size="14" lengthAdjust="spacing" textLength="241.541" x="404.5" y="425.9951">binary recurring_schedule_id &#171;PK&#187;</text><line style="stroke:#181818;stroke-width:1;" x1="399.5" x2="730.5631" y1="433.2969" y2="433.2969"/><text fill="#000000" font-family="sans-serif" font-size="14" lengthAdjust="spacing" textLength="301.6832" x="404.5" y="450.292">binary recurring_rule_id: "&#32368;&#12426;&#36820;&#12375;&#12523;&#12540;&#12523;ID"</text><text fill="#000000" font-family="sans-serif" font-size="14" lengthAdjust="spacing" textLength="276.4655" x="404.5" y="466.5889">binary schedule_type_id: "&#20104;&#23450;&#12479;&#12452;&#12503;ID"</text><text fill="#000000" font-family="sans-serif" font-size="14" lengthAdjust="spacing" textLength="223.5554" x="404.5" y="482.8857">binary visit_info_id: "&#35370;&#21839;&#24773;&#22577;ID"</text><text fill="#000000" font-family="sans-serif" font-size="14" lengthAdjust="spacing" textLength="321.0631" x="404.5" y="499.1826">binary schedule_category_id: "&#20104;&#23450;&#12459;&#12486;&#12468;&#12522;ID"</text><text fill="#000000" font-family="sans-serif" font-size="14" lengthAdjust="spacing" textLength="150.0554" x="404.5" y="515.4795">string title: "&#12479;&#12452;&#12488;&#12523;"</text><text fill="#000000" font-family="sans-serif" font-size="14" lengthAdjust="spacing" textLength="172.5253" x="404.5" y="531.7764">string description: "&#35500;&#26126;"</text><text fill="#000000" font-family="sans-serif" font-size="14" lengthAdjust="spacing" textLength="199.1102" x="404.5" y="548.0732">datetime visit_date: "&#35370;&#21839;&#26085;"</text><text fill="#000000" font-family="sans-serif" font-size="14" lengthAdjust="spacing" textLength="216.9314" x="404.5" y="564.3701">datetime start_time: "&#38283;&#22987;&#26178;&#38291;"</text><text fill="#000000" font-family="sans-serif" font-size="14" lengthAdjust="spacing" textLength="210.697" x="404.5" y="580.667">datetime end_time: "&#32066;&#20102;&#26178;&#38291;"</text></g><g id="elem_GMN17"><path d="M385.5,159 L385.5,199.2656 A0,0 0 0 0 385.5,199.2656 L561,199.2656 L565,376.95 L569,199.2656 L744.5003,199.2656 A0,0 0 0 0 744.5003,199.2656 L744.5003,169 L734.5003,159 L385.5,159 A0,0 0 0 0 385.5,159 " fill="#FEFFDD" style="stroke:#181818;stroke-width:0.5;"/><path d="M734.5003,159 L734.5003,169 L744.5003,169 L734.5003,159 " fill="#FEFFDD" style="stroke:#181818;stroke-width:0.5;"/><text fill="#000000" font-family="sans-serif" font-size="13" lengthAdjust="spacing" textLength="182.0002" x="391.5" y="176.0669">&#32368;&#12426;&#36820;&#12375;&#20104;&#23450;&#12398;&#24773;&#22577;&#12434;&#20445;&#23384;&#12377;&#12427;</text><text fill="#000000" font-family="sans-serif" font-size="13" lengthAdjust="spacing" textLength="338.0003" x="391.5" y="191.1997">&#32368;&#12426;&#36820;&#12375;&#12479;&#12452;&#12503;&#12395;&#22522;&#12389;&#12356;&#12390;&#12289;&#12501;&#12525;&#12531;&#12488;&#20596;&#12391;&#20104;&#23450;&#12434;&#35079;&#35069;&#12377;&#12427;</text></g><!--class addresses--><g id="elem_addresses"><rect codeLine="82" fill="#F1F1F1" height="48" id="addresses" rx="2.5" ry="2.5" style="stroke:#181818;stroke-width:0.5;" width="103.2168" x="1751.5" y="1024"/><ellipse cx="1766.5" cy="1040" fill="#ADD1B2" rx="11" ry="11" style="stroke:#181818;stroke-width:1;"/><path d="M1770.6094,1046 L1762.8906,1046 L1762.8906,1033.6094 L1770.6094,1033.6094 L1770.6094,1035.7656 L1765.3438,1035.7656 L1765.3438,1038.4375 L1770.1094,1038.4375 L1770.1094,1040.5938 L1765.3438,1040.5938 L1765.3438,1043.8438 L1770.6094,1043.8438 L1770.6094,1046 Z " fill="#000000"/><text fill="#000000" font-family="sans-serif" font-size="14" lengthAdjust="spacing" textLength="71.2168" x="1780.5" y="1044.8467">addresses</text><line style="stroke:#181818;stroke-width:0.5;" x1="1752.5" x2="1853.7168" y1="1056" y2="1056"/><line style="stroke:#181818;stroke-width:0.5;" x1="1752.5" x2="1853.7168" y1="1064" y2="1064"/></g><!--class users--><g id="elem_users"><rect codeLine="86" fill="#F1F1F1" height="48" id="users" rx="2.5" ry="2.5" style="stroke:#181818;stroke-width:0.5;" width="69.8301" x="1709" y="458.5"/><ellipse cx="1724" cy="474.5" fill="#ADD1B2" rx="11" ry="11" style="stroke:#181818;stroke-width:1;"/><path d="M1728.1094,480.5 L1720.3906,480.5 L1720.3906,468.1094 L1728.1094,468.1094 L1728.1094,470.2656 L1722.8438,470.2656 L1722.8438,472.9375 L1727.6094,472.9375 L1727.6094,475.0938 L1722.8438,475.0938 L1722.8438,478.3438 L1728.1094,478.3438 L1728.1094,480.5 Z " fill="#000000"/><text fill="#000000" font-family="sans-serif" font-size="14" lengthAdjust="spacing" textLength="37.8301" x="1738" y="479.3467">users</text><line style="stroke:#181818;stroke-width:0.5;" x1="1710" x2="1777.8301" y1="490.5" y2="490.5"/><line style="stroke:#181818;stroke-width:0.5;" x1="1710" x2="1777.8301" y1="498.5" y2="498.5"/></g><!--class patients--><g id="elem_patients"><rect codeLine="91" fill="#F1F1F1" height="48" id="patients" rx="2.5" ry="2.5" style="stroke:#181818;stroke-width:0.5;" width="89.1143" x="1897.5" y="901"/><ellipse cx="1912.5" cy="917" fill="#ADD1B2" rx="11" ry="11" style="stroke:#181818;stroke-width:1;"/><path d="M1916.6094,923 L1908.8906,923 L1908.8906,910.6094 L1916.6094,910.6094 L1916.6094,912.7656 L1911.3438,912.7656 L1911.3438,915.4375 L1916.1094,915.4375 L1916.1094,917.5938 L1911.3438,917.5938 L1911.3438,920.8438 L1916.6094,920.8438 L1916.6094,923 Z " fill="#000000"/><text fill="#000000" font-family="sans-serif" font-size="14" lengthAdjust="spacing" textLength="57.1143" x="1926.5" y="921.8467">patients</text><line style="stroke:#181818;stroke-width:0.5;" x1="1898.5" x2="1985.6143" y1="933" y2="933"/><line style="stroke:#181818;stroke-width:0.5;" x1="1898.5" x2="1985.6143" y1="941" y2="941"/></g><!--class visit_infos--><g id="elem_visit_infos"><rect codeLine="96" fill="#F1F1F1" height="48" id="visit_infos" rx="2.5" ry="2.5" style="stroke:#181818;stroke-width:0.5;" width="101.3984" x="1740.5" y="713"/><ellipse cx="1755.5" cy="729" fill="#ADD1B2" rx="11" ry="11" style="stroke:#181818;stroke-width:1;"/><path d="M1759.6094,735 L1751.8906,735 L1751.8906,722.6094 L1759.6094,722.6094 L1759.6094,724.7656 L1754.3438,724.7656 L1754.3438,727.4375 L1759.1094,727.4375 L1759.1094,729.5938 L1754.3438,729.5938 L1754.3438,732.8438 L1759.6094,732.8438 L1759.6094,735 Z " fill="#000000"/><text fill="#000000" font-family="sans-serif" font-size="14" lengthAdjust="spacing" textLength="69.3984" x="1769.5" y="733.8467">visit_infos</text><line style="stroke:#181818;stroke-width:0.5;" x1="1741.5" x2="1840.8984" y1="745" y2="745"/><line style="stroke:#181818;stroke-width:0.5;" x1="1741.5" x2="1840.8984" y1="753" y2="753"/></g><!--class service_codes--><g id="elem_service_codes"><rect codeLine="98" fill="#F1F1F1" height="48" id="service_codes" rx="2.5" ry="2.5" style="stroke:#181818;stroke-width:0.5;" width="130.2051" x="1599" y="901"/><ellipse cx="1614" cy="917" fill="#ADD1B2" rx="11" ry="11" style="stroke:#181818;stroke-width:1;"/><path d="M1618.1094,923 L1610.3906,923 L1610.3906,910.6094 L1618.1094,910.6094 L1618.1094,912.7656 L1612.8438,912.7656 L1612.8438,915.4375 L1617.6094,915.4375 L1617.6094,917.5938 L1612.8438,917.5938 L1612.8438,920.8438 L1618.1094,920.8438 L1618.1094,923 Z " fill="#000000"/><text fill="#000000" font-family="sans-serif" font-size="14" lengthAdjust="spacing" textLength="98.2051" x="1628" y="921.8467">service_codes</text><line style="stroke:#181818;stroke-width:0.5;" x1="1600" x2="1728.2051" y1="933" y2="933"/><line style="stroke:#181818;stroke-width:0.5;" x1="1600" x2="1728.2051" y1="941" y2="941"/></g><!--class routes--><g id="elem_routes"><rect codeLine="100" fill="#F1F1F1" height="48" id="routes" rx="2.5" ry="2.5" style="stroke:#181818;stroke-width:0.5;" width="76.5908" x="1764.5" y="901"/><ellipse cx="1779.5" cy="917" fill="#ADD1B2" rx="11" ry="11" style="stroke:#181818;stroke-width:1;"/><path d="M1783.6094,923 L1775.8906,923 L1775.8906,910.6094 L1783.6094,910.6094 L1783.6094,912.7656 L1778.3438,912.7656 L1778.3438,915.4375 L1783.1094,915.4375 L1783.1094,917.5938 L1778.3438,917.5938 L1778.3438,920.8438 L1783.6094,920.8438 L1783.6094,923 Z " fill="#000000"/><text fill="#000000" font-family="sans-serif" font-size="14" lengthAdjust="spacing" textLength="44.5908" x="1793.5" y="921.8467">routes</text><line style="stroke:#181818;stroke-width:0.5;" x1="1765.5" x2="1840.0908" y1="933" y2="933"/><line style="stroke:#181818;stroke-width:0.5;" x1="1765.5" x2="1840.0908" y1="941" y2="941"/></g><!--class schedule_rules--><g id="elem_schedule_rules"><rect fill="#F1F1F1" height="48" id="schedule_rules" rx="2.5" ry="2.5" style="stroke:#181818;stroke-width:0.5;" width="136.166" x="1538" y="458.5"/><ellipse cx="1553" cy="474.5" fill="#ADD1B2" rx="11" ry="11" style="stroke:#181818;stroke-width:1;"/><path d="M1555.9688,480.1406 Q1555.3906,480.4375 1554.75,480.5781 Q1554.1094,480.7344 1553.4063,480.7344 Q1550.9063,480.7344 1549.5781,479.0938 Q1548.2656,477.4375 1548.2656,474.3125 Q1548.2656,471.1875 1549.5781,469.5313 Q1550.9063,467.875 1553.4063,467.875 Q1554.1094,467.875 1554.75,468.0313 Q1555.4063,468.1875 1555.9688,468.4844 L1555.9688,471.2031 Q1555.3438,470.625 1554.75,470.3594 Q1554.1563,470.0781 1553.5313,470.0781 Q1552.1875,470.0781 1551.5,471.1563 Q1550.8125,472.2188 1550.8125,474.3125 Q1550.8125,476.4063 1551.5,477.4844 Q1552.1875,478.5469 1553.5313,478.5469 Q1554.1563,478.5469 1554.75,478.2813 Q1555.3438,478 1555.9688,477.4219 L1555.9688,480.1406 Z " fill="#000000"/><text fill="#000000" font-family="sans-serif" font-size="14" lengthAdjust="spacing" textLength="104.166" x="1567" y="479.3467">schedule_rules</text><line style="stroke:#181818;stroke-width:0.5;" x1="1539" x2="1673.166" y1="490.5" y2="490.5"/><line style="stroke:#181818;stroke-width:0.5;" x1="1539" x2="1673.166" y1="498.5" y2="498.5"/></g><!--link schedules to users--><g id="link_schedules_users"><path codeLine="104" d="M1520.51,179 C1640.66,179 1744,179 1744,179 C1744,179 1744,378.65 1744,450.43 " fill="none" id="schedules-users" style="stroke:#181818;stroke-width:1;"/><line style="stroke:#181818;stroke-width:1;" x1="1510.51" x2="1502.51" y1="179" y2="185"/><line style="stroke:#181818;stroke-width:1;" x1="1510.51" x2="1502.51" y1="179" y2="173"/><line style="stroke:#181818;stroke-width:1;" x1="1510.51" x2="1502.51" y1="179" y2="179"/><ellipse cx="1516.51" cy="179" fill="none" rx="4" ry="4" style="stroke:#181818;stroke-width:1;"/><line style="stroke:#181818;stroke-width:1;" x1="1748" x2="1740" y1="454.43" y2="454.43"/><line style="stroke:#181818;stroke-width:1;" x1="1748" x2="1740" y1="451.43" y2="451.43"/><line style="stroke:#181818;stroke-width:1;" x1="1744" x2="1744" y1="450.43" y2="458.43"/></g><!--link schedules to schedule_cancels--><g id="link_schedules_schedule_cancels"><path codeLine="105" d="M1099.12,325.43 C1099.12,363.73 1099.12,380.17 1099.12,410.9 " fill="none" id="schedules-schedule_cancels" style="stroke:#181818;stroke-width:1;"/><line style="stroke:#181818;stroke-width:1;" x1="1095.12" x2="1103.12" y1="321.43" y2="321.43"/><line style="stroke:#181818;stroke-width:1;" x1="1095.12" x2="1103.12" y1="324.43" y2="324.43"/><line style="stroke:#181818;stroke-width:1;" x1="1099.12" x2="1099.12" y1="325.43" y2="317.43"/><line style="stroke:#181818;stroke-width:1;" x1="1099.12" x2="1099.12" y1="414.9" y2="425.9"/><ellipse cx="1099.12" cy="414.9" fill="none" rx="4" ry="4" style="stroke:#181818;stroke-width:1;"/><line style="stroke:#181818;stroke-width:1;" x1="1103.12" x2="1095.12" y1="421.9" y2="421.9"/></g><!--link schedules to schedule_rules--><g id="link_schedules_schedule_rules"><path codeLine="106" d="M1510.75,248 C1568.43,248 1606,248 1606,248 C1606,248 1606,390.37 1606,450.29 " fill="none" id="schedules-schedule_rules" style="stroke:#181818;stroke-width:1;"/><line style="stroke:#181818;stroke-width:1;" x1="1506.75" x2="1506.75" y1="252" y2="244"/><line style="stroke:#181818;stroke-width:1;" x1="1509.75" x2="1509.75" y1="252" y2="244"/><line style="stroke:#181818;stroke-width:1;" x1="1510.75" x2="1502.75" y1="248" y2="248"/><line style="stroke:#181818;stroke-width:1;" x1="1610" x2="1602" y1="454.29" y2="454.29"/><line style="stroke:#181818;stroke-width:1;" x1="1610" x2="1602" y1="451.29" y2="451.29"/><line style="stroke:#181818;stroke-width:1;" x1="1606" x2="1606" y1="450.29" y2="458.29"/></g><!--link schedules to recurring_schedules--><g id="link_schedules_recurring_schedules"><path codeLine="107" d="M1055.38,325.29 C1055.38,367.03 1055.38,394 1055.38,394 C1055.38,394 888.86,394 746.7,394 " fill="none" id="schedules-recurring_schedules" style="stroke:#181818;stroke-width:1;"/><line style="stroke:#181818;stroke-width:1;" x1="1055.38" x2="1049.38" y1="325.29" y2="317.29"/><line style="stroke:#181818;stroke-width:1;" x1="1055.38" x2="1061.38" y1="325.29" y2="317.29"/><line style="stroke:#181818;stroke-width:1;" x1="1055.38" x2="1055.38" y1="325.29" y2="317.29"/><line style="stroke:#181818;stroke-width:1;" x1="1051.38" x2="1059.38" y1="327.29" y2="327.29"/><line style="stroke:#181818;stroke-width:1;" x1="742.7" x2="731.7" y1="394" y2="394"/><ellipse cx="742.7" cy="394" fill="none" rx="4" ry="4" style="stroke:#181818;stroke-width:1;"/><line style="stroke:#181818;stroke-width:1;" x1="735.7" x2="735.7" y1="398" y2="390"/></g><!--link recurring_schedules to schedules--><g id="link_recurring_schedules_schedules"><path codeLine="109" d="M739.67,410 C889.2,410 1077.25,410 1077.25,410 C1077.25,410 1077.25,384.38 1077.25,335.04 " fill="none" id="recurring_schedules-schedules" style="stroke:#181818;stroke-width:1;"/><line style="stroke:#181818;stroke-width:1;" x1="735.67" x2="735.67" y1="414" y2="406"/><line style="stroke:#181818;stroke-width:1;" x1="738.67" x2="738.67" y1="414" y2="406"/><line style="stroke:#181818;stroke-width:1;" x1="739.67" x2="731.67" y1="410" y2="410"/><line style="stroke:#181818;stroke-width:1;" x1="1077.25" x2="1071.25" y1="325.04" y2="317.04"/><line style="stroke:#181818;stroke-width:1;" x1="1077.25" x2="1083.25" y1="325.04" y2="317.04"/><line style="stroke:#181818;stroke-width:1;" x1="1077.25" x2="1077.25" y1="325.04" y2="317.04"/><ellipse cx="1077.25" cy="331.04" fill="none" rx="4" ry="4" style="stroke:#181818;stroke-width:1;"/></g><!--link schedules to visit_infos--><g id="link_schedules_visit_infos"><path codeLine="108" d="M1510.68,110 C1657.23,110 1810.25,110 1810.25,110 C1810.25,110 1810.25,582.58 1810.25,697.81 " fill="none" id="schedules-visit_infos" style="stroke:#181818;stroke-width:1;"/><line style="stroke:#181818;stroke-width:1;" x1="1506.68" x2="1506.68" y1="114" y2="106"/><line style="stroke:#181818;stroke-width:1;" x1="1509.68" x2="1509.68" y1="114" y2="106"/><line style="stroke:#181818;stroke-width:1;" x1="1510.68" x2="1502.68" y1="110" y2="110"/><line style="stroke:#181818;stroke-width:1;" x1="1810.25" x2="1810.25" y1="701.81" y2="712.81"/><ellipse cx="1810.25" cy="701.81" fill="none" rx="4" ry="4" style="stroke:#181818;stroke-width:1;"/><line style="stroke:#181818;stroke-width:1;" x1="1814.25" x2="1806.25" y1="708.81" y2="708.81"/></g><!--link recurring_schedules to recurring_rules--><g id="link_recurring_schedules_recurring_rules"><path codeLine="110" d="M490.75,596.22 C490.75,616.02 490.75,620.54 490.75,639.78 " fill="none" id="recurring_schedules-recurring_rules" style="stroke:#181818;stroke-width:1;"/><line style="stroke:#181818;stroke-width:1;" x1="486.75" x2="494.75" y1="592.22" y2="592.22"/><line style="stroke:#181818;stroke-width:1;" x1="486.75" x2="494.75" y1="595.22" y2="595.22"/><line style="stroke:#181818;stroke-width:1;" x1="490.75" x2="490.75" y1="596.22" y2="588.22"/><line style="stroke:#181818;stroke-width:1;" x1="494.75" x2="486.75" y1="643.78" y2="643.78"/><line style="stroke:#181818;stroke-width:1;" x1="494.75" x2="486.75" y1="640.78" y2="640.78"/><line style="stroke:#181818;stroke-width:1;" x1="490.75" x2="490.75" y1="639.78" y2="647.78"/></g><!--link recurring_schedules to visit_infos--><g id="link_recurring_schedules_visit_infos"><path codeLine="111" d="M739.75,564 C1068.3,564 1759.75,564 1759.75,564 C1759.75,564 1759.75,657.41 1759.75,704.95 " fill="none" id="recurring_schedules-visit_infos" style="stroke:#181818;stroke-width:1;"/><line style="stroke:#181818;stroke-width:1;" x1="735.75" x2="735.75" y1="568" y2="560"/><line style="stroke:#181818;stroke-width:1;" x1="738.75" x2="738.75" y1="568" y2="560"/><line style="stroke:#181818;stroke-width:1;" x1="739.75" x2="731.75" y1="564" y2="564"/><line style="stroke:#181818;stroke-width:1;" x1="1763.75" x2="1755.75" y1="708.95" y2="708.95"/><line style="stroke:#181818;stroke-width:1;" x1="1763.75" x2="1755.75" y1="705.95" y2="705.95"/><line style="stroke:#181818;stroke-width:1;" x1="1759.75" x2="1759.75" y1="704.95" y2="712.95"/></g><!--link visit_infos to service_codes--><g id="link_visit_infos_service_codes"><path codeLine="112" d="M1746,769.19 C1746,819.97 1746,925 1746,925 C1746,925 1746.96,925 1737.01,925 " fill="none" id="visit_infos-service_codes" style="stroke:#181818;stroke-width:1;"/><line style="stroke:#181818;stroke-width:1;" x1="1742" x2="1750" y1="765.19" y2="765.19"/><line style="stroke:#181818;stroke-width:1;" x1="1742" x2="1750" y1="768.19" y2="768.19"/><line style="stroke:#181818;stroke-width:1;" x1="1746" x2="1746" y1="769.19" y2="761.19"/><line style="stroke:#181818;stroke-width:1;" x1="1733.01" x2="1733.01" y1="929" y2="921"/><line style="stroke:#181818;stroke-width:1;" x1="1736.01" x2="1736.01" y1="929" y2="921"/><line style="stroke:#181818;stroke-width:1;" x1="1737.01" x2="1729.01" y1="925" y2="925"/></g><!--link visit_infos to patients--><g id="link_visit_infos_patients"><path codeLine="113" d="M1849.7,737 C1893.57,737 1942,737 1942,737 C1942,737 1942,842.03 1942,892.81 " fill="none" id="visit_infos-patients" style="stroke:#181818;stroke-width:1;"/><line style="stroke:#181818;stroke-width:1;" x1="1845.7" x2="1845.7" y1="741" y2="733"/><line style="stroke:#181818;stroke-width:1;" x1="1848.7" x2="1848.7" y1="741" y2="733"/><line style="stroke:#181818;stroke-width:1;" x1="1849.7" x2="1841.7" y1="737" y2="737"/><line style="stroke:#181818;stroke-width:1;" x1="1946" x2="1938" y1="896.81" y2="896.81"/><line style="stroke:#181818;stroke-width:1;" x1="1946" x2="1938" y1="893.81" y2="893.81"/><line style="stroke:#181818;stroke-width:1;" x1="1942" x2="1942" y1="892.81" y2="900.81"/></g><!--link visit_infos to routes--><g id="link_visit_infos_routes"><path codeLine="114" d="M1803,769.19 C1803,805.29 1803,856.86 1803,892.9 " fill="none" id="visit_infos-routes" style="stroke:#181818;stroke-width:1;"/><line style="stroke:#181818;stroke-width:1;" x1="1799" x2="1807" y1="765.19" y2="765.19"/><line style="stroke:#181818;stroke-width:1;" x1="1799" x2="1807" y1="768.19" y2="768.19"/><line style="stroke:#181818;stroke-width:1;" x1="1803" x2="1803" y1="769.19" y2="761.19"/><line style="stroke:#181818;stroke-width:1;" x1="1807" x2="1799" y1="896.9" y2="896.9"/><line style="stroke:#181818;stroke-width:1;" x1="1807" x2="1799" y1="893.9" y2="893.9"/><line style="stroke:#181818;stroke-width:1;" x1="1803" x2="1803" y1="892.9" y2="900.9"/></g><!--link routes to addresses--><g id="link_routes_addresses"><path codeLine="115" d="M1803,957.01 C1803,978.54 1803,993.99 1803,1015.63 " fill="none" id="routes-addresses" style="stroke:#181818;stroke-width:1;"/><line style="stroke:#181818;stroke-width:1;" x1="1799" x2="1807" y1="953.01" y2="953.01"/><line style="stroke:#181818;stroke-width:1;" x1="1799" x2="1807" y1="956.01" y2="956.01"/><line style="stroke:#181818;stroke-width:1;" x1="1803" x2="1803" y1="957.01" y2="949.01"/><line style="stroke:#181818;stroke-width:1;" x1="1803" x2="1809" y1="1015.63" y2="1023.63"/><line style="stroke:#181818;stroke-width:1;" x1="1803" x2="1797" y1="1015.63" y2="1023.63"/><line style="stroke:#181818;stroke-width:1;" x1="1803" x2="1803" y1="1015.63" y2="1023.63"/><line style="stroke:#181818;stroke-width:1;" x1="1807" x2="1799" y1="1013.63" y2="1013.63"/></g><!--SRC=[ZLRBRjj65DthAmPQ9KMr2BeZqgo48aBYjfikkY9eSMGJbZWgIJaGB04YsRXIr3H67CkndOS3ou_OiH0ZRcixSVqnO-gnwYzqXaE9mvTSBsI9SyzzpRddKbzGrBAaIILGL5HeLCiG8CsOHwbKMSelI7CGN5yqdTucM4e105L3CQf0pyz3kLA4kliGWA_0hA9AcdyWAZAuU_V71_VkkUUPZFlFCwheKAC6QMplOViBjluYdxbishNH3KrHvm09KuGWpK9ZiuUjAsnriTt4zj6_NvhV__JmeVZ3WzjftkyaE2s2PV0ToO3pCZZeZTwz2O0qcAzeDAGOp9qYquFpZzXwChnwWSrrvYINJOg-gEYA8Ifg0V6XXmU7pjgplltOsJx9PMy5aLwjCjJpcb8s5AHokGuFF_HV_X52o9813QK4lMZqvnZINzybgVrC_Z8pCvaioRCLmkY6f1cY-pKzwhIT_NP_mnfrLWdi_drXPYQAWAhisG_-jAulbXFiPn4gGaa5YYxc9JKFYqKefx5rZEqTR7_2rcToQTXSmzRls7oBpJOstsDpcNov9SE2L2aQtnQaeWvlHxoXHQZH-E8Zf2s0D0llT3jEk-kqDv8SJDAVXGMaGJ4_Bwbpq6kMqstrjqwTrbFQOdOveSPDTSBta7SrfP_r5FbG4Ga-Ymm3bG0g-0FanehI39lxWzOv8u8_0-OL2pdffRDzwgmqSSDqtM1pbLhPotIex8xRzAD-voFnYirViVq1Mv_SenQsdW-lBfqdszZSm5RRGx-cTMnk4H3n69TJBvV5vW5VDkaTgPcukxvwxHo_dBWZn75BJaKrmvtEPE7mPpUi7jwqg58fJXZMdPMdDtMRXNQTtH70gB7fd9trTuy9bTndtmY0CUA60XZ78oLCaxoeje340HaBJK0ZM4nHWv9ELIA47Qmi3rwSX8ZhGHZjGm1sRvD-UHNwMgXnuXuHIkqcWUUg5G2sph5rWgqpRE-wx3lAPRqUk1X5DK11WxzKe9gl2Y2WkQFjpyx57fcd4bAD-MBrQ_08meLYrHjq2fMbgeWA8drEmFsjLwIqoAaBfyUlceoqlWK5Har6ZPDOyQG_XObwZlq4zD8pyGIJcTJ7d3HGcH8orEXKl0JqA2lSZf418qy6_xoVDc3HJPPuW_zhJKSkF7Gva-p6L4qOPM4ohUDH3G42crC8xynuttdIvJcaLOF-ZwZuMQVOFenxdH3e6FYl4Kaxc6RWxjx4bUld6660ln-4u99DsAn2SBLE9ylDMwF7kXOLvA3vv2Q8rZjlBx2vInU4kKTq7zjhs3wcGc4t7PEiclrnSvyFkxyDTowZ5AnphugNp_gj1l-gACco1dMTvCoP3Ss_dTLtB5VUcBuPCjBMUVE-jJDiF8wQboL38LzZ43o5U8HFjJ78btUeBIfvmYmamyYXXYe6vEBu4rP7cKojnZBd7jTgcGogHNP6oAB6MJ0bu1mp3t6t7md3bPMAam7NR8bxwqWogjKYsZJ5b0_BTtPS6j_HE8Fn_SMTiOwdlCQx3vSuClq7]--></g></svg>