<?xml version="1.0" encoding="UTF-8" standalone="no"?><svg xmlns="http://www.w3.org/2000/svg" xmlns:xlink="http://www.w3.org/1999/xlink" contentScriptType="application/ecmascript" contentStyleType="text/css" height="543px" preserveAspectRatio="none" style="width:1385px;height:543px;" version="1.1" viewBox="0 0 1385 543" width="1385px" zoomAndPan="magnify"><defs><filter height="300%" id="f1groqt72zvcvd" width="300%" x="-1" y="-1"><feGaussianBlur result="blurOut" stdDeviation="2.0"/><feColorMatrix in="blurOut" result="blurOut2" type="matrix" values="0 0 0 0 0 0 0 0 0 0 0 0 0 0 0 0 0 0 .4 0"/><feOffset dx="4.0" dy="4.0" in="blurOut2" result="blurOut3"/><feBlend in="SourceGraphic" in2="blurOut3" mode="normal"/></filter></defs><g><!--MD5=[af7553808e27414a6663019e1dd2c0e6]
cluster 職員情報--><polygon fill="#FFFFFF" filter="url(#f1groqt72zvcvd)" points="157.5,158,219.5,158,226.5,180.2969,721.5,180.2969,721.5,531,157.5,531,157.5,158" style="stroke: #000000; stroke-width: 1.5;"/><line style="stroke: #000000; stroke-width: 1.5;" x1="157.5" x2="226.5" y1="180.2969" y2="180.2969"/><text fill="#000000" font-family="sans-serif" font-size="14" font-weight="bold" lengthAdjust="spacingAndGlyphs" textLength="56" x="161.5" y="172.9951">職員情報</text><!--MD5=[9f6ffe30cb633c56d0808b0c68d66db5]
cluster エリア--><polygon fill="#FFFFFF" filter="url(#f1groqt72zvcvd)" points="745.5,400,793.5,400,800.5,422.2969,845.5,422.2969,845.5,499,745.5,499,745.5,400" style="stroke: #000000; stroke-width: 1.5;"/><line style="stroke: #000000; stroke-width: 1.5;" x1="745.5" x2="800.5" y1="422.2969" y2="422.2969"/><text fill="#000000" font-family="sans-serif" font-size="14" font-weight="bold" lengthAdjust="spacingAndGlyphs" textLength="42" x="749.5" y="414.9951">エリア</text><!--MD5=[eace04a6a715c010434b3f14fc7f454a]
cluster 施設情報--><polygon fill="#FFFFFF" filter="url(#f1groqt72zvcvd)" points="869.5,400,931.5,400,938.5,422.2969,1363.5,422.2969,1363.5,499,869.5,499,869.5,400" style="stroke: #000000; stroke-width: 1.5;"/><line style="stroke: #000000; stroke-width: 1.5;" x1="869.5" x2="938.5" y1="422.2969" y2="422.2969"/><text fill="#000000" font-family="sans-serif" font-size="14" font-weight="bold" lengthAdjust="spacingAndGlyphs" textLength="56" x="873.5" y="414.9951">施設情報</text><!--MD5=[8413f8248b2da7966d2de021109ec289]
class users--><rect fill="#FEFECE" filter="url(#f1groqt72zvcvd)" height="150.4375" id="users" style="stroke: #A80036; stroke-width: 1.5;" width="267" x="438" y="193"/><ellipse cx="549.75" cy="209" fill="#ADD1B2" rx="11" ry="11" style="stroke: #A80036; stroke-width: 1.0;"/><path d="M553.8594,215 L546.1406,215 L546.1406,202.6094 L553.8594,202.6094 L553.8594,204.7656 L548.5938,204.7656 L548.5938,207.4375 L553.3594,207.4375 L553.3594,209.5938 L548.5938,209.5938 L548.5938,212.8438 L553.8594,212.8438 L553.8594,215 Z "/><text fill="#000000" font-family="sans-serif" font-size="12" lengthAdjust="spacingAndGlyphs" textLength="35" x="570.25" y="213.1543">users</text><line style="stroke: #A80036; stroke-width: 1.5;" x1="439" x2="704" y1="225" y2="225"/><ellipse cx="449" cy="236" fill="#000000" rx="3" ry="3" style="stroke: #000000; stroke-width: 1.0;"/><text fill="#000000" font-family="sans-serif" font-size="11" lengthAdjust="spacingAndGlyphs" textLength="81" x="458" y="239.2104">binary id «PK»</text><line style="stroke: #A80036; stroke-width: 1.0;" x1="439" x2="704" y1="245.8047" y2="245.8047"/><text fill="#000000" font-family="sans-serif" font-size="11" lengthAdjust="spacingAndGlyphs" textLength="255" x="444" y="260.0151">binary auth_user_id «FK» "CognitoユーザーID"</text><text fill="#000000" font-family="sans-serif" font-size="11" lengthAdjust="spacingAndGlyphs" textLength="164" x="444" y="272.8198">string username "ユーザー名"</text><text fill="#000000" font-family="sans-serif" font-size="11" lengthAdjust="spacingAndGlyphs" textLength="180" x="444" y="285.6245">string phone_number "電話番号"</text><text fill="#000000" font-family="sans-serif" font-size="11" lengthAdjust="spacingAndGlyphs" textLength="184" x="444" y="298.4292">ENUM('男性', '女性') gender "性別"</text><text fill="#000000" font-family="sans-serif" font-size="11" lengthAdjust="spacingAndGlyphs" textLength="192" x="444" y="311.2339">binary area_id «FK» "担当エリアID"</text><text fill="#000000" font-family="sans-serif" font-size="11" lengthAdjust="spacingAndGlyphs" textLength="178" x="444" y="324.0386">binary position_id «FK» "役職ID"</text><text fill="#000000" font-family="sans-serif" font-size="11" lengthAdjust="spacingAndGlyphs" textLength="173" x="444" y="336.8433">binary team_id «FK» "チームID"</text><path d="M173.5,431.5 L173.5,486.8984 A0,0 0 0 0 173.5,486.8984 L449.5,486.8984 A0,0 0 0 0 449.5,486.8984 L449.5,441.5 L439.5,431.5 L447.5,431.5 L443.75,343.21 L439.5,431.5 L173.5,431.5 A0,0 0 0 0 173.5,431.5 " fill="#FBFB77" filter="url(#f1groqt72zvcvd)" style="stroke: #A80036; stroke-width: 1.0;"/><path d="M439.5,431.5 L439.5,441.5 L449.5,441.5 L439.5,431.5 " fill="#FBFB77" style="stroke: #A80036; stroke-width: 1.0;"/><text fill="#000000" font-family="sans-serif" font-size="13" lengthAdjust="spacingAndGlyphs" textLength="255" x="179.5" y="448.5669">性別は、男性・女性・の2つの選択肢がある</text><text fill="#000000" font-family="sans-serif" font-size="13" lengthAdjust="spacingAndGlyphs" textLength="42" x="179.5" y="463.6997">1. 男性</text><text fill="#000000" font-family="sans-serif" font-size="13" lengthAdjust="spacingAndGlyphs" textLength="42" x="179.5" y="478.8325">2. 女性</text><!--MD5=[a81ebbc74fd6a5d1ba083cead8dfa143]
class monthly_workings--><rect fill="#FEFECE" filter="url(#f1groqt72zvcvd)" height="112.0234" id="monthly_workings" style="stroke: #A80036; stroke-width: 1.5;" width="221" x="485" y="403"/><ellipse cx="536.25" cy="419" fill="#ADD1B2" rx="11" ry="11" style="stroke: #A80036; stroke-width: 1.0;"/><path d="M540.3594,425 L532.6406,425 L532.6406,412.6094 L540.3594,412.6094 L540.3594,414.7656 L535.0938,414.7656 L535.0938,417.4375 L539.8594,417.4375 L539.8594,419.5938 L535.0938,419.5938 L535.0938,422.8438 L540.3594,422.8438 L540.3594,425 Z "/><text fill="#000000" font-family="sans-serif" font-size="12" lengthAdjust="spacingAndGlyphs" textLength="110" x="556.75" y="423.1543">monthly_workings</text><line style="stroke: #A80036; stroke-width: 1.5;" x1="486" x2="705" y1="435" y2="435"/><ellipse cx="496" cy="446" fill="#000000" rx="3" ry="3" style="stroke: #000000; stroke-width: 1.0;"/><text fill="#000000" font-family="sans-serif" font-size="11" lengthAdjust="spacingAndGlyphs" textLength="162" x="505" y="449.2104">binary working_data_id «PK»</text><line style="stroke: #A80036; stroke-width: 1.0;" x1="486" x2="705" y1="455.8047" y2="455.8047"/><text fill="#000000" font-family="sans-serif" font-size="11" lengthAdjust="spacingAndGlyphs" textLength="112" x="491" y="470.0151">binary user_id «FK»</text><text fill="#000000" font-family="sans-serif" font-size="11" lengthAdjust="spacingAndGlyphs" textLength="145" x="491" y="482.8198">date month "稼働時間の月"</text><text fill="#000000" font-family="sans-serif" font-size="11" lengthAdjust="spacingAndGlyphs" textLength="209" x="491" y="495.6245">int monthly_visit_count "月の訪問回数"</text><text fill="#000000" font-family="sans-serif" font-size="11" lengthAdjust="spacingAndGlyphs" textLength="142" x="491" y="508.4292">int work_hours "勤務時間"</text><!--MD5=[30b3f9d6383eda1018bee78f0b1f9fb5]
class areas--><rect fill="#FEFECE" filter="url(#f1groqt72zvcvd)" height="48" id="areas" style="stroke: #A80036; stroke-width: 1.5;" width="68" x="761.5" y="435"/><ellipse cx="776.5" cy="451" fill="#ADD1B2" rx="11" ry="11" style="stroke: #A80036; stroke-width: 1.0;"/><path d="M780.6094,457 L772.8906,457 L772.8906,444.6094 L780.6094,444.6094 L780.6094,446.7656 L775.3438,446.7656 L775.3438,449.4375 L780.1094,449.4375 L780.1094,451.5938 L775.3438,451.5938 L775.3438,454.8438 L780.6094,454.8438 L780.6094,457 Z "/><text fill="#000000" font-family="sans-serif" font-size="12" lengthAdjust="spacingAndGlyphs" textLength="36" x="790.5" y="455.1543">areas</text><line style="stroke: #A80036; stroke-width: 1.5;" x1="762.5" x2="828.5" y1="467" y2="467"/><line style="stroke: #A80036; stroke-width: 1.5;" x1="762.5" x2="828.5" y1="475" y2="475"/><!--MD5=[906b6f3cbaecf3ca9cf95c95e4e1b597]
class facilities--><rect fill="#FEFECE" filter="url(#f1groqt72zvcvd)" height="48" id="facilities" style="stroke: #A80036; stroke-width: 1.5;" width="83" x="1264" y="435"/><ellipse cx="1279" cy="451" fill="#ADD1B2" rx="11" ry="11" style="stroke: #A80036; stroke-width: 1.0;"/><path d="M1283.1094,457 L1275.3906,457 L1275.3906,444.6094 L1283.1094,444.6094 L1283.1094,446.7656 L1277.8438,446.7656 L1277.8438,449.4375 L1282.6094,449.4375 L1282.6094,451.5938 L1277.8438,451.5938 L1277.8438,454.8438 L1283.1094,454.8438 L1283.1094,457 Z "/><text fill="#000000" font-family="sans-serif" font-size="12" lengthAdjust="spacingAndGlyphs" textLength="51" x="1293" y="455.1543">facilities</text><line style="stroke: #A80036; stroke-width: 1.5;" x1="1265" x2="1346" y1="467" y2="467"/><line style="stroke: #A80036; stroke-width: 1.5;" x1="1265" x2="1346" y1="475" y2="475"/><!--MD5=[812f124879d7479c543db8514bfe7b1c]
class teams--><rect fill="#FEFECE" filter="url(#f1groqt72zvcvd)" height="48" id="teams" style="stroke: #A80036; stroke-width: 1.5;" width="71" x="1158" y="435"/><ellipse cx="1173" cy="451" fill="#ADD1B2" rx="11" ry="11" style="stroke: #A80036; stroke-width: 1.0;"/><path d="M1177.1094,457 L1169.3906,457 L1169.3906,444.6094 L1177.1094,444.6094 L1177.1094,446.7656 L1171.8438,446.7656 L1171.8438,449.4375 L1176.6094,449.4375 L1176.6094,451.5938 L1171.8438,451.5938 L1171.8438,454.8438 L1177.1094,454.8438 L1177.1094,457 Z "/><text fill="#000000" font-family="sans-serif" font-size="12" lengthAdjust="spacingAndGlyphs" textLength="39" x="1187" y="455.1543">teams</text><line style="stroke: #A80036; stroke-width: 1.5;" x1="1159" x2="1228" y1="467" y2="467"/><line style="stroke: #A80036; stroke-width: 1.5;" x1="1159" x2="1228" y1="475" y2="475"/><!--MD5=[6c84c4f3a21a87fd355cd02b69660fa8]
class positions--><rect fill="#FEFECE" filter="url(#f1groqt72zvcvd)" height="48" id="positions" style="stroke: #A80036; stroke-width: 1.5;" width="89" x="1034" y="435"/><ellipse cx="1049" cy="451" fill="#ADD1B2" rx="11" ry="11" style="stroke: #A80036; stroke-width: 1.0;"/><path d="M1053.1094,457 L1045.3906,457 L1045.3906,444.6094 L1053.1094,444.6094 L1053.1094,446.7656 L1047.8438,446.7656 L1047.8438,449.4375 L1052.6094,449.4375 L1052.6094,451.5938 L1047.8438,451.5938 L1047.8438,454.8438 L1053.1094,454.8438 L1053.1094,457 Z "/><text fill="#000000" font-family="sans-serif" font-size="12" lengthAdjust="spacingAndGlyphs" textLength="57" x="1063" y="455.1543">positions</text><line style="stroke: #A80036; stroke-width: 1.5;" x1="1035" x2="1122" y1="467" y2="467"/><line style="stroke: #A80036; stroke-width: 1.5;" x1="1035" x2="1122" y1="475" y2="475"/><!--MD5=[7f814fef5106890c143ca53cdb5abaab]
class departments--><rect fill="#FEFECE" filter="url(#f1groqt72zvcvd)" height="48" id="departments" style="stroke: #A80036; stroke-width: 1.5;" width="113" x="886" y="435"/><ellipse cx="901" cy="451" fill="#ADD1B2" rx="11" ry="11" style="stroke: #A80036; stroke-width: 1.0;"/><path d="M905.1094,457 L897.3906,457 L897.3906,444.6094 L905.1094,444.6094 L905.1094,446.7656 L899.8438,446.7656 L899.8438,449.4375 L904.6094,449.4375 L904.6094,451.5938 L899.8438,451.5938 L899.8438,454.8438 L905.1094,454.8438 L905.1094,457 Z "/><text fill="#000000" font-family="sans-serif" font-size="12" lengthAdjust="spacingAndGlyphs" textLength="81" x="915" y="455.1543">departments</text><line style="stroke: #A80036; stroke-width: 1.5;" x1="887" x2="998" y1="467" y2="467"/><line style="stroke: #A80036; stroke-width: 1.5;" x1="887" x2="998" y1="475" y2="475"/><!--MD5=[120dc14e603350f892542e63c88f8033]
class auth_users--><rect fill="#FEFECE" filter="url(#f1groqt72zvcvd)" height="124.8281" id="auth_users" style="stroke: #A80036; stroke-width: 1.5;" width="204" x="220.5" y="8"/><ellipse cx="283.25" cy="24" fill="#ADD1B2" rx="11" ry="11" style="stroke: #A80036; stroke-width: 1.0;"/><path d="M287.3594,30 L279.6406,30 L279.6406,17.6094 L287.3594,17.6094 L287.3594,19.7656 L282.0938,19.7656 L282.0938,22.4375 L286.8594,22.4375 L286.8594,24.5938 L282.0938,24.5938 L282.0938,27.8438 L287.3594,27.8438 L287.3594,30 Z "/><text fill="#000000" font-family="sans-serif" font-size="12" lengthAdjust="spacingAndGlyphs" textLength="70" x="303.75" y="28.1543">auth_users</text><line style="stroke: #A80036; stroke-width: 1.5;" x1="221.5" x2="423.5" y1="40" y2="40"/><ellipse cx="231.5" cy="51" fill="#000000" rx="3" ry="3" style="stroke: #000000; stroke-width: 1.0;"/><text fill="#000000" font-family="sans-serif" font-size="11" lengthAdjust="spacingAndGlyphs" textLength="164" x="240.5" y="54.2104">string username "ユーザー名"</text><line style="stroke: #A80036; stroke-width: 1.0;" x1="221.5" x2="423.5" y1="60.8047" y2="60.8047"/><text fill="#000000" font-family="sans-serif" font-size="11" lengthAdjust="spacingAndGlyphs" textLength="180" x="226.5" y="75.0151">string phone_number "電話番号"</text><text fill="#000000" font-family="sans-serif" font-size="11" lengthAdjust="spacingAndGlyphs" textLength="184" x="226.5" y="87.8198">ENUM('男性', '女性') gender "性別"</text><text fill="#000000" font-family="sans-serif" font-size="11" lengthAdjust="spacingAndGlyphs" textLength="192" x="226.5" y="100.6245">binary area_id «FK» "担当エリアID"</text><text fill="#000000" font-family="sans-serif" font-size="11" lengthAdjust="spacingAndGlyphs" textLength="178" x="226.5" y="113.4292">binary position_id «FK» "役職ID"</text><text fill="#000000" font-family="sans-serif" font-size="11" lengthAdjust="spacingAndGlyphs" textLength="173" x="226.5" y="126.2339">binary team_id «FK» "チームID"</text><path d="M6,248 L6,288.2656 L141,288.2656 L141,258 L131,248 L6,248 " fill="#FBFB77" filter="url(#f1groqt72zvcvd)" style="stroke: #A80036; stroke-width: 1.0;"/><path d="M131,248 L131,258 L141,258 L131,248 " fill="#FBFB77" style="stroke: #A80036; stroke-width: 1.0;"/><text fill="#000000" font-family="sans-serif" font-size="13" lengthAdjust="spacingAndGlyphs" textLength="114" x="12" y="265.0669">Cognitoのユーザー</text><text fill="#000000" font-family="sans-serif" font-size="13" lengthAdjust="spacingAndGlyphs" textLength="110" x="12" y="280.1997">DBにも保存しない</text><!--MD5=[1b10b722a00061296411059cbdf5baaa]
link auth_users to GMN3--><path d="M288.5,133.26 C288.5,191.09 288.5,268 288.5,268 C288.5,268 204.25,268 141.23,268 " fill="none" id="auth_users-GMN3" style="stroke: #A80036; stroke-width: 1.0; stroke-dasharray: 7.0,7.0;"/><!--MD5=[000b65a505d04e8e1abc15e19cc62a92]
link auth_users to users--><path d="M356.5,140.02 C356.5,140.02 356.5,221 356.5,221 C356.5,221 430.78,221 430.78,221 " fill="none" id="auth_users-users" style="stroke: #A80036; stroke-width: 1.0;"/><line style="stroke: #A80036; stroke-width: 1.0;" x1="433.78" x2="433.78" y1="217" y2="225"/><line style="stroke: #A80036; stroke-width: 1.0;" x1="430.78" x2="430.78" y1="217" y2="225"/><line style="stroke: #A80036; stroke-width: 1.0;" x1="429.78" x2="437.78" y1="221" y2="221"/><line style="stroke: #A80036; stroke-width: 1.0;" x1="352.5" x2="360.5" y1="137.02" y2="137.02"/><line style="stroke: #A80036; stroke-width: 1.0;" x1="352.5" x2="360.5" y1="140.02" y2="140.02"/><line style="stroke: #A80036; stroke-width: 1.0;" x1="356.5" x2="356.5" y1="141.02" y2="133.02"/><!--MD5=[4f03d378af5823bbda9586e91aedc750]
link users to positions--><path d="M712.04,268 C712.04,268 1078.5,268 1078.5,268 C1078.5,268 1078.5,427.81 1078.5,427.81 " fill="none" id="users-positions" style="stroke: #A80036; stroke-width: 1.0;"/><line style="stroke: #A80036; stroke-width: 1.0;" x1="1082.5" x2="1074.5" y1="430.81" y2="430.81"/><line style="stroke: #A80036; stroke-width: 1.0;" x1="1082.5" x2="1074.5" y1="427.81" y2="427.81"/><line style="stroke: #A80036; stroke-width: 1.0;" x1="1078.5" x2="1078.5" y1="426.81" y2="434.81"/><line style="stroke: #A80036; stroke-width: 1.0;" x1="709.04" x2="709.04" y1="272" y2="264"/><line style="stroke: #A80036; stroke-width: 1.0;" x1="712.04" x2="712.04" y1="272" y2="264"/><line style="stroke: #A80036; stroke-width: 1.0;" x1="713.04" x2="705.04" y1="268" y2="268"/><!--MD5=[9d7d3d0115a71511bd0e3ad08590d6fe]
link users to departments--><path d="M712.18,293 C712.18,293 942.5,293 942.5,293 C942.5,293 942.5,427.86 942.5,427.86 " fill="none" id="users-departments" style="stroke: #A80036; stroke-width: 1.0;"/><line style="stroke: #A80036; stroke-width: 1.0;" x1="946.5" x2="938.5" y1="430.86" y2="430.86"/><line style="stroke: #A80036; stroke-width: 1.0;" x1="946.5" x2="938.5" y1="427.86" y2="427.86"/><line style="stroke: #A80036; stroke-width: 1.0;" x1="942.5" x2="942.5" y1="426.86" y2="434.86"/><line style="stroke: #A80036; stroke-width: 1.0;" x1="709.18" x2="709.18" y1="297" y2="289"/><line style="stroke: #A80036; stroke-width: 1.0;" x1="712.18" x2="712.18" y1="297" y2="289"/><line style="stroke: #A80036; stroke-width: 1.0;" x1="713.18" x2="705.18" y1="293" y2="293"/><!--MD5=[6f64ef81625fd0818df9fd5c102df1cc]
link users to monthly_workings--><path d="M595,351.21 C595,351.21 595,394.75 595,394.75 " fill="none" id="users-monthly_workings" style="stroke: #A80036; stroke-width: 1.0;"/><line style="stroke: #A80036; stroke-width: 1.0;" x1="595" x2="601" y1="394.75" y2="402.75"/><line style="stroke: #A80036; stroke-width: 1.0;" x1="595" x2="589" y1="394.75" y2="402.75"/><line style="stroke: #A80036; stroke-width: 1.0;" x1="595" x2="595" y1="394.75" y2="402.75"/><ellipse cx="595" cy="388.75" fill="none" rx="4" ry="4" style="stroke: #A80036; stroke-width: 1.0;"/><line style="stroke: #A80036; stroke-width: 1.0;" x1="591" x2="599" y1="347.21" y2="347.21"/><line style="stroke: #A80036; stroke-width: 1.0;" x1="591" x2="599" y1="350.21" y2="350.21"/><line style="stroke: #A80036; stroke-width: 1.0;" x1="595" x2="595" y1="351.21" y2="343.21"/><!--MD5=[57f25b467c94d79aa55e48ff40aa892f]
link users to facilities--><path d="M712.27,218 C712.27,218 1305.5,218 1305.5,218 C1305.5,218 1305.5,427.57 1305.5,427.57 " fill="none" id="users-facilities" style="stroke: #A80036; stroke-width: 1.0;"/><line style="stroke: #A80036; stroke-width: 1.0;" x1="1309.5" x2="1301.5" y1="430.57" y2="430.57"/><line style="stroke: #A80036; stroke-width: 1.0;" x1="1309.5" x2="1301.5" y1="427.57" y2="427.57"/><line style="stroke: #A80036; stroke-width: 1.0;" x1="1305.5" x2="1305.5" y1="426.57" y2="434.57"/><line style="stroke: #A80036; stroke-width: 1.0;" x1="709.27" x2="709.27" y1="222" y2="214"/><line style="stroke: #A80036; stroke-width: 1.0;" x1="712.27" x2="712.27" y1="222" y2="214"/><line style="stroke: #A80036; stroke-width: 1.0;" x1="713.27" x2="705.27" y1="218" y2="218"/><!--MD5=[583137fe301841bd190b856b5b43cbbd]
link users to teams--><path d="M712.32,243 C712.32,243 1193.5,243 1193.5,243 C1193.5,243 1193.5,427.64 1193.5,427.64 " fill="none" id="users-teams" style="stroke: #A80036; stroke-width: 1.0;"/><line style="stroke: #A80036; stroke-width: 1.0;" x1="1197.5" x2="1189.5" y1="430.64" y2="430.64"/><line style="stroke: #A80036; stroke-width: 1.0;" x1="1197.5" x2="1189.5" y1="427.64" y2="427.64"/><line style="stroke: #A80036; stroke-width: 1.0;" x1="1193.5" x2="1193.5" y1="426.64" y2="434.64"/><line style="stroke: #A80036; stroke-width: 1.0;" x1="709.32" x2="709.32" y1="247" y2="239"/><line style="stroke: #A80036; stroke-width: 1.0;" x1="712.32" x2="712.32" y1="247" y2="239"/><line style="stroke: #A80036; stroke-width: 1.0;" x1="713.32" x2="705.32" y1="243" y2="243"/><!--MD5=[df6f96c72ab0ecb1bd66d4c7e5ad8b41]
link users to areas--><path d="M712.04,318 C712.04,318 795.5,318 795.5,318 C795.5,318 795.5,427.76 795.5,427.76 " fill="none" id="users-areas" style="stroke: #A80036; stroke-width: 1.0;"/><line style="stroke: #A80036; stroke-width: 1.0;" x1="799.5" x2="791.5" y1="430.76" y2="430.76"/><line style="stroke: #A80036; stroke-width: 1.0;" x1="799.5" x2="791.5" y1="427.76" y2="427.76"/><line style="stroke: #A80036; stroke-width: 1.0;" x1="795.5" x2="795.5" y1="426.76" y2="434.76"/><line style="stroke: #A80036; stroke-width: 1.0;" x1="709.04" x2="709.04" y1="322" y2="314"/><line style="stroke: #A80036; stroke-width: 1.0;" x1="712.04" x2="712.04" y1="322" y2="314"/><line style="stroke: #A80036; stroke-width: 1.0;" x1="713.04" x2="705.04" y1="318" y2="318"/><!--MD5=[1de090bca7a54735acfa53bf6a30865f]
@startuml entity-relationship-diagram
skinparam linetype ortho

entity auth_users {
  * string username "ユーザー名"
  - -
  string phone_number "電話番号"
  ENUM('男性', '女性') gender "性別"
  binary area_id <<FK>> "担当エリアID"
  binary position_id <<FK>> "役職ID"
  binary team_id <<FK>> "チームID"
}

note bottom of auth_users
  Cognitoのユーザー
  DBにも保存しない
end note

package 職員情報 {
  entity users {
    * binary id <<PK>>
    - -
    binary auth_user_id <<FK>> "CognitoユーザーID"
    string username "ユーザー名"
    string phone_number "電話番号"
    ENUM('男性', '女性') gender "性別"
    binary area_id <<FK>> "担当エリアID"
    binary position_id <<FK>> "役職ID"
    binary team_id <<FK>> "チームID"
  }

  note bottom of users
    性別は、男性・女性・の2つの選択肢がある
    1. 男性
    2. 女性
  end note

  entity monthly_workings {
    * binary working_data_id <<PK>>
    - -
    binary user_id <<FK>>
    date month "稼働時間の月"
    int monthly_visit_count "月の訪問回数"
    int work_hours "勤務時間"
  }
}

package エリア {
  entity areas
}

package 施設情報 {
  entity facilities
  entity teams
  entity positions
  entity departments
}

auth_users ||- -|| users
users ||- -|| positions
users ||- -|| departments
users ||- -o{ monthly_workings
users ||- -|| facilities
users ||- -|| teams
users ||- -|| areas

@enduml

PlantUML version 1.2020.02(Sun Mar 01 10:22:07 UTC 2020)
(GPL source distribution)
Java Runtime: OpenJDK Runtime Environment
JVM: OpenJDK 64-Bit Server VM
Java Version: 11.0.16+8
Operating System: Linux
Default Encoding: UTF-8
Language: en
Country: null
--></g></svg>