<?xml version="1.0" encoding="UTF-8" standalone="no"?><svg xmlns="http://www.w3.org/2000/svg" xmlns:xlink="http://www.w3.org/1999/xlink" contentScriptType="application/ecmascript" contentStyleType="text/css" height="595px" preserveAspectRatio="none" style="width:1305px;height:595px;" version="1.1" viewBox="0 0 1305 595" width="1305px" zoomAndPan="magnify"><defs><filter height="300%" id="fx7geliksl5iy" width="300%" x="-1" y="-1"><feGaussianBlur result="blurOut" stdDeviation="2.0"/><feColorMatrix in="blurOut" result="blurOut2" type="matrix" values="0 0 0 0 0 0 0 0 0 0 0 0 0 0 0 0 0 0 .4 0"/><feOffset dx="4.0" dy="4.0" in="blurOut2" result="blurOut3"/><feBlend in="SourceGraphic" in2="blurOut3" mode="normal"/></filter></defs><g><!--MD5=[af7553808e27414a6663019e1dd2c0e6]
cluster 職員情報--><polygon fill="#FFFFFF" filter="url(#fx7geliksl5iy)" points="22,171,84,171,91,193.2969,641,193.2969,641,583,22,583,22,171" style="stroke: #000000; stroke-width: 1.5;"/><line style="stroke: #000000; stroke-width: 1.5;" x1="22" x2="91" y1="193.2969" y2="193.2969"/><text fill="#000000" font-family="sans-serif" font-size="14" font-weight="bold" lengthAdjust="spacingAndGlyphs" textLength="56" x="26" y="185.9951">職員情報</text><!--MD5=[9f6ffe30cb633c56d0808b0c68d66db5]
cluster エリア--><polygon fill="#FFFFFF" filter="url(#fx7geliksl5iy)" points="665,445.5,713,445.5,720,467.7969,765,467.7969,765,544.5,665,544.5,665,445.5" style="stroke: #000000; stroke-width: 1.5;"/><line style="stroke: #000000; stroke-width: 1.5;" x1="665" x2="720" y1="467.7969" y2="467.7969"/><text fill="#000000" font-family="sans-serif" font-size="14" font-weight="bold" lengthAdjust="spacingAndGlyphs" textLength="42" x="669" y="460.4951">エリア</text><!--MD5=[eace04a6a715c010434b3f14fc7f454a]
cluster 施設情報--><polygon fill="#FFFFFF" filter="url(#fx7geliksl5iy)" points="789,445.5,851,445.5,858,467.7969,1283,467.7969,1283,544.5,789,544.5,789,445.5" style="stroke: #000000; stroke-width: 1.5;"/><line style="stroke: #000000; stroke-width: 1.5;" x1="789" x2="858" y1="467.7969" y2="467.7969"/><text fill="#000000" font-family="sans-serif" font-size="14" font-weight="bold" lengthAdjust="spacingAndGlyphs" textLength="56" x="793" y="460.4951">施設情報</text><!--MD5=[8413f8248b2da7966d2de021109ec289]
class users--><rect fill="#FEFECE" filter="url(#fx7geliksl5iy)" height="176.0469" id="users" style="stroke: #A80036; stroke-width: 1.5;" width="300" x="325" y="206"/><ellipse cx="453.25" cy="222" fill="#ADD1B2" rx="11" ry="11" style="stroke: #A80036; stroke-width: 1.0;"/><path d="M457.3594,228 L449.6406,228 L449.6406,215.6094 L457.3594,215.6094 L457.3594,217.7656 L452.0938,217.7656 L452.0938,220.4375 L456.8594,220.4375 L456.8594,222.5938 L452.0938,222.5938 L452.0938,225.8438 L457.3594,225.8438 L457.3594,228 Z "/><text fill="#000000" font-family="sans-serif" font-size="12" lengthAdjust="spacingAndGlyphs" textLength="35" x="473.75" y="226.1543">users</text><line style="stroke: #A80036; stroke-width: 1.5;" x1="326" x2="624" y1="238" y2="238"/><text fill="#000000" font-family="sans-serif" font-size="11" lengthAdjust="spacingAndGlyphs" textLength="288" x="331" y="252.2104">id binary(16) NOT_NULL «PK» "CognitoのユーザーID"</text><line style="stroke: #A80036; stroke-width: 1.0;" x1="326" x2="624" y1="258.8047" y2="258.8047"/><text fill="#000000" font-family="sans-serif" font-size="11" lengthAdjust="spacingAndGlyphs" textLength="230" x="331" y="273.0151">username: string NOT_NULL "ユーザー名"</text><text fill="#000000" font-family="sans-serif" font-size="11" lengthAdjust="spacingAndGlyphs" textLength="184" x="331" y="285.8198">phone_number: string "電話番号"</text><text fill="#000000" font-family="sans-serif" font-size="11" lengthAdjust="spacingAndGlyphs" textLength="163" x="331" y="298.6245">email: string "メールアドレス"</text><text fill="#000000" font-family="sans-serif" font-size="11" lengthAdjust="spacingAndGlyphs" textLength="183" x="331" y="311.4292">gender: string NOT_NULL  "性別"</text><text fill="#000000" font-family="sans-serif" font-size="11" lengthAdjust="spacingAndGlyphs" textLength="195" x="331" y="324.2339">facility_id: binary(16) «FK» "施設ID"</text><text fill="#000000" font-family="sans-serif" font-size="11" lengthAdjust="spacingAndGlyphs" textLength="218" x="331" y="337.0386">area_id: binary(16) «FK» "担当エリアID"</text><text fill="#000000" font-family="sans-serif" font-size="11" lengthAdjust="spacingAndGlyphs" textLength="266" x="331" y="349.8433">position_id: binary(16) NOT_NULL «FK» "役職ID"</text><text fill="#000000" font-family="sans-serif" font-size="11" lengthAdjust="spacingAndGlyphs" textLength="287" x="331" y="362.6479">department_id: binary(16) NOT_NULL «FK» "部署ID"</text><text fill="#000000" font-family="sans-serif" font-size="11" lengthAdjust="spacingAndGlyphs" textLength="261" x="331" y="375.4526">team_id: binary(16) NOT_NULL «FK» "チームID"</text><path d="M38,477 L38,532.3984 L314,532.3984 L314,487 L304,477 L38,477 " fill="#FBFB77" filter="url(#fx7geliksl5iy)" style="stroke: #A80036; stroke-width: 1.0;"/><path d="M304,477 L304,487 L314,487 L304,477 " fill="#FBFB77" style="stroke: #A80036; stroke-width: 1.0;"/><text fill="#000000" font-family="sans-serif" font-size="13" lengthAdjust="spacingAndGlyphs" textLength="255" x="44" y="494.0669">性別は、男性・女性・の2つの選択肢がある</text><text fill="#000000" font-family="sans-serif" font-size="13" lengthAdjust="spacingAndGlyphs" textLength="42" x="44" y="509.1997">1. 男性</text><text fill="#000000" font-family="sans-serif" font-size="13" lengthAdjust="spacingAndGlyphs" textLength="42" x="44" y="524.3325">2. 女性</text><!--MD5=[a81ebbc74fd6a5d1ba083cead8dfa143]
class monthly_workings--><rect fill="#FEFECE" filter="url(#fx7geliksl5iy)" height="124.8281" id="monthly_workings" style="stroke: #A80036; stroke-width: 1.5;" width="276" x="349" y="442"/><ellipse cx="427.75" cy="458" fill="#ADD1B2" rx="11" ry="11" style="stroke: #A80036; stroke-width: 1.0;"/><path d="M431.8594,464 L424.1406,464 L424.1406,451.6094 L431.8594,451.6094 L431.8594,453.7656 L426.5938,453.7656 L426.5938,456.4375 L431.3594,456.4375 L431.3594,458.5938 L426.5938,458.5938 L426.5938,461.8438 L431.8594,461.8438 L431.8594,464 Z "/><text fill="#000000" font-family="sans-serif" font-size="12" lengthAdjust="spacingAndGlyphs" textLength="110" x="448.25" y="462.1543">monthly_workings</text><line style="stroke: #A80036; stroke-width: 1.5;" x1="350" x2="624" y1="474" y2="474"/><text fill="#000000" font-family="sans-serif" font-size="11" lengthAdjust="spacingAndGlyphs" textLength="264" x="355" y="488.2104">職員に紐づく予定データから算出した月次の稼働時間</text><text fill="#000000" font-family="sans-serif" font-size="11" lengthAdjust="spacingAndGlyphs" textLength="184" x="355" y="501.0151">working_data_id binary(16) «PK»</text><line style="stroke: #A80036; stroke-width: 1.0;" x1="350" x2="624" y1="507.6094" y2="507.6094"/><text fill="#000000" font-family="sans-serif" font-size="11" lengthAdjust="spacingAndGlyphs" textLength="134" x="355" y="521.8198">user_id binary(16) «FK»</text><text fill="#000000" font-family="sans-serif" font-size="11" lengthAdjust="spacingAndGlyphs" textLength="187" x="355" y="534.6245">year_month date "稼働時間の年月"</text><text fill="#000000" font-family="sans-serif" font-size="11" lengthAdjust="spacingAndGlyphs" textLength="209" x="355" y="547.4292">monthly_visit_count int "月の訪問回数"</text><text fill="#000000" font-family="sans-serif" font-size="11" lengthAdjust="spacingAndGlyphs" textLength="142" x="355" y="560.2339">work_hours int "勤務時間"</text><!--MD5=[30b3f9d6383eda1018bee78f0b1f9fb5]
class areas--><rect fill="#FEFECE" filter="url(#fx7geliksl5iy)" height="48" id="areas" style="stroke: #A80036; stroke-width: 1.5;" width="68" x="681" y="480.5"/><ellipse cx="696" cy="496.5" fill="#ADD1B2" rx="11" ry="11" style="stroke: #A80036; stroke-width: 1.0;"/><path d="M700.1094,502.5 L692.3906,502.5 L692.3906,490.1094 L700.1094,490.1094 L700.1094,492.2656 L694.8438,492.2656 L694.8438,494.9375 L699.6094,494.9375 L699.6094,497.0938 L694.8438,497.0938 L694.8438,500.3438 L700.1094,500.3438 L700.1094,502.5 Z "/><text fill="#000000" font-family="sans-serif" font-size="12" lengthAdjust="spacingAndGlyphs" textLength="36" x="710" y="500.6543">areas</text><line style="stroke: #A80036; stroke-width: 1.5;" x1="682" x2="748" y1="512.5" y2="512.5"/><line style="stroke: #A80036; stroke-width: 1.5;" x1="682" x2="748" y1="520.5" y2="520.5"/><!--MD5=[906b6f3cbaecf3ca9cf95c95e4e1b597]
class facilities--><rect fill="#FEFECE" filter="url(#fx7geliksl5iy)" height="48" id="facilities" style="stroke: #A80036; stroke-width: 1.5;" width="83" x="1183.5" y="480.5"/><ellipse cx="1198.5" cy="496.5" fill="#ADD1B2" rx="11" ry="11" style="stroke: #A80036; stroke-width: 1.0;"/><path d="M1202.6094,502.5 L1194.8906,502.5 L1194.8906,490.1094 L1202.6094,490.1094 L1202.6094,492.2656 L1197.3438,492.2656 L1197.3438,494.9375 L1202.1094,494.9375 L1202.1094,497.0938 L1197.3438,497.0938 L1197.3438,500.3438 L1202.6094,500.3438 L1202.6094,502.5 Z "/><text fill="#000000" font-family="sans-serif" font-size="12" lengthAdjust="spacingAndGlyphs" textLength="51" x="1212.5" y="500.6543">facilities</text><line style="stroke: #A80036; stroke-width: 1.5;" x1="1184.5" x2="1265.5" y1="512.5" y2="512.5"/><line style="stroke: #A80036; stroke-width: 1.5;" x1="1184.5" x2="1265.5" y1="520.5" y2="520.5"/><!--MD5=[812f124879d7479c543db8514bfe7b1c]
class teams--><rect fill="#FEFECE" filter="url(#fx7geliksl5iy)" height="48" id="teams" style="stroke: #A80036; stroke-width: 1.5;" width="71" x="1077.5" y="480.5"/><ellipse cx="1092.5" cy="496.5" fill="#ADD1B2" rx="11" ry="11" style="stroke: #A80036; stroke-width: 1.0;"/><path d="M1096.6094,502.5 L1088.8906,502.5 L1088.8906,490.1094 L1096.6094,490.1094 L1096.6094,492.2656 L1091.3438,492.2656 L1091.3438,494.9375 L1096.1094,494.9375 L1096.1094,497.0938 L1091.3438,497.0938 L1091.3438,500.3438 L1096.6094,500.3438 L1096.6094,502.5 Z "/><text fill="#000000" font-family="sans-serif" font-size="12" lengthAdjust="spacingAndGlyphs" textLength="39" x="1106.5" y="500.6543">teams</text><line style="stroke: #A80036; stroke-width: 1.5;" x1="1078.5" x2="1147.5" y1="512.5" y2="512.5"/><line style="stroke: #A80036; stroke-width: 1.5;" x1="1078.5" x2="1147.5" y1="520.5" y2="520.5"/><!--MD5=[6c84c4f3a21a87fd355cd02b69660fa8]
class positions--><rect fill="#FEFECE" filter="url(#fx7geliksl5iy)" height="48" id="positions" style="stroke: #A80036; stroke-width: 1.5;" width="89" x="953.5" y="480.5"/><ellipse cx="968.5" cy="496.5" fill="#ADD1B2" rx="11" ry="11" style="stroke: #A80036; stroke-width: 1.0;"/><path d="M972.6094,502.5 L964.8906,502.5 L964.8906,490.1094 L972.6094,490.1094 L972.6094,492.2656 L967.3438,492.2656 L967.3438,494.9375 L972.1094,494.9375 L972.1094,497.0938 L967.3438,497.0938 L967.3438,500.3438 L972.6094,500.3438 L972.6094,502.5 Z "/><text fill="#000000" font-family="sans-serif" font-size="12" lengthAdjust="spacingAndGlyphs" textLength="57" x="982.5" y="500.6543">positions</text><line style="stroke: #A80036; stroke-width: 1.5;" x1="954.5" x2="1041.5" y1="512.5" y2="512.5"/><line style="stroke: #A80036; stroke-width: 1.5;" x1="954.5" x2="1041.5" y1="520.5" y2="520.5"/><!--MD5=[7f814fef5106890c143ca53cdb5abaab]
class departments--><rect fill="#FEFECE" filter="url(#fx7geliksl5iy)" height="48" id="departments" style="stroke: #A80036; stroke-width: 1.5;" width="113" x="805.5" y="480.5"/><ellipse cx="820.5" cy="496.5" fill="#ADD1B2" rx="11" ry="11" style="stroke: #A80036; stroke-width: 1.0;"/><path d="M824.6094,502.5 L816.8906,502.5 L816.8906,490.1094 L824.6094,490.1094 L824.6094,492.2656 L819.3438,492.2656 L819.3438,494.9375 L824.1094,494.9375 L824.1094,497.0938 L819.3438,497.0938 L819.3438,500.3438 L824.6094,500.3438 L824.6094,502.5 Z "/><text fill="#000000" font-family="sans-serif" font-size="12" lengthAdjust="spacingAndGlyphs" textLength="81" x="834.5" y="500.6543">departments</text><line style="stroke: #A80036; stroke-width: 1.5;" x1="806.5" x2="917.5" y1="512.5" y2="512.5"/><line style="stroke: #A80036; stroke-width: 1.5;" x1="806.5" x2="917.5" y1="520.5" y2="520.5"/><!--MD5=[489c15fb07d5e02bb30de6328dd7bbaf]
class cognito_users--><rect fill="#FEFECE" filter="url(#fx7geliksl5iy)" height="137.6328" id="cognito_users" style="stroke: #A80036; stroke-width: 1.5;" width="324" x="313" y="8"/><ellipse cx="426.75" cy="24" fill="#ADD1B2" rx="11" ry="11" style="stroke: #A80036; stroke-width: 1.0;"/><path d="M430.8594,30 L423.1406,30 L423.1406,17.6094 L430.8594,17.6094 L430.8594,19.7656 L425.5938,19.7656 L425.5938,22.4375 L430.3594,22.4375 L430.3594,24.5938 L425.5938,24.5938 L425.5938,27.8438 L430.8594,27.8438 L430.8594,30 Z "/><text fill="#000000" font-family="sans-serif" font-size="12" lengthAdjust="spacingAndGlyphs" textLength="88" x="447.25" y="28.1543">cognito_users</text><line style="stroke: #A80036; stroke-width: 1.5;" x1="314" x2="636" y1="40" y2="40"/><text fill="#000000" font-family="sans-serif" font-size="11" lengthAdjust="spacingAndGlyphs" textLength="312" x="319" y="54.2104">Cognitoに保存されているユーザー情報（DBには保存しない）</text><text fill="#000000" font-family="sans-serif" font-size="11" lengthAdjust="spacingAndGlyphs" textLength="168" x="319" y="67.0151">username: string "ユーザー名"</text><line style="stroke: #A80036; stroke-width: 1.0;" x1="314" x2="636" y1="73.6094" y2="73.6094"/><text fill="#000000" font-family="sans-serif" font-size="11" lengthAdjust="spacingAndGlyphs" textLength="184" x="319" y="87.8198">phone_number: string "電話番号"</text><text fill="#000000" font-family="sans-serif" font-size="11" lengthAdjust="spacingAndGlyphs" textLength="163" x="319" y="100.6245">email: string "メールアドレス"</text><text fill="#000000" font-family="sans-serif" font-size="11" lengthAdjust="spacingAndGlyphs" textLength="218" x="319" y="113.4292">area_id: binary(16) «FK» "担当エリアID"</text><text fill="#000000" font-family="sans-serif" font-size="11" lengthAdjust="spacingAndGlyphs" textLength="204" x="319" y="126.2339">position_id: binary(16) «FK» "役職ID"</text><text fill="#000000" font-family="sans-serif" font-size="11" lengthAdjust="spacingAndGlyphs" textLength="199" x="319" y="139.0386">team_id: binary(16) «FK» "チームID"</text><!--MD5=[519059b7a5469336515b1c74d345c98f]
link users to GMN5--><path d="M337,382.26 C337,440.08 337,505 337,505 C337,505 328.01,505 314.27,505 " fill="none" id="users-GMN5" style="stroke: #A80036; stroke-width: 1.0; stroke-dasharray: 7.0,7.0;"/><!--MD5=[62f888d265425119590784248143628a]
link cognito_users to users--><path d="M475,153.26 C475,153.26 475,198.94 475,198.94 " fill="none" id="cognito_users-users" style="stroke: #A80036; stroke-width: 1.0;"/><line style="stroke: #A80036; stroke-width: 1.0;" x1="479" x2="471" y1="201.94" y2="201.94"/><line style="stroke: #A80036; stroke-width: 1.0;" x1="479" x2="471" y1="198.94" y2="198.94"/><line style="stroke: #A80036; stroke-width: 1.0;" x1="475" x2="475" y1="197.94" y2="205.94"/><line style="stroke: #A80036; stroke-width: 1.0;" x1="471" x2="479" y1="150.26" y2="150.26"/><line style="stroke: #A80036; stroke-width: 1.0;" x1="471" x2="479" y1="153.26" y2="153.26"/><line style="stroke: #A80036; stroke-width: 1.0;" x1="475" x2="475" y1="154.26" y2="146.26"/><!--MD5=[4f03d378af5823bbda9586e91aedc750]
link users to positions--><path d="M632.22,294 C632.22,294 998,294 998,294 C998,294 998,473.35 998,473.35 " fill="none" id="users-positions" style="stroke: #A80036; stroke-width: 1.0;"/><line style="stroke: #A80036; stroke-width: 1.0;" x1="1002" x2="994" y1="476.35" y2="476.35"/><line style="stroke: #A80036; stroke-width: 1.0;" x1="1002" x2="994" y1="473.35" y2="473.35"/><line style="stroke: #A80036; stroke-width: 1.0;" x1="998" x2="998" y1="472.35" y2="480.35"/><line style="stroke: #A80036; stroke-width: 1.0;" x1="629.22" x2="629.22" y1="298" y2="290"/><line style="stroke: #A80036; stroke-width: 1.0;" x1="632.22" x2="632.22" y1="298" y2="290"/><line style="stroke: #A80036; stroke-width: 1.0;" x1="633.22" x2="625.22" y1="294" y2="294"/><!--MD5=[9d7d3d0115a71511bd0e3ad08590d6fe]
link users to departments--><path d="M632.18,324 C632.18,324 862,324 862,324 C862,324 862,473.16 862,473.16 " fill="none" id="users-departments" style="stroke: #A80036; stroke-width: 1.0;"/><line style="stroke: #A80036; stroke-width: 1.0;" x1="866" x2="858" y1="476.16" y2="476.16"/><line style="stroke: #A80036; stroke-width: 1.0;" x1="866" x2="858" y1="473.16" y2="473.16"/><line style="stroke: #A80036; stroke-width: 1.0;" x1="862" x2="862" y1="472.16" y2="480.16"/><line style="stroke: #A80036; stroke-width: 1.0;" x1="629.18" x2="629.18" y1="328" y2="320"/><line style="stroke: #A80036; stroke-width: 1.0;" x1="632.18" x2="632.18" y1="328" y2="320"/><line style="stroke: #A80036; stroke-width: 1.0;" x1="633.18" x2="625.18" y1="324" y2="324"/><!--MD5=[6f64ef81625fd0818df9fd5c102df1cc]
link users to monthly_workings--><path d="M487,390.05 C487,390.05 487,433.76 487,433.76 " fill="none" id="users-monthly_workings" style="stroke: #A80036; stroke-width: 1.0;"/><line style="stroke: #A80036; stroke-width: 1.0;" x1="487" x2="493" y1="433.76" y2="441.76"/><line style="stroke: #A80036; stroke-width: 1.0;" x1="487" x2="481" y1="433.76" y2="441.76"/><line style="stroke: #A80036; stroke-width: 1.0;" x1="487" x2="487" y1="433.76" y2="441.76"/><ellipse cx="487" cy="427.76" fill="none" rx="4" ry="4" style="stroke: #A80036; stroke-width: 1.0;"/><line style="stroke: #A80036; stroke-width: 1.0;" x1="483" x2="491" y1="386.05" y2="386.05"/><line style="stroke: #A80036; stroke-width: 1.0;" x1="483" x2="491" y1="389.05" y2="389.05"/><line style="stroke: #A80036; stroke-width: 1.0;" x1="487" x2="487" y1="390.05" y2="382.05"/><!--MD5=[57f25b467c94d79aa55e48ff40aa892f]
link users to facilities--><path d="M632.42,236 C632.42,236 1225,236 1225,236 C1225,236 1225,473.2 1225,473.2 " fill="none" id="users-facilities" style="stroke: #A80036; stroke-width: 1.0;"/><line style="stroke: #A80036; stroke-width: 1.0;" x1="1229" x2="1221" y1="476.2" y2="476.2"/><line style="stroke: #A80036; stroke-width: 1.0;" x1="1229" x2="1221" y1="473.2" y2="473.2"/><line style="stroke: #A80036; stroke-width: 1.0;" x1="1225" x2="1225" y1="472.2" y2="480.2"/><line style="stroke: #A80036; stroke-width: 1.0;" x1="629.42" x2="629.42" y1="240" y2="232"/><line style="stroke: #A80036; stroke-width: 1.0;" x1="632.42" x2="632.42" y1="240" y2="232"/><line style="stroke: #A80036; stroke-width: 1.0;" x1="633.42" x2="625.42" y1="236" y2="236"/><!--MD5=[583137fe301841bd190b856b5b43cbbd]
link users to teams--><path d="M632.39,265 C632.39,265 1113,265 1113,265 C1113,265 1113,473.22 1113,473.22 " fill="none" id="users-teams" style="stroke: #A80036; stroke-width: 1.0;"/><line style="stroke: #A80036; stroke-width: 1.0;" x1="1117" x2="1109" y1="476.22" y2="476.22"/><line style="stroke: #A80036; stroke-width: 1.0;" x1="1117" x2="1109" y1="473.22" y2="473.22"/><line style="stroke: #A80036; stroke-width: 1.0;" x1="1113" x2="1113" y1="472.22" y2="480.22"/><line style="stroke: #A80036; stroke-width: 1.0;" x1="629.39" x2="629.39" y1="269" y2="261"/><line style="stroke: #A80036; stroke-width: 1.0;" x1="632.39" x2="632.39" y1="269" y2="261"/><line style="stroke: #A80036; stroke-width: 1.0;" x1="633.39" x2="625.39" y1="265" y2="265"/><!--MD5=[df6f96c72ab0ecb1bd66d4c7e5ad8b41]
link users to areas--><path d="M632.29,353 C632.29,353 715,353 715,353 C715,353 715,473.49 715,473.49 " fill="none" id="users-areas" style="stroke: #A80036; stroke-width: 1.0;"/><line style="stroke: #A80036; stroke-width: 1.0;" x1="719" x2="711" y1="476.49" y2="476.49"/><line style="stroke: #A80036; stroke-width: 1.0;" x1="719" x2="711" y1="473.49" y2="473.49"/><line style="stroke: #A80036; stroke-width: 1.0;" x1="715" x2="715" y1="472.49" y2="480.49"/><line style="stroke: #A80036; stroke-width: 1.0;" x1="629.29" x2="629.29" y1="357" y2="349"/><line style="stroke: #A80036; stroke-width: 1.0;" x1="632.29" x2="632.29" y1="357" y2="349"/><line style="stroke: #A80036; stroke-width: 1.0;" x1="633.29" x2="625.29" y1="353" y2="353"/><!--MD5=[eebb05002e662f9c1b20d3bd7200a2cc]
@startuml entity-relationship-diagram
skinparam linetype ortho

entity cognito_users {
  Cognitoに保存されているユーザー情報（DBには保存しない）
  username: string "ユーザー名"
  - -
  phone_number: string "電話番号"
  email: string "メールアドレス"
  area_id: binary(16) <<FK>> "担当エリアID"
  position_id: binary(16) <<FK>> "役職ID"
  team_id: binary(16) <<FK>> "チームID"
}

package 職員情報 {
  entity users {
    id binary(16) NOT_NULL <<PK>> "CognitoのユーザーID"
    - -
    username: string NOT_NULL "ユーザー名"
    phone_number: string "電話番号"
    email: string "メールアドレス"
    gender: string NOT_NULL  "性別"
    facility_id: binary(16) <<FK>> "施設ID"
    area_id: binary(16) <<FK>> "担当エリアID"
    position_id: binary(16) NOT_NULL <<FK>> "役職ID"
    department_id: binary(16) NOT_NULL <<FK>> "部署ID"
    team_id: binary(16) NOT_NULL <<FK>> "チームID"
  }

  note bottom of users
    性別は、男性・女性・の2つの選択肢がある
    1. 男性
    2. 女性
  end note

  entity monthly_workings {
    職員に紐づく予定データから算出した月次の稼働時間
    working_data_id binary(16) <<PK>>
    - -
    user_id binary(16) <<FK>>
    year_month date "稼働時間の年月"
    monthly_visit_count int "月の訪問回数"
    work_hours int "勤務時間"
  }
}

package エリア {
  entity areas
}

package 施設情報 {
  entity facilities
  entity teams
  entity positions
  entity departments
}

cognito_users ||- -|| users
users ||- -|| positions
users ||- -|| departments
users ||- -o{ monthly_workings
users ||- -|| facilities
users ||- -|| teams
users ||- -|| areas

@enduml

PlantUML version 1.2020.02(Sun Mar 01 10:22:07 UTC 2020)
(GPL source distribution)
Java Runtime: OpenJDK Runtime Environment
JVM: OpenJDK 64-Bit Server VM
Java Version: 11.0.16+8
Operating System: Linux
Default Encoding: UTF-8
Language: en
Country: null
--></g></svg>