<svg xmlns="http://www.w3.org/2000/svg" xmlns:xlink="http://www.w3.org/1999/xlink" contentStyleType="text/css" height="603px" preserveAspectRatio="none" style="width:1457px;height:603px;background:#FFFFFF;" version="1.1" viewBox="0 0 1457 603" width="1457px" zoomAndPan="magnify"><defs/><g><!--cluster ????--><g id="cluster_&#32887;&#21729;&#24773;&#22577;"><path d="M160.5,178 L217.4998,178 A3.75,3.75 0 0 1 219.9998,180.5 L226.9998,200.2969 L774.5,200.2969 A2.5,2.5 0 0 1 777,202.7969 L777,593.5 A2.5,2.5 0 0 1 774.5,596 L160.5,596 A2.5,2.5 0 0 1 158,593.5 L158,180.5 A2.5,2.5 0 0 1 160.5,178 " fill="none" style="stroke:#000000;stroke-width:1.5;"/><line style="stroke:#000000;stroke-width:1.5;" x1="158" x2="226.9998" y1="200.2969" y2="200.2969"/><text fill="#000000" font-family="sans-serif" font-size="14" font-weight="bold" lengthAdjust="spacing" textLength="55.9998" x="162" y="192.9951">&#32887;&#21729;&#24773;&#22577;</text></g><!--cluster ???--><g id="cluster_&#12456;&#12522;&#12450;"><path d="M803.5,456.5 L846.4998,456.5 A3.75,3.75 0 0 1 848.9998,459 L855.9998,478.7969 L902.5,478.7969 A2.5,2.5 0 0 1 905,481.2969 L905,553 A2.5,2.5 0 0 1 902.5,555.5 L803.5,555.5 A2.5,2.5 0 0 1 801,553 L801,459 A2.5,2.5 0 0 1 803.5,456.5 " fill="none" style="stroke:#000000;stroke-width:1.5;"/><line style="stroke:#000000;stroke-width:1.5;" x1="801" x2="855.9998" y1="478.7969" y2="478.7969"/><text fill="#000000" font-family="sans-serif" font-size="14" font-weight="bold" lengthAdjust="spacing" textLength="41.9998" x="805" y="471.4951">&#12456;&#12522;&#12450;</text></g><!--cluster ????--><g id="cluster_&#26045;&#35373;&#24773;&#22577;"><path d="M931.5,456.5 L988.4998,456.5 A3.75,3.75 0 0 1 990.9998,459 L997.9998,478.7969 L1447.5,478.7969 A2.5,2.5 0 0 1 1450,481.2969 L1450,553 A2.5,2.5 0 0 1 1447.5,555.5 L931.5,555.5 A2.5,2.5 0 0 1 929,553 L929,459 A2.5,2.5 0 0 1 931.5,456.5 " fill="none" style="stroke:#000000;stroke-width:1.5;"/><line style="stroke:#000000;stroke-width:1.5;" x1="929" x2="997.9998" y1="478.7969" y2="478.7969"/><text fill="#000000" font-family="sans-serif" font-size="14" font-weight="bold" lengthAdjust="spacing" textLength="55.9998" x="933" y="471.4951">&#26045;&#35373;&#24773;&#22577;</text></g><!--class users--><g id="elem_users"><rect codeLine="19" fill="#F1F1F1" height="178.375" id="users" rx="2.5" ry="2.5" style="stroke:#181818;stroke-width:0.5;" width="330.9441" x="429.5" y="213"/><ellipse cx="571.807" cy="229" fill="#ADD1B2" rx="11" ry="11" style="stroke:#181818;stroke-width:1;"/><path d="M575.9164,235 L568.1976,235 L568.1976,222.6094 L575.9164,222.6094 L575.9164,224.7656 L570.6508,224.7656 L570.6508,227.4375 L575.4164,227.4375 L575.4164,229.5938 L570.6508,229.5938 L570.6508,232.8438 L575.9164,232.8438 L575.9164,235 Z " fill="#000000"/><text fill="#000000" font-family="sans-serif" font-size="14" lengthAdjust="spacing" textLength="37.8301" x="592.307" y="233.8467">users</text><line style="stroke:#181818;stroke-width:0.5;" x1="430.5" x2="759.4441" y1="245" y2="245"/><ellipse cx="440.5" cy="258.6484" fill="#000000" rx="3" ry="3" style="stroke:#000000;stroke-width:1;"/><text fill="#000000" font-family="sans-serif" font-size="14" lengthAdjust="spacing" textLength="100.7002" x="449.5" y="261.9951">binary id &#171;PK&#187;</text><line style="stroke:#181818;stroke-width:1;" x1="430.5" x2="759.4441" y1="269.2969" y2="269.2969"/><text fill="#000000" font-family="sans-serif" font-size="14" lengthAdjust="spacing" textLength="318.9441" x="435.5" y="286.292">binary auth_user_id &#171;FK&#187; "Cognito&#12518;&#12540;&#12470;&#12540;ID"</text><text fill="#000000" font-family="sans-serif" font-size="14" lengthAdjust="spacing" textLength="202.2067" x="435.5" y="302.5889">string username "&#12518;&#12540;&#12470;&#12540;&#21517;"</text><text fill="#000000" font-family="sans-serif" font-size="14" lengthAdjust="spacing" textLength="223.4187" x="435.5" y="318.8857">string phone_number "&#38651;&#35441;&#30058;&#21495;"</text><text fill="#000000" font-family="sans-serif" font-size="14" lengthAdjust="spacing" textLength="232.2711" x="435.5" y="335.1826">ENUM('&#30007;&#24615;', '&#22899;&#24615;') gender "&#24615;&#21029;"</text><text fill="#000000" font-family="sans-serif" font-size="14" lengthAdjust="spacing" textLength="241.0759" x="435.5" y="351.4795">binary area_id &#171;FK&#187; "&#25285;&#24403;&#12456;&#12522;&#12450;ID"</text><text fill="#000000" font-family="sans-serif" font-size="14" lengthAdjust="spacing" textLength="223.0018" x="435.5" y="367.7764">binary position_id &#171;FK&#187; "&#24441;&#32887;ID"</text><text fill="#000000" font-family="sans-serif" font-size="14" lengthAdjust="spacing" textLength="217.868" x="435.5" y="384.0732">binary team_id &#171;FK&#187; "&#12481;&#12540;&#12512;ID"</text></g><g id="elem_GMN8"><path d="M174,488 L174,543.3984 A0,0 0 0 0 174,543.3984 L450.2713,543.3984 A0,0 0 0 0 450.2713,543.3984 L450.2713,498 L440.2713,488 L443.75,488 L439.75,391.31 L435.75,488 L174,488 A0,0 0 0 0 174,488 " fill="#FEFFDD" style="stroke:#181818;stroke-width:0.5;"/><path d="M440.2713,488 L440.2713,498 L450.2713,498 L440.2713,488 " fill="#FEFFDD" style="stroke:#181818;stroke-width:0.5;"/><text fill="#000000" font-family="sans-serif" font-size="13" lengthAdjust="spacing" textLength="255.2713" x="180" y="505.0669">&#24615;&#21029;&#12399;&#12289;&#30007;&#24615;&#12539;&#22899;&#24615;&#12539;&#12398;2&#12388;&#12398;&#36984;&#25246;&#32930;&#12364;&#12354;&#12427;</text><text fill="#000000" font-family="sans-serif" font-size="13" lengthAdjust="spacing" textLength="42.5357" x="180" y="520.1997">1. &#30007;&#24615;</text><text fill="#000000" font-family="sans-serif" font-size="13" lengthAdjust="spacing" textLength="42.5357" x="180" y="535.3325">2. &#22899;&#24615;</text></g><!--class monthly_workings--><g id="elem_monthly_workings"><rect codeLine="37" fill="#F1F1F1" height="129.4844" id="monthly_workings" rx="2.5" ry="2.5" style="stroke:#181818;stroke-width:0.5;" width="275.9899" x="485" y="451"/><ellipse cx="555.0272" cy="467" fill="#ADD1B2" rx="11" ry="11" style="stroke:#181818;stroke-width:1;"/><path d="M559.1365,473 L551.4178,473 L551.4178,460.6094 L559.1365,460.6094 L559.1365,462.7656 L553.8709,462.7656 L553.8709,465.4375 L558.6365,465.4375 L558.6365,467.5938 L553.8709,467.5938 L553.8709,470.8438 L559.1365,470.8438 L559.1365,473 Z " fill="#000000"/><text fill="#000000" font-family="sans-serif" font-size="14" lengthAdjust="spacing" textLength="127.4355" x="575.5272" y="471.8467">monthly_workings</text><line style="stroke:#181818;stroke-width:0.5;" x1="486" x2="759.9899" y1="483" y2="483"/><ellipse cx="496" cy="496.6484" fill="#000000" rx="3" ry="3" style="stroke:#000000;stroke-width:1;"/><text fill="#000000" font-family="sans-serif" font-size="14" lengthAdjust="spacing" textLength="201.7627" x="505" y="499.9951">binary working_data_id &#171;PK&#187;</text><line style="stroke:#181818;stroke-width:1;" x1="486" x2="759.9899" y1="507.2969" y2="507.2969"/><text fill="#000000" font-family="sans-serif" font-size="14" lengthAdjust="spacing" textLength="137.8467" x="491" y="524.292">binary user_id &#171;FK&#187;</text><text fill="#000000" font-family="sans-serif" font-size="14" lengthAdjust="spacing" textLength="182.7858" x="491" y="540.5889">date month "&#31292;&#20685;&#26178;&#38291;&#12398;&#26376;"</text><text fill="#000000" font-family="sans-serif" font-size="14" lengthAdjust="spacing" textLength="263.9899" x="491" y="556.8857">int monthly_visit_count "&#26376;&#12398;&#35370;&#21839;&#22238;&#25968;"</text><text fill="#000000" font-family="sans-serif" font-size="14" lengthAdjust="spacing" textLength="176.2712" x="491" y="573.1826">int work_hours "&#21220;&#21209;&#26178;&#38291;"</text></g><!--class areas--><g id="elem_areas"><rect codeLine="48" fill="#F1F1F1" height="48" id="areas" rx="2.5" ry="2.5" style="stroke:#181818;stroke-width:0.5;" width="70.8213" x="817.5" y="491.5"/><ellipse cx="832.5" cy="507.5" fill="#ADD1B2" rx="11" ry="11" style="stroke:#181818;stroke-width:1;"/><path d="M836.6094,513.5 L828.8906,513.5 L828.8906,501.1094 L836.6094,501.1094 L836.6094,503.2656 L831.3438,503.2656 L831.3438,505.9375 L836.1094,505.9375 L836.1094,508.0938 L831.3438,508.0938 L831.3438,511.3438 L836.6094,511.3438 L836.6094,513.5 Z " fill="#000000"/><text fill="#000000" font-family="sans-serif" font-size="14" lengthAdjust="spacing" textLength="38.8213" x="846.5" y="512.3467">areas</text><line style="stroke:#181818;stroke-width:0.5;" x1="818.5" x2="887.3213" y1="523.5" y2="523.5"/><line style="stroke:#181818;stroke-width:0.5;" x1="818.5" x2="887.3213" y1="531.5" y2="531.5"/></g><!--class facilities--><g id="elem_facilities"><rect codeLine="52" fill="#F1F1F1" height="48" id="facilities" rx="2.5" ry="2.5" style="stroke:#181818;stroke-width:0.5;" width="90.1602" x="1344" y="491.5"/><ellipse cx="1359" cy="507.5" fill="#ADD1B2" rx="11" ry="11" style="stroke:#181818;stroke-width:1;"/><path d="M1363.1094,513.5 L1355.3906,513.5 L1355.3906,501.1094 L1363.1094,501.1094 L1363.1094,503.2656 L1357.8438,503.2656 L1357.8438,505.9375 L1362.6094,505.9375 L1362.6094,508.0938 L1357.8438,508.0938 L1357.8438,511.3438 L1363.1094,511.3438 L1363.1094,513.5 Z " fill="#000000"/><text fill="#000000" font-family="sans-serif" font-size="14" lengthAdjust="spacing" textLength="58.1602" x="1373" y="512.3467">facilities</text><line style="stroke:#181818;stroke-width:0.5;" x1="1345" x2="1433.1602" y1="523.5" y2="523.5"/><line style="stroke:#181818;stroke-width:0.5;" x1="1345" x2="1433.1602" y1="531.5" y2="531.5"/></g><!--class teams--><g id="elem_teams"><rect codeLine="53" fill="#F1F1F1" height="48" id="teams" rx="2.5" ry="2.5" style="stroke:#181818;stroke-width:0.5;" width="75.6133" x="1233" y="491.5"/><ellipse cx="1248" cy="507.5" fill="#ADD1B2" rx="11" ry="11" style="stroke:#181818;stroke-width:1;"/><path d="M1252.1094,513.5 L1244.3906,513.5 L1244.3906,501.1094 L1252.1094,501.1094 L1252.1094,503.2656 L1246.8438,503.2656 L1246.8438,505.9375 L1251.6094,505.9375 L1251.6094,508.0938 L1246.8438,508.0938 L1246.8438,511.3438 L1252.1094,511.3438 L1252.1094,513.5 Z " fill="#000000"/><text fill="#000000" font-family="sans-serif" font-size="14" lengthAdjust="spacing" textLength="43.6133" x="1262" y="512.3467">teams</text><line style="stroke:#181818;stroke-width:0.5;" x1="1234" x2="1307.6133" y1="523.5" y2="523.5"/><line style="stroke:#181818;stroke-width:0.5;" x1="1234" x2="1307.6133" y1="531.5" y2="531.5"/></g><!--class positions--><g id="elem_positions"><rect codeLine="54" fill="#F1F1F1" height="48" id="positions" rx="2.5" ry="2.5" style="stroke:#181818;stroke-width:0.5;" width="94.7471" x="1102.5" y="491.5"/><ellipse cx="1117.5" cy="507.5" fill="#ADD1B2" rx="11" ry="11" style="stroke:#181818;stroke-width:1;"/><path d="M1121.6094,513.5 L1113.8906,513.5 L1113.8906,501.1094 L1121.6094,501.1094 L1121.6094,503.2656 L1116.3438,503.2656 L1116.3438,505.9375 L1121.1094,505.9375 L1121.1094,508.0938 L1116.3438,508.0938 L1116.3438,511.3438 L1121.6094,511.3438 L1121.6094,513.5 Z " fill="#000000"/><text fill="#000000" font-family="sans-serif" font-size="14" lengthAdjust="spacing" textLength="62.7471" x="1131.5" y="512.3467">positions</text><line style="stroke:#181818;stroke-width:0.5;" x1="1103.5" x2="1196.2471" y1="523.5" y2="523.5"/><line style="stroke:#181818;stroke-width:0.5;" x1="1103.5" x2="1196.2471" y1="531.5" y2="531.5"/></g><!--class departments--><g id="elem_departments"><rect codeLine="55" fill="#F1F1F1" height="48" id="departments" rx="2.5" ry="2.5" style="stroke:#181818;stroke-width:0.5;" width="122.1182" x="945" y="491.5"/><ellipse cx="960" cy="507.5" fill="#ADD1B2" rx="11" ry="11" style="stroke:#181818;stroke-width:1;"/><path d="M964.1094,513.5 L956.3906,513.5 L956.3906,501.1094 L964.1094,501.1094 L964.1094,503.2656 L958.8438,503.2656 L958.8438,505.9375 L963.6094,505.9375 L963.6094,508.0938 L958.8438,508.0938 L958.8438,511.3438 L964.1094,511.3438 L964.1094,513.5 Z " fill="#000000"/><text fill="#000000" font-family="sans-serif" font-size="14" lengthAdjust="spacing" textLength="90.1182" x="974" y="512.3467">departments</text><line style="stroke:#181818;stroke-width:0.5;" x1="946" x2="1066.1182" y1="523.5" y2="523.5"/><line style="stroke:#181818;stroke-width:0.5;" x1="946" x2="1066.1182" y1="531.5" y2="531.5"/></g><!--class auth_users--><g id="elem_auth_users"><rect codeLine="3" fill="#F1F1F1" height="145.7813" id="auth_users" rx="2.5" ry="2.5" style="stroke:#181818;stroke-width:0.5;" width="253.0759" x="207.5" y="7"/><ellipse cx="291.4657" cy="23" fill="#ADD1B2" rx="11" ry="11" style="stroke:#181818;stroke-width:1;"/><path d="M295.575,29 L287.8563,29 L287.8563,16.6094 L295.575,16.6094 L295.575,18.7656 L290.3094,18.7656 L290.3094,21.4375 L295.075,21.4375 L295.075,23.5938 L290.3094,23.5938 L290.3094,26.8438 L295.575,26.8438 L295.575,29 Z " fill="#000000"/><text fill="#000000" font-family="sans-serif" font-size="14" lengthAdjust="spacing" textLength="76.6445" x="311.9657" y="27.8467">auth_users</text><line style="stroke:#181818;stroke-width:0.5;" x1="208.5" x2="459.5759" y1="39" y2="39"/><ellipse cx="218.5" cy="52.6484" fill="#000000" rx="3" ry="3" style="stroke:#000000;stroke-width:1;"/><text fill="#000000" font-family="sans-serif" font-size="14" lengthAdjust="spacing" textLength="202.2067" x="227.5" y="55.9951">string username "&#12518;&#12540;&#12470;&#12540;&#21517;"</text><line style="stroke:#181818;stroke-width:1;" x1="208.5" x2="459.5759" y1="63.2969" y2="63.2969"/><text fill="#000000" font-family="sans-serif" font-size="14" lengthAdjust="spacing" textLength="223.4187" x="213.5" y="80.292">string phone_number "&#38651;&#35441;&#30058;&#21495;"</text><text fill="#000000" font-family="sans-serif" font-size="14" lengthAdjust="spacing" textLength="232.2711" x="213.5" y="96.5889">ENUM('&#30007;&#24615;', '&#22899;&#24615;') gender "&#24615;&#21029;"</text><text fill="#000000" font-family="sans-serif" font-size="14" lengthAdjust="spacing" textLength="241.0759" x="213.5" y="112.8857">binary area_id &#171;FK&#187; "&#25285;&#24403;&#12456;&#12522;&#12450;ID"</text><text fill="#000000" font-family="sans-serif" font-size="14" lengthAdjust="spacing" textLength="223.0018" x="213.5" y="129.1826">binary position_id &#171;FK&#187; "&#24441;&#32887;ID"</text><text fill="#000000" font-family="sans-serif" font-size="14" lengthAdjust="spacing" textLength="217.868" x="213.5" y="145.4795">binary team_id &#171;FK&#187; "&#12481;&#12540;&#12512;ID"</text></g><g id="elem_GMN3"><path d="M6,282 L6,322.2656 L142.1846,322.2656 L142.1846,292 L132.1846,282 L6,282 " fill="#FEFFDD" style="stroke:#181818;stroke-width:0.5;"/><path d="M132.1846,282 L132.1846,292 L142.1846,292 L132.1846,282 " fill="#FEFFDD" style="stroke:#181818;stroke-width:1;"/><text fill="#000000" font-family="sans-serif" font-size="13" lengthAdjust="spacing" textLength="115.1846" x="12" y="299.0669">Cognito&#12398;&#12518;&#12540;&#12470;&#12540;</text><text fill="#000000" font-family="sans-serif" font-size="13" lengthAdjust="spacing" textLength="109.9288" x="12" y="314.1997">DB&#12395;&#12418;&#20445;&#23384;&#12375;&#12394;&#12356;</text></g><!--link auth_users to GMN3--><g id="link_auth_users_GMN3"><path d="M318.5,153.31 C318.5,217.97 318.5,302 318.5,302 C318.5,302 214.45,302 142.11,302 " fill="none" id="auth_users-GMN3" style="stroke:#181818;stroke-width:1;stroke-dasharray:7.0,7.0;"/></g><!--link auth_users to users--><g id="link_auth_users_users"><path codeLine="58" d="M445,161.31 C445,180.38 445,185.13 445,204.92 " fill="none" id="auth_users-users" style="stroke:#181818;stroke-width:1;"/><line style="stroke:#181818;stroke-width:1;" x1="441" x2="449" y1="157.31" y2="157.31"/><line style="stroke:#181818;stroke-width:1;" x1="441" x2="449" y1="160.31" y2="160.31"/><line style="stroke:#181818;stroke-width:1;" x1="445" x2="445" y1="161.31" y2="153.31"/><line style="stroke:#181818;stroke-width:1;" x1="449" x2="441" y1="208.92" y2="208.92"/><line style="stroke:#181818;stroke-width:1;" x1="449" x2="441" y1="205.92" y2="205.92"/><line style="stroke:#181818;stroke-width:1;" x1="445" x2="445" y1="204.92" y2="212.92"/></g><!--link users to positions--><g id="link_users_positions"><path codeLine="59" d="M768.77,302 C932.31,302 1150,302 1150,302 C1150,302 1150,427.59 1150,483.42 " fill="none" id="users-positions" style="stroke:#181818;stroke-width:1;"/><line style="stroke:#181818;stroke-width:1;" x1="764.77" x2="764.77" y1="306" y2="298"/><line style="stroke:#181818;stroke-width:1;" x1="767.77" x2="767.77" y1="306" y2="298"/><line style="stroke:#181818;stroke-width:1;" x1="768.77" x2="760.77" y1="302" y2="302"/><line style="stroke:#181818;stroke-width:1;" x1="1154" x2="1146" y1="487.42" y2="487.42"/><line style="stroke:#181818;stroke-width:1;" x1="1154" x2="1146" y1="484.42" y2="484.42"/><line style="stroke:#181818;stroke-width:1;" x1="1150" x2="1150" y1="483.42" y2="491.42"/></g><!--link users to departments--><g id="link_users_departments"><path codeLine="60" d="M768.69,332 C882.83,332 1006,332 1006,332 C1006,332 1006,433.22 1006,483.13 " fill="none" id="users-departments" style="stroke:#181818;stroke-width:1;"/><line style="stroke:#181818;stroke-width:1;" x1="764.69" x2="764.69" y1="336" y2="328"/><line style="stroke:#181818;stroke-width:1;" x1="767.69" x2="767.69" y1="336" y2="328"/><line style="stroke:#181818;stroke-width:1;" x1="768.69" x2="760.69" y1="332" y2="332"/><line style="stroke:#181818;stroke-width:1;" x1="1010" x2="1002" y1="487.13" y2="487.13"/><line style="stroke:#181818;stroke-width:1;" x1="1010" x2="1002" y1="484.13" y2="484.13"/><line style="stroke:#181818;stroke-width:1;" x1="1006" x2="1006" y1="483.13" y2="491.13"/></g><!--link users to monthly_workings--><g id="link_users_monthly_workings"><path codeLine="61" d="M622.75,399.31 C622.75,419.3 622.75,414.14 622.75,432.9 " fill="none" id="users-monthly_workings" style="stroke:#181818;stroke-width:1;"/><line style="stroke:#181818;stroke-width:1;" x1="618.75" x2="626.75" y1="395.31" y2="395.31"/><line style="stroke:#181818;stroke-width:1;" x1="618.75" x2="626.75" y1="398.31" y2="398.31"/><line style="stroke:#181818;stroke-width:1;" x1="622.75" x2="622.75" y1="399.31" y2="391.31"/><line style="stroke:#181818;stroke-width:1;" x1="622.75" x2="628.75" y1="442.9" y2="450.9"/><line style="stroke:#181818;stroke-width:1;" x1="622.75" x2="616.75" y1="442.9" y2="450.9"/><line style="stroke:#181818;stroke-width:1;" x1="622.75" x2="622.75" y1="442.9" y2="450.9"/><ellipse cx="622.75" cy="436.9" fill="none" rx="4" ry="4" style="stroke:#181818;stroke-width:1;"/></g><!--link users to facilities--><g id="link_users_facilities"><path codeLine="62" d="M768.96,243 C1001.73,243 1389,243 1389,243 C1389,243 1389,416.63 1389,483.32 " fill="none" id="users-facilities" style="stroke:#181818;stroke-width:1;"/><line style="stroke:#181818;stroke-width:1;" x1="764.96" x2="764.96" y1="247" y2="239"/><line style="stroke:#181818;stroke-width:1;" x1="767.96" x2="767.96" y1="247" y2="239"/><line style="stroke:#181818;stroke-width:1;" x1="768.96" x2="760.96" y1="243" y2="243"/><line style="stroke:#181818;stroke-width:1;" x1="1393" x2="1385" y1="487.32" y2="487.32"/><line style="stroke:#181818;stroke-width:1;" x1="1393" x2="1385" y1="484.32" y2="484.32"/><line style="stroke:#181818;stroke-width:1;" x1="1389" x2="1389" y1="483.32" y2="491.32"/></g><!--link users to teams--><g id="link_users_teams"><path codeLine="63" d="M768.8,273 C968.94,273 1271,273 1271,273 C1271,273 1271,422.02 1271,483.36 " fill="none" id="users-teams" style="stroke:#181818;stroke-width:1;"/><line style="stroke:#181818;stroke-width:1;" x1="764.8" x2="764.8" y1="277" y2="269"/><line style="stroke:#181818;stroke-width:1;" x1="767.8" x2="767.8" y1="277" y2="269"/><line style="stroke:#181818;stroke-width:1;" x1="768.8" x2="760.8" y1="273" y2="273"/><line style="stroke:#181818;stroke-width:1;" x1="1275" x2="1267" y1="487.36" y2="487.36"/><line style="stroke:#181818;stroke-width:1;" x1="1275" x2="1267" y1="484.36" y2="484.36"/><line style="stroke:#181818;stroke-width:1;" x1="1271" x2="1271" y1="483.36" y2="491.36"/></g><!--link users to areas--><g id="link_users_areas"><path codeLine="64" d="M768.58,362 C818.83,362 853,362 853,362 C853,362 853,439.89 853,483.18 " fill="none" id="users-areas" style="stroke:#181818;stroke-width:1;"/><line style="stroke:#181818;stroke-width:1;" x1="764.58" x2="764.58" y1="366" y2="358"/><line style="stroke:#181818;stroke-width:1;" x1="767.58" x2="767.58" y1="366" y2="358"/><line style="stroke:#181818;stroke-width:1;" x1="768.58" x2="760.58" y1="362" y2="362"/><line style="stroke:#181818;stroke-width:1;" x1="857" x2="849" y1="487.18" y2="487.18"/><line style="stroke:#181818;stroke-width:1;" x1="857" x2="849" y1="484.18" y2="484.18"/><line style="stroke:#181818;stroke-width:1;" x1="853" x2="853" y1="483.18" y2="491.18"/></g><!--SRC=[bPHXQzD06CVVvrCyzCrKxC2z7dkXKn1HVEFhaAwtDcovAybLAUjWbpWOrh51xNHCnnoRrihK8JXbAtwOyzBsM_WaQPkBG-ZU9Bdd_i_bV__V9TwIJIkMQpcmR5F2QnK2pELbPXY4SflNmAhoibdrYEl1YW5m0ppkshG4KObQ3e6S33x8u4BwF_2gjZTpgChdyJ8KLigC4fDMdG9n8JVOE-z_EksrEchhB5BUVVJauRMftgkpSEtZr4sOKiVVewVhK2Aq63NWI6qSHzA2JIqN3Rd4CkqYpCxUUp0tXuB6kkesfT-MGKVwX_VdDMs5UJQt6TNrglkhByuoCauiHvV8G4Gx2WuYrQfXKCO951Zdp06sg4M2IznX9Mfp9iKNFGUScByjnMVf-tz-lrCdRwHuBKL7YkUOQn6Y1GsZOYqiMIK2Q4SrtuV1kZeuZKCUHf-c7kK-z1hRV8msut8ST1hDo9Y-cP51pLsoUPW8vOGShqJoQYmdfZaPJm0a2l0Fqn5EWCIc55_bcaXs8uFpP3FuW9ndf3Z2sq3y35_iz_r3ALvAuKk_4RVVceQaAnxDJ4FI6bCTWHyJTXZbvUMQ-Oov-1sMBi4UrisYnOSv_OTy5deyWpqaUG7aUkqB5Mo6k_vWfudMmxSRILusvMCFJsrCrrnWLQpbK86wVhkZMbjgRpziVKiR8bDccLNnREPKuqWrTfE5asXNqtCzvgWVwWYvfwl2dMw_VNBvz2zQ2_OoyYPUMel0QiFHWT1AHO9_C-xWA7w9zlUgr_FvUdq8EbDAbycKzQNI2RPoYLgsJVETgIVUCwKaYxy0]--></g></svg>