<svg xmlns="http://www.w3.org/2000/svg" xmlns:xlink="http://www.w3.org/1999/xlink" contentStyleType="text/css" height="640px" preserveAspectRatio="none" style="width:1436px;height:640px;background:#FFFFFF;" version="1.1" viewBox="0 0 1436 640" width="1436px" zoomAndPan="magnify"><defs/><g><!--cluster ????--><g id="cluster_&#32887;&#21729;&#24773;&#22577;"><path d="M160.38,162.44 L217.38,162.44 A3.75,3.75 0 0 1 219.88,164.94 L226.88,184.9283 L768.38,184.9283 A2.5,2.5 0 0 1 770.88,187.4283 L770.88,630.75 A2.5,2.5 0 0 1 768.38,633.25 L160.38,633.25 A2.5,2.5 0 0 1 157.88,630.75 L157.88,164.94 A2.5,2.5 0 0 1 160.38,162.44 " fill="none" style="stroke:#000000;stroke-width:1.5;"/><line style="stroke:#000000;stroke-width:1.5;" x1="157.88" x2="226.88" y1="184.9283" y2="184.9283"/><text fill="#000000" font-family="sans-serif" font-size="14" font-weight="bold" lengthAdjust="spacing" textLength="56" x="161.88" y="177.9752">&#32887;&#21729;&#24773;&#22577;</text></g><!--cluster ???--><g id="cluster_&#12456;&#12522;&#12450;"><path d="M797.38,493.03 L840.38,493.03 A3.75,3.75 0 0 1 842.88,495.53 L849.88,515.5183 L892.38,515.5183 A2.5,2.5 0 0 1 894.88,518.0183 L894.88,589.53 A2.5,2.5 0 0 1 892.38,592.03 L797.38,592.03 A2.5,2.5 0 0 1 794.88,589.53 L794.88,495.53 A2.5,2.5 0 0 1 797.38,493.03 " fill="none" style="stroke:#000000;stroke-width:1.5;"/><line style="stroke:#000000;stroke-width:1.5;" x1="794.88" x2="849.88" y1="515.5183" y2="515.5183"/><text fill="#000000" font-family="sans-serif" font-size="14" font-weight="bold" lengthAdjust="spacing" textLength="42" x="798.88" y="508.5652">&#12456;&#12522;&#12450;</text></g><!--cluster ????--><g id="cluster_&#26045;&#35373;&#24773;&#22577;"><path d="M921.38,493.03 L978.38,493.03 A3.75,3.75 0 0 1 980.88,495.53 L987.88,515.5183 L1427.38,515.5183 A2.5,2.5 0 0 1 1429.88,518.0183 L1429.88,589.53 A2.5,2.5 0 0 1 1427.38,592.03 L921.38,592.03 A2.5,2.5 0 0 1 918.88,589.53 L918.88,495.53 A2.5,2.5 0 0 1 921.38,493.03 " fill="none" style="stroke:#000000;stroke-width:1.5;"/><line style="stroke:#000000;stroke-width:1.5;" x1="918.88" x2="987.88" y1="515.5183" y2="515.5183"/><text fill="#000000" font-family="sans-serif" font-size="14" font-weight="bold" lengthAdjust="spacing" textLength="56" x="922.88" y="508.5652">&#26045;&#35373;&#24773;&#22577;</text></g><!--class users--><g id="elem_users"><rect codeLine="18" fill="#F1F1F1" height="229.3711" id="users" rx="2.5" ry="2.5" style="stroke:#181818;stroke-width:0.5;" width="320.0479" x="434.86" y="197.44"/><ellipse cx="572.3888" cy="213.44" fill="#ADD1B2" rx="11" ry="11" style="stroke:#181818;stroke-width:1.0;"/><path d="M576.0031,219.94 L568.2833,219.94 L568.2833,207.5469 L576.0031,207.5469 L576.0031,209.7051 L570.7321,209.7051 L570.7321,212.378 L575.505,212.378 L575.505,214.5362 L570.7321,214.5362 L570.7321,217.7818 L576.0031,217.7818 Z " fill="#000000"/><text fill="#000000" font-family="sans-serif" font-size="14" lengthAdjust="spacing" textLength="36.4902" x="592.8888" y="218.731">users</text><line style="stroke:#181818;stroke-width:0.5;" x1="435.86" x2="753.9079" y1="229.44" y2="229.44"/><ellipse cx="445.86" cy="243.1841" fill="#000000" rx="3" ry="3" style="stroke:#000000;stroke-width:1.0;"/><text fill="#000000" font-family="sans-serif" font-size="14" lengthAdjust="spacing" textLength="93.9053" x="454.86" y="246.9752">binaly id &#171;PK&#187;</text><line style="stroke:#181818;stroke-width:1.0;" x1="435.86" x2="753.9079" y1="253.9283" y2="253.9283"/><text fill="#000000" font-family="sans-serif" font-size="14" lengthAdjust="spacing" textLength="308.0479" x="440.86" y="271.4634">binary auth_user_id &#171;FK&#187; "Cognito&#12518;&#12540;&#12470;&#12540;ID"</text><text fill="#000000" font-family="sans-serif" font-size="14" lengthAdjust="spacing" textLength="195.5283" x="440.86" y="287.9517">string username "&#12518;&#12540;&#12470;&#12540;&#21517;"</text><text fill="#000000" font-family="sans-serif" font-size="14" lengthAdjust="spacing" textLength="217.2598" x="440.86" y="304.44">string phone_number "&#38651;&#35441;&#30058;&#21495;"</text><text fill="#000000" font-family="sans-serif" font-size="14" lengthAdjust="spacing" textLength="221.3545" x="440.86" y="320.9283">ENUM('&#30007;&#24615;', '&#22899;&#24615;') gender "&#24615;&#21029;"</text><text fill="#000000" font-family="sans-serif" font-size="14" lengthAdjust="spacing" textLength="230.7539" x="440.86" y="337.4166">binary area_id &#171;FK&#187; "&#25285;&#24403;&#12456;&#12522;&#12450;ID"</text><text fill="#000000" font-family="sans-serif" font-size="14" lengthAdjust="spacing" textLength="214.9287" x="440.86" y="353.9048">binary position_id &#171;FK&#187; "&#24441;&#32887;ID"</text><text fill="#000000" font-family="sans-serif" font-size="14" lengthAdjust="spacing" textLength="207.6006" x="440.86" y="370.3931">binary team_id &#171;FK&#187; "&#12481;&#12540;&#12512;ID"</text><text fill="#000000" font-family="sans-serif" font-size="14" lengthAdjust="spacing" textLength="266.6221" x="440.86" y="386.8814">binary working_hours_id "&#26376;&#31292;&#20685;&#26178;&#38291;ID"</text><text fill="#000000" font-family="sans-serif" font-size="14" lengthAdjust="spacing" textLength="104.2549" x="440.86" y="403.3697">date created_at</text><text fill="#000000" font-family="sans-serif" font-size="14" lengthAdjust="spacing" textLength="109.8672" x="440.86" y="419.858">date updated_at</text></g><g id="elem_GMN8"><path d="M173.77,524.06 L173.77,579.9916 A0,0 0 0 0 173.77,579.9916 L449.9902,579.9916 A0,0 0 0 0 449.9902,579.9916 L449.9902,534.06 L439.9902,524.06 L446.42,524.06 L442.42,427.16 L438.42,524.06 L173.77,524.06 A0,0 0 0 0 173.77,524.06 " fill="#FEFFDD" style="stroke:#181818;stroke-width:0.5;"/><path d="M439.9902,524.06 L439.9902,534.06 L449.9902,534.06 L439.9902,524.06 " fill="#FEFFDD" style="stroke:#181818;stroke-width:0.5;"/><text fill="#000000" font-family="sans-serif" font-size="13" lengthAdjust="spacing" textLength="255.2202" x="179.77" y="541.6284">&#24615;&#21029;&#12399;&#12289;&#30007;&#24615;&#12539;&#22899;&#24615;&#12539;&#12398;2&#12388;&#12398;&#36984;&#25246;&#32930;&#12364;&#12354;&#12427;</text><text fill="#000000" font-family="sans-serif" font-size="13" lengthAdjust="spacing" textLength="42.4468" x="179.77" y="556.9389">1. &#30007;&#24615;</text><text fill="#000000" font-family="sans-serif" font-size="13" lengthAdjust="spacing" textLength="42.4468" x="179.77" y="572.2495">2. &#22899;&#24615;</text></g><!--class monthly_workings--><g id="elem_monthly_workings"><rect codeLine="39" fill="#F1F1F1" height="130.4414" id="monthly_workings" rx="2.5" ry="2.5" style="stroke:#181818;stroke-width:0.5;" width="269.0313" x="485.36" y="486.81"/><ellipse cx="553.3537" cy="502.81" fill="#ADD1B2" rx="11" ry="11" style="stroke:#181818;stroke-width:1.0;"/><path d="M556.9679,509.31 L549.2482,509.31 L549.2482,496.9169 L556.9679,496.9169 L556.9679,499.0751 L551.6969,499.0751 L551.6969,501.748 L556.4699,501.748 L556.4699,503.9062 L551.6969,503.9062 L551.6969,507.1518 L556.9679,507.1518 Z " fill="#000000"/><text fill="#000000" font-family="sans-serif" font-size="14" lengthAdjust="spacing" textLength="124.5439" x="573.8537" y="508.101">monthly_workings</text><line style="stroke:#181818;stroke-width:0.5;" x1="486.36" x2="753.3913" y1="518.81" y2="518.81"/><ellipse cx="496.36" cy="532.5541" fill="#000000" rx="3" ry="3" style="stroke:#000000;stroke-width:1.0;"/><text fill="#000000" font-family="sans-serif" font-size="14" lengthAdjust="spacing" textLength="193.8604" x="505.36" y="536.3452">binary working_data_id &#171;PK&#187;</text><line style="stroke:#181818;stroke-width:1.0;" x1="486.36" x2="753.3913" y1="543.2983" y2="543.2983"/><text fill="#000000" font-family="sans-serif" font-size="14" lengthAdjust="spacing" textLength="131.708" x="491.36" y="560.8334">binary user_id &#171;FK&#187;</text><text fill="#000000" font-family="sans-serif" font-size="14" lengthAdjust="spacing" textLength="177.1807" x="491.36" y="577.3217">date month "&#31292;&#20685;&#26178;&#38291;&#12398;&#26376;"</text><text fill="#000000" font-family="sans-serif" font-size="14" lengthAdjust="spacing" textLength="257.0313" x="491.36" y="593.81">int monthly_visit_count "&#26376;&#12398;&#35370;&#21839;&#22238;&#25968;"</text><text fill="#000000" font-family="sans-serif" font-size="14" lengthAdjust="spacing" textLength="172.4297" x="491.36" y="610.2983">int work_hours "&#21220;&#21209;&#26178;&#38291;"</text></g><!--class areas--><g id="elem_areas"><rect codeLine="50" fill="#F1F1F1" height="48" id="areas" rx="2.5" ry="2.5" style="stroke:#181818;stroke-width:0.5;" width="68.1279" x="810.82" y="528.03"/><ellipse cx="825.82" cy="544.03" fill="#ADD1B2" rx="11" ry="11" style="stroke:#181818;stroke-width:1.0;"/><path d="M829.4343,550.53 L821.7145,550.53 L821.7145,538.1369 L829.4343,538.1369 L829.4343,540.2951 L824.1633,540.2951 L824.1633,542.968 L828.9362,542.968 L828.9362,545.1262 L824.1633,545.1262 L824.1633,548.3718 L829.4343,548.3718 Z " fill="#000000"/><text fill="#000000" font-family="sans-serif" font-size="14" lengthAdjust="spacing" textLength="36.1279" x="839.82" y="549.321">areas</text><line style="stroke:#181818;stroke-width:0.5;" x1="811.82" x2="877.9479" y1="560.03" y2="560.03"/><line style="stroke:#181818;stroke-width:0.5;" x1="811.82" x2="877.9479" y1="568.03" y2="568.03"/></g><!--class facilities--><g id="elem_facilities"><rect codeLine="54" fill="#F1F1F1" height="48" id="facilities" rx="2.5" ry="2.5" style="stroke:#181818;stroke-width:0.5;" width="88.4102" x="934.67" y="528.03"/><ellipse cx="949.67" cy="544.03" fill="#ADD1B2" rx="11" ry="11" style="stroke:#181818;stroke-width:1.0;"/><path d="M953.2843,550.53 L945.5645,550.53 L945.5645,538.1369 L953.2843,538.1369 L953.2843,540.2951 L948.0133,540.2951 L948.0133,542.968 L952.7862,542.968 L952.7862,545.1262 L948.0133,545.1262 L948.0133,548.3718 L953.2843,548.3718 Z " fill="#000000"/><text fill="#000000" font-family="sans-serif" font-size="14" lengthAdjust="spacing" textLength="56.4102" x="963.67" y="549.321">facilities</text><line style="stroke:#181818;stroke-width:0.5;" x1="935.67" x2="1022.0802" y1="560.03" y2="560.03"/><line style="stroke:#181818;stroke-width:0.5;" x1="935.67" x2="1022.0802" y1="568.03" y2="568.03"/></g><!--class teams--><g id="elem_teams"><rect codeLine="55" fill="#F1F1F1" height="48" id="teams" rx="2.5" ry="2.5" style="stroke:#181818;stroke-width:0.5;" width="72.9746" x="1058.39" y="528.03"/><ellipse cx="1073.39" cy="544.03" fill="#ADD1B2" rx="11" ry="11" style="stroke:#181818;stroke-width:1.0;"/><path d="M1077.0043,550.53 L1069.2845,550.53 L1069.2845,538.1369 L1077.0043,538.1369 L1077.0043,540.2951 L1071.7333,540.2951 L1071.7333,542.968 L1076.5062,542.968 L1076.5062,545.1262 L1071.7333,545.1262 L1071.7333,548.3718 L1077.0043,548.3718 Z " fill="#000000"/><text fill="#000000" font-family="sans-serif" font-size="14" lengthAdjust="spacing" textLength="40.9746" x="1087.39" y="549.321">teams</text><line style="stroke:#181818;stroke-width:0.5;" x1="1059.39" x2="1130.3646" y1="560.03" y2="560.03"/><line style="stroke:#181818;stroke-width:0.5;" x1="1059.39" x2="1130.3646" y1="568.03" y2="568.03"/></g><!--class positions--><g id="elem_positions"><rect codeLine="56" fill="#F1F1F1" height="48" id="positions" rx="2.5" ry="2.5" style="stroke:#181818;stroke-width:0.5;" width="94.3027" x="1166.73" y="528.03"/><ellipse cx="1181.73" cy="544.03" fill="#ADD1B2" rx="11" ry="11" style="stroke:#181818;stroke-width:1.0;"/><path d="M1185.3443,550.53 L1177.6245,550.53 L1177.6245,538.1369 L1185.3443,538.1369 L1185.3443,540.2951 L1180.0733,540.2951 L1180.0733,542.968 L1184.8462,542.968 L1184.8462,545.1262 L1180.0733,545.1262 L1180.0733,548.3718 L1185.3443,548.3718 Z " fill="#000000"/><text fill="#000000" font-family="sans-serif" font-size="14" lengthAdjust="spacing" textLength="62.3027" x="1195.73" y="549.321">positions</text><line style="stroke:#181818;stroke-width:0.5;" x1="1167.73" x2="1260.0327" y1="560.03" y2="560.03"/><line style="stroke:#181818;stroke-width:0.5;" x1="1167.73" x2="1260.0327" y1="568.03" y2="568.03"/></g><!--class departments--><g id="elem_departments"><rect codeLine="57" fill="#F1F1F1" height="48" id="departments" rx="2.5" ry="2.5" style="stroke:#181818;stroke-width:0.5;" width="118.0508" x="1295.85" y="528.03"/><ellipse cx="1310.85" cy="544.03" fill="#ADD1B2" rx="11" ry="11" style="stroke:#181818;stroke-width:1.0;"/><path d="M1314.4643,550.53 L1306.7445,550.53 L1306.7445,538.1369 L1314.4643,538.1369 L1314.4643,540.2951 L1309.1933,540.2951 L1309.1933,542.968 L1313.9662,542.968 L1313.9662,545.1262 L1309.1933,545.1262 L1309.1933,548.3718 L1314.4643,548.3718 Z " fill="#000000"/><text fill="#000000" font-family="sans-serif" font-size="14" lengthAdjust="spacing" textLength="86.0508" x="1324.85" y="549.321">departments</text><line style="stroke:#181818;stroke-width:0.5;" x1="1296.85" x2="1412.9008" y1="560.03" y2="560.03"/><line style="stroke:#181818;stroke-width:0.5;" x1="1296.85" x2="1412.9008" y1="568.03" y2="568.03"/></g><!--class auth_users--><g id="elem_auth_users"><rect codeLine="3" fill="#F1F1F1" height="130.4414" id="auth_users" rx="2.5" ry="2.5" style="stroke:#181818;stroke-width:0.5;" width="336.8301" x="165.46" y="7"/><ellipse cx="292.7076" cy="23" fill="#ADD1B2" rx="11" ry="11" style="stroke:#181818;stroke-width:1.0;"/><path d="M296.3218,29.5 L288.6021,29.5 L288.6021,17.1069 L296.3218,17.1069 L296.3218,19.2651 L291.0508,19.2651 L291.0508,21.938 L295.8238,21.938 L295.8238,24.0962 L291.0508,24.0962 L291.0508,27.3418 L296.3218,27.3418 Z " fill="#000000"/><text fill="#000000" font-family="sans-serif" font-size="14" lengthAdjust="spacing" textLength="73.835" x="313.2076" y="28.291">auth_users</text><line style="stroke:#181818;stroke-width:0.5;" x1="166.46" x2="501.2901" y1="39" y2="39"/><ellipse cx="176.46" cy="52.7441" fill="#000000" rx="3" ry="3" style="stroke:#000000;stroke-width:1.0;"/><text fill="#000000" font-family="sans-serif" font-size="14" lengthAdjust="spacing" textLength="195.5283" x="185.46" y="56.5352">string username "&#12518;&#12540;&#12470;&#12540;&#21517;"</text><line style="stroke:#181818;stroke-width:1.0;" x1="166.46" x2="501.2901" y1="63.4883" y2="63.4883"/><text fill="#000000" font-family="sans-serif" font-size="14" lengthAdjust="spacing" textLength="217.2598" x="171.46" y="81.0234">string phone_number "&#38651;&#35441;&#30058;&#21495;"</text><text fill="#000000" font-family="sans-serif" font-size="14" lengthAdjust="spacing" textLength="193.6279" x="171.46" y="97.5117">string password "&#12497;&#12473;&#12527;&#12540;&#12489;"</text><text fill="#000000" font-family="sans-serif" font-size="14" lengthAdjust="spacing" textLength="202.8223" x="171.46" y="114">binaly facility_id &#171;FK&#187; "&#26045;&#35373;ID"</text><text fill="#000000" font-family="sans-serif" font-size="14" lengthAdjust="spacing" textLength="324.8301" x="171.46" y="130.4883">binaly sub "&#19968;&#24847;&#12398;&#12518;&#12540;&#12470;&#12540;&#12434;&#29305;&#23450;&#12377;&#12427;&#12383;&#12417;&#12398;uuid"</text></g><g id="elem_GMN3"><path d="M6,291.81 L6,332.4311 L141.7593,332.4311 L141.7593,301.81 L131.7593,291.81 L6,291.81 " fill="#FEFFDD" style="stroke:#181818;stroke-width:0.5;"/><path d="M131.7593,291.81 L131.7593,301.81 L141.7593,301.81 L131.7593,291.81 " fill="#FEFFDD" style="stroke:#181818;stroke-width:1.0;"/><text fill="#000000" font-family="sans-serif" font-size="13" lengthAdjust="spacing" textLength="114.7593" x="12" y="309.3784">Cognito&#12398;&#12518;&#12540;&#12470;&#12540;</text><text fill="#000000" font-family="sans-serif" font-size="13" lengthAdjust="spacing" textLength="108.2148" x="12" y="324.6889">DB&#12395;&#12418;&#20445;&#23384;&#12375;&#12394;&#12356;</text></g><!--link auth_users to GMN3--><g id="link_auth_users_GMN3"><path d="M169.62,137.77 C169.62,208.8 169.62,312.12 169.62,312.12 C169.62,312.12 157.65,312.12 142.18,312.12 " fill="none" id="auth_users-GMN3" style="stroke:#181818;stroke-width:1.0;stroke-dasharray:7.0,7.0;"/></g><!--link auth_users to users--><g id="link_auth_users_users"><path codeLine="60" d="M468.58,145.77 C468.58,164.22 468.58,168.85 468.58,189.29 " fill="none" id="auth_users-users" style="stroke:#181818;stroke-width:1.0;"/><line style="stroke:#181818;stroke-width:1.0;" x1="464.58" x2="472.58" y1="141.77" y2="141.77"/><line style="stroke:#181818;stroke-width:1.0;" x1="464.58" x2="472.58" y1="144.77" y2="144.77"/><line style="stroke:#181818;stroke-width:1.0;" x1="468.58" x2="468.58" y1="145.77" y2="137.77"/><line style="stroke:#181818;stroke-width:1.0;" x1="472.58" x2="464.58" y1="193.29" y2="193.29"/><line style="stroke:#181818;stroke-width:1.0;" x1="472.58" x2="464.58" y1="190.29" y2="190.29"/><line style="stroke:#181818;stroke-width:1.0;" x1="468.58" x2="468.58" y1="189.29" y2="197.29"/></g><!--link users to positions--><g id="link_users_positions"><path codeLine="61" d="M763.09,273.89 C946.5,273.89 1213.88,273.89 1213.88,273.89 C1213.88,273.89 1213.88,452.16 1213.88,519.83 " fill="none" id="users-positions" style="stroke:#181818;stroke-width:1.0;"/><line style="stroke:#181818;stroke-width:1.0;" x1="759.09" x2="759.09" y1="277.89" y2="269.89"/><line style="stroke:#181818;stroke-width:1.0;" x1="762.09" x2="762.09" y1="277.89" y2="269.89"/><line style="stroke:#181818;stroke-width:1.0;" x1="763.09" x2="755.09" y1="273.89" y2="273.89"/><line style="stroke:#181818;stroke-width:1.0;" x1="1217.88" x2="1209.88" y1="523.83" y2="523.83"/><line style="stroke:#181818;stroke-width:1.0;" x1="1217.88" x2="1209.88" y1="520.83" y2="520.83"/><line style="stroke:#181818;stroke-width:1.0;" x1="1213.88" x2="1213.88" y1="519.83" y2="527.83"/></g><!--link users to departments--><g id="link_users_departments"><path codeLine="62" d="M763.13,235.67 C986.1,235.67 1354.88,235.67 1354.88,235.67 C1354.88,235.67 1354.88,445.65 1354.88,519.73 " fill="none" id="users-departments" style="stroke:#181818;stroke-width:1.0;"/><line style="stroke:#181818;stroke-width:1.0;" x1="759.13" x2="759.13" y1="239.67" y2="231.67"/><line style="stroke:#181818;stroke-width:1.0;" x1="762.13" x2="762.13" y1="239.67" y2="231.67"/><line style="stroke:#181818;stroke-width:1.0;" x1="763.13" x2="755.13" y1="235.67" y2="235.67"/><line style="stroke:#181818;stroke-width:1.0;" x1="1358.88" x2="1350.88" y1="523.73" y2="523.73"/><line style="stroke:#181818;stroke-width:1.0;" x1="1358.88" x2="1350.88" y1="520.73" y2="520.73"/><line style="stroke:#181818;stroke-width:1.0;" x1="1354.88" x2="1354.88" y1="519.73" y2="527.73"/></g><!--link users to monthly_workings--><g id="link_users_monthly_workings"><path codeLine="63" d="M619.88,435.16 C619.88,455.48 619.88,449.99 619.88,468.35 " fill="none" id="users-monthly_workings" style="stroke:#181818;stroke-width:1.0;"/><line style="stroke:#181818;stroke-width:1.0;" x1="615.88" x2="623.88" y1="431.16" y2="431.16"/><line style="stroke:#181818;stroke-width:1.0;" x1="615.88" x2="623.88" y1="434.16" y2="434.16"/><line style="stroke:#181818;stroke-width:1.0;" x1="619.88" x2="619.88" y1="435.16" y2="427.16"/><line style="stroke:#181818;stroke-width:1.0;" x1="619.88" x2="625.88" y1="478.35" y2="486.35"/><line style="stroke:#181818;stroke-width:1.0;" x1="619.88" x2="613.88" y1="478.35" y2="486.35"/><line style="stroke:#181818;stroke-width:1.0;" x1="619.88" x2="619.88" y1="478.35" y2="486.35"/><ellipse cx="619.88" cy="472.35" fill="none" rx="4" ry="4" style="stroke:#181818;stroke-width:1.0;"/></g><!--link users to facilities--><g id="link_users_facilities"><path codeLine="64" d="M763.23,350.35 C868.52,350.35 978.88,350.35 978.88,350.35 C978.88,350.35 978.88,466.06 978.88,519.7 " fill="none" id="users-facilities" style="stroke:#181818;stroke-width:1.0;"/><line style="stroke:#181818;stroke-width:1.0;" x1="759.23" x2="759.23" y1="354.35" y2="346.35"/><line style="stroke:#181818;stroke-width:1.0;" x1="762.23" x2="762.23" y1="354.35" y2="346.35"/><line style="stroke:#181818;stroke-width:1.0;" x1="763.23" x2="755.23" y1="350.35" y2="350.35"/><line style="stroke:#181818;stroke-width:1.0;" x1="982.88" x2="974.88" y1="523.7" y2="523.7"/><line style="stroke:#181818;stroke-width:1.0;" x1="982.88" x2="974.88" y1="520.7" y2="520.7"/><line style="stroke:#181818;stroke-width:1.0;" x1="978.88" x2="978.88" y1="519.7" y2="527.7"/></g><!--link users to teams--><g id="link_users_teams"><path codeLine="65" d="M763.15,312.12 C909.39,312.12 1094.88,312.12 1094.88,312.12 C1094.88,312.12 1094.88,458.71 1094.88,519.71 " fill="none" id="users-teams" style="stroke:#181818;stroke-width:1.0;"/><line style="stroke:#181818;stroke-width:1.0;" x1="759.15" x2="759.15" y1="316.12" y2="308.12"/><line style="stroke:#181818;stroke-width:1.0;" x1="762.15" x2="762.15" y1="316.12" y2="308.12"/><line style="stroke:#181818;stroke-width:1.0;" x1="763.15" x2="755.15" y1="312.12" y2="312.12"/><line style="stroke:#181818;stroke-width:1.0;" x1="1098.88" x2="1090.88" y1="523.71" y2="523.71"/><line style="stroke:#181818;stroke-width:1.0;" x1="1098.88" x2="1090.88" y1="520.71" y2="520.71"/><line style="stroke:#181818;stroke-width:1.0;" x1="1094.88" x2="1094.88" y1="519.71" y2="527.71"/></g><!--link users to areas--><g id="link_users_areas"><path codeLine="66" d="M763.33,388.58 C812.02,388.58 844.88,388.58 844.88,388.58 C844.88,388.58 844.88,473.96 844.88,519.56 " fill="none" id="users-areas" style="stroke:#181818;stroke-width:1.0;"/><line style="stroke:#181818;stroke-width:1.0;" x1="759.33" x2="759.33" y1="392.58" y2="384.58"/><line style="stroke:#181818;stroke-width:1.0;" x1="762.33" x2="762.33" y1="392.58" y2="384.58"/><line style="stroke:#181818;stroke-width:1.0;" x1="763.33" x2="755.33" y1="388.58" y2="388.58"/><line style="stroke:#181818;stroke-width:1.0;" x1="848.88" x2="840.88" y1="523.56" y2="523.56"/><line style="stroke:#181818;stroke-width:1.0;" x1="848.88" x2="840.88" y1="520.56" y2="520.56"/><line style="stroke:#181818;stroke-width:1.0;" x1="844.88" x2="844.88" y1="519.56" y2="527.56"/></g><!--SRC=[ZLHTJzH057tlhxZf2sfS4dacF2YQ6AFnnUTDTrjs9smxctQgsR0aJ0i9k19K14KKaO2kQm29YK20-6E6TfT_uUt7qkaI4rxQpksvTyuzzymuayIgQxPcGerO1clK3Q0sgr95CIn6M0CqbrMBhcFO3amf0BV0OJQnAX25BCqqG1N-D-6V2kyFFeFNYogY2WLyfC1wbLf6qNBDac63Uh5-qljnq5tf14k7gWJI7ES5jVMesXlX7Gj_FwhfBqIO4h6qMWCcj3Af8QKYqM5qzC6ZiJ5GmzMpNdltuRW4SzmIgET7C-7iak1xCZdXlUqk70Tx7mLV4rvBy2_2uuXnNQAhohIYM9GPKAACKHFeXDGwLhz7AnPXTA0a_XY_A_XFuNddVpy7kny4VozuH_1Pr4-7gA2YrBNof5OneCSFW-MleJyNR1x4OgOIP-f6-gPjn4q-nIRZS2neqg8jpKIMeazGOfVe0jSQsJNd1N3_oRF7DuQwxmx3cUz3js4esFaTVTs42dOSfU0gcDzHSuHjGykDhJKNd2qBhotyZl2s-ZnJT9qwX15goHd1sJ7ADm1aXcRA8E7ps3MR0pXq5jgyKgnIrtQY13NyDDzjdmR-OhZcNQmkz_6wXWOe8rbcw4MDPJ6thcSnT0h0W5VwDW58sXTyNypmH2NXdoGYuGVwPqJmRNnTyAFmvKRFsnBybU0U6Z9ElpCCILQy6Xc693LsIzzGbyungSMgjKOnRJ1l8gbn99_g_nz7vSsKzHrl0Agi5L97zHAzYCKkEJmdEBLYcReOY_H5NA_T2LQMWlMDSELNbX2HIaQ1Osrj1wsrfB0QIpkTdPTBVyY79RAI8wEIA-3ggKgl2s8uMImoZBJi6qqAwGRUXip4LRo9TFircuL2ivaEEXVAokJ2Sgdi1vswChLyciGx5q-uvqA95ly0]--></g></svg>