<svg xmlns="http://www.w3.org/2000/svg" xmlns:xlink="http://www.w3.org/1999/xlink" contentStyleType="text/css" height="673px" preserveAspectRatio="none" style="width:1436px;height:673px;background:#FFFFFF;" version="1.1" viewBox="0 0 1436 673" width="1436px" zoomAndPan="magnify"><defs/><g><!--cluster ????--><g id="cluster_&#32887;&#21729;&#24773;&#22577;"><path d="M160.38,211.91 L217.38,211.91 A3.75,3.75 0 0 1 219.88,214.41 L226.88,234.3983 L768.38,234.3983 A2.5,2.5 0 0 1 770.88,236.8983 L770.88,663.73 A2.5,2.5 0 0 1 768.38,666.23 L160.38,666.23 A2.5,2.5 0 0 1 157.88,663.73 L157.88,214.41 A2.5,2.5 0 0 1 160.38,211.91 " fill="none" style="stroke:#000000;stroke-width:1.5;"/><line style="stroke:#000000;stroke-width:1.5;" x1="157.88" x2="226.88" y1="234.3983" y2="234.3983"/><text fill="#000000" font-family="sans-serif" font-size="14" font-weight="bold" lengthAdjust="spacing" textLength="56" x="161.88" y="227.4452">&#32887;&#21729;&#24773;&#22577;</text></g><!--cluster ???--><g id="cluster_&#12456;&#12522;&#12450;"><path d="M797.38,526.01 L840.38,526.01 A3.75,3.75 0 0 1 842.88,528.51 L849.88,548.4983 L892.38,548.4983 A2.5,2.5 0 0 1 894.88,550.9983 L894.88,622.51 A2.5,2.5 0 0 1 892.38,625.01 L797.38,625.01 A2.5,2.5 0 0 1 794.88,622.51 L794.88,528.51 A2.5,2.5 0 0 1 797.38,526.01 " fill="none" style="stroke:#000000;stroke-width:1.5;"/><line style="stroke:#000000;stroke-width:1.5;" x1="794.88" x2="849.88" y1="548.4983" y2="548.4983"/><text fill="#000000" font-family="sans-serif" font-size="14" font-weight="bold" lengthAdjust="spacing" textLength="42" x="798.88" y="541.5452">&#12456;&#12522;&#12450;</text></g><!--cluster ????--><g id="cluster_&#26045;&#35373;&#24773;&#22577;"><path d="M921.38,526.01 L978.38,526.01 A3.75,3.75 0 0 1 980.88,528.51 L987.88,548.4983 L1427.38,548.4983 A2.5,2.5 0 0 1 1429.88,550.9983 L1429.88,622.51 A2.5,2.5 0 0 1 1427.38,625.01 L921.38,625.01 A2.5,2.5 0 0 1 918.88,622.51 L918.88,528.51 A2.5,2.5 0 0 1 921.38,526.01 " fill="none" style="stroke:#000000;stroke-width:1.5;"/><line style="stroke:#000000;stroke-width:1.5;" x1="918.88" x2="987.88" y1="548.4983" y2="548.4983"/><text fill="#000000" font-family="sans-serif" font-size="14" font-weight="bold" lengthAdjust="spacing" textLength="56" x="922.88" y="541.5452">&#26045;&#35373;&#24773;&#22577;</text></g><!--class users--><g id="elem_users"><rect codeLine="21" fill="#F1F1F1" height="212.8828" id="users" rx="2.5" ry="2.5" style="stroke:#181818;stroke-width:0.5;" width="320.0479" x="434.86" y="246.91"/><ellipse cx="572.3888" cy="262.91" fill="#ADD1B2" rx="11" ry="11" style="stroke:#181818;stroke-width:1.0;"/><path d="M576.0031,269.41 L568.2833,269.41 L568.2833,257.0169 L576.0031,257.0169 L576.0031,259.1751 L570.7321,259.1751 L570.7321,261.848 L575.505,261.848 L575.505,264.0062 L570.7321,264.0062 L570.7321,267.2518 L576.0031,267.2518 Z " fill="#000000"/><text fill="#000000" font-family="sans-serif" font-size="14" lengthAdjust="spacing" textLength="36.4902" x="592.8888" y="268.201">users</text><line style="stroke:#181818;stroke-width:0.5;" x1="435.86" x2="753.9079" y1="278.91" y2="278.91"/><ellipse cx="445.86" cy="292.6541" fill="#000000" rx="3" ry="3" style="stroke:#000000;stroke-width:1.0;"/><text fill="#000000" font-family="sans-serif" font-size="14" lengthAdjust="spacing" textLength="93.9053" x="454.86" y="296.4452">binaly id &#171;PK&#187;</text><line style="stroke:#181818;stroke-width:1.0;" x1="435.86" x2="753.9079" y1="303.3983" y2="303.3983"/><text fill="#000000" font-family="sans-serif" font-size="14" lengthAdjust="spacing" textLength="308.0479" x="440.86" y="320.9334">binary auth_user_id &#171;FK&#187; "Cognito&#12518;&#12540;&#12470;&#12540;ID"</text><text fill="#000000" font-family="sans-serif" font-size="14" lengthAdjust="spacing" textLength="195.5283" x="440.86" y="337.4217">string username "&#12518;&#12540;&#12470;&#12540;&#21517;"</text><text fill="#000000" font-family="sans-serif" font-size="14" lengthAdjust="spacing" textLength="217.2598" x="440.86" y="353.91">string phone_number "&#38651;&#35441;&#30058;&#21495;"</text><text fill="#000000" font-family="sans-serif" font-size="14" lengthAdjust="spacing" textLength="221.3545" x="440.86" y="370.3983">ENUM('&#30007;&#24615;', '&#22899;&#24615;') gender "&#24615;&#21029;"</text><text fill="#000000" font-family="sans-serif" font-size="14" lengthAdjust="spacing" textLength="230.7539" x="440.86" y="386.8866">binary area_id &#171;FK&#187; "&#25285;&#24403;&#12456;&#12522;&#12450;ID"</text><text fill="#000000" font-family="sans-serif" font-size="14" lengthAdjust="spacing" textLength="214.9287" x="440.86" y="403.3748">binary position_id &#171;FK&#187; "&#24441;&#32887;ID"</text><text fill="#000000" font-family="sans-serif" font-size="14" lengthAdjust="spacing" textLength="207.6006" x="440.86" y="419.8631">binary team_id &#171;FK&#187; "&#12481;&#12540;&#12512;ID"</text><text fill="#000000" font-family="sans-serif" font-size="14" lengthAdjust="spacing" textLength="104.2549" x="440.86" y="436.3514">date created_at</text><text fill="#000000" font-family="sans-serif" font-size="14" lengthAdjust="spacing" textLength="109.8672" x="440.86" y="452.8397">date updated_at</text></g><g id="elem_GMN8"><path d="M173.77,557.04 L173.77,612.9716 A0,0 0 0 0 173.77,612.9716 L449.9902,612.9716 A0,0 0 0 0 449.9902,612.9716 L449.9902,567.04 L439.9902,557.04 L446.42,557.04 L442.42,460.02 L438.42,557.04 L173.77,557.04 A0,0 0 0 0 173.77,557.04 " fill="#FEFFDD" style="stroke:#181818;stroke-width:0.5;"/><path d="M439.9902,557.04 L439.9902,567.04 L449.9902,567.04 L439.9902,557.04 " fill="#FEFFDD" style="stroke:#181818;stroke-width:0.5;"/><text fill="#000000" font-family="sans-serif" font-size="13" lengthAdjust="spacing" textLength="255.2202" x="179.77" y="574.6084">&#24615;&#21029;&#12399;&#12289;&#30007;&#24615;&#12539;&#22899;&#24615;&#12539;&#12398;2&#12388;&#12398;&#36984;&#25246;&#32930;&#12364;&#12354;&#12427;</text><text fill="#000000" font-family="sans-serif" font-size="13" lengthAdjust="spacing" textLength="42.4468" x="179.77" y="589.9189">1. &#30007;&#24615;</text><text fill="#000000" font-family="sans-serif" font-size="13" lengthAdjust="spacing" textLength="42.4468" x="179.77" y="605.2295">2. &#22899;&#24615;</text></g><!--class monthly_workings--><g id="elem_monthly_workings"><rect codeLine="41" fill="#F1F1F1" height="130.4414" id="monthly_workings" rx="2.5" ry="2.5" style="stroke:#181818;stroke-width:0.5;" width="269.0313" x="485.36" y="519.79"/><ellipse cx="553.3537" cy="535.79" fill="#ADD1B2" rx="11" ry="11" style="stroke:#181818;stroke-width:1.0;"/><path d="M556.9679,542.29 L549.2482,542.29 L549.2482,529.8969 L556.9679,529.8969 L556.9679,532.0551 L551.6969,532.0551 L551.6969,534.728 L556.4699,534.728 L556.4699,536.8862 L551.6969,536.8862 L551.6969,540.1318 L556.9679,540.1318 Z " fill="#000000"/><text fill="#000000" font-family="sans-serif" font-size="14" lengthAdjust="spacing" textLength="124.5439" x="573.8537" y="541.081">monthly_workings</text><line style="stroke:#181818;stroke-width:0.5;" x1="486.36" x2="753.3913" y1="551.79" y2="551.79"/><ellipse cx="496.36" cy="565.5341" fill="#000000" rx="3" ry="3" style="stroke:#000000;stroke-width:1.0;"/><text fill="#000000" font-family="sans-serif" font-size="14" lengthAdjust="spacing" textLength="193.8604" x="505.36" y="569.3252">binary working_data_id &#171;PK&#187;</text><line style="stroke:#181818;stroke-width:1.0;" x1="486.36" x2="753.3913" y1="576.2783" y2="576.2783"/><text fill="#000000" font-family="sans-serif" font-size="14" lengthAdjust="spacing" textLength="131.708" x="491.36" y="593.8134">binary user_id &#171;FK&#187;</text><text fill="#000000" font-family="sans-serif" font-size="14" lengthAdjust="spacing" textLength="177.1807" x="491.36" y="610.3017">date month "&#31292;&#20685;&#26178;&#38291;&#12398;&#26376;"</text><text fill="#000000" font-family="sans-serif" font-size="14" lengthAdjust="spacing" textLength="257.0313" x="491.36" y="626.79">int monthly_visit_count "&#26376;&#12398;&#35370;&#21839;&#22238;&#25968;"</text><text fill="#000000" font-family="sans-serif" font-size="14" lengthAdjust="spacing" textLength="172.4297" x="491.36" y="643.2783">int work_hours "&#21220;&#21209;&#26178;&#38291;"</text></g><!--class areas--><g id="elem_areas"><rect codeLine="52" fill="#F1F1F1" height="48" id="areas" rx="2.5" ry="2.5" style="stroke:#181818;stroke-width:0.5;" width="68.1279" x="810.82" y="561.01"/><ellipse cx="825.82" cy="577.01" fill="#ADD1B2" rx="11" ry="11" style="stroke:#181818;stroke-width:1.0;"/><path d="M829.4343,583.51 L821.7145,583.51 L821.7145,571.1169 L829.4343,571.1169 L829.4343,573.2751 L824.1633,573.2751 L824.1633,575.948 L828.9362,575.948 L828.9362,578.1062 L824.1633,578.1062 L824.1633,581.3518 L829.4343,581.3518 Z " fill="#000000"/><text fill="#000000" font-family="sans-serif" font-size="14" lengthAdjust="spacing" textLength="36.1279" x="839.82" y="582.301">areas</text><line style="stroke:#181818;stroke-width:0.5;" x1="811.82" x2="877.9479" y1="593.01" y2="593.01"/><line style="stroke:#181818;stroke-width:0.5;" x1="811.82" x2="877.9479" y1="601.01" y2="601.01"/></g><!--class facilities--><g id="elem_facilities"><rect codeLine="56" fill="#F1F1F1" height="48" id="facilities" rx="2.5" ry="2.5" style="stroke:#181818;stroke-width:0.5;" width="88.4102" x="934.67" y="561.01"/><ellipse cx="949.67" cy="577.01" fill="#ADD1B2" rx="11" ry="11" style="stroke:#181818;stroke-width:1.0;"/><path d="M953.2843,583.51 L945.5645,583.51 L945.5645,571.1169 L953.2843,571.1169 L953.2843,573.2751 L948.0133,573.2751 L948.0133,575.948 L952.7862,575.948 L952.7862,578.1062 L948.0133,578.1062 L948.0133,581.3518 L953.2843,581.3518 Z " fill="#000000"/><text fill="#000000" font-family="sans-serif" font-size="14" lengthAdjust="spacing" textLength="56.4102" x="963.67" y="582.301">facilities</text><line style="stroke:#181818;stroke-width:0.5;" x1="935.67" x2="1022.0802" y1="593.01" y2="593.01"/><line style="stroke:#181818;stroke-width:0.5;" x1="935.67" x2="1022.0802" y1="601.01" y2="601.01"/></g><!--class teams--><g id="elem_teams"><rect codeLine="57" fill="#F1F1F1" height="48" id="teams" rx="2.5" ry="2.5" style="stroke:#181818;stroke-width:0.5;" width="72.9746" x="1058.39" y="561.01"/><ellipse cx="1073.39" cy="577.01" fill="#ADD1B2" rx="11" ry="11" style="stroke:#181818;stroke-width:1.0;"/><path d="M1077.0043,583.51 L1069.2845,583.51 L1069.2845,571.1169 L1077.0043,571.1169 L1077.0043,573.2751 L1071.7333,573.2751 L1071.7333,575.948 L1076.5062,575.948 L1076.5062,578.1062 L1071.7333,578.1062 L1071.7333,581.3518 L1077.0043,581.3518 Z " fill="#000000"/><text fill="#000000" font-family="sans-serif" font-size="14" lengthAdjust="spacing" textLength="40.9746" x="1087.39" y="582.301">teams</text><line style="stroke:#181818;stroke-width:0.5;" x1="1059.39" x2="1130.3646" y1="593.01" y2="593.01"/><line style="stroke:#181818;stroke-width:0.5;" x1="1059.39" x2="1130.3646" y1="601.01" y2="601.01"/></g><!--class positions--><g id="elem_positions"><rect codeLine="58" fill="#F1F1F1" height="48" id="positions" rx="2.5" ry="2.5" style="stroke:#181818;stroke-width:0.5;" width="94.3027" x="1166.73" y="561.01"/><ellipse cx="1181.73" cy="577.01" fill="#ADD1B2" rx="11" ry="11" style="stroke:#181818;stroke-width:1.0;"/><path d="M1185.3443,583.51 L1177.6245,583.51 L1177.6245,571.1169 L1185.3443,571.1169 L1185.3443,573.2751 L1180.0733,573.2751 L1180.0733,575.948 L1184.8462,575.948 L1184.8462,578.1062 L1180.0733,578.1062 L1180.0733,581.3518 L1185.3443,581.3518 Z " fill="#000000"/><text fill="#000000" font-family="sans-serif" font-size="14" lengthAdjust="spacing" textLength="62.3027" x="1195.73" y="582.301">positions</text><line style="stroke:#181818;stroke-width:0.5;" x1="1167.73" x2="1260.0327" y1="593.01" y2="593.01"/><line style="stroke:#181818;stroke-width:0.5;" x1="1167.73" x2="1260.0327" y1="601.01" y2="601.01"/></g><!--class departments--><g id="elem_departments"><rect codeLine="59" fill="#F1F1F1" height="48" id="departments" rx="2.5" ry="2.5" style="stroke:#181818;stroke-width:0.5;" width="118.0508" x="1295.85" y="561.01"/><ellipse cx="1310.85" cy="577.01" fill="#ADD1B2" rx="11" ry="11" style="stroke:#181818;stroke-width:1.0;"/><path d="M1314.4643,583.51 L1306.7445,583.51 L1306.7445,571.1169 L1314.4643,571.1169 L1314.4643,573.2751 L1309.1933,573.2751 L1309.1933,575.948 L1313.9662,575.948 L1313.9662,578.1062 L1309.1933,578.1062 L1309.1933,581.3518 L1314.4643,581.3518 Z " fill="#000000"/><text fill="#000000" font-family="sans-serif" font-size="14" lengthAdjust="spacing" textLength="86.0508" x="1324.85" y="582.301">departments</text><line style="stroke:#181818;stroke-width:0.5;" x1="1296.85" x2="1412.9008" y1="593.01" y2="593.01"/><line style="stroke:#181818;stroke-width:0.5;" x1="1296.85" x2="1412.9008" y1="601.01" y2="601.01"/></g><!--class auth_users--><g id="elem_auth_users"><rect codeLine="3" fill="#F1F1F1" height="179.9063" id="auth_users" rx="2.5" ry="2.5" style="stroke:#181818;stroke-width:0.5;" width="242.7539" x="212.5" y="7"/><ellipse cx="292.7095" cy="23" fill="#ADD1B2" rx="11" ry="11" style="stroke:#181818;stroke-width:1.0;"/><path d="M296.3237,29.5 L288.604,29.5 L288.604,17.1069 L296.3237,17.1069 L296.3237,19.2651 L291.0527,19.2651 L291.0527,21.938 L295.8257,21.938 L295.8257,24.0962 L291.0527,24.0962 L291.0527,27.3418 L296.3237,27.3418 Z " fill="#000000"/><text fill="#000000" font-family="sans-serif" font-size="14" lengthAdjust="spacing" textLength="73.835" x="313.2095" y="28.291">auth_users</text><line style="stroke:#181818;stroke-width:0.5;" x1="213.5" x2="454.2539" y1="39" y2="39"/><ellipse cx="223.5" cy="52.7441" fill="#000000" rx="3" ry="3" style="stroke:#000000;stroke-width:1.0;"/><text fill="#000000" font-family="sans-serif" font-size="14" lengthAdjust="spacing" textLength="195.5283" x="232.5" y="56.5352">string username "&#12518;&#12540;&#12470;&#12540;&#21517;"</text><line style="stroke:#181818;stroke-width:1.0;" x1="213.5" x2="454.2539" y1="63.4883" y2="63.4883"/><text fill="#000000" font-family="sans-serif" font-size="14" lengthAdjust="spacing" textLength="217.2598" x="218.5" y="81.0234">string phone_number "&#38651;&#35441;&#30058;&#21495;"</text><text fill="#000000" font-family="sans-serif" font-size="14" lengthAdjust="spacing" textLength="221.3545" x="218.5" y="97.5117">ENUM('&#30007;&#24615;', '&#22899;&#24615;') gender "&#24615;&#21029;"</text><text fill="#000000" font-family="sans-serif" font-size="14" lengthAdjust="spacing" textLength="230.7539" x="218.5" y="114">binary area_id &#171;FK&#187; "&#25285;&#24403;&#12456;&#12522;&#12450;ID"</text><text fill="#000000" font-family="sans-serif" font-size="14" lengthAdjust="spacing" textLength="214.9287" x="218.5" y="130.4883">binary position_id &#171;FK&#187; "&#24441;&#32887;ID"</text><text fill="#000000" font-family="sans-serif" font-size="14" lengthAdjust="spacing" textLength="207.6006" x="218.5" y="146.9766">binary team_id &#171;FK&#187; "&#12481;&#12540;&#12512;ID"</text><text fill="#000000" font-family="sans-serif" font-size="14" lengthAdjust="spacing" textLength="104.2549" x="218.5" y="163.4648">date created_at</text><text fill="#000000" font-family="sans-serif" font-size="14" lengthAdjust="spacing" textLength="109.8672" x="218.5" y="179.9531">date updated_at</text></g><g id="elem_GMN3"><path d="M6,333.04 L6,373.6611 L141.7593,373.6611 L141.7593,343.04 L131.7593,333.04 L6,333.04 " fill="#FEFFDD" style="stroke:#181818;stroke-width:0.5;"/><path d="M131.7593,333.04 L131.7593,343.04 L141.7593,343.04 L131.7593,333.04 " fill="#FEFFDD" style="stroke:#181818;stroke-width:1.0;"/><text fill="#000000" font-family="sans-serif" font-size="13" lengthAdjust="spacing" textLength="114.7593" x="12" y="350.6084">Cognito&#12398;&#12518;&#12540;&#12470;&#12540;</text><text fill="#000000" font-family="sans-serif" font-size="13" lengthAdjust="spacing" textLength="108.2148" x="12" y="365.9189">DB&#12395;&#12418;&#20445;&#23384;&#12375;&#12394;&#12356;</text></g><!--link auth_users to GMN3--><g id="link_auth_users_GMN3"><path d="M323.68,187.35 C323.68,261.17 323.68,353.35 323.68,353.35 C323.68,353.35 216.1,353.35 142.14,353.35 " fill="none" id="auth_users-GMN3" style="stroke:#181818;stroke-width:1.0;stroke-dasharray:7.0,7.0;"/></g><!--link auth_users to users--><g id="link_auth_users_users"><path codeLine="62" d="M445.06,195.35 C445.06,214.52 445.06,218.94 445.06,238.65 " fill="none" id="auth_users-users" style="stroke:#181818;stroke-width:1.0;"/><line style="stroke:#181818;stroke-width:1.0;" x1="441.06" x2="449.06" y1="191.35" y2="191.35"/><line style="stroke:#181818;stroke-width:1.0;" x1="441.06" x2="449.06" y1="194.35" y2="194.35"/><line style="stroke:#181818;stroke-width:1.0;" x1="445.06" x2="445.06" y1="195.35" y2="187.35"/><line style="stroke:#181818;stroke-width:1.0;" x1="449.06" x2="441.06" y1="242.65" y2="242.65"/><line style="stroke:#181818;stroke-width:1.0;" x1="449.06" x2="441.06" y1="239.65" y2="239.65"/><line style="stroke:#181818;stroke-width:1.0;" x1="445.06" x2="445.06" y1="238.65" y2="246.65"/></g><!--link users to positions--><g id="link_users_positions"><path codeLine="63" d="M763.09,317.87 C946.5,317.87 1213.88,317.87 1213.88,317.87 C1213.88,317.87 1213.88,487.07 1213.88,552.83 " fill="none" id="users-positions" style="stroke:#181818;stroke-width:1.0;"/><line style="stroke:#181818;stroke-width:1.0;" x1="759.09" x2="759.09" y1="321.87" y2="313.87"/><line style="stroke:#181818;stroke-width:1.0;" x1="762.09" x2="762.09" y1="321.87" y2="313.87"/><line style="stroke:#181818;stroke-width:1.0;" x1="763.09" x2="755.09" y1="317.87" y2="317.87"/><line style="stroke:#181818;stroke-width:1.0;" x1="1217.88" x2="1209.88" y1="556.83" y2="556.83"/><line style="stroke:#181818;stroke-width:1.0;" x1="1217.88" x2="1209.88" y1="553.83" y2="553.83"/><line style="stroke:#181818;stroke-width:1.0;" x1="1213.88" x2="1213.88" y1="552.83" y2="560.83"/></g><!--link users to departments--><g id="link_users_departments"><path codeLine="64" d="M763.13,282.39 C986.1,282.39 1354.88,282.39 1354.88,282.39 C1354.88,282.39 1354.88,480.94 1354.88,552.76 " fill="none" id="users-departments" style="stroke:#181818;stroke-width:1.0;"/><line style="stroke:#181818;stroke-width:1.0;" x1="759.13" x2="759.13" y1="286.39" y2="278.39"/><line style="stroke:#181818;stroke-width:1.0;" x1="762.13" x2="762.13" y1="286.39" y2="278.39"/><line style="stroke:#181818;stroke-width:1.0;" x1="763.13" x2="755.13" y1="282.39" y2="282.39"/><line style="stroke:#181818;stroke-width:1.0;" x1="1358.88" x2="1350.88" y1="556.76" y2="556.76"/><line style="stroke:#181818;stroke-width:1.0;" x1="1358.88" x2="1350.88" y1="553.76" y2="553.76"/><line style="stroke:#181818;stroke-width:1.0;" x1="1354.88" x2="1354.88" y1="552.76" y2="560.76"/></g><!--link users to monthly_workings--><g id="link_users_monthly_workings"><path codeLine="65" d="M619.88,468.02 C619.88,488.33 619.88,483.01 619.88,501.56 " fill="none" id="users-monthly_workings" style="stroke:#181818;stroke-width:1.0;"/><line style="stroke:#181818;stroke-width:1.0;" x1="615.88" x2="623.88" y1="464.02" y2="464.02"/><line style="stroke:#181818;stroke-width:1.0;" x1="615.88" x2="623.88" y1="467.02" y2="467.02"/><line style="stroke:#181818;stroke-width:1.0;" x1="619.88" x2="619.88" y1="468.02" y2="460.02"/><line style="stroke:#181818;stroke-width:1.0;" x1="619.88" x2="625.88" y1="511.56" y2="519.56"/><line style="stroke:#181818;stroke-width:1.0;" x1="619.88" x2="613.88" y1="511.56" y2="519.56"/><line style="stroke:#181818;stroke-width:1.0;" x1="619.88" x2="619.88" y1="511.56" y2="519.56"/><ellipse cx="619.88" cy="505.56" fill="none" rx="4" ry="4" style="stroke:#181818;stroke-width:1.0;"/></g><!--link users to facilities--><g id="link_users_facilities"><path codeLine="66" d="M763.23,388.83 C868.52,388.83 978.88,388.83 978.88,388.83 C978.88,388.83 978.88,499.97 978.88,552.56 " fill="none" id="users-facilities" style="stroke:#181818;stroke-width:1.0;"/><line style="stroke:#181818;stroke-width:1.0;" x1="759.23" x2="759.23" y1="392.83" y2="384.83"/><line style="stroke:#181818;stroke-width:1.0;" x1="762.23" x2="762.23" y1="392.83" y2="384.83"/><line style="stroke:#181818;stroke-width:1.0;" x1="763.23" x2="755.23" y1="388.83" y2="388.83"/><line style="stroke:#181818;stroke-width:1.0;" x1="982.88" x2="974.88" y1="556.56" y2="556.56"/><line style="stroke:#181818;stroke-width:1.0;" x1="982.88" x2="974.88" y1="553.56" y2="553.56"/><line style="stroke:#181818;stroke-width:1.0;" x1="978.88" x2="978.88" y1="552.56" y2="560.56"/></g><!--link users to teams--><g id="link_users_teams"><path codeLine="67" d="M763.15,353.35 C909.39,353.35 1094.88,353.35 1094.88,353.35 C1094.88,353.35 1094.88,493.18 1094.88,552.66 " fill="none" id="users-teams" style="stroke:#181818;stroke-width:1.0;"/><line style="stroke:#181818;stroke-width:1.0;" x1="759.15" x2="759.15" y1="357.35" y2="349.35"/><line style="stroke:#181818;stroke-width:1.0;" x1="762.15" x2="762.15" y1="357.35" y2="349.35"/><line style="stroke:#181818;stroke-width:1.0;" x1="763.15" x2="755.15" y1="353.35" y2="353.35"/><line style="stroke:#181818;stroke-width:1.0;" x1="1098.88" x2="1090.88" y1="556.66" y2="556.66"/><line style="stroke:#181818;stroke-width:1.0;" x1="1098.88" x2="1090.88" y1="553.66" y2="553.66"/><line style="stroke:#181818;stroke-width:1.0;" x1="1094.88" x2="1094.88" y1="552.66" y2="560.66"/></g><!--link users to areas--><g id="link_users_areas"><path codeLine="68" d="M763.33,424.31 C812.02,424.31 844.88,424.31 844.88,424.31 C844.88,424.31 844.88,507.65 844.88,552.6 " fill="none" id="users-areas" style="stroke:#181818;stroke-width:1.0;"/><line style="stroke:#181818;stroke-width:1.0;" x1="759.33" x2="759.33" y1="428.31" y2="420.31"/><line style="stroke:#181818;stroke-width:1.0;" x1="762.33" x2="762.33" y1="428.31" y2="420.31"/><line style="stroke:#181818;stroke-width:1.0;" x1="763.33" x2="755.33" y1="424.31" y2="424.31"/><line style="stroke:#181818;stroke-width:1.0;" x1="848.88" x2="840.88" y1="556.6" y2="556.6"/><line style="stroke:#181818;stroke-width:1.0;" x1="848.88" x2="840.88" y1="553.6" y2="553.6"/><line style="stroke:#181818;stroke-width:1.0;" x1="844.88" x2="844.88" y1="552.6" y2="560.6"/></g><!--SRC=[bLJHQjH057tFLrpoKXMtO9zB7xGA8eelFeTqCzqDtSmioQooT0jDOg6ubWfhgwLQQcbrNQbQ1AkqYnypJdRx5zuacsPY5ROlIURat9bxxZc9js3JkkcQ3jHiIdYpJe2vlCeqZL1kyoQO3Lur6XvnFLZK0Aw1nrsRLY26gEaGq4NuNeId8lYEL_bYJKTMgOIN4R5UPPGOjE7C4HVqi-sJuSUZmKPFhX_7pDiF7js_CZ5uUHmjVvYu3XFou5lyT1KgX5fn0Qxawa5CdREfwM93BZ4DsuBfwJltPcQGq5wH_Ou8kYBiYM3lxgp2hJFFvZQZAb_sVmxzumAD4zDHAIBqOqNXRigoJ4wWZCToOXacpv16tSgG9KsZ3A4vnZbpWCqhOqFwBLQXDcV2_wpE2b_CtXJ-9n44lt-zbOUlXVzA-3tXFyNPMn1lg6brixnWLWXWoxBpBWfNvEvHOiJ8djoPs9jOJwq9YPI7A2M14pFoyMMDgOAp1fNkKkambjrZUdqfjo_dzzYEZ-lvlro_w3i0EW_mb_UPxG2f7E5_4Sj-gbg49wbeVC0yJ0b_7szd_e_esSums1F-S-478cWdvJSc8QrALbEJa9OcxcS1EK-2moYlrfh64-RYDrqfXW85Zt03cn_Dypy9AOOZrvqS0FgWUoh3jMWhEDliOElHczLqNZRbvpqyjj45eymQYEd8GDwmsvCRwt9x9zhucXV4JHbLri0CwxAzBzjRwSPwCjgbFF_dVglXZwFXgQneip_i7bxyIkRDibt3N10ln-80ACiiE0fa4VmpSWTNoI7Adx3LAfLQhP7H1IZVfW2hM-KlsE85rufbIjy5FEsz0AMp-0C0]--></g></svg>