<?xml version="1.0" encoding="UTF-8" standalone="no"?><svg xmlns="http://www.w3.org/2000/svg" xmlns:xlink="http://www.w3.org/1999/xlink" contentScriptType="application/ecmascript" contentStyleType="text/css" height="680px" preserveAspectRatio="none" style="width:1159px;height:680px;" version="1.1" viewBox="0 0 1159 680" width="1159px" zoomAndPan="magnify"><defs><filter height="300%" id="f1wqxulviv95a4" width="300%" x="-1" y="-1"><feGaussianBlur result="blurOut" stdDeviation="2.0"/><feColorMatrix in="blurOut" result="blurOut2" type="matrix" values="0 0 0 0 0 0 0 0 0 0 0 0 0 0 0 0 0 0 .4 0"/><feOffset dx="4.0" dy="4.0" in="blurOut2" result="blurOut3"/><feBlend in="SourceGraphic" in2="blurOut3" mode="normal"/></filter></defs><g><!--MD5=[d43a93bed96446588d3c5fef43396a6d]
cluster 訪問情報--><polygon fill="#FFFFFF" filter="url(#f1wqxulviv95a4)" points="22,147,84,147,91,169.2969,997,169.2969,997,668,22,668,22,147" style="stroke: #000000; stroke-width: 1.5;"/><line style="stroke: #000000; stroke-width: 1.5;" x1="22" x2="91" y1="169.2969" y2="169.2969"/><text fill="#000000" font-family="sans-serif" font-size="14" font-weight="bold" lengthAdjust="spacingAndGlyphs" textLength="56" x="26" y="161.9951">訪問情報</text><!--MD5=[17926c9f6f73500917f0231ee648f0f2]
cluster 患者情報--><polygon fill="#FFFFFF" filter="url(#f1wqxulviv95a4)" points="1021,382.5,1083,382.5,1090,404.7969,1137,404.7969,1137,481.5,1021,481.5,1021,382.5" style="stroke: #000000; stroke-width: 1.5;"/><line style="stroke: #000000; stroke-width: 1.5;" x1="1021" x2="1090" y1="404.7969" y2="404.7969"/><text fill="#000000" font-family="sans-serif" font-size="14" font-weight="bold" lengthAdjust="spacingAndGlyphs" textLength="56" x="1025" y="397.4951">患者情報</text><!--MD5=[af7553808e27414a6663019e1dd2c0e6]
cluster 職員情報--><polygon fill="#FFFFFF" filter="url(#f1wqxulviv95a4)" points="592,24,654,24,661,46.2969,692,46.2969,692,123,592,123,592,24" style="stroke: #000000; stroke-width: 1.5;"/><line style="stroke: #000000; stroke-width: 1.5;" x1="592" x2="661" y1="46.2969" y2="46.2969"/><text fill="#000000" font-family="sans-serif" font-size="14" font-weight="bold" lengthAdjust="spacingAndGlyphs" textLength="56" x="596" y="38.9951">職員情報</text><!--MD5=[8d41beee1a3a43cb45bc7f02531b65aa]
class visit_infos--><rect fill="#FEFECE" filter="url(#f1wqxulviv95a4)" height="150.4375" id="visit_infos" style="stroke: #A80036; stroke-width: 1.5;" width="332" x="476" y="182"/><ellipse cx="607.75" cy="198" fill="#ADD1B2" rx="11" ry="11" style="stroke: #A80036; stroke-width: 1.0;"/><path d="M611.8594,204 L604.1406,204 L604.1406,191.6094 L611.8594,191.6094 L611.8594,193.7656 L606.5938,193.7656 L606.5938,196.4375 L611.3594,196.4375 L611.3594,198.5938 L606.5938,198.5938 L606.5938,201.8438 L611.8594,201.8438 L611.8594,204 Z "/><text fill="#000000" font-family="sans-serif" font-size="12" lengthAdjust="spacingAndGlyphs" textLength="60" x="628.25" y="202.1543">visit_infos</text><line style="stroke: #A80036; stroke-width: 1.5;" x1="477" x2="807" y1="214" y2="214"/><text fill="#000000" font-family="sans-serif" font-size="11" lengthAdjust="spacingAndGlyphs" textLength="159" x="482" y="228.2104">visit_info_id binary(16) «PK»</text><line style="stroke: #A80036; stroke-width: 1.0;" x1="477" x2="807" y1="234.8047" y2="234.8047"/><text fill="#000000" font-family="sans-serif" font-size="11" lengthAdjust="spacingAndGlyphs" textLength="194" x="482" y="249.0151">patient_id binary(16) «FK» "患者ID"</text><text fill="#000000" font-family="sans-serif" font-size="11" lengthAdjust="spacingAndGlyphs" textLength="310" x="482" y="261.8198">assigned_user_id binary(16) «FK» "担当者ID（UserID）"</text><text fill="#000000" font-family="sans-serif" font-size="11" lengthAdjust="spacingAndGlyphs" textLength="320" x="482" y="274.6245">companion_user_id binary(16) «FK» "同行者ID（UserID）"</text><text fill="#000000" font-family="sans-serif" font-size="11" lengthAdjust="spacingAndGlyphs" textLength="294" x="482" y="287.4292">schedule_category_id binary(16) «FK» "訪問カテゴリ"</text><text fill="#000000" font-family="sans-serif" font-size="11" lengthAdjust="spacingAndGlyphs" textLength="196" x="482" y="300.2339">route_id binary(16) «FK» "ルートID"</text><text fill="#000000" font-family="sans-serif" font-size="11" lengthAdjust="spacingAndGlyphs" textLength="284" x="482" y="313.0386">service_code_id binary(16) «FK» "サービスコードID"</text><text fill="#000000" font-family="sans-serif" font-size="11" lengthAdjust="spacingAndGlyphs" textLength="148" x="482" y="325.8433">service_time int "提供時間"</text><!--MD5=[974c6912de8d83cf8a8aca8903c83a0e]
class service_codes--><rect fill="#FEFECE" filter="url(#f1wqxulviv95a4)" height="86.4141" id="service_codes" style="stroke: #A80036; stroke-width: 1.5;" width="167" x="132.5" y="398.5"/><ellipse cx="168.65" cy="414.5" fill="#ADD1B2" rx="11" ry="11" style="stroke: #A80036; stroke-width: 1.0;"/><path d="M172.7594,420.5 L165.0406,420.5 L165.0406,408.1094 L172.7594,408.1094 L172.7594,410.2656 L167.4938,410.2656 L167.4938,412.9375 L172.2594,412.9375 L172.2594,415.0938 L167.4938,415.0938 L167.4938,418.3438 L172.7594,418.3438 L172.7594,420.5 Z "/><text fill="#000000" font-family="sans-serif" font-size="12" lengthAdjust="spacingAndGlyphs" textLength="88" x="187.35" y="418.6543">service_codes</text><line style="stroke: #A80036; stroke-width: 1.5;" x1="133.5" x2="298.5" y1="430.5" y2="430.5"/><text fill="#000000" font-family="sans-serif" font-size="11" lengthAdjust="spacingAndGlyphs" textLength="103" x="138.5" y="444.7104">id binary(16) «PK»</text><line style="stroke: #A80036; stroke-width: 1.0;" x1="133.5" x2="298.5" y1="451.3047" y2="451.3047"/><text fill="#000000" font-family="sans-serif" font-size="11" lengthAdjust="spacingAndGlyphs" textLength="155" x="138.5" y="465.5151">code string "サービスコード"</text><text fill="#000000" font-family="sans-serif" font-size="11" lengthAdjust="spacingAndGlyphs" textLength="148" x="138.5" y="478.3198">service_time int "提供時間"</text><path d="M38.5,570 L38.5,633.3984 A0,0 0 0 0 38.5,633.3984 L293.5,633.3984 A0,0 0 0 0 293.5,633.3984 L293.5,580 L283.5,570 L217,570 L213,484.8 L209,570 L38.5,570 A0,0 0 0 0 38.5,570 " fill="#FBFB77" filter="url(#f1wqxulviv95a4)" style="stroke: #A80036; stroke-width: 1.0;"/><path d="M283.5,570 L283.5,580 L293.5,580 L283.5,570 " fill="#FBFB77" style="stroke: #A80036; stroke-width: 1.0;"/><text fill="#000000" font-family="sans-serif" font-size="13" lengthAdjust="spacingAndGlyphs" textLength="234" x="44.5" y="587.0669">コードIDに応じてサービスコードを設定</text><text fill="#000000" font-family="sans-serif" font-size="13" lengthAdjust="spacingAndGlyphs" textLength="53" x="44.5" y="602.1997">1. 訪看I2</text><text fill="#000000" font-family="sans-serif" font-size="13" lengthAdjust="spacingAndGlyphs" textLength="53" x="44.5" y="617.3325">2. 訪看I3</text><line style="stroke: #A80036; stroke-width: 1.0; stroke-dasharray: 1.0,2.0;" x1="39.5" x2="292.5" y1="620.3984" y2="620.3984"/><!--MD5=[8aadc6119ebe9278695a1ee92697b8ea]
class visit_categories--><rect fill="#FEFECE" filter="url(#f1wqxulviv95a4)" height="73.6094" id="visit_categories" style="stroke: #A80036; stroke-width: 1.5;" width="172" x="406" y="404.5"/><ellipse cx="440.35" cy="420.5" fill="#ADD1B2" rx="11" ry="11" style="stroke: #A80036; stroke-width: 1.0;"/><path d="M444.4594,426.5 L436.7406,426.5 L436.7406,414.1094 L444.4594,414.1094 L444.4594,416.2656 L439.1938,416.2656 L439.1938,418.9375 L443.9594,418.9375 L443.9594,421.0938 L439.1938,421.0938 L439.1938,424.3438 L444.4594,424.3438 L444.4594,426.5 Z "/><text fill="#000000" font-family="sans-serif" font-size="12" lengthAdjust="spacingAndGlyphs" textLength="97" x="458.65" y="424.6543">visit_categories</text><line style="stroke: #A80036; stroke-width: 1.5;" x1="407" x2="577" y1="436.5" y2="436.5"/><text fill="#000000" font-family="sans-serif" font-size="11" lengthAdjust="spacingAndGlyphs" textLength="103" x="412" y="450.7104">id binary(16) «PK»</text><line style="stroke: #A80036; stroke-width: 1.0;" x1="407" x2="577" y1="457.3047" y2="457.3047"/><text fill="#000000" font-family="sans-serif" font-size="11" lengthAdjust="spacingAndGlyphs" textLength="160" x="412" y="471.5151">name string "予定のカテゴリ"</text><path d="M328.5,551 L328.5,651.7969 A0,0 0 0 0 328.5,651.7969 L613.5,651.7969 A0,0 0 0 0 613.5,651.7969 L613.5,561 L603.5,551 L496,551 L492,478.61 L488,551 L328.5,551 A0,0 0 0 0 328.5,551 " fill="#FBFB77" filter="url(#f1wqxulviv95a4)" style="stroke: #A80036; stroke-width: 1.0;"/><path d="M603.5,551 L603.5,561 L613.5,561 L603.5,551 " fill="#FBFB77" style="stroke: #A80036; stroke-width: 1.0;"/><text fill="#000000" font-family="sans-serif" font-size="13" lengthAdjust="spacingAndGlyphs" textLength="234" x="334.5" y="568.0669">緊急訪問件数・入院件数をカウントする</text><text fill="#000000" font-family="sans-serif" font-size="13" lengthAdjust="spacingAndGlyphs" textLength="264" x="334.5" y="583.1997">複数選択するかどうかで、多:多の関係になる</text><text fill="#000000" font-family="sans-serif" font-size="13" lengthAdjust="spacingAndGlyphs" textLength="38" x="342.5" y="598.3325">1:夜勤</text><text fill="#000000" font-family="sans-serif" font-size="13" lengthAdjust="spacingAndGlyphs" textLength="38" x="342.5" y="613.4653">2:緊急</text><text fill="#000000" font-family="sans-serif" font-size="13" lengthAdjust="spacingAndGlyphs" textLength="38" x="342.5" y="628.5981">3:入院</text><text fill="#000000" font-family="sans-serif" font-size="13" lengthAdjust="spacingAndGlyphs" textLength="12" x="342.5" y="643.731">...</text><!--MD5=[4e5e1fd7835748d2130dd04f1359b45f]
class routes--><rect fill="#FEFECE" filter="url(#f1wqxulviv95a4)" height="99.2188" id="routes" style="stroke: #A80036; stroke-width: 1.5;" width="274" x="656" y="392"/><ellipse cx="768.25" cy="408" fill="#ADD1B2" rx="11" ry="11" style="stroke: #A80036; stroke-width: 1.0;"/><path d="M772.3594,414 L764.6406,414 L764.6406,401.6094 L772.3594,401.6094 L772.3594,403.7656 L767.0938,403.7656 L767.0938,406.4375 L771.8594,406.4375 L771.8594,408.5938 L767.0938,408.5938 L767.0938,411.8438 L772.3594,411.8438 L772.3594,414 Z "/><text fill="#000000" font-family="sans-serif" font-size="12" lengthAdjust="spacingAndGlyphs" textLength="41" x="788.75" y="412.1543">routes</text><line style="stroke: #A80036; stroke-width: 1.5;" x1="657" x2="929" y1="424" y2="424"/><text fill="#000000" font-family="sans-serif" font-size="11" lengthAdjust="spacingAndGlyphs" textLength="103" x="662" y="438.2104">id binary(16) «PK»</text><line style="stroke: #A80036; stroke-width: 1.0;" x1="657" x2="929" y1="444.8047" y2="444.8047"/><text fill="#000000" font-family="sans-serif" font-size="11" lengthAdjust="spacingAndGlyphs" textLength="139" x="662" y="459.0151">travel_time int "移動時間"</text><text fill="#000000" font-family="sans-serif" font-size="11" lengthAdjust="spacingAndGlyphs" textLength="246" x="662" y="471.8198">address_id binary(16) «FK» "出発地の住所ID"</text><text fill="#000000" font-family="sans-serif" font-size="11" lengthAdjust="spacingAndGlyphs" textLength="262" x="662" y="484.6245">destination_id binary(16) «FK» "目的地の住所ID"</text><path d="M649,585 L649,618.1328 A0,0 0 0 0 649,618.1328 L981,618.1328 A0,0 0 0 0 981,618.1328 L981,595 L971,585 L797,585 L793,491.25 L789,585 L649,585 A0,0 0 0 0 649,585 " fill="#FBFB77" filter="url(#f1wqxulviv95a4)" style="stroke: #A80036; stroke-width: 1.0;"/><path d="M971,585 L971,595 L981,595 L971,585 " fill="#FBFB77" style="stroke: #A80036; stroke-width: 1.0;"/><text fill="#000000" font-family="sans-serif" font-size="13" lengthAdjust="spacingAndGlyphs" textLength="311" x="655" y="602.0669">出発地と目的地は、addressテーブルに対応させる？</text><line style="stroke: #A80036; stroke-width: 1.0; stroke-dasharray: 1.0,2.0;" x1="650" x2="980" y1="605.1328" y2="605.1328"/><!--MD5=[5f57dc4600bb33255e6857fe60f92832]
class patients--><rect fill="#FEFECE" filter="url(#f1wqxulviv95a4)" height="48" id="patients" style="stroke: #A80036; stroke-width: 1.5;" width="84" x="1037" y="417.5"/><ellipse cx="1052" cy="433.5" fill="#ADD1B2" rx="11" ry="11" style="stroke: #A80036; stroke-width: 1.0;"/><path d="M1056.1094,439.5 L1048.3906,439.5 L1048.3906,427.1094 L1056.1094,427.1094 L1056.1094,429.2656 L1050.8438,429.2656 L1050.8438,431.9375 L1055.6094,431.9375 L1055.6094,434.0938 L1050.8438,434.0938 L1050.8438,437.3438 L1056.1094,437.3438 L1056.1094,439.5 Z "/><text fill="#000000" font-family="sans-serif" font-size="12" lengthAdjust="spacingAndGlyphs" textLength="52" x="1066" y="437.6543">patients</text><line style="stroke: #A80036; stroke-width: 1.5;" x1="1038" x2="1120" y1="449.5" y2="449.5"/><line style="stroke: #A80036; stroke-width: 1.5;" x1="1038" x2="1120" y1="457.5" y2="457.5"/><!--MD5=[8413f8248b2da7966d2de021109ec289]
class users--><rect fill="#FEFECE" filter="url(#f1wqxulviv95a4)" height="48" id="users" style="stroke: #A80036; stroke-width: 1.5;" width="67" x="608.5" y="59"/><ellipse cx="623.5" cy="75" fill="#ADD1B2" rx="11" ry="11" style="stroke: #A80036; stroke-width: 1.0;"/><path d="M627.6094,81 L619.8906,81 L619.8906,68.6094 L627.6094,68.6094 L627.6094,70.7656 L622.3438,70.7656 L622.3438,73.4375 L627.1094,73.4375 L627.1094,75.5938 L622.3438,75.5938 L622.3438,78.8438 L627.6094,78.8438 L627.6094,81 Z "/><text fill="#000000" font-family="sans-serif" font-size="12" lengthAdjust="spacingAndGlyphs" textLength="35" x="637.5" y="79.1543">users</text><line style="stroke: #A80036; stroke-width: 1.5;" x1="609.5" x2="674.5" y1="91" y2="91"/><line style="stroke: #A80036; stroke-width: 1.5;" x1="609.5" x2="674.5" y1="99" y2="99"/><!--MD5=[2c4c58885ec423a6c613157e1b3fb484]
link users to visit_infos--><path d="M642,115.19 C642,115.19 642,173.82 642,173.82 " fill="none" id="users-visit_infos" style="stroke: #A80036; stroke-width: 1.0;"/><line style="stroke: #A80036; stroke-width: 1.0;" x1="646" x2="638" y1="177.82" y2="177.82"/><line style="stroke: #A80036; stroke-width: 1.0;" x1="646" x2="638" y1="174.82" y2="174.82"/><line style="stroke: #A80036; stroke-width: 1.0;" x1="642" x2="642" y1="173.82" y2="181.82"/><line style="stroke: #A80036; stroke-width: 1.0;" x1="642" x2="636" y1="115.19" y2="107.19"/><line style="stroke: #A80036; stroke-width: 1.0;" x1="642" x2="648" y1="115.19" y2="107.19"/><line style="stroke: #A80036; stroke-width: 1.0;" x1="642" x2="642" y1="115.19" y2="107.19"/><ellipse cx="642" cy="121.19" fill="none" rx="4" ry="4" style="stroke: #A80036; stroke-width: 1.0;"/><!--MD5=[53b8d5c155bb77d592ab98df4467b58b]
link visit_infos to service_codes--><path d="M468.77,257 C468.77,257 216,257 216,257 C216,257 216,391.24 216,391.24 " fill="none" id="visit_infos-service_codes" style="stroke: #A80036; stroke-width: 1.0;"/><line style="stroke: #A80036; stroke-width: 1.0;" x1="220" x2="212" y1="394.24" y2="394.24"/><line style="stroke: #A80036; stroke-width: 1.0;" x1="220" x2="212" y1="391.24" y2="391.24"/><line style="stroke: #A80036; stroke-width: 1.0;" x1="216" x2="216" y1="390.24" y2="398.24"/><line style="stroke: #A80036; stroke-width: 1.0;" x1="471.77" x2="471.77" y1="253" y2="261"/><line style="stroke: #A80036; stroke-width: 1.0;" x1="468.77" x2="468.77" y1="253" y2="261"/><line style="stroke: #A80036; stroke-width: 1.0;" x1="467.77" x2="475.77" y1="257" y2="257"/><!--MD5=[1e54e2c799655c2a2b6ce00a54fef805]
link visit_infos to patients--><path d="M815.15,257 C815.15,257 1079,257 1079,257 C1079,257 1079,410.38 1079,410.38 " fill="none" id="visit_infos-patients" style="stroke: #A80036; stroke-width: 1.0;"/><line style="stroke: #A80036; stroke-width: 1.0;" x1="1083" x2="1075" y1="413.38" y2="413.38"/><line style="stroke: #A80036; stroke-width: 1.0;" x1="1083" x2="1075" y1="410.38" y2="410.38"/><line style="stroke: #A80036; stroke-width: 1.0;" x1="1079" x2="1079" y1="409.38" y2="417.38"/><line style="stroke: #A80036; stroke-width: 1.0;" x1="812.15" x2="812.15" y1="261" y2="253"/><line style="stroke: #A80036; stroke-width: 1.0;" x1="815.15" x2="815.15" y1="261" y2="253"/><line style="stroke: #A80036; stroke-width: 1.0;" x1="816.15" x2="808.15" y1="257" y2="257"/><!--MD5=[00c9d5881ccfb62228fb4fbc007c8088]
link visit_infos to routes--><path d="M732,339.04 C732,339.04 732,384.88 732,384.88 " fill="none" id="visit_infos-routes" style="stroke: #A80036; stroke-width: 1.0;"/><line style="stroke: #A80036; stroke-width: 1.0;" x1="736" x2="728" y1="387.88" y2="387.88"/><line style="stroke: #A80036; stroke-width: 1.0;" x1="736" x2="728" y1="384.88" y2="384.88"/><line style="stroke: #A80036; stroke-width: 1.0;" x1="732" x2="732" y1="383.88" y2="391.88"/><line style="stroke: #A80036; stroke-width: 1.0;" x1="728" x2="736" y1="336.04" y2="336.04"/><line style="stroke: #A80036; stroke-width: 1.0;" x1="728" x2="736" y1="339.04" y2="339.04"/><line style="stroke: #A80036; stroke-width: 1.0;" x1="732" x2="732" y1="340.04" y2="332.04"/><!--MD5=[564161c1a93edaa5f7e96e5d8dfb7e9d]
link visit_infos to visit_categories--><path d="M527,340.04 C527,340.04 527,396.44 527,396.44 " fill="none" id="visit_infos-visit_categories" style="stroke: #A80036; stroke-width: 1.0;"/><line style="stroke: #A80036; stroke-width: 1.0;" x1="527" x2="533" y1="396.44" y2="404.44"/><line style="stroke: #A80036; stroke-width: 1.0;" x1="527" x2="521" y1="396.44" y2="404.44"/><line style="stroke: #A80036; stroke-width: 1.0;" x1="527" x2="527" y1="396.44" y2="404.44"/><ellipse cx="527" cy="390.44" fill="none" rx="4" ry="4" style="stroke: #A80036; stroke-width: 1.0;"/><line style="stroke: #A80036; stroke-width: 1.0;" x1="527" x2="521" y1="340.04" y2="332.04"/><line style="stroke: #A80036; stroke-width: 1.0;" x1="527" x2="533" y1="340.04" y2="332.04"/><line style="stroke: #A80036; stroke-width: 1.0;" x1="527" x2="527" y1="340.04" y2="332.04"/><ellipse cx="527" cy="346.04" fill="none" rx="4" ry="4" style="stroke: #A80036; stroke-width: 1.0;"/><!--MD5=[8ffa0c3aeb02a30f3388ea3c818e6075]
@startuml entity-relationship-diagram
skinparam linetype ortho

package 訪問情報 {
  entity visit_infos {
    visit_info_id binary(16) <<PK>>
    - -
    patient_id binary(16) <<FK>> "患者ID"
    assigned_user_id binary(16) <<FK>> "担当者ID（UserID）"
    companion_user_id binary(16) <<FK>> "同行者ID（UserID）"
    schedule_category_id binary(16) <<FK>> "訪問カテゴリ"
    route_id binary(16) <<FK>> "ルートID"
    service_code_id binary(16) <<FK>> "サービスコードID"
    service_time int "提供時間"
  }

  entity service_codes {
    id binary(16) <<PK>>
    - -
    code string "サービスコード"
    service_time int "提供時間"
  }
  note bottom of service_codes
    コードIDに応じてサービスコードを設定
    1. 訪看I2
    2. 訪看I3
    ...
  end note

  entity visit_categories {
    id binary(16) <<PK>>
    - -
    name string "予定のカテゴリ"
  }

  note bottom of visit_categories
  緊急訪問件数・入院件数をカウントする
  複数選択するかどうかで、多:多の関係になる
    1:夜勤
    2:緊急
    3:入院
    ...
  end note

  entity routes {
    id binary(16) <<PK>>
    - -
    travel_time int "移動時間"
    address_id binary(16) <<FK>> "出発地の住所ID"
    destination_id binary(16) <<FK>> "目的地の住所ID"
  }

  note bottom of routes
    出発地と目的地は、addressテーブルに対応させる？
    ...
  end note
}

package 患者情報 {
  entity patients {}
}

package 職員情報 {
  entity users {}
}

users }o- -|| visit_infos
visit_infos ||- -|| service_codes
visit_infos ||- -|| patients
visit_infos ||- -|| routes
visit_infos }o- -o{ visit_categories

@enduml

PlantUML version 1.2020.02(Sun Mar 01 10:22:07 UTC 2020)
(GPL source distribution)
Java Runtime: OpenJDK Runtime Environment
JVM: OpenJDK 64-Bit Server VM
Java Version: 11.0.16+8
Operating System: Linux
Default Encoding: UTF-8
Language: en
Country: null
--></g></svg>