<svg xmlns="http://www.w3.org/2000/svg" xmlns:xlink="http://www.w3.org/1999/xlink" contentStyleType="text/css" height="576px" preserveAspectRatio="none" style="width:1133px;height:576px;background:#FFFFFF;" version="1.1" viewBox="0 0 1133 576" width="1133px" zoomAndPan="magnify"><defs/><g><!--cluster ????--><g id="cluster_&#35370;&#21839;&#24773;&#22577;"><path d="M8.5,6 L65.4998,6 A3.75,3.75 0 0 1 67.9998,8.5 L74.9998,28.2969 L979.5,28.2969 A2.5,2.5 0 0 1 982,30.7969 L982,566.5 A2.5,2.5 0 0 1 979.5,569 L8.5,569 A2.5,2.5 0 0 1 6,566.5 L6,8.5 A2.5,2.5 0 0 1 8.5,6 " fill="none" style="stroke:#000000;stroke-width:1.5;"/><line style="stroke:#000000;stroke-width:1.5;" x1="6" x2="74.9998" y1="28.2969" y2="28.2969"/><text fill="#000000" font-family="sans-serif" font-size="14" font-weight="bold" lengthAdjust="spacing" textLength="55.9998" x="10" y="20.9951">&#35370;&#21839;&#24773;&#22577;</text></g><!--cluster ????--><g id="cluster_&#24739;&#32773;&#24773;&#22577;"><path d="M1008.5,276.5 L1065.4998,276.5 A3.75,3.75 0 0 1 1067.9998,279 L1074.9998,298.7969 L1123.5,298.7969 A2.5,2.5 0 0 1 1126,301.2969 L1126,373 A2.5,2.5 0 0 1 1123.5,375.5 L1008.5,375.5 A2.5,2.5 0 0 1 1006,373 L1006,279 A2.5,2.5 0 0 1 1008.5,276.5 " fill="none" style="stroke:#000000;stroke-width:1.5;"/><line style="stroke:#000000;stroke-width:1.5;" x1="1006" x2="1074.9998" y1="298.7969" y2="298.7969"/><text fill="#000000" font-family="sans-serif" font-size="14" font-weight="bold" lengthAdjust="spacing" textLength="55.9998" x="1010" y="291.4951">&#24739;&#32773;&#24773;&#22577;</text></g><!--class visit_infos--><g id="elem_visit_infos"><rect codeLine="4" fill="#F1F1F1" height="178.375" id="visit_infos" rx="2.5" ry="2.5" style="stroke:#181818;stroke-width:0.5;" width="383.4714" x="429.5" y="41"/><ellipse cx="582.2865" cy="57" fill="#ADD1B2" rx="11" ry="11" style="stroke:#181818;stroke-width:1;"/><path d="M586.3958,63 L578.6771,63 L578.6771,50.6094 L586.3958,50.6094 L586.3958,52.7656 L581.1302,52.7656 L581.1302,55.4375 L585.8958,55.4375 L585.8958,57.5938 L581.1302,57.5938 L581.1302,60.8438 L586.3958,60.8438 L586.3958,63 Z " fill="#000000"/><text fill="#000000" font-family="sans-serif" font-size="14" lengthAdjust="spacing" textLength="69.3984" x="602.7865" y="61.8467">visit_infos</text><line style="stroke:#181818;stroke-width:0.5;" x1="430.5" x2="811.9714" y1="73" y2="73"/><ellipse cx="440.5" cy="86.6484" fill="#000000" rx="3" ry="3" style="stroke:#000000;stroke-width:1;"/><text fill="#000000" font-family="sans-serif" font-size="14" lengthAdjust="spacing" textLength="169.8047" x="449.5" y="89.9951">binary visit_info_id &#171;PK&#187;</text><line style="stroke:#181818;stroke-width:1;" x1="430.5" x2="811.9714" y1="97.2969" y2="97.2969"/><text fill="#000000" font-family="sans-serif" font-size="14" lengthAdjust="spacing" textLength="217.369" x="435.5" y="114.292">binary patient_id &#171;FK&#187; "&#24739;&#32773;ID"</text><text fill="#000000" font-family="sans-serif" font-size="14" lengthAdjust="spacing" textLength="356.2204" x="435.5" y="130.5889">binary assigned_user_id &#171;FK&#187; "&#25285;&#24403;&#32773;ID&#65288;UserID&#65289;"</text><text fill="#000000" font-family="sans-serif" font-size="14" lengthAdjust="spacing" textLength="371.4714" x="435.5" y="146.8857">binary companion_user_id &#171;FK&#187; "&#21516;&#34892;&#32773;ID&#65288;UserID&#65289;"</text><text fill="#000000" font-family="sans-serif" font-size="14" lengthAdjust="spacing" textLength="340.2516" x="435.5" y="163.1826">binary schedule_category_id &#171;FK&#187; "&#35370;&#21839;&#12459;&#12486;&#12468;&#12522;"</text><text fill="#000000" font-family="sans-serif" font-size="14" lengthAdjust="spacing" textLength="218.8455" x="435.5" y="179.4795">binary route_id &#171;FK&#187; "&#12523;&#12540;&#12488;ID"</text><text fill="#000000" font-family="sans-serif" font-size="14" lengthAdjust="spacing" textLength="328.4595" x="435.5" y="195.7764">binary service_code_id &#171;FK&#187; "&#12469;&#12540;&#12499;&#12473;&#12467;&#12540;&#12489;ID"</text><text fill="#000000" font-family="sans-serif" font-size="14" lengthAdjust="spacing" textLength="184.8093" x="435.5" y="212.0732">int service_time "&#25552;&#20379;&#26178;&#38291;"</text></g><!--class service_codes--><g id="elem_service_codes"><rect codeLine="16" fill="#F1F1F1" height="96.8906" id="service_codes" rx="2.5" ry="2.5" style="stroke:#181818;stroke-width:0.5;" width="205.73" x="78" y="287"/><ellipse cx="127.5125" cy="303" fill="#ADD1B2" rx="11" ry="11" style="stroke:#181818;stroke-width:1;"/><path d="M131.6219,309 L123.9031,309 L123.9031,296.6094 L131.6219,296.6094 L131.6219,298.7656 L126.3562,298.7656 L126.3562,301.4375 L131.1219,301.4375 L131.1219,303.5938 L126.3562,303.5938 L126.3562,306.8438 L131.6219,306.8438 L131.6219,309 Z " fill="#000000"/><text fill="#000000" font-family="sans-serif" font-size="14" lengthAdjust="spacing" textLength="98.2051" x="148.0125" y="307.8467">service_codes</text><line style="stroke:#181818;stroke-width:0.5;" x1="79" x2="282.73" y1="319" y2="319"/><ellipse cx="89" cy="332.6484" fill="#000000" rx="3" ry="3" style="stroke:#000000;stroke-width:1;"/><text fill="#000000" font-family="sans-serif" font-size="14" lengthAdjust="spacing" textLength="100.7002" x="98" y="335.9951">binary id &#171;PK&#187;</text><line style="stroke:#181818;stroke-width:1;" x1="79" x2="282.73" y1="343.2969" y2="343.2969"/><text fill="#000000" font-family="sans-serif" font-size="14" lengthAdjust="spacing" textLength="193.73" x="84" y="360.292">string code "&#12469;&#12540;&#12499;&#12473;&#12467;&#12540;&#12489;"</text><text fill="#000000" font-family="sans-serif" font-size="14" lengthAdjust="spacing" textLength="184.8093" x="84" y="376.5889">int service_time "&#25552;&#20379;&#26178;&#38291;"</text></g><g id="elem_GMN5"><path d="M22,467 L22,537.5313 A0,0 0 0 0 22,537.5313 L277.8445,537.5313 A0,0 0 0 0 277.8445,537.5313 L277.8445,477 L267.8445,467 L182,467 L178,384.25 L174,467 L22,467 A0,0 0 0 0 22,467 " fill="#FEFFDD" style="stroke:#181818;stroke-width:0.5;"/><path d="M267.8445,467 L267.8445,477 L277.8445,477 L267.8445,467 " fill="#FEFFDD" style="stroke:#181818;stroke-width:0.5;"/><text fill="#000000" font-family="sans-serif" font-size="13" lengthAdjust="spacing" textLength="234.8445" x="28" y="484.0669">&#12467;&#12540;&#12489;ID&#12395;&#24540;&#12376;&#12390;&#12469;&#12540;&#12499;&#12473;&#12467;&#12540;&#12489;&#12434;&#35373;&#23450;</text><text fill="#000000" font-family="sans-serif" font-size="13" lengthAdjust="spacing" textLength="54.6407" x="28" y="499.1997">1. &#35370;&#30475;I2</text><text fill="#000000" font-family="sans-serif" font-size="13" lengthAdjust="spacing" textLength="54.6407" x="28" y="514.3325">2. &#35370;&#30475;I3</text><text fill="#000000" font-family="sans-serif" font-size="13" lengthAdjust="spacing" textLength="12.397" x="28" y="529.4653">...</text></g><!--class visit_categories--><g id="elem_visit_categories"><rect codeLine="29" fill="#F1F1F1" height="80.5938" id="visit_categories" rx="2.5" ry="2.5" style="stroke:#181818;stroke-width:0.5;" width="211.6705" x="361" y="295"/><ellipse cx="407.9695" cy="311" fill="#ADD1B2" rx="11" ry="11" style="stroke:#181818;stroke-width:1;"/><path d="M412.0789,317 L404.3601,317 L404.3601,304.6094 L412.0789,304.6094 L412.0789,306.7656 L406.8133,306.7656 L406.8133,309.4375 L411.5789,309.4375 L411.5789,311.5938 L406.8133,311.5938 L406.8133,314.8438 L412.0789,314.8438 L412.0789,317 Z " fill="#000000"/><text fill="#000000" font-family="sans-serif" font-size="14" lengthAdjust="spacing" textLength="109.2314" x="428.4695" y="315.8467">visit_categories</text><line style="stroke:#181818;stroke-width:0.5;" x1="362" x2="571.6705" y1="327" y2="327"/><ellipse cx="372" cy="340.6484" fill="#000000" rx="3" ry="3" style="stroke:#000000;stroke-width:1;"/><text fill="#000000" font-family="sans-serif" font-size="14" lengthAdjust="spacing" textLength="100.7002" x="381" y="343.9951">binary id &#171;PK&#187;</text><line style="stroke:#181818;stroke-width:1;" x1="362" x2="571.6705" y1="351.2969" y2="351.2969"/><text fill="#000000" font-family="sans-serif" font-size="14" lengthAdjust="spacing" textLength="199.6705" x="367" y="368.292">string name "&#20104;&#23450;&#12398;&#12459;&#12486;&#12468;&#12522;"</text></g><g id="elem_GMN9"><path d="M313.5,452 L313.5,552.7969 A0,0 0 0 0 313.5,552.7969 L598.8802,552.7969 A0,0 0 0 0 598.8802,552.7969 L598.8802,462 L588.8802,452 L471,452 L467,376.35 L463,452 L313.5,452 A0,0 0 0 0 313.5,452 " fill="#FEFFDD" style="stroke:#181818;stroke-width:0.5;"/><path d="M588.8802,452 L588.8802,462 L598.8802,462 L588.8802,452 " fill="#FEFFDD" style="stroke:#181818;stroke-width:0.5;"/><text fill="#000000" font-family="sans-serif" font-size="13" lengthAdjust="spacing" textLength="234.0003" x="319.5" y="469.0669">&#32202;&#24613;&#35370;&#21839;&#20214;&#25968;&#12539;&#20837;&#38498;&#20214;&#25968;&#12434;&#12459;&#12454;&#12531;&#12488;&#12377;&#12427;</text><text fill="#000000" font-family="sans-serif" font-size="13" lengthAdjust="spacing" textLength="264.3802" x="319.5" y="484.1997">&#35079;&#25968;&#36984;&#25246;&#12377;&#12427;&#12363;&#12393;&#12358;&#12363;&#12391;&#12289;&#22810;:&#22810;&#12398;&#38306;&#20418;&#12395;&#12394;&#12427;</text><text fill="#000000" font-family="sans-serif" font-size="13" lengthAdjust="spacing" textLength="38.6509" x="327.7646" y="499.3325">1:&#22812;&#21220;</text><text fill="#000000" font-family="sans-serif" font-size="13" lengthAdjust="spacing" textLength="38.6509" x="327.7646" y="514.4653">2:&#32202;&#24613;</text><text fill="#000000" font-family="sans-serif" font-size="13" lengthAdjust="spacing" textLength="38.6509" x="327.7646" y="529.5981">3:&#20837;&#38498;</text><text fill="#000000" font-family="sans-serif" font-size="13" lengthAdjust="spacing" textLength="12.397" x="327.7646" y="544.731">...</text></g><!--class routes--><g id="elem_routes"><rect codeLine="44" fill="#F1F1F1" height="113.1875" id="routes" rx="2.5" ry="2.5" style="stroke:#181818;stroke-width:0.5;" width="313.9908" x="631" y="279"/><ellipse cx="761.45" cy="295" fill="#ADD1B2" rx="11" ry="11" style="stroke:#181818;stroke-width:1;"/><path d="M765.5594,301 L757.8406,301 L757.8406,288.6094 L765.5594,288.6094 L765.5594,290.7656 L760.2938,290.7656 L760.2938,293.4375 L765.0594,293.4375 L765.0594,295.5938 L760.2938,295.5938 L760.2938,298.8438 L765.5594,298.8438 L765.5594,301 Z " fill="#000000"/><text fill="#000000" font-family="sans-serif" font-size="14" lengthAdjust="spacing" textLength="44.5908" x="781.95" y="299.8467">routes</text><line style="stroke:#181818;stroke-width:0.5;" x1="632" x2="943.9908" y1="311" y2="311"/><ellipse cx="642" cy="324.6484" fill="#000000" rx="3" ry="3" style="stroke:#000000;stroke-width:1;"/><text fill="#000000" font-family="sans-serif" font-size="14" lengthAdjust="spacing" textLength="100.7002" x="651" y="327.9951">binary id &#171;PK&#187;</text><line style="stroke:#181818;stroke-width:1;" x1="632" x2="943.9908" y1="335.2969" y2="335.2969"/><text fill="#000000" font-family="sans-serif" font-size="14" lengthAdjust="spacing" textLength="175.2732" x="637" y="352.292">int travel_time "&#31227;&#21205;&#26178;&#38291;"</text><text fill="#000000" font-family="sans-serif" font-size="14" lengthAdjust="spacing" textLength="278.858" x="637" y="368.5889">binary address_id &#171;FK&#187; "&#20986;&#30330;&#22320;&#12398;&#20303;&#25152;ID"</text><text fill="#000000" font-family="sans-serif" font-size="14" lengthAdjust="spacing" textLength="301.9908" x="637" y="384.8857">binary destination_id &#171;FK&#187; "&#30446;&#30340;&#22320;&#12398;&#20303;&#25152;ID"</text></g><g id="elem_GMN13"><path d="M634,482.5 L634,522.7656 A0,0 0 0 0 634,522.7656 L966.3591,522.7656 A0,0 0 0 0 966.3591,522.7656 L966.3591,492.5 L956.3591,482.5 L793.5,482.5 L789.5,392.04 L785.5,482.5 L634,482.5 A0,0 0 0 0 634,482.5 " fill="#FEFFDD" style="stroke:#181818;stroke-width:0.5;"/><path d="M956.3591,482.5 L956.3591,492.5 L966.3591,492.5 L956.3591,482.5 " fill="#FEFFDD" style="stroke:#181818;stroke-width:0.5;"/><text fill="#000000" font-family="sans-serif" font-size="13" lengthAdjust="spacing" textLength="311.3591" x="640" y="499.5669">&#20986;&#30330;&#22320;&#12392;&#30446;&#30340;&#22320;&#12399;&#12289;address&#12486;&#12540;&#12502;&#12523;&#12395;&#23550;&#24540;&#12373;&#12379;&#12427;&#65311;</text><text fill="#000000" font-family="sans-serif" font-size="13" lengthAdjust="spacing" textLength="12.397" x="640" y="514.6997">...</text></g><!--class patients--><g id="elem_patients"><rect codeLine="59" fill="#F1F1F1" height="48" id="patients" rx="2.5" ry="2.5" style="stroke:#181818;stroke-width:0.5;" width="89.1143" x="1021.5" y="311.5"/><ellipse cx="1036.5" cy="327.5" fill="#ADD1B2" rx="11" ry="11" style="stroke:#181818;stroke-width:1;"/><path d="M1040.6094,333.5 L1032.8906,333.5 L1032.8906,321.1094 L1040.6094,321.1094 L1040.6094,323.2656 L1035.3438,323.2656 L1035.3438,325.9375 L1040.1094,325.9375 L1040.1094,328.0938 L1035.3438,328.0938 L1035.3438,331.3438 L1040.6094,331.3438 L1040.6094,333.5 Z " fill="#000000"/><text fill="#000000" font-family="sans-serif" font-size="14" lengthAdjust="spacing" textLength="57.1143" x="1050.5" y="332.3467">patients</text><line style="stroke:#181818;stroke-width:0.5;" x1="1022.5" x2="1109.6143" y1="343.5" y2="343.5"/><line style="stroke:#181818;stroke-width:0.5;" x1="1022.5" x2="1109.6143" y1="351.5" y2="351.5"/></g><!--link visit_infos to service_codes--><g id="link_visit_infos_service_codes"><path codeLine="62" d="M477.33,227.45 C477.33,264.5 477.33,291 477.33,291 C477.33,291 377.75,291 292.23,291 " fill="none" id="visit_infos-service_codes" style="stroke:#181818;stroke-width:1;"/><line style="stroke:#181818;stroke-width:1;" x1="473.33" x2="481.33" y1="223.45" y2="223.45"/><line style="stroke:#181818;stroke-width:1;" x1="473.33" x2="481.33" y1="226.45" y2="226.45"/><line style="stroke:#181818;stroke-width:1;" x1="477.33" x2="477.33" y1="227.45" y2="219.45"/><line style="stroke:#181818;stroke-width:1;" x1="288.23" x2="288.23" y1="295" y2="287"/><line style="stroke:#181818;stroke-width:1;" x1="291.23" x2="291.23" y1="295" y2="287"/><line style="stroke:#181818;stroke-width:1;" x1="292.23" x2="284.23" y1="291" y2="291"/></g><!--link visit_infos to patients--><g id="link_visit_infos_patients"><path codeLine="63" d="M820.63,130 C941.15,130 1066,130 1066,130 C1066,130 1066,248.68 1066,303.12 " fill="none" id="visit_infos-patients" style="stroke:#181818;stroke-width:1;"/><line style="stroke:#181818;stroke-width:1;" x1="816.63" x2="816.63" y1="134" y2="126"/><line style="stroke:#181818;stroke-width:1;" x1="819.63" x2="819.63" y1="134" y2="126"/><line style="stroke:#181818;stroke-width:1;" x1="820.63" x2="812.63" y1="130" y2="130"/><line style="stroke:#181818;stroke-width:1;" x1="1070" x2="1062" y1="307.12" y2="307.12"/><line style="stroke:#181818;stroke-width:1;" x1="1070" x2="1062" y1="304.12" y2="304.12"/><line style="stroke:#181818;stroke-width:1;" x1="1066" x2="1066" y1="303.12" y2="311.12"/></g><!--link visit_infos to routes--><g id="link_visit_infos_routes"><path codeLine="64" d="M721.75,227.24 C721.75,247.49 721.75,252.46 721.75,270.92 " fill="none" id="visit_infos-routes" style="stroke:#181818;stroke-width:1;"/><line style="stroke:#181818;stroke-width:1;" x1="717.75" x2="725.75" y1="223.24" y2="223.24"/><line style="stroke:#181818;stroke-width:1;" x1="717.75" x2="725.75" y1="226.24" y2="226.24"/><line style="stroke:#181818;stroke-width:1;" x1="721.75" x2="721.75" y1="227.24" y2="219.24"/><line style="stroke:#181818;stroke-width:1;" x1="725.75" x2="717.75" y1="274.92" y2="274.92"/><line style="stroke:#181818;stroke-width:1;" x1="725.75" x2="717.75" y1="271.92" y2="271.92"/><line style="stroke:#181818;stroke-width:1;" x1="721.75" x2="721.75" y1="270.92" y2="278.92"/></g><!--link visit_infos to visit_categories--><g id="link_visit_infos_visit_categories"><path codeLine="65" d="M525.17,227.24 C525.17,253.56 525.17,255.08 525.17,276.74 " fill="none" id="visit_infos-visit_categories" style="stroke:#181818;stroke-width:1;"/><line style="stroke:#181818;stroke-width:1;" x1="525.17" x2="519.17" y1="227.24" y2="219.24"/><line style="stroke:#181818;stroke-width:1;" x1="525.17" x2="531.17" y1="227.24" y2="219.24"/><line style="stroke:#181818;stroke-width:1;" x1="525.17" x2="525.17" y1="227.24" y2="219.24"/><line style="stroke:#181818;stroke-width:1;" x1="521.17" x2="529.17" y1="229.24" y2="229.24"/><line style="stroke:#181818;stroke-width:1;" x1="525.17" x2="531.17" y1="286.74" y2="294.74"/><line style="stroke:#181818;stroke-width:1;" x1="525.17" x2="519.17" y1="286.74" y2="294.74"/><line style="stroke:#181818;stroke-width:1;" x1="525.17" x2="525.17" y1="286.74" y2="294.74"/><ellipse cx="525.17" cy="280.74" fill="none" rx="4" ry="4" style="stroke:#181818;stroke-width:1;"/></g><!--SRC=[bLHRJnf157xdLqnyR099zSqOdvecnfU-z9cix8WJPOVi3YH4IDZTeY0c6WccNDABzK8nHPlUlVwOOHTuyY_qxEmgoqADJI3CSBxlp3dVV6UqLQ8a9LLAe3MYO9P9OaHLja93eQGKMvNY6FLRRQkwOvi5wyDNj1v222kCi0nA4usmA56MgIR-HkWPMYAAfFf3KIAZkRbNY_Fp0X4EYnyFbfGOWMGkvYLWq9HjVEhd2milflmuITD8NC5oDALXTGHTBbZN5K6ukog-XgYpA8sGOpIHb1H2bJ6sjRlT_xZzE5kBhM0vjOQZCOdXE5Kp_WIkCjmuvUO6Dxvpipt2LMcAOJ-Ucu2yucOnq1-Sd2OnE8FAetZZXy1NkF676z_4kdJF9Gfx83AImA36pcxtfc7NZC5-nS7aGiFByXynTbqJxqXZAb7Yo27yevAdru6GGXb6IvGnca1qURGSaSRN7zTFhTicrzzo_NZYmTpOwxU-M9swO3wFE1RjDSiBqs8__R2V4Vj8929qa4KHeQ21lOib_oUB8ZcTTY-AK0NNEq4F2Ea3FGUF0qJlrvQTFt9jrBtyQLVFkNbf5Ou6jGDlQ-mvgOrZRaBlHQxNk546Olzm4w83_RUzzSxza-lm-Spr3R4uuNdTEgpFmXUg6-mVT6yDa9NhRPSFga6iQPKFNSbctKh4PcRMhU1nyOIvdoQPun2cIccyvXcaTt9fbQj3Wmm7NPPLh6aZGxfvqQjTMCrpwADxlMENye7X0GCnM35dmdsyNgFJgxyPvqsw6RSNaTHtNCkNuWpqz8fpxjbnuRuppU3KinjXrYhN6w3jtTNxIRhbXi-f-yADFwVUOmYIvXou_tNDPiFXR3OmD1C0zoacnRmU_P4SHEZwk2__0W00]--></g></svg>