<svg xmlns="http://www.w3.org/2000/svg" xmlns:xlink="http://www.w3.org/1999/xlink" contentStyleType="text/css" height="663px" preserveAspectRatio="none" style="width:1386px;height:663px;background:#FFFFFF;" version="1.1" viewBox="0 0 1386 663" width="1386px" zoomAndPan="magnify"><defs/><g><line style="stroke:#181818;stroke-width:0.5;stroke-dasharray:5.0,5.0;" x1="36" x2="36" y1="81.4883" y2="582.457"/><line style="stroke:#181818;stroke-width:0.5;stroke-dasharray:5.0,5.0;" x1="114" x2="114" y1="81.4883" y2="582.457"/><line style="stroke:#181818;stroke-width:0.5;stroke-dasharray:5.0,5.0;" x1="408.313" x2="408.313" y1="81.4883" y2="582.457"/><line style="stroke:#181818;stroke-width:0.5;stroke-dasharray:5.0,5.0;" x1="561.5767" x2="561.5767" y1="81.4883" y2="582.457"/><line style="stroke:#181818;stroke-width:0.5;stroke-dasharray:5.0,5.0;" x1="689.5938" x2="689.5938" y1="81.4883" y2="582.457"/><line style="stroke:#181818;stroke-width:0.5;stroke-dasharray:5.0,5.0;" x1="791.9624" x2="791.9624" y1="81.4883" y2="582.457"/><line style="stroke:#181818;stroke-width:0.5;stroke-dasharray:5.0,5.0;" x1="858.6099" x2="858.6099" y1="81.4883" y2="582.457"/><line style="stroke:#181818;stroke-width:0.5;stroke-dasharray:5.0,5.0;" x1="1028.5591" x2="1028.5591" y1="81.4883" y2="582.457"/><text fill="#000000" font-family="sans-serif" font-size="14" lengthAdjust="spacing" textLength="56" x="5" y="78.5352">&#12518;&#12540;&#12470;&#12540;</text><ellipse cx="36" cy="13.5" fill="#E2E2F0" rx="8" ry="8" style="stroke:#181818;stroke-width:0.5;"/><path d="M36,21.5 L36,48.5 M23,29.5 L49,29.5 M36,48.5 L23,63.5 M36,48.5 L49,63.5 " fill="none" style="stroke:#181818;stroke-width:0.5;"/><text fill="#000000" font-family="sans-serif" font-size="14" lengthAdjust="spacing" textLength="56" x="5" y="594.9922">&#12518;&#12540;&#12470;&#12540;</text><ellipse cx="36" cy="606.4453" fill="#E2E2F0" rx="8" ry="8" style="stroke:#181818;stroke-width:0.5;"/><path d="M36,614.4453 L36,641.4453 M23,622.4453 L49,622.4453 M36,641.4453 L23,656.4453 M36,641.4453 L49,656.4453 " fill="none" style="stroke:#181818;stroke-width:0.5;"/><rect fill="#E2E2F0" height="30.4883" rx="2.5" ry="2.5" style="stroke:#181818;stroke-width:0.5;" width="75.0586" x="77" y="50"/><text fill="#000000" font-family="sans-serif" font-size="14" lengthAdjust="spacing" textLength="61.0586" x="84" y="70.5352">Frontend</text><rect fill="#E2E2F0" height="30.4883" rx="2.5" ry="2.5" style="stroke:#181818;stroke-width:0.5;" width="75.0586" x="77" y="581.457"/><text fill="#000000" font-family="sans-serif" font-size="14" lengthAdjust="spacing" textLength="61.0586" x="84" y="601.9922">Frontend</text><rect fill="#E2E2F0" height="30.4883" rx="2.5" ry="2.5" style="stroke:#181818;stroke-width:0.5;" width="92.1484" x="362.313" y="50"/><text fill="#000000" font-family="sans-serif" font-size="14" lengthAdjust="spacing" textLength="78.1484" x="369.313" y="70.5352">APIGateway</text><rect fill="#E2E2F0" height="30.4883" rx="2.5" ry="2.5" style="stroke:#181818;stroke-width:0.5;" width="92.1484" x="362.313" y="581.457"/><text fill="#000000" font-family="sans-serif" font-size="14" lengthAdjust="spacing" textLength="78.1484" x="369.313" y="601.9922">APIGateway</text><rect fill="#E2E2F0" height="30.4883" rx="2.5" ry="2.5" style="stroke:#181818;stroke-width:0.5;" width="67.6211" x="528.5767" y="50"/><text fill="#000000" font-family="sans-serif" font-size="14" lengthAdjust="spacing" textLength="53.6211" x="535.5767" y="70.5352">Lambda</text><rect fill="#E2E2F0" height="30.4883" rx="2.5" ry="2.5" style="stroke:#181818;stroke-width:0.5;" width="67.6211" x="528.5767" y="581.457"/><text fill="#000000" font-family="sans-serif" font-size="14" lengthAdjust="spacing" textLength="53.6211" x="535.5767" y="601.9922">Lambda</text><rect fill="#E2E2F0" height="30.4883" rx="2.5" ry="2.5" style="stroke:#181818;stroke-width:0.5;" width="67.5869" x="656.5938" y="50"/><text fill="#000000" font-family="sans-serif" font-size="14" lengthAdjust="spacing" textLength="53.5869" x="663.5938" y="70.5352">Cognito</text><rect fill="#E2E2F0" height="30.4883" rx="2.5" ry="2.5" style="stroke:#181818;stroke-width:0.5;" width="67.5869" x="656.5938" y="581.457"/><text fill="#000000" font-family="sans-serif" font-size="14" lengthAdjust="spacing" textLength="53.5869" x="663.5938" y="601.9922">Cognito</text><text fill="#000000" font-family="sans-serif" font-size="14" lengthAdjust="spacing" textLength="36.6475" x="770.9624" y="78.5352">Redis</text><path d="M774.2861,29 C774.2861,19 792.2861,19 792.2861,19 C792.2861,19 810.2861,19 810.2861,29 L810.2861,55 C810.2861,65 792.2861,65 792.2861,65 C792.2861,65 774.2861,65 774.2861,55 L774.2861,29 " fill="#E2E2F0" style="stroke:#181818;stroke-width:1.5;"/><path d="M774.2861,29 C774.2861,39 792.2861,39 792.2861,39 C792.2861,39 810.2861,39 810.2861,29 " fill="none" style="stroke:#181818;stroke-width:1.5;"/><text fill="#000000" font-family="sans-serif" font-size="14" lengthAdjust="spacing" textLength="36.6475" x="770.9624" y="594.9922">Redis</text><path d="M774.2861,607.9453 C774.2861,597.9453 792.2861,597.9453 792.2861,597.9453 C792.2861,597.9453 810.2861,597.9453 810.2861,607.9453 L810.2861,633.9453 C810.2861,643.9453 792.2861,643.9453 792.2861,643.9453 C792.2861,643.9453 774.2861,643.9453 774.2861,633.9453 L774.2861,607.9453 " fill="#E2E2F0" style="stroke:#181818;stroke-width:1.5;"/><path d="M774.2861,607.9453 C774.2861,617.9453 792.2861,617.9453 792.2861,617.9453 C792.2861,617.9453 810.2861,617.9453 810.2861,607.9453 " fill="none" style="stroke:#181818;stroke-width:1.5;"/><rect fill="#E2E2F0" height="30.4883" rx="2.5" ry="2.5" style="stroke:#181818;stroke-width:0.5;" width="70.4375" x="823.6099" y="50"/><text fill="#000000" font-family="sans-serif" font-size="14" lengthAdjust="spacing" textLength="56.4375" x="830.6099" y="70.5352">Backend</text><rect fill="#E2E2F0" height="30.4883" rx="2.5" ry="2.5" style="stroke:#181818;stroke-width:0.5;" width="70.4375" x="823.6099" y="581.457"/><text fill="#000000" font-family="sans-serif" font-size="14" lengthAdjust="spacing" textLength="56.4375" x="830.6099" y="601.9922">Backend</text><rect fill="#E2E2F0" height="30.4883" rx="2.5" ry="2.5" style="stroke:#181818;stroke-width:0.5;" width="32.5391" x="1012.5591" y="50"/><text fill="#000000" font-family="sans-serif" font-size="14" lengthAdjust="spacing" textLength="18.5391" x="1019.5591" y="70.5352">DB</text><rect fill="#E2E2F0" height="30.4883" rx="2.5" ry="2.5" style="stroke:#181818;stroke-width:0.5;" width="32.5391" x="1012.5591" y="581.457"/><text fill="#000000" font-family="sans-serif" font-size="14" lengthAdjust="spacing" textLength="18.5391" x="1019.5591" y="601.9922">DB</text><polygon fill="#181818" points="102.5293,108.7988,112.5293,112.7988,102.5293,116.7988,106.5293,112.7988" style="stroke:#181818;stroke-width:1.0;"/><line style="stroke:#181818;stroke-width:1.0;stroke-dasharray:2.0,2.0;" x1="36" x2="108.5293" y1="112.7988" y2="112.7988"/><text fill="#000000" font-family="sans-serif" font-size="13" lengthAdjust="spacing" textLength="40.3013" x="43" y="108.0566">Action</text><polygon fill="#181818" points="396.3872,138.1094,406.3872,142.1094,396.3872,146.1094,400.3872,142.1094" style="stroke:#181818;stroke-width:1.0;"/><line style="stroke:#181818;stroke-width:1.0;stroke-dasharray:2.0,2.0;" x1="114.5293" x2="402.3872" y1="142.1094" y2="142.1094"/><text fill="#000000" font-family="sans-serif" font-size="13" lengthAdjust="spacing" textLength="269.8579" x="121.5293" y="137.3672">Get: /users -header: {sessionId: SessionID}</text><polygon fill="#181818" points="550.3872,167.4199,560.3872,171.4199,550.3872,175.4199,554.3872,171.4199" style="stroke:#181818;stroke-width:1.0;"/><line style="stroke:#181818;stroke-width:1.0;stroke-dasharray:2.0,2.0;" x1="408.3872" x2="556.3872" y1="171.4199" y2="171.4199"/><text fill="#000000" font-family="sans-serif" font-size="13" lengthAdjust="spacing" textLength="120.9482" x="415.3872" y="166.6777">Lambda Authorizer</text><polygon fill="#181818" points="780.2861,196.7305,790.2861,200.7305,780.2861,204.7305,784.2861,200.7305" style="stroke:#181818;stroke-width:1.0;"/><line style="stroke:#181818;stroke-width:1.0;stroke-dasharray:2.0,2.0;" x1="562.3872" x2="786.2861" y1="200.7305" y2="200.7305"/><text fill="#000000" font-family="sans-serif" font-size="13" lengthAdjust="spacing" textLength="205.8989" x="569.3872" y="195.9883">SessionID&#12434;&#20803;&#12395;accessToken&#21462;&#24471;</text><polygon fill="#181818" points="573.3872,226.041,563.3872,230.041,573.3872,234.041,569.3872,230.041" style="stroke:#181818;stroke-width:1.0;"/><line style="stroke:#181818;stroke-width:1.0;stroke-dasharray:2.0,2.0;" x1="567.3872" x2="791.2861" y1="230.041" y2="230.041"/><text fill="#000000" font-family="sans-serif" font-size="13" lengthAdjust="spacing" textLength="80.1074" x="579.3872" y="225.2988">accessToken</text><polygon fill="#181818" points="678.3872,266.0068,688.3872,270.0068,678.3872,274.0068,682.3872,270.0068" style="stroke:#181818;stroke-width:1.0;"/><line style="stroke:#181818;stroke-width:1.0;stroke-dasharray:2.0,2.0;" x1="562.3872" x2="684.3872" y1="270.0068" y2="270.0068"/><text fill="#000000" font-family="sans-serif" font-size="13" lengthAdjust="spacing" textLength="65.1143" x="569.3872" y="265.2646">Token&#26908;&#35388;</text><path d="M695,243.041 L695,283.041 L1067,283.041 L1067,253.041 L1057,243.041 L695,243.041 " fill="#FEFFDD" style="stroke:#181818;stroke-width:0.5;"/><path d="M1057,243.041 L1057,253.041 L1067,253.041 L1057,243.041 " fill="#FEFFDD" style="stroke:#181818;stroke-width:0.5;"/><text fill="#000000" font-family="sans-serif" font-size="13" lengthAdjust="spacing" textLength="130" x="701" y="260.6094">&#12488;&#12540;&#12463;&#12531;&#12398;&#26908;&#35388;&#12434;&#34892;&#12358;</text><text fill="#000000" font-family="sans-serif" font-size="13" lengthAdjust="spacing" textLength="351.4063" x="701" y="275.9199">&#25104;&#21151;&#26178;&#12289;Backend&#12398;&#12456;&#12531;&#12489;&#12509;&#12452;&#12531;&#12488;&#12408;&#12398;&#12450;&#12463;&#12475;&#12473;&#12434;&#35377;&#21487;&#12377;&#12427;</text><polygon fill="#181818" points="573.3872,305.9727,563.3872,309.9727,573.3872,313.9727,569.3872,309.9727" style="stroke:#181818;stroke-width:1.0;"/><line style="stroke:#181818;stroke-width:1.0;stroke-dasharray:2.0,2.0;" x1="567.3872" x2="689.3872" y1="309.9727" y2="309.9727"/><text fill="#000000" font-family="sans-serif" font-size="13" lengthAdjust="spacing" textLength="104" x="579.3872" y="305.2305">&#12488;&#12540;&#12463;&#12531;&#26908;&#35388;&#32080;&#26524;</text><polygon fill="#181818" points="419.3872,335.2832,409.3872,339.2832,419.3872,343.2832,415.3872,339.2832" style="stroke:#181818;stroke-width:1.0;"/><line style="stroke:#181818;stroke-width:1.0;stroke-dasharray:2.0,2.0;" x1="413.3872" x2="561.3872" y1="339.2832" y2="339.2832"/><text fill="#000000" font-family="sans-serif" font-size="13" lengthAdjust="spacing" textLength="130" x="425.3872" y="334.541">&#12488;&#12540;&#12463;&#12531;&#26908;&#35388;&#32080;&#26524;&#36820;&#21364;</text><polygon fill="#181818" points="846.8286,364.5938,856.8286,368.5938,846.8286,372.5938,850.8286,368.5938" style="stroke:#181818;stroke-width:1.0;"/><line style="stroke:#181818;stroke-width:1.0;stroke-dasharray:2.0,2.0;" x1="408.3872" x2="852.8286" y1="368.5938" y2="368.5938"/><text fill="#000000" font-family="sans-serif" font-size="13" lengthAdjust="spacing" textLength="135.4272" x="415.3872" y="363.8516">&#65288;&#25104;&#21151;&#26178;&#65289;Get: /users</text><polygon fill="#181818" points="1016.8286,393.9043,1026.8286,397.9043,1016.8286,401.9043,1020.8286,397.9043" style="stroke:#181818;stroke-width:1.0;"/><line style="stroke:#181818;stroke-width:1.0;stroke-dasharray:2.0,2.0;" x1="858.8286" x2="1022.8286" y1="397.9043" y2="397.9043"/><text fill="#000000" font-family="sans-serif" font-size="13" lengthAdjust="spacing" textLength="104" x="865.8286" y="393.1621">&#12518;&#12540;&#12470;&#12540;&#24773;&#22577;&#21462;&#24471;</text><polygon fill="#181818" points="869.8286,407.9043,859.8286,411.9043,869.8286,415.9043,865.8286,411.9043" style="stroke:#181818;stroke-width:1.0;"/><line style="stroke:#181818;stroke-width:1.0;stroke-dasharray:2.0,2.0;" x1="863.8286" x2="1027.8286" y1="411.9043" y2="411.9043"/><line style="stroke:#181818;stroke-width:1.0;stroke-dasharray:2.0,2.0;" x1="858.8286" x2="900.8286" y1="445.3701" y2="445.3701"/><line style="stroke:#181818;stroke-width:1.0;stroke-dasharray:2.0,2.0;" x1="900.8286" x2="900.8286" y1="445.3701" y2="458.3701"/><line style="stroke:#181818;stroke-width:1.0;stroke-dasharray:2.0,2.0;" x1="859.8286" x2="900.8286" y1="458.3701" y2="458.3701"/><polygon fill="#181818" points="869.8286,454.3701,859.8286,458.3701,869.8286,462.3701,865.8286,458.3701" style="stroke:#181818;stroke-width:1.0;"/><text fill="#000000" font-family="sans-serif" font-size="13" lengthAdjust="spacing" textLength="156" x="865.8286" y="440.6279">&#12518;&#12540;&#12470;&#12540;&#12398;&#27177;&#38480;&#24773;&#22577;&#12434;&#30906;&#35469;</text><path d="M1033,424.9043 L1033,464.9043 L1379,464.9043 L1379,434.9043 L1369,424.9043 L1033,424.9043 " fill="#FEFFDD" style="stroke:#181818;stroke-width:0.5;"/><path d="M1369,424.9043 L1369,434.9043 L1379,434.9043 L1369,424.9043 " fill="#FEFFDD" style="stroke:#181818;stroke-width:0.5;"/><text fill="#000000" font-family="sans-serif" font-size="13" lengthAdjust="spacing" textLength="325" x="1039" y="442.4727">&#12496;&#12483;&#12463;&#12456;&#12531;&#12489;&#12391;&#12399;&#12289;&#12522;&#12463;&#12456;&#12473;&#12488;&#12363;&#12425;&#27177;&#38480;&#24773;&#22577;&#12434;&#30906;&#35469;&#12377;&#12427;</text><text fill="#000000" font-family="sans-serif" font-size="13" lengthAdjust="spacing" textLength="247" x="1039" y="457.7832">&#25104;&#21151;&#26178;&#12289;&#20966;&#29702;&#12434;&#23455;&#34892;&#12375;&#12289;&#12524;&#12473;&#12509;&#12531;&#12473;&#12434;&#36820;&#12377;</text><polygon fill="#181818" points="1016.8286,487.8359,1026.8286,491.8359,1016.8286,495.8359,1020.8286,491.8359" style="stroke:#181818;stroke-width:1.0;"/><line style="stroke:#181818;stroke-width:1.0;stroke-dasharray:2.0,2.0;" x1="858.8286" x2="1022.8286" y1="491.8359" y2="491.8359"/><text fill="#000000" font-family="sans-serif" font-size="13" lengthAdjust="spacing" textLength="78" x="865.8286" y="487.0938">&#12522;&#12477;&#12540;&#12473;&#21462;&#24471;</text><polygon fill="#181818" points="869.8286,501.8359,859.8286,505.8359,869.8286,509.8359,865.8286,505.8359" style="stroke:#181818;stroke-width:1.0;"/><line style="stroke:#181818;stroke-width:1.0;stroke-dasharray:2.0,2.0;" x1="863.8286" x2="1027.8286" y1="505.8359" y2="505.8359"/><polygon fill="#181818" points="419.3872,531.1465,409.3872,535.1465,419.3872,539.1465,415.3872,535.1465" style="stroke:#181818;stroke-width:1.0;"/><line style="stroke:#181818;stroke-width:1.0;stroke-dasharray:2.0,2.0;" x1="413.3872" x2="857.8286" y1="535.1465" y2="535.1465"/><text fill="#000000" font-family="sans-serif" font-size="13" lengthAdjust="spacing" textLength="195.8188" x="425.3872" y="530.4043">Response"200":{"message": ok}</text><polygon fill="#181818" points="125.5293,560.457,115.5293,564.457,125.5293,568.457,121.5293,564.457" style="stroke:#181818;stroke-width:1.0;"/><line style="stroke:#181818;stroke-width:1.0;stroke-dasharray:2.0,2.0;" x1="119.5293" x2="407.3872" y1="564.457" y2="564.457"/><text fill="#000000" font-family="sans-serif" font-size="13" lengthAdjust="spacing" textLength="195.8188" x="131.5293" y="559.7148">Response"200":{"message": ok}</text><!--SRC=[VLDTIzn057sVNp7i-rBfupmKTXigGX_4zW-CoR0Rn8naHaehXIQ3ThTM34Kg2twq8dRLuYBzeBRR-cE6PBTF_eNEJCOrKrfVafjxpprpxhcJXizf3AKuac8eqw_g2MPnp4C_NC8HXmzY6d4I1H2pCdQgZTcPQSp94_nKrste81xYnVa0Ewdxj1M5d08FSpoF6O5p90YP0sbYVy4UgaEdvZK1gCg5zVgzKXg23P-7D0Bco-Ij90IdYIhVMMOaPh3U9ZWWCO8hZ32c6cO211_Pq7iEhaVI1AL-PD-miSpRD0wVaHZOZ0QP0IeKCdsJhmgPd6BVLxd7L0sJRxxDVsq30tMOAvWgftK9GLCf3dV6_I68A2Sm3bjjhYpe60i6KdoIoLa9K0UFtx-MoHeeEbd-Qh_efV95OjrKA9dsDLnqfTYLwQ69EpBvPae7cYpz8TCBJTC_ppS7Ckd9T1teLUYZWHNbwAyAALMClcJ5tavrcCaQ_WSUNsxb6vyTvxLg1A-6dSaeLyDkPOr00mpIQoBd0XTYDNztRWttcXEscuwIkzgZBUmV_-vbPRDoO7JmVNoouLgUII6CIzSs9XzaCb0MIt5YyyezRUcwJBl_9BIMLlUJlpmQPMlwqfpjc_Lj6yQFXcjNdrIkv79BDTyiuw_vbO2VPfoBsoQVR6AEi2KQCLAxEpLLGokrHNK9SOlK4AGBxYzW_wrR6_u0]--></g></svg>