<svg xmlns="http://www.w3.org/2000/svg" xmlns:xlink="http://www.w3.org/1999/xlink" contentStyleType="text/css" height="372px" preserveAspectRatio="none" style="width:747px;height:372px;background:#FFFFFF;" version="1.1" viewBox="0 0 747 372" width="747px" zoomAndPan="magnify"><defs/><g><line style="stroke:#181818;stroke-width:0.5;stroke-dasharray:5.0,5.0;" x1="36" x2="36" y1="81.4883" y2="291.3516"/><line style="stroke:#181818;stroke-width:0.5;stroke-dasharray:5.0,5.0;" x1="163.4707" x2="163.4707" y1="81.4883" y2="291.3516"/><line style="stroke:#181818;stroke-width:0.5;stroke-dasharray:5.0,5.0;" x1="405.5947" x2="405.5947" y1="81.4883" y2="291.3516"/><line style="stroke:#181818;stroke-width:0.5;stroke-dasharray:5.0,5.0;" x1="650.02" x2="650.02" y1="81.4883" y2="291.3516"/><line style="stroke:#181818;stroke-width:0.5;stroke-dasharray:5.0,5.0;" x1="712.6069" x2="712.6069" y1="81.4883" y2="291.3516"/><text fill="#000000" font-family="sans-serif" font-size="14" lengthAdjust="spacing" textLength="56" x="5" y="78.5352">&#12518;&#12540;&#12470;&#12540;</text><ellipse cx="36" cy="13.5" fill="#E2E2F0" rx="8" ry="8" style="stroke:#181818;stroke-width:0.5;"/><path d="M36,21.5 L36,48.5 M23,29.5 L49,29.5 M36,48.5 L23,63.5 M36,48.5 L49,63.5 " fill="none" style="stroke:#181818;stroke-width:0.5;"/><text fill="#000000" font-family="sans-serif" font-size="14" lengthAdjust="spacing" textLength="56" x="5" y="303.8867">&#12518;&#12540;&#12470;&#12540;</text><ellipse cx="36" cy="315.3398" fill="#E2E2F0" rx="8" ry="8" style="stroke:#181818;stroke-width:0.5;"/><path d="M36,323.3398 L36,350.3398 M23,331.3398 L49,331.3398 M36,350.3398 L23,365.3398 M36,350.3398 L49,365.3398 " fill="none" style="stroke:#181818;stroke-width:0.5;"/><rect fill="#E2E2F0" height="30.4883" rx="2.5" ry="2.5" style="stroke:#181818;stroke-width:0.5;" width="75.0586" x="126.4707" y="50"/><text fill="#000000" font-family="sans-serif" font-size="14" lengthAdjust="spacing" textLength="61.0586" x="133.4707" y="70.5352">Frontend</text><rect fill="#E2E2F0" height="30.4883" rx="2.5" ry="2.5" style="stroke:#181818;stroke-width:0.5;" width="75.0586" x="126.4707" y="290.3516"/><text fill="#000000" font-family="sans-serif" font-size="14" lengthAdjust="spacing" textLength="61.0586" x="133.4707" y="310.8867">Frontend</text><rect fill="#E2E2F0" height="30.4883" rx="2.5" ry="2.5" style="stroke:#181818;stroke-width:0.5;" width="70.4375" x="370.5947" y="50"/><text fill="#000000" font-family="sans-serif" font-size="14" lengthAdjust="spacing" textLength="56.4375" x="377.5947" y="70.5352">Backend</text><rect fill="#E2E2F0" height="30.4883" rx="2.5" ry="2.5" style="stroke:#181818;stroke-width:0.5;" width="70.4375" x="370.5947" y="290.3516"/><text fill="#000000" font-family="sans-serif" font-size="14" lengthAdjust="spacing" textLength="56.4375" x="377.5947" y="310.8867">Backend</text><rect fill="#E2E2F0" height="30.4883" rx="2.5" ry="2.5" style="stroke:#181818;stroke-width:0.5;" width="67.5869" x="617.02" y="50"/><text fill="#000000" font-family="sans-serif" font-size="14" lengthAdjust="spacing" textLength="53.5869" x="624.02" y="70.5352">Cognito</text><rect fill="#E2E2F0" height="30.4883" rx="2.5" ry="2.5" style="stroke:#181818;stroke-width:0.5;" width="67.5869" x="617.02" y="290.3516"/><text fill="#000000" font-family="sans-serif" font-size="14" lengthAdjust="spacing" textLength="53.5869" x="624.02" y="310.8867">Cognito</text><text fill="#000000" font-family="sans-serif" font-size="14" lengthAdjust="spacing" textLength="18.5391" x="700.3374" y="78.5352">DB</text><path d="M694.6069,29 C694.6069,19 712.6069,19 712.6069,19 C712.6069,19 730.6069,19 730.6069,29 L730.6069,55 C730.6069,65 712.6069,65 712.6069,65 C712.6069,65 694.6069,65 694.6069,55 L694.6069,29 " fill="#E2E2F0" style="stroke:#181818;stroke-width:1.5;"/><path d="M694.6069,29 C694.6069,39 712.6069,39 712.6069,39 C712.6069,39 730.6069,39 730.6069,29 " fill="none" style="stroke:#181818;stroke-width:1.5;"/><text fill="#000000" font-family="sans-serif" font-size="14" lengthAdjust="spacing" textLength="18.5391" x="700.3374" y="303.8867">DB</text><path d="M694.6069,316.8398 C694.6069,306.8398 712.6069,306.8398 712.6069,306.8398 C712.6069,306.8398 730.6069,306.8398 730.6069,316.8398 L730.6069,342.8398 C730.6069,352.8398 712.6069,352.8398 712.6069,352.8398 C712.6069,352.8398 694.6069,352.8398 694.6069,342.8398 L694.6069,316.8398 " fill="#E2E2F0" style="stroke:#181818;stroke-width:1.5;"/><path d="M694.6069,316.8398 C694.6069,326.8398 712.6069,326.8398 712.6069,326.8398 C712.6069,326.8398 730.6069,326.8398 730.6069,316.8398 " fill="none" style="stroke:#181818;stroke-width:1.5;"/><polygon fill="#181818" points="152,108.7988,162,112.7988,152,116.7988,156,112.7988" style="stroke:#181818;stroke-width:1.0;"/><line style="stroke:#181818;stroke-width:1.0;stroke-dasharray:2.0,2.0;" x1="36" x2="158" y1="112.7988" y2="112.7988"/><text fill="#000000" font-family="sans-serif" font-size="13" lengthAdjust="spacing" textLength="104" x="43" y="108.0566">&#12518;&#12540;&#12470;&#12540;&#24773;&#22577;&#20837;&#21147;</text><polygon fill="#181818" points="393.8135,138.1094,403.8135,142.1094,393.8135,146.1094,397.8135,142.1094" style="stroke:#181818;stroke-width:1.0;"/><line style="stroke:#181818;stroke-width:1.0;stroke-dasharray:2.0,2.0;" x1="164" x2="399.8135" y1="142.1094" y2="142.1094"/><text fill="#000000" font-family="sans-serif" font-size="13" lengthAdjust="spacing" textLength="217.8135" x="171" y="137.3672">Post&#65306;buddy.api.com/auth/signup</text><polygon fill="#181818" points="638.8135,167.4199,648.8135,171.4199,638.8135,175.4199,642.8135,171.4199" style="stroke:#181818;stroke-width:1.0;"/><line style="stroke:#181818;stroke-width:1.0;stroke-dasharray:2.0,2.0;" x1="405.8135" x2="644.8135" y1="171.4199" y2="171.4199"/><text fill="#000000" font-family="sans-serif" font-size="13" lengthAdjust="spacing" textLength="221" x="412.8135" y="166.6777">&#12518;&#12540;&#12470;&#12540;&#12503;&#12540;&#12523;&#12395;&#12518;&#12540;&#12470;&#12540;&#24773;&#22577;&#12434;&#30331;&#37682;</text><polygon fill="#181818" points="416.8135,196.7305,406.8135,200.7305,416.8135,204.7305,412.8135,200.7305" style="stroke:#181818;stroke-width:1.0;"/><line style="stroke:#181818;stroke-width:1.0;stroke-dasharray:2.0,2.0;" x1="410.8135" x2="649.8135" y1="200.7305" y2="200.7305"/><text fill="#000000" font-family="sans-serif" font-size="13" lengthAdjust="spacing" textLength="177.4805" x="422.8135" y="195.9883">SignUpOutput&#65288;Sub[UUiD]&#65289;</text><polygon fill="#181818" points="700.6069,226.041,710.6069,230.041,700.6069,234.041,704.6069,230.041" style="stroke:#181818;stroke-width:1.0;"/><line style="stroke:#181818;stroke-width:1.0;stroke-dasharray:2.0,2.0;" x1="405.8135" x2="706.6069" y1="230.041" y2="230.041"/><text fill="#000000" font-family="sans-serif" font-size="13" lengthAdjust="spacing" textLength="253.9634" x="412.8135" y="225.2988">"Sub&#12434;&#20027;&#12461;&#12540;&#12392;&#12375;&#12390;&#12289;&#12518;&#12540;&#12470;&#12540;&#24773;&#22577;"&#12434;&#20445;&#23384;</text><polygon fill="#181818" points="416.8135,240.041,406.8135,244.041,416.8135,248.041,412.8135,244.041" style="stroke:#181818;stroke-width:1.0;"/><line style="stroke:#181818;stroke-width:1.0;stroke-dasharray:2.0,2.0;" x1="410.8135" x2="711.6069" y1="244.041" y2="244.041"/><polygon fill="#181818" points="175,269.3516,165,273.3516,175,277.3516,171,273.3516" style="stroke:#181818;stroke-width:1.0;"/><line style="stroke:#181818;stroke-width:1.0;stroke-dasharray:2.0,2.0;" x1="169" x2="404.8135" y1="273.3516" y2="273.3516"/><text fill="#000000" font-family="sans-serif" font-size="13" lengthAdjust="spacing" textLength="195.8188" x="181" y="268.6094">Response"200":{"message": ok}</text><!--SRC=[SqmkoIzIUDoyx77pdiTDsu0aLq1YKKbcScP1Obw9WbjHVbv9QbwAGc8nX8qYwvIOd0sL135Hv9ppq_CoI_AvKX9B4fCIYrCLN9oukBYGBLBGrRM366g5ue1dpQrF5snyshhqQTTiBh0yM2N81Yk5WFpYalTxPYMLfgHKwYKMPEebv-Vg9vQMPEWNPwRdbHPmWPI1rKCTW6hsu-RfO7BruyRLc7O-RfhqVERkbpsRkA2QaImE1XeVMk1VMb9G2dH0Ht1fKdHeQAPBxFizdGWxNPoi59I0Ka23dkpO_RXfBSY2nXMF6wS_RbpskA4HqqebaDBzSv-kdS7buWIt3c4YD7o2KeiBylEAKvMC30oKhAgLSbEBYnFJKvMi5FApQm40]--></g></svg>