<?xml version="1.0" encoding="UTF-8" standalone="no"?><svg xmlns="http://www.w3.org/2000/svg" xmlns:xlink="http://www.w3.org/1999/xlink" contentScriptType="application/ecmascript" contentStyleType="text/css" height="521px" preserveAspectRatio="none" style="width:491px;height:521px;" version="1.1" viewBox="0 0 491 521" width="491px" zoomAndPan="magnify"><defs><filter height="300%" id="fie92836uk3f9" width="300%" x="-1" y="-1"><feGaussianBlur result="blurOut" stdDeviation="2.0"/><feColorMatrix in="blurOut" result="blurOut2" type="matrix" values="0 0 0 0 0 0 0 0 0 0 0 0 0 0 0 0 0 0 .4 0"/><feOffset dx="4.0" dy="4.0" in="blurOut2" result="blurOut3"/><feBlend in="SourceGraphic" in2="blurOut3" mode="normal"/></filter></defs><g><!--MD5=[eace04a6a715c010434b3f14fc7f454a]
cluster 施設情報--><polygon fill="#FFFFFF" filter="url(#fie92836uk3f9)" points="301,410,363,410,370,432.2969,417,432.2969,417,509,301,509,301,410" style="stroke: #000000; stroke-width: 1.5;"/><line style="stroke: #000000; stroke-width: 1.5;" x1="301" x2="370" y1="432.2969" y2="432.2969"/><text fill="#000000" font-family="sans-serif" font-size="14" font-weight="bold" lengthAdjust="spacingAndGlyphs" textLength="56" x="305" y="424.9951">施設情報</text><!--MD5=[2357de52a651de3e3141a47d68960241]
cluster 住所--><polygon fill="#FFFFFF" filter="url(#fie92836uk3f9)" points="260,24,294,24,301,46.2969,458,46.2969,458,225,260,225,260,24" style="stroke: #000000; stroke-width: 1.5;"/><line style="stroke: #000000; stroke-width: 1.5;" x1="260" x2="301" y1="46.2969" y2="46.2969"/><text fill="#000000" font-family="sans-serif" font-size="14" font-weight="bold" lengthAdjust="spacingAndGlyphs" textLength="28" x="264" y="38.9951">住所</text><!--MD5=[9f6ffe30cb633c56d0808b0c68d66db5]
cluster エリア--><polygon fill="#FFFFFF" filter="url(#fie92836uk3f9)" points="22,249,70,249,77,271.2969,469,271.2969,469,386,22,386,22,249" style="stroke: #000000; stroke-width: 1.5;"/><line style="stroke: #000000; stroke-width: 1.5;" x1="22" x2="77" y1="271.2969" y2="271.2969"/><text fill="#000000" font-family="sans-serif" font-size="14" font-weight="bold" lengthAdjust="spacingAndGlyphs" textLength="42" x="26" y="263.9951">エリア</text><!--MD5=[906b6f3cbaecf3ca9cf95c95e4e1b597]
class facilities--><rect fill="#FEFECE" filter="url(#fie92836uk3f9)" height="48" id="facilities" style="stroke: #A80036; stroke-width: 1.5;" width="83" x="317.5" y="445"/><ellipse cx="332.5" cy="461" fill="#ADD1B2" rx="11" ry="11" style="stroke: #A80036; stroke-width: 1.0;"/><path d="M336.6094,467 L328.8906,467 L328.8906,454.6094 L336.6094,454.6094 L336.6094,456.7656 L331.3438,456.7656 L331.3438,459.4375 L336.1094,459.4375 L336.1094,461.5938 L331.3438,461.5938 L331.3438,464.8438 L336.6094,464.8438 L336.6094,467 Z "/><text fill="#000000" font-family="sans-serif" font-size="12" lengthAdjust="spacingAndGlyphs" textLength="51" x="346.5" y="465.1543">facilities</text><line style="stroke: #A80036; stroke-width: 1.5;" x1="318.5" x2="399.5" y1="477" y2="477"/><line style="stroke: #A80036; stroke-width: 1.5;" x1="318.5" x2="399.5" y1="485" y2="485"/><!--MD5=[d7d6b8ea598e54491e439553c4a99edb]
class addresses--><rect fill="#FEFECE" filter="url(#fie92836uk3f9)" height="150.4375" id="addresses" style="stroke: #A80036; stroke-width: 1.5;" width="165" x="276.5" y="59"/><ellipse cx="321.75" cy="75" fill="#ADD1B2" rx="11" ry="11" style="stroke: #A80036; stroke-width: 1.0;"/><path d="M325.8594,81 L318.1406,81 L318.1406,68.6094 L325.8594,68.6094 L325.8594,70.7656 L320.5938,70.7656 L320.5938,73.4375 L325.3594,73.4375 L325.3594,75.5938 L320.5938,75.5938 L320.5938,78.8438 L325.8594,78.8438 L325.8594,81 Z "/><text fill="#000000" font-family="sans-serif" font-size="12" lengthAdjust="spacingAndGlyphs" textLength="66" x="342.25" y="79.1543">addresses</text><line style="stroke: #A80036; stroke-width: 1.5;" x1="277.5" x2="440.5" y1="91" y2="91"/><ellipse cx="287.5" cy="102" fill="#000000" rx="3" ry="3" style="stroke: #000000; stroke-width: 1.0;"/><text fill="#000000" font-family="sans-serif" font-size="11" lengthAdjust="spacingAndGlyphs" textLength="134" x="296.5" y="105.2104">binary address_id «PK»</text><line style="stroke: #A80036; stroke-width: 1.0;" x1="277.5" x2="440.5" y1="111.8047" y2="111.8047"/><text fill="#000000" font-family="sans-serif" font-size="11" lengthAdjust="spacingAndGlyphs" textLength="124" x="282.5" y="126.0151">int zip_code "郵便番号"</text><text fill="#000000" font-family="sans-serif" font-size="11" lengthAdjust="spacingAndGlyphs" textLength="132" x="282.5" y="138.8198">string prefecture "住所"</text><text fill="#000000" font-family="sans-serif" font-size="11" lengthAdjust="spacingAndGlyphs" textLength="114" x="282.5" y="151.6245">string city "市区町村"</text><text fill="#000000" font-family="sans-serif" font-size="11" lengthAdjust="spacingAndGlyphs" textLength="153" x="282.5" y="164.4292">string address_line1 "町名"</text><text fill="#000000" font-family="sans-serif" font-size="11" lengthAdjust="spacingAndGlyphs" textLength="153" x="282.5" y="177.2339">string address_line2 "番地"</text><text fill="#000000" font-family="sans-serif" font-size="11" lengthAdjust="spacingAndGlyphs" textLength="115" x="282.5" y="190.0386">string latitude "緯度"</text><text fill="#000000" font-family="sans-serif" font-size="11" lengthAdjust="spacingAndGlyphs" textLength="125" x="282.5" y="202.8433">string longitude "経度"</text><!--MD5=[30b3f9d6383eda1018bee78f0b1f9fb5]
class areas--><rect fill="#FEFECE" filter="url(#fie92836uk3f9)" height="86.4141" id="areas" style="stroke: #A80036; stroke-width: 1.5;" width="188" x="265" y="284"/><ellipse cx="336.75" cy="300" fill="#ADD1B2" rx="11" ry="11" style="stroke: #A80036; stroke-width: 1.0;"/><path d="M340.8594,306 L333.1406,306 L333.1406,293.6094 L340.8594,293.6094 L340.8594,295.7656 L335.5938,295.7656 L335.5938,298.4375 L340.3594,298.4375 L340.3594,300.5938 L335.5938,300.5938 L335.5938,303.8438 L340.8594,303.8438 L340.8594,306 Z "/><text fill="#000000" font-family="sans-serif" font-size="12" lengthAdjust="spacingAndGlyphs" textLength="36" x="357.25" y="304.1543">areas</text><line style="stroke: #A80036; stroke-width: 1.5;" x1="266" x2="452" y1="316" y2="316"/><ellipse cx="276" cy="327" fill="#000000" rx="3" ry="3" style="stroke: #000000; stroke-width: 1.0;"/><text fill="#000000" font-family="sans-serif" font-size="11" lengthAdjust="spacingAndGlyphs" textLength="81" x="285" y="330.2104">binary id «PK»</text><line style="stroke: #A80036; stroke-width: 1.0;" x1="266" x2="452" y1="336.8047" y2="336.8047"/><text fill="#000000" font-family="sans-serif" font-size="11" lengthAdjust="spacingAndGlyphs" textLength="176" x="271" y="351.0151">string area_code "地域エリア名"</text><text fill="#000000" font-family="sans-serif" font-size="11" lengthAdjust="spacingAndGlyphs" textLength="169" x="271" y="363.8198">binary facility_id «FK» "施設ID"</text><!--MD5=[fa84bbf3d4d64fa8c94cea8e2a42e5db]
class areas_addresses--><rect fill="#FEFECE" filter="url(#fie92836uk3f9)" height="86.4141" id="areas_addresses" style="stroke: #A80036; stroke-width: 1.5;" width="192" x="38" y="284"/><ellipse cx="76.4" cy="300" fill="#ADD1B2" rx="11" ry="11" style="stroke: #A80036; stroke-width: 1.0;"/><path d="M80.5094,306 L72.7906,306 L72.7906,293.6094 L80.5094,293.6094 L80.5094,295.7656 L75.2438,295.7656 L75.2438,298.4375 L80.0094,298.4375 L80.0094,300.5938 L75.2438,300.5938 L75.2438,303.8438 L80.5094,303.8438 L80.5094,306 Z "/><text fill="#000000" font-family="sans-serif" font-size="12" lengthAdjust="spacingAndGlyphs" textLength="108" x="95.6" y="304.1543">areas_addresses</text><line style="stroke: #A80036; stroke-width: 1.5;" x1="39" x2="229" y1="316" y2="316"/><ellipse cx="49" cy="327" fill="#000000" rx="3" ry="3" style="stroke: #000000; stroke-width: 1.0;"/><text fill="#000000" font-family="sans-serif" font-size="11" lengthAdjust="spacingAndGlyphs" textLength="81" x="58" y="330.2104">binary id «PK»</text><line style="stroke: #A80036; stroke-width: 1.0;" x1="39" x2="229" y1="336.8047" y2="336.8047"/><text fill="#000000" font-family="sans-serif" font-size="11" lengthAdjust="spacingAndGlyphs" textLength="170" x="44" y="351.0151">binary area_id «FK» "エリアID"</text><text fill="#000000" font-family="sans-serif" font-size="11" lengthAdjust="spacingAndGlyphs" textLength="180" x="44" y="363.8198">binary address_id «FK» "住所ID"</text><!--MD5=[6134c43b02206a795dd4d994d365949b]
link addresses to areas--><path d="M359,217.17 C359,217.17 359,275.8 359,275.8 " fill="none" id="addresses-areas" style="stroke: #A80036; stroke-width: 1.0;"/><line style="stroke: #A80036; stroke-width: 1.0;" x1="359" x2="365" y1="275.8" y2="283.8"/><line style="stroke: #A80036; stroke-width: 1.0;" x1="359" x2="353" y1="275.8" y2="283.8"/><line style="stroke: #A80036; stroke-width: 1.0;" x1="359" x2="359" y1="275.8" y2="283.8"/><ellipse cx="359" cy="269.8" fill="none" rx="4" ry="4" style="stroke: #A80036; stroke-width: 1.0;"/><line style="stroke: #A80036; stroke-width: 1.0;" x1="359" x2="353" y1="217.17" y2="209.17"/><line style="stroke: #A80036; stroke-width: 1.0;" x1="359" x2="365" y1="217.17" y2="209.17"/><line style="stroke: #A80036; stroke-width: 1.0;" x1="359" x2="359" y1="217.17" y2="209.17"/><ellipse cx="359" cy="223.17" fill="none" rx="4" ry="4" style="stroke: #A80036; stroke-width: 1.0;"/><!--MD5=[aa6f8967de65dad5a5f15114dc08c192]
link areas to facilities--><path d="M359,378.38 C359,378.38 359,436.86 359,436.86 " fill="none" id="areas-facilities" style="stroke: #A80036; stroke-width: 1.0;"/><line style="stroke: #A80036; stroke-width: 1.0;" x1="363" x2="355" y1="440.86" y2="440.86"/><line style="stroke: #A80036; stroke-width: 1.0;" x1="363" x2="355" y1="437.86" y2="437.86"/><line style="stroke: #A80036; stroke-width: 1.0;" x1="359" x2="359" y1="436.86" y2="444.86"/><line style="stroke: #A80036; stroke-width: 1.0;" x1="359" x2="353" y1="378.38" y2="370.38"/><line style="stroke: #A80036; stroke-width: 1.0;" x1="359" x2="365" y1="378.38" y2="370.38"/><line style="stroke: #A80036; stroke-width: 1.0;" x1="359" x2="359" y1="378.38" y2="370.38"/><ellipse cx="359" cy="384.38" fill="none" rx="4" ry="4" style="stroke: #A80036; stroke-width: 1.0;"/><!--MD5=[469d96fbac18ef8683b7b902dcb492c2]
@startuml entity-relationship-diagram
skinparam linetype ortho

package 施設情報 {
  entity facilities
}

package 住所 {
  entity addresses {
    * binary address_id <<PK>>
    - -
    int zip_code "郵便番号"
    string prefecture "住所"
    string city "市区町村"
    string address_line1 "町名"
    string address_line2 "番地"
    string latitude "緯度"
    string longitude "経度"
  }
}

package エリア {
  entity areas {
    * binary id <<PK>>
    - -
    string area_code "地域エリア名"
    binary facility_id <<FK>> "施設ID"
  }

  entity areas_addresses {
    * binary id <<PK>>
    - -
    binary area_id <<FK>> "エリアID"
    binary address_id <<FK>> "住所ID"
  }
}

addresses }o- -o{ areas
areas }o- -|| facilities


@enduml

PlantUML version 1.2020.02(Sun Mar 01 10:22:07 UTC 2020)
(GPL source distribution)
Java Runtime: OpenJDK Runtime Environment
JVM: OpenJDK 64-Bit Server VM
Java Version: 11.0.16+8
Operating System: Linux
Default Encoding: UTF-8
Language: en
Country: null
--></g></svg>