<?xml version="1.0" encoding="UTF-8" standalone="no"?><svg xmlns="http://www.w3.org/2000/svg" xmlns:xlink="http://www.w3.org/1999/xlink" contentScriptType="application/ecmascript" contentStyleType="text/css" height="396px" preserveAspectRatio="none" style="width:714px;height:396px;" version="1.1" viewBox="0 0 714 396" width="714px" zoomAndPan="magnify"><defs><filter height="300%" id="fwkbqhp5b50uu" width="300%" x="-1" y="-1"><feGaussianBlur result="blurOut" stdDeviation="2.0"/><feColorMatrix in="blurOut" result="blurOut2" type="matrix" values="0 0 0 0 0 0 0 0 0 0 0 0 0 0 0 0 0 0 .4 0"/><feOffset dx="4.0" dy="4.0" in="blurOut2" result="blurOut3"/><feBlend in="SourceGraphic" in2="blurOut3" mode="normal"/></filter></defs><g><!--MD5=[eace04a6a715c010434b3f14fc7f454a]
cluster 施設情報--><polygon fill="#FFFFFF" filter="url(#fwkbqhp5b50uu)" points="576,266,638,266,645,288.2969,692,288.2969,692,365,576,365,576,266" style="stroke: #000000; stroke-width: 1.5;"/><line style="stroke: #000000; stroke-width: 1.5;" x1="576" x2="645" y1="288.2969" y2="288.2969"/><text fill="#000000" font-family="sans-serif" font-size="14" font-weight="bold" lengthAdjust="spacingAndGlyphs" textLength="56" x="580" y="280.9951">施設情報</text><!--MD5=[2357de52a651de3e3141a47d68960241]
cluster 住所--><polygon fill="#FFFFFF" filter="url(#fwkbqhp5b50uu)" points="22,24,56,24,63,46.2969,278,46.2969,278,238,22,238,22,24" style="stroke: #000000; stroke-width: 1.5;"/><line style="stroke: #000000; stroke-width: 1.5;" x1="22" x2="63" y1="46.2969" y2="46.2969"/><text fill="#000000" font-family="sans-serif" font-size="14" font-weight="bold" lengthAdjust="spacingAndGlyphs" textLength="28" x="26" y="38.9951">住所</text><!--MD5=[9f6ffe30cb633c56d0808b0c68d66db5]
cluster エリア--><polygon fill="#FFFFFF" filter="url(#fwkbqhp5b50uu)" points="302,56,350,56,357,78.2969,552,78.2969,552,384,302,384,302,56" style="stroke: #000000; stroke-width: 1.5;"/><line style="stroke: #000000; stroke-width: 1.5;" x1="302" x2="357" y1="78.2969" y2="78.2969"/><text fill="#000000" font-family="sans-serif" font-size="14" font-weight="bold" lengthAdjust="spacingAndGlyphs" textLength="42" x="306" y="70.9951">エリア</text><!--MD5=[906b6f3cbaecf3ca9cf95c95e4e1b597]
class facilities--><rect fill="#FEFECE" filter="url(#fwkbqhp5b50uu)" height="48" id="facilities" style="stroke: #A80036; stroke-width: 1.5;" width="83" x="592.5" y="301"/><ellipse cx="607.5" cy="317" fill="#ADD1B2" rx="11" ry="11" style="stroke: #A80036; stroke-width: 1.0;"/><path d="M611.6094,323 L603.8906,323 L603.8906,310.6094 L611.6094,310.6094 L611.6094,312.7656 L606.3438,312.7656 L606.3438,315.4375 L611.1094,315.4375 L611.1094,317.5938 L606.3438,317.5938 L606.3438,320.8438 L611.6094,320.8438 L611.6094,323 Z "/><text fill="#000000" font-family="sans-serif" font-size="12" lengthAdjust="spacingAndGlyphs" textLength="51" x="621.5" y="321.1543">facilities</text><line style="stroke: #A80036; stroke-width: 1.5;" x1="593.5" x2="674.5" y1="333" y2="333"/><line style="stroke: #A80036; stroke-width: 1.5;" x1="593.5" x2="674.5" y1="341" y2="341"/><!--MD5=[d7d6b8ea598e54491e439553c4a99edb]
class addresses--><rect fill="#FEFECE" filter="url(#fwkbqhp5b50uu)" height="163.2422" id="addresses" style="stroke: #A80036; stroke-width: 1.5;" width="224" x="38" y="59"/><ellipse cx="112.75" cy="75" fill="#ADD1B2" rx="11" ry="11" style="stroke: #A80036; stroke-width: 1.0;"/><path d="M116.8594,81 L109.1406,81 L109.1406,68.6094 L116.8594,68.6094 L116.8594,70.7656 L111.5938,70.7656 L111.5938,73.4375 L116.3594,73.4375 L116.3594,75.5938 L111.5938,75.5938 L111.5938,78.8438 L116.8594,78.8438 L116.8594,81 Z "/><text fill="#000000" font-family="sans-serif" font-size="12" lengthAdjust="spacingAndGlyphs" textLength="66" x="133.25" y="79.1543">addresses</text><line style="stroke: #A80036; stroke-width: 1.5;" x1="39" x2="261" y1="91" y2="91"/><text fill="#000000" font-family="sans-serif" font-size="11" lengthAdjust="spacingAndGlyphs" textLength="22" x="44" y="105.2104">住所</text><text fill="#000000" font-family="sans-serif" font-size="11" lengthAdjust="spacingAndGlyphs" textLength="160" x="44" y="118.0151">address_id: binary(16) «PK»</text><line style="stroke: #A80036; stroke-width: 1.0;" x1="39" x2="261" y1="124.6094" y2="124.6094"/><text fill="#000000" font-family="sans-serif" font-size="11" lengthAdjust="spacingAndGlyphs" textLength="128" x="44" y="138.8198">zip_code: int "郵便番号"</text><text fill="#000000" font-family="sans-serif" font-size="11" lengthAdjust="spacingAndGlyphs" textLength="136" x="44" y="151.6245">prefecture: string "住所"</text><text fill="#000000" font-family="sans-serif" font-size="11" lengthAdjust="spacingAndGlyphs" textLength="118" x="44" y="164.4292">city string: "市区町村"</text><text fill="#000000" font-family="sans-serif" font-size="11" lengthAdjust="spacingAndGlyphs" textLength="212" x="44" y="177.2339">address_line1: string "番地までの住所"</text><text fill="#000000" font-family="sans-serif" font-size="11" lengthAdjust="spacingAndGlyphs" textLength="168" x="44" y="190.0386">address_line2: string "建物名"</text><text fill="#000000" font-family="sans-serif" font-size="11" lengthAdjust="spacingAndGlyphs" textLength="119" x="44" y="202.8433">latitude: string "緯度"</text><text fill="#000000" font-family="sans-serif" font-size="11" lengthAdjust="spacingAndGlyphs" textLength="129" x="44" y="215.6479">longitude: string "経度"</text><!--MD5=[30b3f9d6383eda1018bee78f0b1f9fb5]
class areas--><rect fill="#FEFECE" filter="url(#fwkbqhp5b50uu)" height="99.2188" id="areas" style="stroke: #A80036; stroke-width: 1.5;" width="210" x="324" y="91"/><ellipse cx="406.75" cy="107" fill="#ADD1B2" rx="11" ry="11" style="stroke: #A80036; stroke-width: 1.0;"/><path d="M410.8594,113 L403.1406,113 L403.1406,100.6094 L410.8594,100.6094 L410.8594,102.7656 L405.5938,102.7656 L405.5938,105.4375 L410.3594,105.4375 L410.3594,107.5938 L405.5938,107.5938 L405.5938,110.8438 L410.8594,110.8438 L410.8594,113 Z "/><text fill="#000000" font-family="sans-serif" font-size="12" lengthAdjust="spacingAndGlyphs" textLength="36" x="427.25" y="111.1543">areas</text><line style="stroke: #A80036; stroke-width: 1.5;" x1="325" x2="533" y1="123" y2="123"/><text fill="#000000" font-family="sans-serif" font-size="11" lengthAdjust="spacingAndGlyphs" textLength="198" x="330" y="137.2104">特定の住所の範囲をグループ化したもの</text><text fill="#000000" font-family="sans-serif" font-size="11" lengthAdjust="spacingAndGlyphs" textLength="107" x="330" y="150.0151">id: binary(16) «PK»</text><line style="stroke: #A80036; stroke-width: 1.0;" x1="325" x2="533" y1="156.6094" y2="156.6094"/><text fill="#000000" font-family="sans-serif" font-size="11" lengthAdjust="spacingAndGlyphs" textLength="180" x="330" y="170.8198">area_code: string "地域エリア名"</text><text fill="#000000" font-family="sans-serif" font-size="11" lengthAdjust="spacingAndGlyphs" textLength="195" x="330" y="183.6245">facility_id: binary(16) «FK» "施設ID"</text><!--MD5=[fa84bbf3d4d64fa8c94cea8e2a42e5db]
class areas_addresses--><rect fill="#FEFECE" filter="url(#fwkbqhp5b50uu)" height="86.4141" id="areas_addresses" style="stroke: #A80036; stroke-width: 1.5;" width="218" x="318" y="282"/><ellipse cx="368.75" cy="298" fill="#ADD1B2" rx="11" ry="11" style="stroke: #A80036; stroke-width: 1.0;"/><path d="M372.8594,304 L365.1406,304 L365.1406,291.6094 L372.8594,291.6094 L372.8594,293.7656 L367.5938,293.7656 L367.5938,296.4375 L372.3594,296.4375 L372.3594,298.5938 L367.5938,298.5938 L367.5938,301.8438 L372.8594,301.8438 L372.8594,304 Z "/><text fill="#000000" font-family="sans-serif" font-size="12" lengthAdjust="spacingAndGlyphs" textLength="108" x="389.25" y="302.1543">areas_addresses</text><line style="stroke: #A80036; stroke-width: 1.5;" x1="319" x2="535" y1="314" y2="314"/><text fill="#000000" font-family="sans-serif" font-size="11" lengthAdjust="spacingAndGlyphs" textLength="85" x="324" y="328.2104">id: binary «PK»</text><line style="stroke: #A80036; stroke-width: 1.0;" x1="319" x2="535" y1="334.8047" y2="334.8047"/><text fill="#000000" font-family="sans-serif" font-size="11" lengthAdjust="spacingAndGlyphs" textLength="196" x="324" y="349.0151">area_id: binary(16) «FK» "エリアID"</text><text fill="#000000" font-family="sans-serif" font-size="11" lengthAdjust="spacingAndGlyphs" textLength="206" x="324" y="361.8198">address_id: binary(16) «FK» "住所ID"</text><!--MD5=[06d99abc1967768fb5d8a18138451965]
link addresses to areas_addresses--><path d="M270,206 C270,206 394,206 394,206 C394,206 394,273.7 394,273.7 " fill="none" id="addresses-areas_addresses" style="stroke: #A80036; stroke-width: 1.0;"/><line style="stroke: #A80036; stroke-width: 1.0;" x1="394" x2="400" y1="273.7" y2="281.7"/><line style="stroke: #A80036; stroke-width: 1.0;" x1="394" x2="388" y1="273.7" y2="281.7"/><line style="stroke: #A80036; stroke-width: 1.0;" x1="394" x2="394" y1="273.7" y2="281.7"/><ellipse cx="394" cy="267.7" fill="none" rx="4" ry="4" style="stroke: #A80036; stroke-width: 1.0;"/><line style="stroke: #A80036; stroke-width: 1.0;" x1="266" x2="266" y1="210" y2="202"/><line style="stroke: #A80036; stroke-width: 1.0;" x1="269" x2="269" y1="210" y2="202"/><line style="stroke: #A80036; stroke-width: 1.0;" x1="270" x2="262" y1="206" y2="206"/><!--MD5=[b0795ddae97f162090304de1635a6b0b]
link areas to areas_addresses--><path d="M464,198.43 C464,198.43 464,273.93 464,273.93 " fill="none" id="areas-areas_addresses" style="stroke: #A80036; stroke-width: 1.0;"/><line style="stroke: #A80036; stroke-width: 1.0;" x1="464" x2="470" y1="273.93" y2="281.93"/><line style="stroke: #A80036; stroke-width: 1.0;" x1="464" x2="458" y1="273.93" y2="281.93"/><line style="stroke: #A80036; stroke-width: 1.0;" x1="464" x2="464" y1="273.93" y2="281.93"/><ellipse cx="464" cy="267.93" fill="none" rx="4" ry="4" style="stroke: #A80036; stroke-width: 1.0;"/><line style="stroke: #A80036; stroke-width: 1.0;" x1="460" x2="468" y1="194.43" y2="194.43"/><line style="stroke: #A80036; stroke-width: 1.0;" x1="460" x2="468" y1="197.43" y2="197.43"/><line style="stroke: #A80036; stroke-width: 1.0;" x1="464" x2="464" y1="198.43" y2="190.43"/><!--MD5=[aa6f8967de65dad5a5f15114dc08c192]
link areas to facilities--><path d="M542.2,141 C542.2,141 634,141 634,141 C634,141 634,292.95 634,292.95 " fill="none" id="areas-facilities" style="stroke: #A80036; stroke-width: 1.0;"/><line style="stroke: #A80036; stroke-width: 1.0;" x1="638" x2="630" y1="296.95" y2="296.95"/><line style="stroke: #A80036; stroke-width: 1.0;" x1="638" x2="630" y1="293.95" y2="293.95"/><line style="stroke: #A80036; stroke-width: 1.0;" x1="634" x2="634" y1="292.95" y2="300.95"/><line style="stroke: #A80036; stroke-width: 1.0;" x1="542.2" x2="534.2" y1="141" y2="147"/><line style="stroke: #A80036; stroke-width: 1.0;" x1="542.2" x2="534.2" y1="141" y2="135"/><line style="stroke: #A80036; stroke-width: 1.0;" x1="542.2" x2="534.2" y1="141" y2="141"/><ellipse cx="548.2" cy="141" fill="none" rx="4" ry="4" style="stroke: #A80036; stroke-width: 1.0;"/><!--MD5=[d256f41c6a924721fbc8e030ba138058]
@startuml entity-relationship-diagram
skinparam linetype ortho

package 施設情報 {
  entity facilities
}

package 住所 {
  entity addresses {
    住所
    address_id: binary(16) <<PK>>
    - -
    zip_code: int "郵便番号"
    prefecture: string "住所"
    city string: "市区町村"
    address_line1: string "番地までの住所"
    address_line2: string "建物名"
    latitude: string "緯度"
    longitude: string "経度"
  }
}

package エリア {
  entity areas {
    特定の住所の範囲をグループ化したもの
    id: binary(16) <<PK>>
    - -
    area_code: string "地域エリア名"
    facility_id: binary(16) <<FK>> "施設ID"
  }

  entity areas_addresses {
    id: binary <<PK>>
    - -
    area_id: binary(16) <<FK>> "エリアID"
    address_id: binary(16) <<FK>> "住所ID"
  }
}

addresses ||- -o{ areas_addresses
areas ||- -o{ areas_addresses
areas }o- -|| facilities


@enduml

PlantUML version 1.2020.02(Sun Mar 01 10:22:07 UTC 2020)
(GPL source distribution)
Java Runtime: OpenJDK Runtime Environment
JVM: OpenJDK 64-Bit Server VM
Java Version: 11.0.16+8
Operating System: Linux
Default Encoding: UTF-8
Language: en
Country: null
--></g></svg>