<?xml version="1.0" encoding="UTF-8" standalone="no"?><svg xmlns="http://www.w3.org/2000/svg" xmlns:xlink="http://www.w3.org/1999/xlink" contentScriptType="application/ecmascript" contentStyleType="text/css" height="460px" preserveAspectRatio="none" style="width:768px;height:460px;" version="1.1" viewBox="0 0 768 460" width="768px" zoomAndPan="magnify"><defs><filter height="300%" id="fd7pq2e6lvwtn" width="300%" x="-1" y="-1"><feGaussianBlur result="blurOut" stdDeviation="2.0"/><feColorMatrix in="blurOut" result="blurOut2" type="matrix" values="0 0 0 0 0 0 0 0 0 0 0 0 0 0 0 0 0 0 .4 0"/><feOffset dx="4.0" dy="4.0" in="blurOut2" result="blurOut3"/><feBlend in="SourceGraphic" in2="blurOut3" mode="normal"/></filter></defs><g><!--MD5=[eace04a6a715c010434b3f14fc7f454a]
cluster 施設情報--><polygon fill="#FFFFFF" filter="url(#fd7pq2e6lvwtn)" points="22,24,84,24,91,46.2969,746,46.2969,746,448,22,448,22,24" style="stroke: #000000; stroke-width: 1.5;"/><line style="stroke: #000000; stroke-width: 1.5;" x1="22" x2="91" y1="46.2969" y2="46.2969"/><text fill="#000000" font-family="sans-serif" font-size="14" font-weight="bold" lengthAdjust="spacingAndGlyphs" textLength="56" x="26" y="38.9951">施設情報</text><!--MD5=[906b6f3cbaecf3ca9cf95c95e4e1b597]
class facilities--><rect fill="#FEFECE" filter="url(#fd7pq2e6lvwtn)" height="99.2188" id="facilities" style="stroke: #A80036; stroke-width: 1.5;" width="218" x="275" y="59"/><ellipse cx="354.25" cy="75" fill="#ADD1B2" rx="11" ry="11" style="stroke: #A80036; stroke-width: 1.0;"/><path d="M358.3594,81 L350.6406,81 L350.6406,68.6094 L358.3594,68.6094 L358.3594,70.7656 L353.0938,70.7656 L353.0938,73.4375 L357.8594,73.4375 L357.8594,75.5938 L353.0938,75.5938 L353.0938,78.8438 L358.3594,78.8438 L358.3594,81 Z "/><text fill="#000000" font-family="sans-serif" font-size="12" lengthAdjust="spacingAndGlyphs" textLength="51" x="374.75" y="79.1543">facilities</text><line style="stroke: #A80036; stroke-width: 1.5;" x1="276" x2="492" y1="91" y2="91"/><text fill="#000000" font-family="sans-serif" font-size="11" lengthAdjust="spacingAndGlyphs" textLength="22" x="281" y="105.2104">施設</text><text fill="#000000" font-family="sans-serif" font-size="11" lengthAdjust="spacingAndGlyphs" textLength="107" x="281" y="118.0151">id: binary(16) «PK»</text><line style="stroke: #A80036; stroke-width: 1.0;" x1="276" x2="492" y1="124.6094" y2="124.6094"/><text fill="#000000" font-family="sans-serif" font-size="11" lengthAdjust="spacingAndGlyphs" textLength="120" x="281" y="138.8198">name: string "施設名"</text><text fill="#000000" font-family="sans-serif" font-size="11" lengthAdjust="spacingAndGlyphs" textLength="206" x="281" y="151.6245">address_id: binary(16) «FK» "住所ID"</text><!--MD5=[6c84c4f3a21a87fd355cd02b69660fa8]
class positions--><rect fill="#FEFECE" filter="url(#fd7pq2e6lvwtn)" height="99.2188" id="positions" style="stroke: #A80036; stroke-width: 1.5;" width="207" x="38.5" y="218"/><ellipse cx="109.25" cy="234" fill="#ADD1B2" rx="11" ry="11" style="stroke: #A80036; stroke-width: 1.0;"/><path d="M113.3594,240 L105.6406,240 L105.6406,227.6094 L113.3594,227.6094 L113.3594,229.7656 L108.0938,229.7656 L108.0938,232.4375 L112.8594,232.4375 L112.8594,234.5938 L108.0938,234.5938 L108.0938,237.8438 L113.3594,237.8438 L113.3594,240 Z "/><text fill="#000000" font-family="sans-serif" font-size="12" lengthAdjust="spacingAndGlyphs" textLength="57" x="129.75" y="238.1543">positions</text><line style="stroke: #A80036; stroke-width: 1.5;" x1="39.5" x2="244.5" y1="250" y2="250"/><text fill="#000000" font-family="sans-serif" font-size="11" lengthAdjust="spacingAndGlyphs" textLength="22" x="44.5" y="264.2104">役職</text><text fill="#000000" font-family="sans-serif" font-size="11" lengthAdjust="spacingAndGlyphs" textLength="107" x="44.5" y="277.0151">id: binary(16) «PK»</text><line style="stroke: #A80036; stroke-width: 1.0;" x1="39.5" x2="244.5" y1="283.6094" y2="283.6094"/><text fill="#000000" font-family="sans-serif" font-size="11" lengthAdjust="spacingAndGlyphs" textLength="120" x="44.5" y="297.8198">name: string "役職名"</text><text fill="#000000" font-family="sans-serif" font-size="11" lengthAdjust="spacingAndGlyphs" textLength="195" x="44.5" y="310.6245">facility_id: binary(16) «FK» "施設ID"</text><!--MD5=[812f124879d7479c543db8514bfe7b1c]
class teams--><rect fill="#FEFECE" filter="url(#fd7pq2e6lvwtn)" height="99.2188" id="teams" style="stroke: #A80036; stroke-width: 1.5;" width="207" x="280.5" y="218"/><ellipse cx="360.25" cy="234" fill="#ADD1B2" rx="11" ry="11" style="stroke: #A80036; stroke-width: 1.0;"/><path d="M364.3594,240 L356.6406,240 L356.6406,227.6094 L364.3594,227.6094 L364.3594,229.7656 L359.0938,229.7656 L359.0938,232.4375 L363.8594,232.4375 L363.8594,234.5938 L359.0938,234.5938 L359.0938,237.8438 L364.3594,237.8438 L364.3594,240 Z "/><text fill="#000000" font-family="sans-serif" font-size="12" lengthAdjust="spacingAndGlyphs" textLength="39" x="380.75" y="238.1543">teams</text><line style="stroke: #A80036; stroke-width: 1.5;" x1="281.5" x2="486.5" y1="250" y2="250"/><text fill="#000000" font-family="sans-serif" font-size="11" lengthAdjust="spacingAndGlyphs" textLength="33" x="286.5" y="264.2104">チーム</text><text fill="#000000" font-family="sans-serif" font-size="11" lengthAdjust="spacingAndGlyphs" textLength="107" x="286.5" y="277.0151">id: binary(16) «PK»</text><line style="stroke: #A80036; stroke-width: 1.0;" x1="281.5" x2="486.5" y1="283.6094" y2="283.6094"/><text fill="#000000" font-family="sans-serif" font-size="11" lengthAdjust="spacingAndGlyphs" textLength="131" x="286.5" y="297.8198">name: string "チーム名"</text><text fill="#000000" font-family="sans-serif" font-size="11" lengthAdjust="spacingAndGlyphs" textLength="195" x="286.5" y="310.6245">facility_id: binary(16) «FK» "施設ID"</text><path d="M78,377 L78,432.3984 A0,0 0 0 0 78,432.3984 L206,432.3984 A0,0 0 0 0 206,432.3984 L206,387 L196,377 L146,377 L142,317.35 L138,377 L78,377 A0,0 0 0 0 78,377 " fill="#FBFB77" filter="url(#fd7pq2e6lvwtn)" style="stroke: #A80036; stroke-width: 1.0;"/><path d="M196,377 L196,387 L206,387 L196,377 " fill="#FBFB77" style="stroke: #A80036; stroke-width: 1.0;"/><text fill="#000000" font-family="sans-serif" font-size="13" lengthAdjust="spacingAndGlyphs" textLength="94" x="84" y="394.0669">1: マネージャー</text><text fill="#000000" font-family="sans-serif" font-size="13" lengthAdjust="spacingAndGlyphs" textLength="107" x="84" y="409.1997">2: チームリーダー</text><text fill="#000000" font-family="sans-serif" font-size="13" lengthAdjust="spacingAndGlyphs" textLength="68" x="84" y="424.3325">2: メンバー</text><!--MD5=[7f814fef5106890c143ca53cdb5abaab]
class departments--><rect fill="#FEFECE" filter="url(#fd7pq2e6lvwtn)" height="99.2188" id="departments" style="stroke: #A80036; stroke-width: 1.5;" width="207" x="522.5" y="218"/><ellipse cx="581.25" cy="234" fill="#ADD1B2" rx="11" ry="11" style="stroke: #A80036; stroke-width: 1.0;"/><path d="M585.3594,240 L577.6406,240 L577.6406,227.6094 L585.3594,227.6094 L585.3594,229.7656 L580.0938,229.7656 L580.0938,232.4375 L584.8594,232.4375 L584.8594,234.5938 L580.0938,234.5938 L580.0938,237.8438 L585.3594,237.8438 L585.3594,240 Z "/><text fill="#000000" font-family="sans-serif" font-size="12" lengthAdjust="spacingAndGlyphs" textLength="81" x="601.75" y="238.1543">departments</text><line style="stroke: #A80036; stroke-width: 1.5;" x1="523.5" x2="728.5" y1="250" y2="250"/><text fill="#000000" font-family="sans-serif" font-size="11" lengthAdjust="spacingAndGlyphs" textLength="22" x="528.5" y="264.2104">部署</text><text fill="#000000" font-family="sans-serif" font-size="11" lengthAdjust="spacingAndGlyphs" textLength="107" x="528.5" y="277.0151">id: binary(16) «PK»</text><line style="stroke: #A80036; stroke-width: 1.0;" x1="523.5" x2="728.5" y1="283.6094" y2="283.6094"/><text fill="#000000" font-family="sans-serif" font-size="11" lengthAdjust="spacingAndGlyphs" textLength="120" x="528.5" y="297.8198">name: string "部署名"</text><text fill="#000000" font-family="sans-serif" font-size="11" lengthAdjust="spacingAndGlyphs" textLength="195" x="528.5" y="310.6245">facility_id: binary(16) «FK» "施設ID"</text><path d="M575,384.5 L575,424.7656 A0,0 0 0 0 575,424.7656 L677,424.7656 A0,0 0 0 0 677,424.7656 L677,394.5 L667,384.5 L630,384.5 L626,317.35 L622,384.5 L575,384.5 A0,0 0 0 0 575,384.5 " fill="#FBFB77" filter="url(#fd7pq2e6lvwtn)" style="stroke: #A80036; stroke-width: 1.0;"/><path d="M667,384.5 L667,394.5 L677,394.5 L667,384.5 " fill="#FBFB77" style="stroke: #A80036; stroke-width: 1.0;"/><text fill="#000000" font-family="sans-serif" font-size="13" lengthAdjust="spacingAndGlyphs" textLength="55" x="581" y="401.5669">1: 看護部</text><text fill="#000000" font-family="sans-serif" font-size="13" lengthAdjust="spacingAndGlyphs" textLength="81" x="581" y="416.6997">2: リハビリ部</text><!--MD5=[d003f8a37d44c07b31f31fd69ff98ac7]
link facilities to positions--><path d="M266.68,109 C266.68,109 142,109 142,109 C142,109 142,209.78 142,209.78 " fill="none" id="facilities-positions" style="stroke: #A80036; stroke-width: 1.0;"/><line style="stroke: #A80036; stroke-width: 1.0;" x1="142" x2="148" y1="209.78" y2="217.78"/><line style="stroke: #A80036; stroke-width: 1.0;" x1="142" x2="136" y1="209.78" y2="217.78"/><line style="stroke: #A80036; stroke-width: 1.0;" x1="142" x2="142" y1="209.78" y2="217.78"/><ellipse cx="142" cy="203.78" fill="none" rx="4" ry="4" style="stroke: #A80036; stroke-width: 1.0;"/><line style="stroke: #A80036; stroke-width: 1.0;" x1="270.68" x2="270.68" y1="105" y2="113"/><line style="stroke: #A80036; stroke-width: 1.0;" x1="267.68" x2="267.68" y1="105" y2="113"/><line style="stroke: #A80036; stroke-width: 1.0;" x1="266.68" x2="274.68" y1="109" y2="109"/><!--MD5=[d6b85d7eafd4f84b541639795a90d001]
link facilities to teams--><path d="M384,166.37 C384,166.37 384,209.8 384,209.8 " fill="none" id="facilities-teams" style="stroke: #A80036; stroke-width: 1.0;"/><line style="stroke: #A80036; stroke-width: 1.0;" x1="384" x2="390" y1="209.8" y2="217.8"/><line style="stroke: #A80036; stroke-width: 1.0;" x1="384" x2="378" y1="209.8" y2="217.8"/><line style="stroke: #A80036; stroke-width: 1.0;" x1="384" x2="384" y1="209.8" y2="217.8"/><ellipse cx="384" cy="203.8" fill="none" rx="4" ry="4" style="stroke: #A80036; stroke-width: 1.0;"/><line style="stroke: #A80036; stroke-width: 1.0;" x1="380" x2="388" y1="162.37" y2="162.37"/><line style="stroke: #A80036; stroke-width: 1.0;" x1="380" x2="388" y1="165.37" y2="165.37"/><line style="stroke: #A80036; stroke-width: 1.0;" x1="384" x2="384" y1="166.37" y2="158.37"/><!--MD5=[b787ca73dabe4b02a8b51bcd16472646]
link facilities to departments--><path d="M501.32,109 C501.32,109 626,109 626,109 C626,109 626,209.78 626,209.78 " fill="none" id="facilities-departments" style="stroke: #A80036; stroke-width: 1.0;"/><line style="stroke: #A80036; stroke-width: 1.0;" x1="626" x2="632" y1="209.78" y2="217.78"/><line style="stroke: #A80036; stroke-width: 1.0;" x1="626" x2="620" y1="209.78" y2="217.78"/><line style="stroke: #A80036; stroke-width: 1.0;" x1="626" x2="626" y1="209.78" y2="217.78"/><ellipse cx="626" cy="203.78" fill="none" rx="4" ry="4" style="stroke: #A80036; stroke-width: 1.0;"/><line style="stroke: #A80036; stroke-width: 1.0;" x1="497.32" x2="497.32" y1="113" y2="105"/><line style="stroke: #A80036; stroke-width: 1.0;" x1="500.32" x2="500.32" y1="113" y2="105"/><line style="stroke: #A80036; stroke-width: 1.0;" x1="501.32" x2="493.32" y1="109" y2="109"/><!--MD5=[4dfb195d16bae7721a8542d23250979f]
@startuml entity-relationship-diagram
skinparam linetype ortho
package 施設情報 {
  entity facilities {
    施設
    id: binary(16) <<PK>>
    - -
    name: string "施設名"
    address_id: binary(16) <<FK>> "住所ID"
  }
  entity positions {
    役職
    id: binary(16) <<PK>>
    - -
    name: string "役職名"
    facility_id: binary(16) <<FK>> "施設ID"
  }

  entity teams {
    チーム
    id: binary(16) <<PK>>
    - -
    name: string "チーム名"
    facility_id: binary(16) <<FK>> "施設ID"
  }

  note bottom of positions
    1: マネージャー
    2: チームリーダー
    2: メンバー
  end note

  entity departments {
    部署
    id: binary(16) <<PK>>
    - -
    name: string "部署名"
    facility_id: binary(16) <<FK>> "施設ID"
  }

  note bottom of departments
    1: 看護部
    2: リハビリ部
  end note
  facilities ||- -o{ positions
  facilities ||- -o{ teams
  facilities ||- -o{ departments
}


@enduml

PlantUML version 1.2020.02(Sun Mar 01 10:22:07 UTC 2020)
(GPL source distribution)
Java Runtime: OpenJDK Runtime Environment
JVM: OpenJDK 64-Bit Server VM
Java Version: 11.0.16+8
Operating System: Linux
Default Encoding: UTF-8
Language: en
Country: null
--></g></svg>