<svg xmlns="http://www.w3.org/2000/svg" xmlns:xlink="http://www.w3.org/1999/xlink" contentStyleType="text/css" height="434px" preserveAspectRatio="none" style="width:691px;height:434px;background:#FFFFFF;" version="1.1" viewBox="0 0 691 434" width="691px" zoomAndPan="magnify"><defs/><g><!--cluster ????--><g id="cluster_&#26045;&#35373;&#24773;&#22577;"><path d="M8.5,6 L65.5,6 A3.75,3.75 0 0 1 68,8.5 L75,28.4883 L681.5,28.4883 A2.5,2.5 0 0 1 684,30.9883 L684,425.36 A2.5,2.5 0 0 1 681.5,427.86 L8.5,427.86 A2.5,2.5 0 0 1 6,425.36 L6,8.5 A2.5,2.5 0 0 1 8.5,6 " fill="none" style="stroke:#000000;stroke-width:1.5;"/><line style="stroke:#000000;stroke-width:1.5;" x1="6" x2="75" y1="28.4883" y2="28.4883"/><text fill="#000000" font-family="sans-serif" font-size="14" font-weight="bold" lengthAdjust="spacing" textLength="56" x="10" y="21.5352">&#26045;&#35373;&#24773;&#22577;</text></g><!--class facilities--><g id="elem_facilities"><rect codeLine="3" fill="#F1F1F1" height="97.4648" id="facilities" rx="2.5" ry="2.5" style="stroke:#181818;stroke-width:0.5;" width="222.1641" x="233.92" y="41"/><ellipse cx="312.547" cy="57" fill="#ADD1B2" rx="11" ry="11" style="stroke:#181818;stroke-width:1.0;"/><path d="M316.1612,63.5 L308.4415,63.5 L308.4415,51.1069 L316.1612,51.1069 L316.1612,53.2651 L310.8902,53.2651 L310.8902,55.938 L315.6632,55.938 L315.6632,58.0962 L310.8902,58.0962 L310.8902,61.3418 L316.1612,61.3418 Z " fill="#000000"/><text fill="#000000" font-family="sans-serif" font-size="14" lengthAdjust="spacing" textLength="56.4102" x="333.047" y="62.291">facilities</text><line style="stroke:#181818;stroke-width:0.5;" x1="234.92" x2="455.0841" y1="73" y2="73"/><ellipse cx="244.92" cy="86.7441" fill="#000000" rx="3" ry="3" style="stroke:#000000;stroke-width:1.0;"/><text fill="#000000" font-family="sans-serif" font-size="14" lengthAdjust="spacing" textLength="71.2373" x="253.92" y="90.5352">int id &#171;PK&#187;</text><line style="stroke:#181818;stroke-width:1.0;" x1="234.92" x2="455.0841" y1="97.4883" y2="97.4883"/><text fill="#000000" font-family="sans-serif" font-size="14" lengthAdjust="spacing" textLength="138.1748" x="239.92" y="115.0234">string name "&#26045;&#35373;&#21517;"</text><text fill="#000000" font-family="sans-serif" font-size="14" lengthAdjust="spacing" textLength="210.1641" x="239.92" y="131.5117">string address_id &#171;FK&#187; "&#20303;&#25152;ID"</text></g><!--class positions--><g id="elem_positions"><rect codeLine="9" fill="#F1F1F1" height="97.4648" id="positions" rx="2.5" ry="2.5" style="stroke:#181818;stroke-width:0.5;" width="192.1543" x="21.92" y="198.46"/><ellipse cx="82.5958" cy="214.46" fill="#ADD1B2" rx="11" ry="11" style="stroke:#181818;stroke-width:1.0;"/><path d="M86.21,220.96 L78.4903,220.96 L78.4903,208.5669 L86.21,208.5669 L86.21,210.7251 L80.939,210.7251 L80.939,213.398 L85.712,213.398 L85.712,215.5562 L80.939,215.5562 L80.939,218.8018 L86.21,218.8018 Z " fill="#000000"/><text fill="#000000" font-family="sans-serif" font-size="14" lengthAdjust="spacing" textLength="62.3027" x="103.0958" y="219.751">positions</text><line style="stroke:#181818;stroke-width:0.5;" x1="22.92" x2="213.0743" y1="230.46" y2="230.46"/><ellipse cx="32.92" cy="244.2041" fill="#000000" rx="3" ry="3" style="stroke:#000000;stroke-width:1.0;"/><text fill="#000000" font-family="sans-serif" font-size="14" lengthAdjust="spacing" textLength="128.6455" x="41.92" y="247.9952">int id &#171;PK&#187; "&#24441;&#32887;ID"</text><line style="stroke:#181818;stroke-width:1.0;" x1="22.92" x2="213.0743" y1="254.9483" y2="254.9483"/><text fill="#000000" font-family="sans-serif" font-size="14" lengthAdjust="spacing" textLength="138.1748" x="27.92" y="272.4834">string name "&#24441;&#32887;&#21517;"</text><text fill="#000000" font-family="sans-serif" font-size="14" lengthAdjust="spacing" textLength="180.1543" x="27.92" y="288.9717">int facility_id &#171;FK&#187; "&#26045;&#35373;ID"</text></g><!--class teams--><g id="elem_teams"><rect codeLine="16" fill="#F1F1F1" height="97.4648" id="teams" rx="2.5" ry="2.5" style="stroke:#181818;stroke-width:0.5;" width="192.1543" x="248.92" y="198.46"/><ellipse cx="320.2598" cy="214.46" fill="#ADD1B2" rx="11" ry="11" style="stroke:#181818;stroke-width:1.0;"/><path d="M323.8741,220.96 L316.1544,220.96 L316.1544,208.5669 L323.8741,208.5669 L323.8741,210.7251 L318.6031,210.7251 L318.6031,213.398 L323.3761,213.398 L323.3761,215.5562 L318.6031,215.5562 L318.6031,218.8018 L323.8741,218.8018 Z " fill="#000000"/><text fill="#000000" font-family="sans-serif" font-size="14" lengthAdjust="spacing" textLength="40.9746" x="340.7598" y="219.751">teams</text><line style="stroke:#181818;stroke-width:0.5;" x1="249.92" x2="440.0743" y1="230.46" y2="230.46"/><ellipse cx="259.92" cy="244.2041" fill="#000000" rx="3" ry="3" style="stroke:#000000;stroke-width:1.0;"/><text fill="#000000" font-family="sans-serif" font-size="14" lengthAdjust="spacing" textLength="71.2373" x="268.92" y="247.9952">int id &#171;PK&#187;</text><line style="stroke:#181818;stroke-width:1.0;" x1="249.92" x2="440.0743" y1="254.9483" y2="254.9483"/><text fill="#000000" font-family="sans-serif" font-size="14" lengthAdjust="spacing" textLength="152.1748" x="254.92" y="272.4834">string name "&#12481;&#12540;&#12512;&#21517;"</text><text fill="#000000" font-family="sans-serif" font-size="14" lengthAdjust="spacing" textLength="180.1543" x="254.92" y="288.9717">int facility_id &#171;FK&#187; "&#26045;&#35373;ID"</text></g><g id="elem_GMN6"><path d="M53.78,355.93 L53.78,411.8616 A0,0 0 0 0 53.78,411.8616 L182.2268,411.8616 A0,0 0 0 0 182.2268,411.8616 L182.2268,365.93 L172.2268,355.93 L122,355.93 L118,296.16 L114,355.93 L53.78,355.93 A0,0 0 0 0 53.78,355.93 " fill="#FEFFDD" style="stroke:#181818;stroke-width:0.5;"/><path d="M172.2268,355.93 L172.2268,365.93 L182.2268,365.93 L172.2268,355.93 " fill="#FEFFDD" style="stroke:#181818;stroke-width:0.5;"/><text fill="#000000" font-family="sans-serif" font-size="13" lengthAdjust="spacing" textLength="94.4468" x="59.78" y="373.4984">1: &#12510;&#12493;&#12540;&#12472;&#12515;&#12540;</text><text fill="#000000" font-family="sans-serif" font-size="13" lengthAdjust="spacing" textLength="107.4468" x="59.78" y="388.8089">2: &#12481;&#12540;&#12512;&#12522;&#12540;&#12480;&#12540;</text><text fill="#000000" font-family="sans-serif" font-size="13" lengthAdjust="spacing" textLength="68.4468" x="59.78" y="404.1195">2: &#12513;&#12531;&#12496;&#12540;</text></g><!--class departments--><g id="elem_departments"><rect codeLine="29" fill="#F1F1F1" height="97.4648" id="departments" rx="2.5" ry="2.5" style="stroke:#181818;stroke-width:0.5;" width="192.1543" x="475.92" y="198.46"/><ellipse cx="524.7218" cy="214.46" fill="#ADD1B2" rx="11" ry="11" style="stroke:#181818;stroke-width:1.0;"/><path d="M528.336,220.96 L520.6163,220.96 L520.6163,208.5669 L528.336,208.5669 L528.336,210.7251 L523.065,210.7251 L523.065,213.398 L527.838,213.398 L527.838,215.5562 L523.065,215.5562 L523.065,218.8018 L528.336,218.8018 Z " fill="#000000"/><text fill="#000000" font-family="sans-serif" font-size="14" lengthAdjust="spacing" textLength="86.0508" x="545.2218" y="219.751">departments</text><line style="stroke:#181818;stroke-width:0.5;" x1="476.92" x2="667.0743" y1="230.46" y2="230.46"/><ellipse cx="486.92" cy="244.2041" fill="#000000" rx="3" ry="3" style="stroke:#000000;stroke-width:1.0;"/><text fill="#000000" font-family="sans-serif" font-size="14" lengthAdjust="spacing" textLength="71.2373" x="495.92" y="247.9952">int id &#171;PK&#187;</text><line style="stroke:#181818;stroke-width:1.0;" x1="476.92" x2="667.0743" y1="254.9483" y2="254.9483"/><text fill="#000000" font-family="sans-serif" font-size="14" lengthAdjust="spacing" textLength="138.1748" x="481.92" y="272.4834">string name "&#37096;&#32626;&#21517;"</text><text fill="#000000" font-family="sans-serif" font-size="14" lengthAdjust="spacing" textLength="180.1543" x="481.92" y="288.9717">int facility_id &#171;FK&#187; "&#26045;&#35373;ID"</text></g><g id="elem_GMN10"><path d="M520.78,363.58 L520.78,404.2011 A0,0 0 0 0 520.78,404.2011 L623.2268,404.2011 A0,0 0 0 0 623.2268,404.2011 L623.2268,373.58 L613.2268,363.58 L576,363.58 L572,296.16 L568,363.58 L520.78,363.58 A0,0 0 0 0 520.78,363.58 " fill="#FEFFDD" style="stroke:#181818;stroke-width:0.5;"/><path d="M613.2268,363.58 L613.2268,373.58 L623.2268,373.58 L613.2268,363.58 " fill="#FEFFDD" style="stroke:#181818;stroke-width:0.5;"/><text fill="#000000" font-family="sans-serif" font-size="13" lengthAdjust="spacing" textLength="55.4468" x="526.78" y="381.1484">1: &#30475;&#35703;&#37096;</text><text fill="#000000" font-family="sans-serif" font-size="13" lengthAdjust="spacing" textLength="81.4468" x="526.78" y="396.4589">2: &#12522;&#12495;&#12499;&#12522;&#37096;</text></g><!--link facilities to positions--><g id="link_facilities_positions"><path codeLine="40" d="M241.42,146.69 C241.42,192.92 241.42,247.2 241.42,247.2 C241.42,247.2 238.11,247.2 222.34,247.2 " fill="none" id="facilities-positions" style="stroke:#181818;stroke-width:1.0;"/><line style="stroke:#181818;stroke-width:1.0;" x1="237.42" x2="245.42" y1="142.69" y2="142.69"/><line style="stroke:#181818;stroke-width:1.0;" x1="237.42" x2="245.42" y1="145.69" y2="145.69"/><line style="stroke:#181818;stroke-width:1.0;" x1="241.42" x2="241.42" y1="146.69" y2="138.69"/><line style="stroke:#181818;stroke-width:1.0;" x1="218.34" x2="218.34" y1="251.2" y2="243.2"/><line style="stroke:#181818;stroke-width:1.0;" x1="221.34" x2="221.34" y1="251.2" y2="243.2"/><line style="stroke:#181818;stroke-width:1.0;" x1="222.34" x2="214.34" y1="247.2" y2="247.2"/></g><!--link facilities to teams--><g id="link_facilities_teams"><path codeLine="41" d="M345,146.69 C345,165.56 345,171.1 345,190 " fill="none" id="facilities-teams" style="stroke:#181818;stroke-width:1.0;"/><line style="stroke:#181818;stroke-width:1.0;" x1="341" x2="349" y1="142.69" y2="142.69"/><line style="stroke:#181818;stroke-width:1.0;" x1="341" x2="349" y1="145.69" y2="145.69"/><line style="stroke:#181818;stroke-width:1.0;" x1="345" x2="345" y1="146.69" y2="138.69"/><line style="stroke:#181818;stroke-width:1.0;" x1="349" x2="341" y1="194" y2="194"/><line style="stroke:#181818;stroke-width:1.0;" x1="349" x2="341" y1="191" y2="191"/><line style="stroke:#181818;stroke-width:1.0;" x1="345" x2="345" y1="190" y2="198"/></g><!--link facilities to departments--><g id="link_facilities_departments"><path codeLine="42" d="M448.58,146.69 C448.58,192.92 448.58,247.2 448.58,247.2 C448.58,247.2 451.89,247.2 467.66,247.2 " fill="none" id="facilities-departments" style="stroke:#181818;stroke-width:1.0;"/><line style="stroke:#181818;stroke-width:1.0;" x1="444.58" x2="452.58" y1="142.69" y2="142.69"/><line style="stroke:#181818;stroke-width:1.0;" x1="444.58" x2="452.58" y1="145.69" y2="145.69"/><line style="stroke:#181818;stroke-width:1.0;" x1="448.58" x2="448.58" y1="146.69" y2="138.69"/><line style="stroke:#181818;stroke-width:1.0;" x1="471.66" x2="471.66" y1="243.2" y2="251.2"/><line style="stroke:#181818;stroke-width:1.0;" x1="468.66" x2="468.66" y1="243.2" y2="251.2"/><line style="stroke:#181818;stroke-width:1.0;" x1="467.66" x2="475.66" y1="247.2" y2="247.2"/></g><!--SRC=[fP8nIyD05CVtVef7HY63Zb8wYI0kVWCvcsizsjo5v9PWXDR3GQIq83Y9L5oAq44TQi5ycZDf_1PUBcrpnJe4fxoy_xtt__-I2pg4UiX7BdG9nJpqC32VdxEQXveTrCQGtiVPP9gAwsJy2XSr04mvuI6qK9Dq2ISuq5s07I2K0t6WNZyvRZHqpxRr8-0-eMsWoCLW5GkJqS0oDUGuFWw2Kpr_gER1-eg7wKtlw20_TraQUonGjep-uGjM4i-p_goOsnwXEB6EaCylSK8pG95q5Q1Cm35ogr9BqPVYKufnTLVAE8OpnZbpWRLAVhrbTn-aU9HYa6-_-f3YMHLQsSkLfQaKBxheROXFKhnBCIfwc3hQoU1qiBePt5LlLMc_nMGHl_qRrGYmWbqyt6RJcTfVOYYqeHHtgYZQQn8mBsaKsNOKRNoztwh-iriLCugA-WC0]--></g></svg>