<?xml version="1.0" encoding="UTF-8" standalone="no"?><svg xmlns="http://www.w3.org/2000/svg" xmlns:xlink="http://www.w3.org/1999/xlink" contentScriptType="application/ecmascript" contentStyleType="text/css" height="434px" preserveAspectRatio="none" style="width:690px;height:434px;" version="1.1" viewBox="0 0 690 434" width="690px" zoomAndPan="magnify"><defs><filter height="300%" id="f12z0l97c401lf" width="300%" x="-1" y="-1"><feGaussianBlur result="blurOut" stdDeviation="2.0"/><feColorMatrix in="blurOut" result="blurOut2" type="matrix" values="0 0 0 0 0 0 0 0 0 0 0 0 0 0 0 0 0 0 .4 0"/><feOffset dx="4.0" dy="4.0" in="blurOut2" result="blurOut3"/><feBlend in="SourceGraphic" in2="blurOut3" mode="normal"/></filter></defs><g><!--MD5=[eace04a6a715c010434b3f14fc7f454a]
cluster 施設情報--><polygon fill="#FFFFFF" filter="url(#f12z0l97c401lf)" points="22,24,84,24,91,46.2969,668,46.2969,668,422,22,422,22,24" style="stroke: #000000; stroke-width: 1.5;"/><line style="stroke: #000000; stroke-width: 1.5;" x1="22" x2="91" y1="46.2969" y2="46.2969"/><text fill="#000000" font-family="sans-serif" font-size="14" font-weight="bold" lengthAdjust="spacingAndGlyphs" textLength="56" x="26" y="38.9951">施設情報</text><!--MD5=[906b6f3cbaecf3ca9cf95c95e4e1b597]
class facilities--><rect fill="#FEFECE" filter="url(#f12z0l97c401lf)" height="86.4141" id="facilities" style="stroke: #A80036; stroke-width: 1.5;" width="192" x="249" y="59"/><ellipse cx="315.25" cy="75" fill="#ADD1B2" rx="11" ry="11" style="stroke: #A80036; stroke-width: 1.0;"/><path d="M319.3594,81 L311.6406,81 L311.6406,68.6094 L319.3594,68.6094 L319.3594,70.7656 L314.0938,70.7656 L314.0938,73.4375 L318.8594,73.4375 L318.8594,75.5938 L314.0938,75.5938 L314.0938,78.8438 L319.3594,78.8438 L319.3594,81 Z "/><text fill="#000000" font-family="sans-serif" font-size="12" lengthAdjust="spacingAndGlyphs" textLength="51" x="335.75" y="79.1543">facilities</text><line style="stroke: #A80036; stroke-width: 1.5;" x1="250" x2="440" y1="91" y2="91"/><ellipse cx="260" cy="102" fill="#000000" rx="3" ry="3" style="stroke: #000000; stroke-width: 1.0;"/><text fill="#000000" font-family="sans-serif" font-size="11" lengthAdjust="spacingAndGlyphs" textLength="81" x="269" y="105.2104">binary id «PK»</text><line style="stroke: #A80036; stroke-width: 1.0;" x1="250" x2="440" y1="111.8047" y2="111.8047"/><text fill="#000000" font-family="sans-serif" font-size="11" lengthAdjust="spacingAndGlyphs" textLength="116" x="255" y="126.0151">string name "施設名"</text><text fill="#000000" font-family="sans-serif" font-size="11" lengthAdjust="spacingAndGlyphs" textLength="180" x="255" y="138.8198">binary address_id «FK» "住所ID"</text><!--MD5=[6c84c4f3a21a87fd355cd02b69660fa8]
class positions--><rect fill="#FEFECE" filter="url(#f12z0l97c401lf)" height="86.4141" id="positions" style="stroke: #A80036; stroke-width: 1.5;" width="181" x="38.5" y="205"/><ellipse cx="96.25" cy="221" fill="#ADD1B2" rx="11" ry="11" style="stroke: #A80036; stroke-width: 1.0;"/><path d="M100.3594,227 L92.6406,227 L92.6406,214.6094 L100.3594,214.6094 L100.3594,216.7656 L95.0938,216.7656 L95.0938,219.4375 L99.8594,219.4375 L99.8594,221.5938 L95.0938,221.5938 L95.0938,224.8438 L100.3594,224.8438 L100.3594,227 Z "/><text fill="#000000" font-family="sans-serif" font-size="12" lengthAdjust="spacingAndGlyphs" textLength="57" x="116.75" y="225.1543">positions</text><line style="stroke: #A80036; stroke-width: 1.5;" x1="39.5" x2="218.5" y1="237" y2="237"/><ellipse cx="49.5" cy="248" fill="#000000" rx="3" ry="3" style="stroke: #000000; stroke-width: 1.0;"/><text fill="#000000" font-family="sans-serif" font-size="11" lengthAdjust="spacingAndGlyphs" textLength="128" x="58.5" y="251.2104">binary id «PK» "役職ID"</text><line style="stroke: #A80036; stroke-width: 1.0;" x1="39.5" x2="218.5" y1="257.8047" y2="257.8047"/><text fill="#000000" font-family="sans-serif" font-size="11" lengthAdjust="spacingAndGlyphs" textLength="116" x="44.5" y="272.0151">string name "役職名"</text><text fill="#000000" font-family="sans-serif" font-size="11" lengthAdjust="spacingAndGlyphs" textLength="169" x="44.5" y="284.8198">binary facility_id «FK» "施設ID"</text><!--MD5=[812f124879d7479c543db8514bfe7b1c]
class teams--><rect fill="#FEFECE" filter="url(#f12z0l97c401lf)" height="86.4141" id="teams" style="stroke: #A80036; stroke-width: 1.5;" width="181" x="254.5" y="205"/><ellipse cx="321.25" cy="221" fill="#ADD1B2" rx="11" ry="11" style="stroke: #A80036; stroke-width: 1.0;"/><path d="M325.3594,227 L317.6406,227 L317.6406,214.6094 L325.3594,214.6094 L325.3594,216.7656 L320.0938,216.7656 L320.0938,219.4375 L324.8594,219.4375 L324.8594,221.5938 L320.0938,221.5938 L320.0938,224.8438 L325.3594,224.8438 L325.3594,227 Z "/><text fill="#000000" font-family="sans-serif" font-size="12" lengthAdjust="spacingAndGlyphs" textLength="39" x="341.75" y="225.1543">teams</text><line style="stroke: #A80036; stroke-width: 1.5;" x1="255.5" x2="434.5" y1="237" y2="237"/><ellipse cx="265.5" cy="248" fill="#000000" rx="3" ry="3" style="stroke: #000000; stroke-width: 1.0;"/><text fill="#000000" font-family="sans-serif" font-size="11" lengthAdjust="spacingAndGlyphs" textLength="81" x="274.5" y="251.2104">binary id «PK»</text><line style="stroke: #A80036; stroke-width: 1.0;" x1="255.5" x2="434.5" y1="257.8047" y2="257.8047"/><text fill="#000000" font-family="sans-serif" font-size="11" lengthAdjust="spacingAndGlyphs" textLength="127" x="260.5" y="272.0151">string name "チーム名"</text><text fill="#000000" font-family="sans-serif" font-size="11" lengthAdjust="spacingAndGlyphs" textLength="169" x="260.5" y="284.8198">binary facility_id «FK» "施設ID"</text><path d="M65,351 L65,406.3984 A0,0 0 0 0 65,406.3984 L193,406.3984 A0,0 0 0 0 193,406.3984 L193,361 L183,351 L133,351 L129,291.09 L125,351 L65,351 A0,0 0 0 0 65,351 " fill="#FBFB77" filter="url(#f12z0l97c401lf)" style="stroke: #A80036; stroke-width: 1.0;"/><path d="M183,351 L183,361 L193,361 L183,351 " fill="#FBFB77" style="stroke: #A80036; stroke-width: 1.0;"/><text fill="#000000" font-family="sans-serif" font-size="13" lengthAdjust="spacingAndGlyphs" textLength="94" x="71" y="368.0669">1: マネージャー</text><text fill="#000000" font-family="sans-serif" font-size="13" lengthAdjust="spacingAndGlyphs" textLength="107" x="71" y="383.1997">2: チームリーダー</text><text fill="#000000" font-family="sans-serif" font-size="13" lengthAdjust="spacingAndGlyphs" textLength="68" x="71" y="398.3325">2: メンバー</text><!--MD5=[7f814fef5106890c143ca53cdb5abaab]
class departments--><rect fill="#FEFECE" filter="url(#f12z0l97c401lf)" height="86.4141" id="departments" style="stroke: #A80036; stroke-width: 1.5;" width="181" x="470.5" y="205"/><ellipse cx="516.25" cy="221" fill="#ADD1B2" rx="11" ry="11" style="stroke: #A80036; stroke-width: 1.0;"/><path d="M520.3594,227 L512.6406,227 L512.6406,214.6094 L520.3594,214.6094 L520.3594,216.7656 L515.0938,216.7656 L515.0938,219.4375 L519.8594,219.4375 L519.8594,221.5938 L515.0938,221.5938 L515.0938,224.8438 L520.3594,224.8438 L520.3594,227 Z "/><text fill="#000000" font-family="sans-serif" font-size="12" lengthAdjust="spacingAndGlyphs" textLength="81" x="536.75" y="225.1543">departments</text><line style="stroke: #A80036; stroke-width: 1.5;" x1="471.5" x2="650.5" y1="237" y2="237"/><ellipse cx="481.5" cy="248" fill="#000000" rx="3" ry="3" style="stroke: #000000; stroke-width: 1.0;"/><text fill="#000000" font-family="sans-serif" font-size="11" lengthAdjust="spacingAndGlyphs" textLength="81" x="490.5" y="251.2104">binary id «PK»</text><line style="stroke: #A80036; stroke-width: 1.0;" x1="471.5" x2="650.5" y1="257.8047" y2="257.8047"/><text fill="#000000" font-family="sans-serif" font-size="11" lengthAdjust="spacingAndGlyphs" textLength="116" x="476.5" y="272.0151">string name "部署名"</text><text fill="#000000" font-family="sans-serif" font-size="11" lengthAdjust="spacingAndGlyphs" textLength="169" x="476.5" y="284.8198">binary facility_id «FK» "施設ID"</text><path d="M510,358.5 L510,398.7656 A0,0 0 0 0 510,398.7656 L612,398.7656 A0,0 0 0 0 612,398.7656 L612,368.5 L602,358.5 L565,358.5 L561,291.09 L557,358.5 L510,358.5 A0,0 0 0 0 510,358.5 " fill="#FBFB77" filter="url(#f12z0l97c401lf)" style="stroke: #A80036; stroke-width: 1.0;"/><path d="M602,358.5 L602,368.5 L612,368.5 L602,358.5 " fill="#FBFB77" style="stroke: #A80036; stroke-width: 1.0;"/><text fill="#000000" font-family="sans-serif" font-size="13" lengthAdjust="spacingAndGlyphs" textLength="55" x="516" y="375.5669">1: 看護部</text><text fill="#000000" font-family="sans-serif" font-size="13" lengthAdjust="spacingAndGlyphs" textLength="81" x="516" y="390.6997">2: リハビリ部</text><!--MD5=[d003f8a37d44c07b31f31fd69ff98ac7]
link facilities to positions--><path d="M241.69,102 C241.69,102 129,102 129,102 C129,102 129,197.98 129,197.98 " fill="none" id="facilities-positions" style="stroke: #A80036; stroke-width: 1.0;"/><line style="stroke: #A80036; stroke-width: 1.0;" x1="133" x2="125" y1="200.98" y2="200.98"/><line style="stroke: #A80036; stroke-width: 1.0;" x1="133" x2="125" y1="197.98" y2="197.98"/><line style="stroke: #A80036; stroke-width: 1.0;" x1="129" x2="129" y1="196.98" y2="204.98"/><line style="stroke: #A80036; stroke-width: 1.0;" x1="244.69" x2="244.69" y1="98" y2="106"/><line style="stroke: #A80036; stroke-width: 1.0;" x1="241.69" x2="241.69" y1="98" y2="106"/><line style="stroke: #A80036; stroke-width: 1.0;" x1="240.69" x2="248.69" y1="102" y2="102"/><!--MD5=[d6b85d7eafd4f84b541639795a90d001]
link facilities to teams--><path d="M345,152.02 C345,152.02 345,197.79 345,197.79 " fill="none" id="facilities-teams" style="stroke: #A80036; stroke-width: 1.0;"/><line style="stroke: #A80036; stroke-width: 1.0;" x1="349" x2="341" y1="200.79" y2="200.79"/><line style="stroke: #A80036; stroke-width: 1.0;" x1="349" x2="341" y1="197.79" y2="197.79"/><line style="stroke: #A80036; stroke-width: 1.0;" x1="345" x2="345" y1="196.79" y2="204.79"/><line style="stroke: #A80036; stroke-width: 1.0;" x1="341" x2="349" y1="149.02" y2="149.02"/><line style="stroke: #A80036; stroke-width: 1.0;" x1="341" x2="349" y1="152.02" y2="152.02"/><line style="stroke: #A80036; stroke-width: 1.0;" x1="345" x2="345" y1="153.02" y2="145.02"/><!--MD5=[b787ca73dabe4b02a8b51bcd16472646]
link facilities to departments--><path d="M448.31,102 C448.31,102 561,102 561,102 C561,102 561,197.98 561,197.98 " fill="none" id="facilities-departments" style="stroke: #A80036; stroke-width: 1.0;"/><line style="stroke: #A80036; stroke-width: 1.0;" x1="565" x2="557" y1="200.98" y2="200.98"/><line style="stroke: #A80036; stroke-width: 1.0;" x1="565" x2="557" y1="197.98" y2="197.98"/><line style="stroke: #A80036; stroke-width: 1.0;" x1="561" x2="561" y1="196.98" y2="204.98"/><line style="stroke: #A80036; stroke-width: 1.0;" x1="445.31" x2="445.31" y1="106" y2="98"/><line style="stroke: #A80036; stroke-width: 1.0;" x1="448.31" x2="448.31" y1="106" y2="98"/><line style="stroke: #A80036; stroke-width: 1.0;" x1="449.31" x2="441.31" y1="102" y2="102"/><!--MD5=[1c268c661ac7142874b093cbf6b0d871]
@startuml entity-relationship-diagram
skinparam linetype ortho
package 施設情報 {
  entity facilities {
    * binary id <<PK>>
    - -
    string name "施設名"
    binary address_id <<FK>> "住所ID"
  }
  entity positions {
    * binary id <<PK>> "役職ID"
    - -
    string name "役職名"
    binary facility_id <<FK>> "施設ID"
  }

  entity teams {
    * binary id <<PK>>
    - -
    string name "チーム名"
    binary facility_id <<FK>> "施設ID"
  }

  note bottom of positions
    1: マネージャー
    2: チームリーダー
    2: メンバー
  end note

  entity departments {
    * binary id <<PK>>
    - -
    string name "部署名"
    binary facility_id <<FK>> "施設ID"
  }

  note bottom of departments
    1: 看護部
    2: リハビリ部
  end note
  facilities ||- -|| positions
  facilities ||- -|| teams
  facilities ||- -|| departments
}


@enduml

PlantUML version 1.2020.02(Sun Mar 01 10:22:07 UTC 2020)
(GPL source distribution)
Java Runtime: OpenJDK Runtime Environment
JVM: OpenJDK 64-Bit Server VM
Java Version: 11.0.16+8
Operating System: Linux
Default Encoding: UTF-8
Language: en
Country: null
--></g></svg>