<svg xmlns="http://www.w3.org/2000/svg" xmlns:xlink="http://www.w3.org/1999/xlink" contentStyleType="text/css" height="509px" preserveAspectRatio="none" style="width:834px;height:509px;background:#FFFFFF;" version="1.1" viewBox="0 0 834 509" width="834px" zoomAndPan="magnify"><defs/><g><!--cluster ?????--><g id="cluster_&#32076;&#21942;&#12487;&#12540;&#12479;"><path d="M8.5,6 L79.5,6 A3.75,3.75 0 0 1 82,8.5 L89,28.4883 L680.5,28.4883 A2.5,2.5 0 0 1 683,30.9883 L683,499.87 A2.5,2.5 0 0 1 680.5,502.37 L8.5,502.37 A2.5,2.5 0 0 1 6,499.87 L6,8.5 A2.5,2.5 0 0 1 8.5,6 " fill="none" style="stroke:#000000;stroke-width:1.5;"/><line style="stroke:#000000;stroke-width:1.5;" x1="6" x2="89" y1="28.4883" y2="28.4883"/><text fill="#000000" font-family="sans-serif" font-size="14" font-weight="bold" lengthAdjust="spacing" textLength="70" x="10" y="21.5352">&#32076;&#21942;&#12487;&#12540;&#12479;</text></g><!--cluster ????--><g id="cluster_&#26045;&#35373;&#24773;&#22577;"><path d="M709.5,386.88 L766.5,386.88 A3.75,3.75 0 0 1 769,389.38 L776,409.3683 L824.5,409.3683 A2.5,2.5 0 0 1 827,411.8683 L827,483.38 A2.5,2.5 0 0 1 824.5,485.88 L709.5,485.88 A2.5,2.5 0 0 1 707,483.38 L707,389.38 A2.5,2.5 0 0 1 709.5,386.88 " fill="none" style="stroke:#000000;stroke-width:1.5;"/><line style="stroke:#000000;stroke-width:1.5;" x1="707" x2="776" y1="409.3683" y2="409.3683"/><text fill="#000000" font-family="sans-serif" font-size="14" font-weight="bold" lengthAdjust="spacing" textLength="56" x="711" y="402.4152">&#26045;&#35373;&#24773;&#22577;</text></g><!--class labor_management_item_names--><g id="elem_labor_management_item_names"><rect codeLine="4" fill="#F1F1F1" height="80.9766" id="labor_management_item_names" rx="2.5" ry="2.5" style="stroke:#181818;stroke-width:0.5;" width="251.0439" x="22.48" y="405.39"/><ellipse cx="37.48" cy="421.39" fill="#ADD1B2" rx="11" ry="11" style="stroke:#181818;stroke-width:1.0;"/><path d="M41.0943,427.89 L33.3745,427.89 L33.3745,415.4969 L41.0943,415.4969 L41.0943,417.6551 L35.8233,417.6551 L35.8233,420.328 L40.5962,420.328 L40.5962,422.4862 L35.8233,422.4862 L35.8233,425.7318 L41.0943,425.7318 Z " fill="#000000"/><text fill="#000000" font-family="sans-serif" font-size="14" lengthAdjust="spacing" textLength="219.0439" x="51.48" y="426.681">labor_management_item_names</text><line style="stroke:#181818;stroke-width:0.5;" x1="23.48" x2="272.5239" y1="437.39" y2="437.39"/><ellipse cx="33.48" cy="451.1341" fill="#000000" rx="3" ry="3" style="stroke:#000000;stroke-width:1.0;"/><text fill="#000000" font-family="sans-serif" font-size="14" lengthAdjust="spacing" textLength="78.8594" x="42.48" y="454.9252">ulid id &#171;PK&#187;</text><line style="stroke:#181818;stroke-width:1.0;" x1="23.48" x2="272.5239" y1="461.8783" y2="461.8783"/><text fill="#000000" font-family="sans-serif" font-size="14" lengthAdjust="spacing" textLength="208.1748" x="28.48" y="479.4134">string name "&#32076;&#21942;&#25968;&#20516;&#12398;&#38917;&#30446;&#21517;"</text></g><!--class labor_management_items--><g id="elem_labor_management_items"><rect codeLine="10" fill="#F1F1F1" height="146.9297" id="labor_management_items" rx="2.5" ry="2.5" style="stroke:#181818;stroke-width:0.5;" width="450.9424" x="216.53" y="198.46"/><ellipse cx="350.3742" cy="214.46" fill="#ADD1B2" rx="11" ry="11" style="stroke:#181818;stroke-width:1.0;"/><path d="M353.9885,220.96 L346.2688,220.96 L346.2688,208.5669 L353.9885,208.5669 L353.9885,210.7251 L348.7175,210.7251 L348.7175,213.398 L353.4904,213.398 L353.4904,215.5562 L348.7175,215.5562 L348.7175,218.8018 L353.9885,218.8018 Z " fill="#000000"/><text fill="#000000" font-family="sans-serif" font-size="14" lengthAdjust="spacing" textLength="174.7539" x="370.8742" y="219.751">labor_management_items</text><line style="stroke:#181818;stroke-width:0.5;" x1="217.53" x2="666.4724" y1="230.46" y2="230.46"/><ellipse cx="227.53" cy="244.2041" fill="#000000" rx="3" ry="3" style="stroke:#000000;stroke-width:1.0;"/><text fill="#000000" font-family="sans-serif" font-size="14" lengthAdjust="spacing" textLength="78.8594" x="236.53" y="247.9952">ulid id &#171;PK&#187;</text><line style="stroke:#181818;stroke-width:1.0;" x1="217.53" x2="666.4724" y1="254.9483" y2="254.9483"/><text fill="#000000" font-family="sans-serif" font-size="14" lengthAdjust="spacing" textLength="187.7764" x="222.53" y="272.4834">ulid facility_id &#171;FK&#187; "&#26045;&#35373;ID"</text><text fill="#000000" font-family="sans-serif" font-size="14" lengthAdjust="spacing" textLength="406.1436" x="222.53" y="288.9717">ulid monthly_labor_management_id &#171;FK&#187; "&#26376;&#27425;&#32076;&#21942;&#12487;&#12540;&#12479;ID"</text><text fill="#000000" font-family="sans-serif" font-size="14" lengthAdjust="spacing" textLength="438.9424" x="222.53" y="305.46">ulid labor_management_item_name_id &#171;FK&#187; "&#32076;&#21942;&#25968;&#20516;&#12398;&#38917;&#30446;&#21517;ID"</text><text fill="#000000" font-family="sans-serif" font-size="14" lengthAdjust="spacing" textLength="108.8008" x="222.53" y="321.9483">int data "&#12487;&#12540;&#12479;"</text><text fill="#000000" font-family="sans-serif" font-size="14" lengthAdjust="spacing" textLength="4.4297" x="222.53" y="338.4366">&#160;</text></g><g id="elem_GMN5"><path d="M308.5,433.23 L308.5,458.5405 A0,0 0 0 0 308.5,458.5405 L667.5,458.5405 A0,0 0 0 0 667.5,458.5405 L667.5,443.23 L657.5,433.23 L491.99,433.23 L487.99,345.7 L483.99,433.23 L308.5,433.23 A0,0 0 0 0 308.5,433.23 " fill="#FEFFDD" style="stroke:#181818;stroke-width:0.5;"/><path d="M657.5,433.23 L657.5,443.23 L667.5,443.23 L657.5,433.23 " fill="#FEFFDD" style="stroke:#181818;stroke-width:0.5;"/><text fill="#000000" font-family="sans-serif" font-size="13" lengthAdjust="spacing" textLength="338" x="314.5" y="450.7984">&#31639;&#20986;&#12399;&#12469;&#12540;&#12496;&#12540;&#12391;&#34892;&#12356;&#12289;&#35336;&#31639;&#12373;&#12428;&#12383;&#12487;&#12540;&#12479;&#12398;&#12415;&#12434;&#20445;&#23384;&#12377;&#12427;</text></g><!--class manthry_labor_managements--><g id="elem_manthry_labor_managements"><rect codeLine="24" fill="#F1F1F1" height="97.4648" id="manthry_labor_managements" rx="2.5" ry="2.5" style="stroke:#181818;stroke-width:0.5;" width="233.0586" x="379.47" y="41"/><ellipse cx="394.47" cy="57" fill="#ADD1B2" rx="11" ry="11" style="stroke:#181818;stroke-width:1.0;"/><path d="M398.0843,63.5 L390.3645,63.5 L390.3645,51.1069 L398.0843,51.1069 L398.0843,53.2651 L392.8133,53.2651 L392.8133,55.938 L397.5862,55.938 L397.5862,58.0962 L392.8133,58.0962 L392.8133,61.3418 L398.0843,61.3418 Z " fill="#000000"/><text fill="#000000" font-family="sans-serif" font-size="14" lengthAdjust="spacing" textLength="201.0586" x="408.47" y="62.291">manthry_labor_managements</text><line style="stroke:#181818;stroke-width:0.5;" x1="380.47" x2="611.5286" y1="73" y2="73"/><ellipse cx="390.47" cy="86.7441" fill="#000000" rx="3" ry="3" style="stroke:#000000;stroke-width:1.0;"/><text fill="#000000" font-family="sans-serif" font-size="14" lengthAdjust="spacing" textLength="78.8594" x="399.47" y="90.5352">ulid id &#171;PK&#187;</text><line style="stroke:#181818;stroke-width:1.0;" x1="380.47" x2="611.5286" y1="97.4883" y2="97.4883"/><text fill="#000000" font-family="sans-serif" font-size="14" lengthAdjust="spacing" textLength="187.7764" x="385.47" y="115.0234">ulid facility_id &#171;FK&#187; "&#26045;&#35373;ID"</text><text fill="#000000" font-family="sans-serif" font-size="14" lengthAdjust="spacing" textLength="107.1807" x="385.47" y="131.5117">date month "&#26376;"</text></g><!--class facilities--><g id="elem_facilities"><rect codeLine="33" fill="#F1F1F1" height="48" id="facilities" rx="2.5" ry="2.5" style="stroke:#181818;stroke-width:0.5;" width="88.4102" x="722.79" y="421.88"/><ellipse cx="737.79" cy="437.88" fill="#ADD1B2" rx="11" ry="11" style="stroke:#181818;stroke-width:1.0;"/><path d="M741.4043,444.38 L733.6845,444.38 L733.6845,431.9869 L741.4043,431.9869 L741.4043,434.1451 L736.1333,434.1451 L736.1333,436.818 L740.9062,436.818 L740.9062,438.9762 L736.1333,438.9762 L736.1333,442.2218 L741.4043,442.2218 Z " fill="#000000"/><text fill="#000000" font-family="sans-serif" font-size="14" lengthAdjust="spacing" textLength="56.4102" x="751.79" y="443.171">facilities</text><line style="stroke:#181818;stroke-width:0.5;" x1="723.79" x2="810.2002" y1="453.88" y2="453.88"/><line style="stroke:#181818;stroke-width:0.5;" x1="723.79" x2="810.2002" y1="461.88" y2="461.88"/></g><!--link manthry_labor_managements to labor_management_items--><g id="link_manthry_labor_managements_labor_management_items"><path codeLine="38" d="M496,146.56 C496,164.9 496,160.18 496,180.28 " fill="none" id="manthry_labor_managements-labor_management_items" style="stroke:#181818;stroke-width:1.0;"/><line style="stroke:#181818;stroke-width:1.0;" x1="492" x2="500" y1="142.56" y2="142.56"/><line style="stroke:#181818;stroke-width:1.0;" x1="492" x2="500" y1="145.56" y2="145.56"/><line style="stroke:#181818;stroke-width:1.0;" x1="496" x2="496" y1="146.56" y2="138.56"/><line style="stroke:#181818;stroke-width:1.0;" x1="496" x2="502" y1="190.28" y2="198.28"/><line style="stroke:#181818;stroke-width:1.0;" x1="496" x2="490" y1="190.28" y2="198.28"/><line style="stroke:#181818;stroke-width:1.0;" x1="496" x2="496" y1="190.28" y2="198.28"/><ellipse cx="496" cy="184.28" fill="none" rx="4" ry="4" style="stroke:#181818;stroke-width:1.0;"/></g><!--link manthry_labor_managements to facilities--><g id="link_manthry_labor_managements_facilities"><path codeLine="39" d="M620.63,89.73 C699.64,89.73 781.74,89.73 781.74,89.73 C781.74,89.73 781.74,332.94 781.74,413.4 " fill="none" id="manthry_labor_managements-facilities" style="stroke:#181818;stroke-width:1.0;"/><line style="stroke:#181818;stroke-width:1.0;" x1="616.63" x2="616.63" y1="93.73" y2="85.73"/><line style="stroke:#181818;stroke-width:1.0;" x1="619.63" x2="619.63" y1="93.73" y2="85.73"/><line style="stroke:#181818;stroke-width:1.0;" x1="620.63" x2="612.63" y1="89.73" y2="89.73"/><line style="stroke:#181818;stroke-width:1.0;" x1="785.74" x2="777.74" y1="417.4" y2="417.4"/><line style="stroke:#181818;stroke-width:1.0;" x1="785.74" x2="777.74" y1="414.4" y2="414.4"/><line style="stroke:#181818;stroke-width:1.0;" x1="781.74" x2="781.74" y1="413.4" y2="421.4"/></g><!--link labor_management_items to labor_management_item_names--><g id="link_labor_management_items_labor_management_item_names"><path codeLine="40" d="M245.03,363.7 C245.03,384.07 245.03,379.43 245.03,397.17 " fill="none" id="labor_management_items-labor_management_item_names" style="stroke:#181818;stroke-width:1.0;"/><line style="stroke:#181818;stroke-width:1.0;" x1="245.03" x2="239.03" y1="353.7" y2="345.7"/><line style="stroke:#181818;stroke-width:1.0;" x1="245.03" x2="251.03" y1="353.7" y2="345.7"/><line style="stroke:#181818;stroke-width:1.0;" x1="245.03" x2="245.03" y1="353.7" y2="345.7"/><ellipse cx="245.03" cy="359.7" fill="none" rx="4" ry="4" style="stroke:#181818;stroke-width:1.0;"/><line style="stroke:#181818;stroke-width:1.0;" x1="249.03" x2="241.03" y1="401.17" y2="401.17"/><line style="stroke:#181818;stroke-width:1.0;" x1="249.03" x2="241.03" y1="398.17" y2="398.17"/><line style="stroke:#181818;stroke-width:1.0;" x1="245.03" x2="245.03" y1="397.17" y2="405.17"/></g><!--link labor_management_items to facilities--><g id="link_labor_management_items_facilities"><path codeLine="41" d="M675.89,271.93 C723.81,271.93 752.26,271.93 752.26,271.93 C752.26,271.93 752.26,365.9 752.26,413.69 " fill="none" id="labor_management_items-facilities" style="stroke:#181818;stroke-width:1.0;"/><line style="stroke:#181818;stroke-width:1.0;" x1="671.89" x2="671.89" y1="275.93" y2="267.93"/><line style="stroke:#181818;stroke-width:1.0;" x1="674.89" x2="674.89" y1="275.93" y2="267.93"/><line style="stroke:#181818;stroke-width:1.0;" x1="675.89" x2="667.89" y1="271.93" y2="271.93"/><line style="stroke:#181818;stroke-width:1.0;" x1="756.26" x2="748.26" y1="417.69" y2="417.69"/><line style="stroke:#181818;stroke-width:1.0;" x1="756.26" x2="748.26" y1="414.69" y2="414.69"/><line style="stroke:#181818;stroke-width:1.0;" x1="752.26" x2="752.26" y1="413.69" y2="421.69"/></g><!--SRC=[hPDVIy9G6CRlzobUTXdi6uXN4KGtVODnrAa7jtDadYv41RSb2Xb8e1KLAGHvaLONTX657-OqjM_HySm_Avbr4OmDtltUvpbxtdU572PvP2CBJ4mCLimRG6sMfOgIHyaSoXWm7JNzpWltwjnxu-uOIWg0GHXcHJ1HWjgwXOZWB57JCJCidI3BA4WCO0UEJ9m2SSLYXmVnk2ngcdmKc8r91kOug87BfFtaL- -uC_pirgPNGxzrgWgqelnY-HSt-IQDajWKChf4zWG2wgJpFkiFzdVLDMPHmh9cKTyq2xLTDoOFlH_XV5E9JYUi4_NXIobC6AGGGw2kN5Hb6GgXp804POnQGDCHuGXkEZptww_SUUJkQAxXjUPtvtxMQtBdc5UTMRyX6EwqkIigjoihSIBkZBbxzZ6-yGSNtBdaxecSHagQXoOZR5dMtWpj7uSZSZ22uSZyWzseh5Sre2TUpUy-X_TqeOmNQobxbEZpbikQHajHQMxlAvT3Rah4jbQe1BVyFb6TcnPV]--></g></svg>