<svg xmlns="http://www.w3.org/2000/svg" xmlns:xlink="http://www.w3.org/1999/xlink" contentStyleType="text/css" height="417px" preserveAspectRatio="none" style="width:1358px;height:417px;background:#FFFFFF;" version="1.1" viewBox="0 0 1358 417" width="1358px" zoomAndPan="magnify"><defs/><g><!--cluster ????--><g id="cluster_&#24739;&#32773;&#24773;&#22577;"><path d="M8.5,6 L65.5,6 A3.75,3.75 0 0 1 68,8.5 L75,28.4883 L415.5,28.4883 A2.5,2.5 0 0 1 418,30.9883 L418,397.02 A2.5,2.5 0 0 1 415.5,399.52 L8.5,399.52 A2.5,2.5 0 0 1 6,397.02 L6,8.5 A2.5,2.5 0 0 1 8.5,6 " fill="none" style="stroke:#000000;stroke-width:1.5;"/><line style="stroke:#000000;stroke-width:1.5;" x1="6" x2="75" y1="28.4883" y2="28.4883"/><text fill="#000000" font-family="sans-serif" font-size="14" font-weight="bold" lengthAdjust="spacing" textLength="56" x="10" y="21.5352">&#24739;&#32773;&#24773;&#22577;</text></g><!--cluster ??--><g id="cluster_&#20303;&#25152;"><path d="M444.5,311.86 L473.5,311.86 A3.75,3.75 0 0 1 476,314.36 L483,334.3483 L571.5,334.3483 A2.5,2.5 0 0 1 574,336.8483 L574,408.36 A2.5,2.5 0 0 1 571.5,410.86 L444.5,410.86 A2.5,2.5 0 0 1 442,408.36 L442,314.36 A2.5,2.5 0 0 1 444.5,311.86 " fill="none" style="stroke:#000000;stroke-width:1.5;"/><line style="stroke:#000000;stroke-width:1.5;" x1="442" x2="483" y1="334.3483" y2="334.3483"/><text fill="#000000" font-family="sans-serif" font-size="14" font-weight="bold" lengthAdjust="spacing" textLength="28" x="446" y="327.3952">&#20303;&#25152;</text></g><!--cluster ???--><g id="cluster_&#12456;&#12522;&#12450;"><path d="M600.5,311.86 L643.5,311.86 A3.75,3.75 0 0 1 646,314.36 L653,334.3483 L695.5,334.3483 A2.5,2.5 0 0 1 698,336.8483 L698,408.36 A2.5,2.5 0 0 1 695.5,410.86 L600.5,410.86 A2.5,2.5 0 0 1 598,408.36 L598,314.36 A2.5,2.5 0 0 1 600.5,311.86 " fill="none" style="stroke:#000000;stroke-width:1.5;"/><line style="stroke:#000000;stroke-width:1.5;" x1="598" x2="653" y1="334.3483" y2="334.3483"/><text fill="#000000" font-family="sans-serif" font-size="14" font-weight="bold" lengthAdjust="spacing" textLength="42" x="602" y="327.3952">&#12456;&#12522;&#12450;</text></g><!--cluster ????--><g id="cluster_&#26045;&#35373;&#24773;&#22577;"><path d="M724.5,311.86 L781.5,311.86 A3.75,3.75 0 0 1 784,314.36 L791,334.3483 L839.5,334.3483 A2.5,2.5 0 0 1 842,336.8483 L842,408.36 A2.5,2.5 0 0 1 839.5,410.86 L724.5,410.86 A2.5,2.5 0 0 1 722,408.36 L722,314.36 A2.5,2.5 0 0 1 724.5,311.86 " fill="none" style="stroke:#000000;stroke-width:1.5;"/><line style="stroke:#000000;stroke-width:1.5;" x1="722" x2="791" y1="334.3483" y2="334.3483"/><text fill="#000000" font-family="sans-serif" font-size="14" font-weight="bold" lengthAdjust="spacing" textLength="56" x="726" y="327.3952">&#26045;&#35373;&#24773;&#22577;</text></g><!--cluster ????--><g id="cluster_&#32887;&#21729;&#24773;&#22577;"><path d="M868.5,311.86 L925.5,311.86 A3.75,3.75 0 0 1 928,314.36 L935,334.3483 L963.5,334.3483 A2.5,2.5 0 0 1 966,336.8483 L966,408.36 A2.5,2.5 0 0 1 963.5,410.86 L868.5,410.86 A2.5,2.5 0 0 1 866,408.36 L866,314.36 A2.5,2.5 0 0 1 868.5,311.86 " fill="none" style="stroke:#000000;stroke-width:1.5;"/><line style="stroke:#000000;stroke-width:1.5;" x1="866" x2="935" y1="334.3483" y2="334.3483"/><text fill="#000000" font-family="sans-serif" font-size="14" font-weight="bold" lengthAdjust="spacing" textLength="56" x="870" y="327.3952">&#32887;&#21729;&#24773;&#22577;</text></g><!--cluster ??--><g id="cluster_&#20104;&#23450;"><path d="M992.5,311.86 L1021.5,311.86 A3.75,3.75 0 0 1 1024,314.36 L1031,334.3483 L1348.5,334.3483 A2.5,2.5 0 0 1 1351,336.8483 L1351,408.36 A2.5,2.5 0 0 1 1348.5,410.86 L992.5,410.86 A2.5,2.5 0 0 1 990,408.36 L990,314.36 A2.5,2.5 0 0 1 992.5,311.86 " fill="none" style="stroke:#000000;stroke-width:1.5;"/><line style="stroke:#000000;stroke-width:1.5;" x1="990" x2="1031" y1="334.3483" y2="334.3483"/><text fill="#000000" font-family="sans-serif" font-size="14" font-weight="bold" lengthAdjust="spacing" textLength="28" x="994" y="327.3952">&#20104;&#23450;</text></g><!--class patients--><g id="elem_patients"><rect codeLine="4" fill="#F1F1F1" height="245.8594" id="patients" rx="2.5" ry="2.5" style="stroke:#181818;stroke-width:0.5;" width="331.0537" x="70.47" y="41"/><ellipse cx="204.4031" cy="57" fill="#ADD1B2" rx="11" ry="11" style="stroke:#181818;stroke-width:1.0;"/><path d="M208.0174,63.5 L200.2976,63.5 L200.2976,51.1069 L208.0174,51.1069 L208.0174,53.2651 L202.7464,53.2651 L202.7464,55.938 L207.5193,55.938 L207.5193,58.0962 L202.7464,58.0962 L202.7464,61.3418 L208.0174,61.3418 Z " fill="#000000"/><text fill="#000000" font-family="sans-serif" font-size="14" lengthAdjust="spacing" textLength="54.6875" x="224.9031" y="62.291">patients</text><line style="stroke:#181818;stroke-width:0.5;" x1="71.47" x2="400.5237" y1="73" y2="73"/><ellipse cx="81.47" cy="86.7441" fill="#000000" rx="3" ry="3" style="stroke:#000000;stroke-width:1.0;"/><text fill="#000000" font-family="sans-serif" font-size="14" lengthAdjust="spacing" textLength="133.4102" x="90.47" y="90.5352">ulid patient_id &#171;PK&#187;</text><line style="stroke:#181818;stroke-width:1.0;" x1="71.47" x2="400.5237" y1="97.4883" y2="97.4883"/><text fill="#000000" font-family="sans-serif" font-size="14" lengthAdjust="spacing" textLength="81.2861" x="76.47" y="115.0234">string name</text><text fill="#000000" font-family="sans-serif" font-size="14" lengthAdjust="spacing" textLength="319.0537" x="76.47" y="131.5117">string service_code_id "&#21463;&#12369;&#12390;&#12356;&#12427;&#12469;&#12540;&#12499;&#12473;&#20869;&#23481;"</text><text fill="#000000" font-family="sans-serif" font-size="14" lengthAdjust="spacing" textLength="272.9727" x="76.47" y="148">string preferred_datetime "&#24076;&#26395;&#12377;&#12427;&#26085;&#26178;"</text><text fill="#000000" font-family="sans-serif" font-size="14" lengthAdjust="spacing" textLength="188.5693" x="76.47" y="164.4883">int address_id &#171;FK&#187; "&#20303;&#25152;ID"</text><text fill="#000000" font-family="sans-serif" font-size="14" lengthAdjust="spacing" textLength="316.7979" x="76.47" y="180.9766">string preferred_gender "&#24076;&#26395;&#12377;&#12427;&#25285;&#24403;&#32773;&#12398;&#24615;&#21029;"</text><text fill="#000000" font-family="sans-serif" font-size="14" lengthAdjust="spacing" textLength="284.3613" x="76.47" y="197.4648">string user_id &#171;FK&#187; "&#25285;&#24403;&#12375;&#12390;&#12356;&#12427;&#30475;&#35703;&#24107;ID"</text><text fill="#000000" font-family="sans-serif" font-size="14" lengthAdjust="spacing" textLength="306.7148" x="76.47" y="213.9531">string recurring_schedule_id "&#32368;&#12426;&#36820;&#12375;&#20104;&#23450;ID"</text><text fill="#000000" font-family="sans-serif" font-size="14" lengthAdjust="spacing" textLength="227.999" x="76.47" y="230.4414">string area_id &#171;FK&#187; "&#25152;&#23646;&#12456;&#12522;&#12450;ID"</text><text fill="#000000" font-family="sans-serif" font-size="14" lengthAdjust="spacing" textLength="180.1543" x="76.47" y="246.9297">int facility_id &#171;FK&#187; "&#26045;&#35373;ID"</text><text fill="#000000" font-family="sans-serif" font-size="14" lengthAdjust="spacing" textLength="104.2549" x="76.47" y="263.418">date created_at</text><text fill="#000000" font-family="sans-serif" font-size="14" lengthAdjust="spacing" textLength="109.8672" x="76.47" y="279.9063">date updated_at</text></g><g id="elem_GMN4"><path d="M21.89,358.2 L21.89,383.5105 A0,0 0 0 0 21.89,383.5105 L402.1102,383.5105 A0,0 0 0 0 402.1102,383.5105 L402.1102,368.2 L392.1102,358.2 L184.82,358.2 L180.82,287.29 L176.82,358.2 L21.89,358.2 A0,0 0 0 0 21.89,358.2 " fill="#FEFFDD" style="stroke:#181818;stroke-width:0.5;"/><path d="M392.1102,358.2 L392.1102,368.2 L402.1102,368.2 L392.1102,358.2 " fill="#FEFFDD" style="stroke:#181818;stroke-width:0.5;"/><text fill="#000000" font-family="sans-serif" font-size="13" lengthAdjust="spacing" textLength="359.2202" x="27.89" y="375.7684">&#24076;&#26395;&#12377;&#12427;&#26085;&#26178;&#12399;&#12289;&#21320;&#21069;&#12539;&#21320;&#24460;&#12539;&#25351;&#23450;&#12394;&#12375;&#12398;3&#12388;&#12398;&#36984;&#25246;&#32930;&#12364;&#12354;&#12427;</text></g><!--class addresses--><g id="elem_addresses"><rect codeLine="25" fill="#F1F1F1" height="48" id="addresses" rx="2.5" ry="2.5" style="stroke:#181818;stroke-width:0.5;" width="100.0928" x="457.95" y="346.86"/><ellipse cx="472.95" cy="362.86" fill="#ADD1B2" rx="11" ry="11" style="stroke:#181818;stroke-width:1.0;"/><path d="M476.5643,369.36 L468.8445,369.36 L468.8445,356.9669 L476.5643,356.9669 L476.5643,359.1251 L471.2933,359.1251 L471.2933,361.798 L476.0662,361.798 L476.0662,363.9562 L471.2933,363.9562 L471.2933,367.2018 L476.5643,367.2018 Z " fill="#000000"/><text fill="#000000" font-family="sans-serif" font-size="14" lengthAdjust="spacing" textLength="68.0928" x="486.95" y="368.151">addresses</text><line style="stroke:#181818;stroke-width:0.5;" x1="458.95" x2="557.0428" y1="378.86" y2="378.86"/><line style="stroke:#181818;stroke-width:0.5;" x1="458.95" x2="557.0428" y1="386.86" y2="386.86"/></g><!--class areas--><g id="elem_areas"><rect codeLine="29" fill="#F1F1F1" height="48" id="areas" rx="2.5" ry="2.5" style="stroke:#181818;stroke-width:0.5;" width="68.1279" x="613.94" y="346.86"/><ellipse cx="628.94" cy="362.86" fill="#ADD1B2" rx="11" ry="11" style="stroke:#181818;stroke-width:1.0;"/><path d="M632.5543,369.36 L624.8345,369.36 L624.8345,356.9669 L632.5543,356.9669 L632.5543,359.1251 L627.2833,359.1251 L627.2833,361.798 L632.0562,361.798 L632.0562,363.9562 L627.2833,363.9562 L627.2833,367.2018 L632.5543,367.2018 Z " fill="#000000"/><text fill="#000000" font-family="sans-serif" font-size="14" lengthAdjust="spacing" textLength="36.1279" x="642.94" y="368.151">areas</text><line style="stroke:#181818;stroke-width:0.5;" x1="614.94" x2="681.0679" y1="378.86" y2="378.86"/><line style="stroke:#181818;stroke-width:0.5;" x1="614.94" x2="681.0679" y1="386.86" y2="386.86"/></g><!--class facilities--><g id="elem_facilities"><rect codeLine="33" fill="#F1F1F1" height="48" id="facilities" rx="2.5" ry="2.5" style="stroke:#181818;stroke-width:0.5;" width="88.4102" x="737.79" y="346.86"/><ellipse cx="752.79" cy="362.86" fill="#ADD1B2" rx="11" ry="11" style="stroke:#181818;stroke-width:1.0;"/><path d="M756.4043,369.36 L748.6845,369.36 L748.6845,356.9669 L756.4043,356.9669 L756.4043,359.1251 L751.1333,359.1251 L751.1333,361.798 L755.9062,361.798 L755.9062,363.9562 L751.1333,363.9562 L751.1333,367.2018 L756.4043,367.2018 Z " fill="#000000"/><text fill="#000000" font-family="sans-serif" font-size="14" lengthAdjust="spacing" textLength="56.4102" x="766.79" y="368.151">facilities</text><line style="stroke:#181818;stroke-width:0.5;" x1="738.79" x2="825.2002" y1="378.86" y2="378.86"/><line style="stroke:#181818;stroke-width:0.5;" x1="738.79" x2="825.2002" y1="386.86" y2="386.86"/></g><!--class users--><g id="elem_users"><rect codeLine="37" fill="#F1F1F1" height="48" id="users" rx="2.5" ry="2.5" style="stroke:#181818;stroke-width:0.5;" width="68.4902" x="881.75" y="346.86"/><ellipse cx="896.75" cy="362.86" fill="#ADD1B2" rx="11" ry="11" style="stroke:#181818;stroke-width:1.0;"/><path d="M900.3643,369.36 L892.6445,369.36 L892.6445,356.9669 L900.3643,356.9669 L900.3643,359.1251 L895.0933,359.1251 L895.0933,361.798 L899.8662,361.798 L899.8662,363.9562 L895.0933,363.9562 L895.0933,367.2018 L900.3643,367.2018 Z " fill="#000000"/><text fill="#000000" font-family="sans-serif" font-size="14" lengthAdjust="spacing" textLength="36.4902" x="910.75" y="368.151">users</text><line style="stroke:#181818;stroke-width:0.5;" x1="882.75" x2="949.2402" y1="378.86" y2="378.86"/><line style="stroke:#181818;stroke-width:0.5;" x1="882.75" x2="949.2402" y1="386.86" y2="386.86"/></g><!--class recurring_schedules--><g id="elem_recurring_schedules"><rect codeLine="41" fill="#F1F1F1" height="48" id="recurring_schedules" rx="2.5" ry="2.5" style="stroke:#181818;stroke-width:0.5;" width="168.5889" x="1005.71" y="346.86"/><ellipse cx="1020.71" cy="362.86" fill="#ADD1B2" rx="11" ry="11" style="stroke:#181818;stroke-width:1.0;"/><path d="M1024.3243,369.36 L1016.6045,369.36 L1016.6045,356.9669 L1024.3243,356.9669 L1024.3243,359.1251 L1019.0533,359.1251 L1019.0533,361.798 L1023.8262,361.798 L1023.8262,363.9562 L1019.0533,363.9562 L1019.0533,367.2018 L1024.3243,367.2018 Z " fill="#000000"/><text fill="#000000" font-family="sans-serif" font-size="14" lengthAdjust="spacing" textLength="136.5889" x="1034.71" y="368.151">recurring_schedules</text><line style="stroke:#181818;stroke-width:0.5;" x1="1006.71" x2="1173.2989" y1="378.86" y2="378.86"/><line style="stroke:#181818;stroke-width:0.5;" x1="1006.71" x2="1173.2989" y1="386.86" y2="386.86"/></g><!--class service_codes--><g id="elem_service_codes"><rect codeLine="42" fill="#F1F1F1" height="48" id="service_codes" rx="2.5" ry="2.5" style="stroke:#181818;stroke-width:0.5;" width="125.4473" x="1209.28" y="346.86"/><ellipse cx="1224.28" cy="362.86" fill="#ADD1B2" rx="11" ry="11" style="stroke:#181818;stroke-width:1.0;"/><path d="M1227.8943,369.36 L1220.1745,369.36 L1220.1745,356.9669 L1227.8943,356.9669 L1227.8943,359.1251 L1222.6233,359.1251 L1222.6233,361.798 L1227.3962,361.798 L1227.3962,363.9562 L1222.6233,363.9562 L1222.6233,367.2018 L1227.8943,367.2018 Z " fill="#000000"/><text fill="#000000" font-family="sans-serif" font-size="14" lengthAdjust="spacing" textLength="93.4473" x="1238.28" y="368.151">service_codes</text><line style="stroke:#181818;stroke-width:0.5;" x1="1210.28" x2="1333.7273" y1="378.86" y2="378.86"/><line style="stroke:#181818;stroke-width:0.5;" x1="1210.28" x2="1333.7273" y1="386.86" y2="386.86"/></g><!--link patients to facilities--><g id="link_patients_facilities"><path codeLine="45" d="M409.67,204.91 C570.34,204.91 782,204.91 782,204.91 C782,204.91 782,292.21 782,338.37 " fill="none" id="patients-facilities" style="stroke:#181818;stroke-width:1.0;"/><line style="stroke:#181818;stroke-width:1.0;" x1="405.67" x2="405.67" y1="208.91" y2="200.91"/><line style="stroke:#181818;stroke-width:1.0;" x1="408.67" x2="408.67" y1="208.91" y2="200.91"/><line style="stroke:#181818;stroke-width:1.0;" x1="409.67" x2="401.67" y1="204.91" y2="204.91"/><line style="stroke:#181818;stroke-width:1.0;" x1="786" x2="778" y1="342.37" y2="342.37"/><line style="stroke:#181818;stroke-width:1.0;" x1="786" x2="778" y1="339.37" y2="339.37"/><line style="stroke:#181818;stroke-width:1.0;" x1="782" x2="782" y1="338.37" y2="346.37"/></g><!--link patients to areas--><g id="link_patients_areas"><path codeLine="46" d="M409.8,245.88 C524.28,245.88 648,245.88 648,245.88 C648,245.88 648,302.1 648,338.47 " fill="none" id="patients-areas" style="stroke:#181818;stroke-width:1.0;"/><line style="stroke:#181818;stroke-width:1.0;" x1="405.8" x2="405.8" y1="249.88" y2="241.88"/><line style="stroke:#181818;stroke-width:1.0;" x1="408.8" x2="408.8" y1="249.88" y2="241.88"/><line style="stroke:#181818;stroke-width:1.0;" x1="409.8" x2="401.8" y1="245.88" y2="245.88"/><line style="stroke:#181818;stroke-width:1.0;" x1="652" x2="644" y1="342.47" y2="342.47"/><line style="stroke:#181818;stroke-width:1.0;" x1="652" x2="644" y1="339.47" y2="339.47"/><line style="stroke:#181818;stroke-width:1.0;" x1="648" x2="648" y1="338.47" y2="346.47"/></g><!--link patients to addresses--><g id="link_patients_addresses"><path codeLine="47" d="M291.18,295.1 C291.18,330.88 291.18,352.53 291.18,352.53 C291.18,352.53 385.66,352.53 449.71,352.53 " fill="none" id="patients-addresses" style="stroke:#181818;stroke-width:1.0;"/><line style="stroke:#181818;stroke-width:1.0;" x1="287.18" x2="295.18" y1="291.1" y2="291.1"/><line style="stroke:#181818;stroke-width:1.0;" x1="287.18" x2="295.18" y1="294.1" y2="294.1"/><line style="stroke:#181818;stroke-width:1.0;" x1="291.18" x2="291.18" y1="295.1" y2="287.1"/><line style="stroke:#181818;stroke-width:1.0;" x1="453.71" x2="453.71" y1="348.53" y2="356.53"/><line style="stroke:#181818;stroke-width:1.0;" x1="450.71" x2="450.71" y1="348.53" y2="356.53"/><line style="stroke:#181818;stroke-width:1.0;" x1="449.71" x2="457.71" y1="352.53" y2="352.53"/></g><!--link patients to service_codes--><g id="link_patients_service_codes"><path codeLine="48" d="M409.88,81.98 C702.55,81.98 1272,81.98 1272,81.98 C1272,81.98 1272,269.3 1272,338.73 " fill="none" id="patients-service_codes" style="stroke:#181818;stroke-width:1.0;"/><line style="stroke:#181818;stroke-width:1.0;" x1="405.88" x2="405.88" y1="85.98" y2="77.98"/><line style="stroke:#181818;stroke-width:1.0;" x1="408.88" x2="408.88" y1="85.98" y2="77.98"/><line style="stroke:#181818;stroke-width:1.0;" x1="409.88" x2="401.88" y1="81.98" y2="81.98"/><line style="stroke:#181818;stroke-width:1.0;" x1="1276" x2="1268" y1="342.73" y2="342.73"/><line style="stroke:#181818;stroke-width:1.0;" x1="1276" x2="1268" y1="339.73" y2="339.73"/><line style="stroke:#181818;stroke-width:1.0;" x1="1272" x2="1272" y1="338.73" y2="346.73"/></g><!--link patients to users--><g id="link_patients_users"><path codeLine="49" d="M409.91,163.93 C611.21,163.93 916,163.93 916,163.93 C916,163.93 916,284.13 916,338.72 " fill="none" id="patients-users" style="stroke:#181818;stroke-width:1.0;"/><line style="stroke:#181818;stroke-width:1.0;" x1="405.91" x2="405.91" y1="167.93" y2="159.93"/><line style="stroke:#181818;stroke-width:1.0;" x1="408.91" x2="408.91" y1="167.93" y2="159.93"/><line style="stroke:#181818;stroke-width:1.0;" x1="409.91" x2="401.91" y1="163.93" y2="163.93"/><line style="stroke:#181818;stroke-width:1.0;" x1="920" x2="912" y1="342.72" y2="342.72"/><line style="stroke:#181818;stroke-width:1.0;" x1="920" x2="912" y1="339.72" y2="339.72"/><line style="stroke:#181818;stroke-width:1.0;" x1="916" x2="916" y1="338.72" y2="346.72"/></g><!--link patients to recurring_schedules--><g id="link_patients_recurring_schedules"><path codeLine="50" d="M409.93,122.95 C658.32,122.95 1090,122.95 1090,122.95 C1090,122.95 1090,276.26 1090,338.64 " fill="none" id="patients-recurring_schedules" style="stroke:#181818;stroke-width:1.0;"/><line style="stroke:#181818;stroke-width:1.0;" x1="405.93" x2="405.93" y1="126.95" y2="118.95"/><line style="stroke:#181818;stroke-width:1.0;" x1="408.93" x2="408.93" y1="126.95" y2="118.95"/><line style="stroke:#181818;stroke-width:1.0;" x1="409.93" x2="401.93" y1="122.95" y2="122.95"/><line style="stroke:#181818;stroke-width:1.0;" x1="1094" x2="1086" y1="342.64" y2="342.64"/><line style="stroke:#181818;stroke-width:1.0;" x1="1094" x2="1086" y1="339.64" y2="339.64"/><line style="stroke:#181818;stroke-width:1.0;" x1="1090" x2="1090" y1="338.64" y2="346.64"/></g><!--SRC=[TLFDRjD04BxdALOv8kN4jUe98I4kl46qs9jqrSIsrckaYbJohWaaJQeA1H4LggeK2bLH0psW9a3WOQRhchTWRUV7Ft2mTZpppJSxtyowszHoCCDjrA8MuJiEGJRZMtQbuc1Z6pS92kNxoE-6GLUTNA6d5OI8nIdVGGxcL9jkuaFe3l9Qr5nwwzhSs7ZqS7Cp2TPgoU5oHgqcid2RPFzTmfvGWzGDsoHnObKTZ46y1F4Hn3EG0v3V8FW9mGZaJ3tlgicicart66aGneXPDp4ddBQ9PfWEmwEt80vrUZW-2mzbca8jZh1fCkAwwHNlwokYwity8Epx3-xzXxT9B9Em0kkWg-OZhGo8IUX_KhspNBAdcyfMIE4WngkkRey6qUMrcdukb6N4y5XirLrZYvXUAzNaTlOLv5xq-vNckFdUKvCtXJpC2CvLxFlgwXZaEGGN84-Nw5Y11ZPeIyym1tyzZyulbwXOIMHeHgxRntpjynnpxTlLdsLhxsERSxkDxCPgAtIaF0CGNy0NQh-d-liG_8YDNqDjXCCNkXyG5ua-axiWFkZZZvY6UyUHF0Kn124rIx9yPbAoihlUq7HwsTrSZ9YuMTXAYXnIzvX3fJgKrtsX6SrpHk9QZTwLqV7uSy1qP5b8USxkEfXz4WkUnMlhT6grJYTxdM8eRQdaNKbIZEHh5QDf9qNlFox_5m00]--></g></svg>