<?xml version="1.0" encoding="UTF-8" standalone="no"?><svg xmlns="http://www.w3.org/2000/svg" xmlns:xlink="http://www.w3.org/1999/xlink" contentScriptType="application/ecmascript" contentStyleType="text/css" height="371px" preserveAspectRatio="none" style="width:1388px;height:371px;" version="1.1" viewBox="0 0 1388 371" width="1388px" zoomAndPan="magnify"><defs><filter height="300%" id="f12439yhw3rvkp" width="300%" x="-1" y="-1"><feGaussianBlur result="blurOut" stdDeviation="2.0"/><feColorMatrix in="blurOut" result="blurOut2" type="matrix" values="0 0 0 0 0 0 0 0 0 0 0 0 0 0 0 0 0 0 .4 0"/><feOffset dx="4.0" dy="4.0" in="blurOut2" result="blurOut3"/><feBlend in="SourceGraphic" in2="blurOut3" mode="normal"/></filter></defs><g><!--MD5=[17926c9f6f73500917f0231ee648f0f2]
cluster 患者情報--><polygon fill="#FFFFFF" filter="url(#f12439yhw3rvkp)" points="22,24,84,24,91,46.2969,434,46.2969,434,347.5,22,347.5,22,24" style="stroke: #000000; stroke-width: 1.5;"/><line style="stroke: #000000; stroke-width: 1.5;" x1="22" x2="91" y1="46.2969" y2="46.2969"/><text fill="#000000" font-family="sans-serif" font-size="14" font-weight="bold" lengthAdjust="spacingAndGlyphs" textLength="56" x="26" y="38.9951">患者情報</text><!--MD5=[2357de52a651de3e3141a47d68960241]
cluster 住所--><polygon fill="#FFFFFF" filter="url(#f12439yhw3rvkp)" points="458,260,492,260,499,282.2969,588,282.2969,588,359,458,359,458,260" style="stroke: #000000; stroke-width: 1.5;"/><line style="stroke: #000000; stroke-width: 1.5;" x1="458" x2="499" y1="282.2969" y2="282.2969"/><text fill="#000000" font-family="sans-serif" font-size="14" font-weight="bold" lengthAdjust="spacingAndGlyphs" textLength="28" x="462" y="274.9951">住所</text><!--MD5=[9f6ffe30cb633c56d0808b0c68d66db5]
cluster エリア--><polygon fill="#FFFFFF" filter="url(#f12439yhw3rvkp)" points="612,260,660,260,667,282.2969,712,282.2969,712,359,612,359,612,260" style="stroke: #000000; stroke-width: 1.5;"/><line style="stroke: #000000; stroke-width: 1.5;" x1="612" x2="667" y1="282.2969" y2="282.2969"/><text fill="#000000" font-family="sans-serif" font-size="14" font-weight="bold" lengthAdjust="spacingAndGlyphs" textLength="42" x="616" y="274.9951">エリア</text><!--MD5=[eace04a6a715c010434b3f14fc7f454a]
cluster 施設情報--><polygon fill="#FFFFFF" filter="url(#f12439yhw3rvkp)" points="736,260,798,260,805,282.2969,852,282.2969,852,359,736,359,736,260" style="stroke: #000000; stroke-width: 1.5;"/><line style="stroke: #000000; stroke-width: 1.5;" x1="736" x2="805" y1="282.2969" y2="282.2969"/><text fill="#000000" font-family="sans-serif" font-size="14" font-weight="bold" lengthAdjust="spacingAndGlyphs" textLength="56" x="740" y="274.9951">施設情報</text><!--MD5=[af7553808e27414a6663019e1dd2c0e6]
cluster 職員情報--><polygon fill="#FFFFFF" filter="url(#f12439yhw3rvkp)" points="876,260,938,260,945,282.2969,976,282.2969,976,359,876,359,876,260" style="stroke: #000000; stroke-width: 1.5;"/><line style="stroke: #000000; stroke-width: 1.5;" x1="876" x2="945" y1="282.2969" y2="282.2969"/><text fill="#000000" font-family="sans-serif" font-size="14" font-weight="bold" lengthAdjust="spacingAndGlyphs" textLength="56" x="880" y="274.9951">職員情報</text><!--MD5=[d793eab0308b02564d964ddad9e6e3f5]
cluster 予定--><polygon fill="#FFFFFF" filter="url(#f12439yhw3rvkp)" points="1000,260,1034,260,1041,282.2969,1190,282.2969,1190,359,1000,359,1000,260" style="stroke: #000000; stroke-width: 1.5;"/><line style="stroke: #000000; stroke-width: 1.5;" x1="1000" x2="1041" y1="282.2969" y2="282.2969"/><text fill="#000000" font-family="sans-serif" font-size="14" font-weight="bold" lengthAdjust="spacingAndGlyphs" textLength="28" x="1004" y="274.9951">予定</text><!--MD5=[d43a93bed96446588d3c5fef43396a6d]
cluster 訪問情報--><polygon fill="#FFFFFF" filter="url(#f12439yhw3rvkp)" points="1214,260,1276,260,1283,282.2969,1366,282.2969,1366,359,1214,359,1214,260" style="stroke: #000000; stroke-width: 1.5;"/><line style="stroke: #000000; stroke-width: 1.5;" x1="1214" x2="1283" y1="282.2969" y2="282.2969"/><text fill="#000000" font-family="sans-serif" font-size="14" font-weight="bold" lengthAdjust="spacingAndGlyphs" textLength="56" x="1218" y="274.9951">訪問情報</text><!--MD5=[5f57dc4600bb33255e6857fe60f92832]
class patients--><rect fill="#FEFECE" filter="url(#f12439yhw3rvkp)" height="176.0469" id="patients" style="stroke: #A80036; stroke-width: 1.5;" width="274" x="144" y="59"/><ellipse cx="250.75" cy="75" fill="#ADD1B2" rx="11" ry="11" style="stroke: #A80036; stroke-width: 1.0;"/><path d="M254.8594,81 L247.1406,81 L247.1406,68.6094 L254.8594,68.6094 L254.8594,70.7656 L249.5938,70.7656 L249.5938,73.4375 L254.3594,73.4375 L254.3594,75.5938 L249.5938,75.5938 L249.5938,78.8438 L254.8594,78.8438 L254.8594,81 Z "/><text fill="#000000" font-family="sans-serif" font-size="12" lengthAdjust="spacingAndGlyphs" textLength="52" x="271.25" y="79.1543">patients</text><line style="stroke: #A80036; stroke-width: 1.5;" x1="145" x2="417" y1="91" y2="91"/><ellipse cx="155" cy="102" fill="#000000" rx="3" ry="3" style="stroke: #000000; stroke-width: 1.0;"/><text fill="#000000" font-family="sans-serif" font-size="11" lengthAdjust="spacingAndGlyphs" textLength="111" x="164" y="105.2104">ulid patient_id «PK»</text><line style="stroke: #A80036; stroke-width: 1.0;" x1="145" x2="417" y1="111.8047" y2="111.8047"/><text fill="#000000" font-family="sans-serif" font-size="11" lengthAdjust="spacingAndGlyphs" textLength="69" x="150" y="126.0151">string name</text><text fill="#000000" font-family="sans-serif" font-size="11" lengthAdjust="spacingAndGlyphs" textLength="262" x="150" y="138.8198">string service_code_id "受けているサービス内容"</text><text fill="#000000" font-family="sans-serif" font-size="11" lengthAdjust="spacingAndGlyphs" textLength="227" x="150" y="151.6245">string preferred_datetime "希望する日時"</text><text fill="#000000" font-family="sans-serif" font-size="11" lengthAdjust="spacingAndGlyphs" textLength="180" x="150" y="164.4292">binary address_id «FK» "住所ID"</text><text fill="#000000" font-family="sans-serif" font-size="11" lengthAdjust="spacingAndGlyphs" textLength="261" x="150" y="177.2339">string preferred_gender "希望する担当者の性別"</text><text fill="#000000" font-family="sans-serif" font-size="11" lengthAdjust="spacingAndGlyphs" textLength="234" x="150" y="190.0386">string user_id «FK» "担当している看護師ID"</text><text fill="#000000" font-family="sans-serif" font-size="11" lengthAdjust="spacingAndGlyphs" textLength="253" x="150" y="202.8433">string recurring_schedule_id "繰り返し予定ID"</text><text fill="#000000" font-family="sans-serif" font-size="11" lengthAdjust="spacingAndGlyphs" textLength="192" x="150" y="215.6479">binary area_id «FK» "所属エリアID"</text><text fill="#000000" font-family="sans-serif" font-size="11" lengthAdjust="spacingAndGlyphs" textLength="169" x="150" y="228.4526">binary facility_id «FK» "施設ID"</text><path d="M38,306.5 L38,331.6328 A0,0 0 0 0 38,331.6328 L418,331.6328 A0,0 0 0 0 418,331.6328 L418,316.5 L408,306.5 L285,306.5 L281,235.02 L277,306.5 L38,306.5 A0,0 0 0 0 38,306.5 " fill="#FBFB77" filter="url(#f12439yhw3rvkp)" style="stroke: #A80036; stroke-width: 1.0;"/><path d="M408,306.5 L408,316.5 L418,316.5 L408,306.5 " fill="#FBFB77" style="stroke: #A80036; stroke-width: 1.0;"/><text fill="#000000" font-family="sans-serif" font-size="13" lengthAdjust="spacingAndGlyphs" textLength="359" x="44" y="323.5669">希望する日時は、午前・午後・指定なしの3つの選択肢がある</text><!--MD5=[d7d6b8ea598e54491e439553c4a99edb]
class addresses--><rect fill="#FEFECE" filter="url(#f12439yhw3rvkp)" height="48" id="addresses" style="stroke: #A80036; stroke-width: 1.5;" width="98" x="474" y="295"/><ellipse cx="489" cy="311" fill="#ADD1B2" rx="11" ry="11" style="stroke: #A80036; stroke-width: 1.0;"/><path d="M493.1094,317 L485.3906,317 L485.3906,304.6094 L493.1094,304.6094 L493.1094,306.7656 L487.8438,306.7656 L487.8438,309.4375 L492.6094,309.4375 L492.6094,311.5938 L487.8438,311.5938 L487.8438,314.8438 L493.1094,314.8438 L493.1094,317 Z "/><text fill="#000000" font-family="sans-serif" font-size="12" lengthAdjust="spacingAndGlyphs" textLength="66" x="503" y="315.1543">addresses</text><line style="stroke: #A80036; stroke-width: 1.5;" x1="475" x2="571" y1="327" y2="327"/><line style="stroke: #A80036; stroke-width: 1.5;" x1="475" x2="571" y1="335" y2="335"/><!--MD5=[30b3f9d6383eda1018bee78f0b1f9fb5]
class areas--><rect fill="#FEFECE" filter="url(#f12439yhw3rvkp)" height="48" id="areas" style="stroke: #A80036; stroke-width: 1.5;" width="68" x="628" y="295"/><ellipse cx="643" cy="311" fill="#ADD1B2" rx="11" ry="11" style="stroke: #A80036; stroke-width: 1.0;"/><path d="M647.1094,317 L639.3906,317 L639.3906,304.6094 L647.1094,304.6094 L647.1094,306.7656 L641.8438,306.7656 L641.8438,309.4375 L646.6094,309.4375 L646.6094,311.5938 L641.8438,311.5938 L641.8438,314.8438 L647.1094,314.8438 L647.1094,317 Z "/><text fill="#000000" font-family="sans-serif" font-size="12" lengthAdjust="spacingAndGlyphs" textLength="36" x="657" y="315.1543">areas</text><line style="stroke: #A80036; stroke-width: 1.5;" x1="629" x2="695" y1="327" y2="327"/><line style="stroke: #A80036; stroke-width: 1.5;" x1="629" x2="695" y1="335" y2="335"/><!--MD5=[906b6f3cbaecf3ca9cf95c95e4e1b597]
class facilities--><rect fill="#FEFECE" filter="url(#f12439yhw3rvkp)" height="48" id="facilities" style="stroke: #A80036; stroke-width: 1.5;" width="83" x="752.5" y="295"/><ellipse cx="767.5" cy="311" fill="#ADD1B2" rx="11" ry="11" style="stroke: #A80036; stroke-width: 1.0;"/><path d="M771.6094,317 L763.8906,317 L763.8906,304.6094 L771.6094,304.6094 L771.6094,306.7656 L766.3438,306.7656 L766.3438,309.4375 L771.1094,309.4375 L771.1094,311.5938 L766.3438,311.5938 L766.3438,314.8438 L771.6094,314.8438 L771.6094,317 Z "/><text fill="#000000" font-family="sans-serif" font-size="12" lengthAdjust="spacingAndGlyphs" textLength="51" x="781.5" y="315.1543">facilities</text><line style="stroke: #A80036; stroke-width: 1.5;" x1="753.5" x2="834.5" y1="327" y2="327"/><line style="stroke: #A80036; stroke-width: 1.5;" x1="753.5" x2="834.5" y1="335" y2="335"/><!--MD5=[8413f8248b2da7966d2de021109ec289]
class users--><rect fill="#FEFECE" filter="url(#f12439yhw3rvkp)" height="48" id="users" style="stroke: #A80036; stroke-width: 1.5;" width="67" x="892.5" y="295"/><ellipse cx="907.5" cy="311" fill="#ADD1B2" rx="11" ry="11" style="stroke: #A80036; stroke-width: 1.0;"/><path d="M911.6094,317 L903.8906,317 L903.8906,304.6094 L911.6094,304.6094 L911.6094,306.7656 L906.3438,306.7656 L906.3438,309.4375 L911.1094,309.4375 L911.1094,311.5938 L906.3438,311.5938 L906.3438,314.8438 L911.6094,314.8438 L911.6094,317 Z "/><text fill="#000000" font-family="sans-serif" font-size="12" lengthAdjust="spacingAndGlyphs" textLength="35" x="921.5" y="315.1543">users</text><line style="stroke: #A80036; stroke-width: 1.5;" x1="893.5" x2="958.5" y1="327" y2="327"/><line style="stroke: #A80036; stroke-width: 1.5;" x1="893.5" x2="958.5" y1="335" y2="335"/><!--MD5=[797a6f84d7b864f3e98c7a18a9a69921]
class recurring_schedules--><rect fill="#FEFECE" filter="url(#f12439yhw3rvkp)" height="48" id="recurring_schedules" style="stroke: #A80036; stroke-width: 1.5;" width="159" x="1015.5" y="295"/><ellipse cx="1030.5" cy="311" fill="#ADD1B2" rx="11" ry="11" style="stroke: #A80036; stroke-width: 1.0;"/><path d="M1034.6094,317 L1026.8906,317 L1026.8906,304.6094 L1034.6094,304.6094 L1034.6094,306.7656 L1029.3438,306.7656 L1029.3438,309.4375 L1034.1094,309.4375 L1034.1094,311.5938 L1029.3438,311.5938 L1029.3438,314.8438 L1034.6094,314.8438 L1034.6094,317 Z "/><text fill="#000000" font-family="sans-serif" font-size="12" lengthAdjust="spacingAndGlyphs" textLength="127" x="1044.5" y="315.1543">recurring_schedules</text><line style="stroke: #A80036; stroke-width: 1.5;" x1="1016.5" x2="1173.5" y1="327" y2="327"/><line style="stroke: #A80036; stroke-width: 1.5;" x1="1016.5" x2="1173.5" y1="335" y2="335"/><!--MD5=[974c6912de8d83cf8a8aca8903c83a0e]
class service_codes--><rect fill="#FEFECE" filter="url(#f12439yhw3rvkp)" height="48" id="service_codes" style="stroke: #A80036; stroke-width: 1.5;" width="120" x="1230" y="295"/><ellipse cx="1245" cy="311" fill="#ADD1B2" rx="11" ry="11" style="stroke: #A80036; stroke-width: 1.0;"/><path d="M1249.1094,317 L1241.3906,317 L1241.3906,304.6094 L1249.1094,304.6094 L1249.1094,306.7656 L1243.8438,306.7656 L1243.8438,309.4375 L1248.6094,309.4375 L1248.6094,311.5938 L1243.8438,311.5938 L1243.8438,314.8438 L1249.1094,314.8438 L1249.1094,317 Z "/><text fill="#000000" font-family="sans-serif" font-size="12" lengthAdjust="spacingAndGlyphs" textLength="88" x="1259" y="315.1543">service_codes</text><line style="stroke: #A80036; stroke-width: 1.5;" x1="1231" x2="1349" y1="327" y2="327"/><line style="stroke: #A80036; stroke-width: 1.5;" x1="1231" x2="1349" y1="335" y2="335"/><!--MD5=[d822adadb8a8e444c39cc03d9cfb0ca5]
link patients to facilities--><path d="M425.14,160 C425.14,160 794,160 794,160 C794,160 794,287.85 794,287.85 " fill="none" id="patients-facilities" style="stroke: #A80036; stroke-width: 1.0;"/><line style="stroke: #A80036; stroke-width: 1.0;" x1="798" x2="790" y1="290.85" y2="290.85"/><line style="stroke: #A80036; stroke-width: 1.0;" x1="798" x2="790" y1="287.85" y2="287.85"/><line style="stroke: #A80036; stroke-width: 1.0;" x1="794" x2="794" y1="286.85" y2="294.85"/><line style="stroke: #A80036; stroke-width: 1.0;" x1="422.14" x2="422.14" y1="164" y2="156"/><line style="stroke: #A80036; stroke-width: 1.0;" x1="425.14" x2="425.14" y1="164" y2="156"/><line style="stroke: #A80036; stroke-width: 1.0;" x1="426.14" x2="418.14" y1="160" y2="160"/><!--MD5=[3691b9c2aba943b1ed03f4f34a97bfe2]
link patients to areas--><path d="M425.01,185 C425.01,185 662,185 662,185 C662,185 662,287.73 662,287.73 " fill="none" id="patients-areas" style="stroke: #A80036; stroke-width: 1.0;"/><line style="stroke: #A80036; stroke-width: 1.0;" x1="666" x2="658" y1="290.73" y2="290.73"/><line style="stroke: #A80036; stroke-width: 1.0;" x1="666" x2="658" y1="287.73" y2="287.73"/><line style="stroke: #A80036; stroke-width: 1.0;" x1="662" x2="662" y1="286.73" y2="294.73"/><line style="stroke: #A80036; stroke-width: 1.0;" x1="422.01" x2="422.01" y1="189" y2="181"/><line style="stroke: #A80036; stroke-width: 1.0;" x1="425.01" x2="425.01" y1="189" y2="181"/><line style="stroke: #A80036; stroke-width: 1.0;" x1="426.01" x2="418.01" y1="185" y2="185"/><!--MD5=[5ca2b119c8b95754b79f9a96772bdf96]
link patients to addresses--><path d="M425.26,210 C425.26,210 523,210 523,210 C523,210 523,287.81 523,287.81 " fill="none" id="patients-addresses" style="stroke: #A80036; stroke-width: 1.0;"/><line style="stroke: #A80036; stroke-width: 1.0;" x1="527" x2="519" y1="290.81" y2="290.81"/><line style="stroke: #A80036; stroke-width: 1.0;" x1="527" x2="519" y1="287.81" y2="287.81"/><line style="stroke: #A80036; stroke-width: 1.0;" x1="523" x2="523" y1="286.81" y2="294.81"/><line style="stroke: #A80036; stroke-width: 1.0;" x1="422.26" x2="422.26" y1="214" y2="206"/><line style="stroke: #A80036; stroke-width: 1.0;" x1="425.26" x2="425.26" y1="214" y2="206"/><line style="stroke: #A80036; stroke-width: 1.0;" x1="426.26" x2="418.26" y1="210" y2="210"/><!--MD5=[af8c97b1e191fdfcbe41f78c35418c66]
link patients to service_codes--><path d="M425.13,85 C425.13,85 1290,85 1290,85 C1290,85 1290,287.84 1290,287.84 " fill="none" id="patients-service_codes" style="stroke: #A80036; stroke-width: 1.0;"/><line style="stroke: #A80036; stroke-width: 1.0;" x1="1294" x2="1286" y1="290.84" y2="290.84"/><line style="stroke: #A80036; stroke-width: 1.0;" x1="1294" x2="1286" y1="287.84" y2="287.84"/><line style="stroke: #A80036; stroke-width: 1.0;" x1="1290" x2="1290" y1="286.84" y2="294.84"/><line style="stroke: #A80036; stroke-width: 1.0;" x1="422.13" x2="422.13" y1="89" y2="81"/><line style="stroke: #A80036; stroke-width: 1.0;" x1="425.13" x2="425.13" y1="89" y2="81"/><line style="stroke: #A80036; stroke-width: 1.0;" x1="426.13" x2="418.13" y1="85" y2="85"/><!--MD5=[bf57a974b7f8fc277764811bf0957b96]
link patients to users--><path d="M425.18,135 C425.18,135 926,135 926,135 C926,135 926,287.95 926,287.95 " fill="none" id="patients-users" style="stroke: #A80036; stroke-width: 1.0;"/><line style="stroke: #A80036; stroke-width: 1.0;" x1="930" x2="922" y1="290.95" y2="290.95"/><line style="stroke: #A80036; stroke-width: 1.0;" x1="930" x2="922" y1="287.95" y2="287.95"/><line style="stroke: #A80036; stroke-width: 1.0;" x1="926" x2="926" y1="286.95" y2="294.95"/><line style="stroke: #A80036; stroke-width: 1.0;" x1="422.18" x2="422.18" y1="139" y2="131"/><line style="stroke: #A80036; stroke-width: 1.0;" x1="425.18" x2="425.18" y1="139" y2="131"/><line style="stroke: #A80036; stroke-width: 1.0;" x1="426.18" x2="418.18" y1="135" y2="135"/><!--MD5=[8dad19ce277694d695ae3d525c556b5a]
link patients to recurring_schedules--><path d="M425.16,110 C425.16,110 1095,110 1095,110 C1095,110 1095,287.62 1095,287.62 " fill="none" id="patients-recurring_schedules" style="stroke: #A80036; stroke-width: 1.0;"/><line style="stroke: #A80036; stroke-width: 1.0;" x1="1099" x2="1091" y1="290.62" y2="290.62"/><line style="stroke: #A80036; stroke-width: 1.0;" x1="1099" x2="1091" y1="287.62" y2="287.62"/><line style="stroke: #A80036; stroke-width: 1.0;" x1="1095" x2="1095" y1="286.62" y2="294.62"/><line style="stroke: #A80036; stroke-width: 1.0;" x1="422.16" x2="422.16" y1="114" y2="106"/><line style="stroke: #A80036; stroke-width: 1.0;" x1="425.16" x2="425.16" y1="114" y2="106"/><line style="stroke: #A80036; stroke-width: 1.0;" x1="426.16" x2="418.16" y1="110" y2="110"/><!--MD5=[5b29aae644fdda37d9ea8def9ea369c9]
@startuml entity-relationship-diagram
skinparam linetype ortho

package 患者情報 {
  entity patients {
    * ulid patient_id <<PK>>
    - -
    string name
    string service_code_id "受けているサービス内容"
    string preferred_datetime "希望する日時"
    binary address_id <<FK>> "住所ID"
    string preferred_gender "希望する担当者の性別"
    string user_id <<FK>> "担当している看護師ID"
    string recurring_schedule_id "繰り返し予定ID"
    binary area_id <<FK>> "所属エリアID"
    binary facility_id <<FK>> "施設ID"
  }
  note bottom of patients
  希望する日時は、午前・午後・指定なしの3つの選択肢がある
  end note
}

package 住所 {
  entity addresses
}

package エリア {
  entity areas
}

package 施設情報 {
  entity facilities
}

package 職員情報 {
  entity users
}

package 予定 {
  entity recurring_schedules
}

package 訪問情報 {
  entity service_codes
}

patients ||- -|| facilities
patients ||- -|| areas
patients ||- -|| addresses
patients ||- -|| service_codes
patients ||- -|| users
patients ||- -|| recurring_schedules
@enduml

PlantUML version 1.2020.02(Sun Mar 01 10:22:07 UTC 2020)
(GPL source distribution)
Java Runtime: OpenJDK Runtime Environment
JVM: OpenJDK 64-Bit Server VM
Java Version: 11.0.16+8
Operating System: Linux
Default Encoding: UTF-8
Language: en
Country: null
--></g></svg>