<?xml version="1.0" encoding="UTF-8" standalone="no"?><svg xmlns="http://www.w3.org/2000/svg" xmlns:xlink="http://www.w3.org/1999/xlink" contentScriptType="application/ecmascript" contentStyleType="text/css" height="553px" preserveAspectRatio="none" style="width:1278px;height:553px;" version="1.1" viewBox="0 0 1278 553" width="1278px" zoomAndPan="magnify"><defs><filter height="300%" id="f167buyk70zdyo" width="300%" x="-1" y="-1"><feGaussianBlur result="blurOut" stdDeviation="2.0"/><feColorMatrix in="blurOut" result="blurOut2" type="matrix" values="0 0 0 0 0 0 0 0 0 0 0 0 0 0 0 0 0 0 .4 0"/><feOffset dx="4.0" dy="4.0" in="blurOut2" result="blurOut3"/><feBlend in="SourceGraphic" in2="blurOut3" mode="normal"/></filter></defs><g><!--MD5=[ae09dabfa09c874c19446006d7b92480]
cluster 権限--><polygon fill="#FFFFFF" filter="url(#f167buyk70zdyo)" points="22,24,56,24,63,46.2969,988,46.2969,988,541,22,541,22,24" style="stroke: #000000; stroke-width: 1.5;"/><line style="stroke: #000000; stroke-width: 1.5;" x1="22" x2="63" y1="46.2969" y2="46.2969"/><text fill="#000000" font-family="sans-serif" font-size="14" font-weight="bold" lengthAdjust="spacingAndGlyphs" textLength="28" x="26" y="38.9951">権限</text><!--MD5=[af7553808e27414a6663019e1dd2c0e6]
cluster 職員情報--><polygon fill="#FFFFFF" filter="url(#f167buyk70zdyo)" points="1156,37,1218,37,1225,59.2969,1256,59.2969,1256,136,1156,136,1156,37" style="stroke: #000000; stroke-width: 1.5;"/><line style="stroke: #000000; stroke-width: 1.5;" x1="1156" x2="1225" y1="59.2969" y2="59.2969"/><text fill="#000000" font-family="sans-serif" font-size="14" font-weight="bold" lengthAdjust="spacingAndGlyphs" textLength="56" x="1160" y="51.9951">職員情報</text><!--MD5=[eace04a6a715c010434b3f14fc7f454a]
cluster 施設情報--><polygon fill="#FFFFFF" filter="url(#f167buyk70zdyo)" points="1012,37,1074,37,1081,59.2969,1132,59.2969,1132,136,1012,136,1012,37" style="stroke: #000000; stroke-width: 1.5;"/><line style="stroke: #000000; stroke-width: 1.5;" x1="1012" x2="1081" y1="59.2969" y2="59.2969"/><text fill="#000000" font-family="sans-serif" font-size="14" font-weight="bold" lengthAdjust="spacingAndGlyphs" textLength="56" x="1016" y="51.9951">施設情報</text><!--MD5=[b6245c3b9fb71e5f96fc6befd4fbd7b3]
class policies--><rect fill="#FEFECE" filter="url(#f167buyk70zdyo)" height="73.6094" id="policies" style="stroke: #A80036; stroke-width: 1.5;" width="150" x="610" y="59"/><ellipse cx="657.25" cy="75" fill="#ADD1B2" rx="11" ry="11" style="stroke: #A80036; stroke-width: 1.0;"/><path d="M661.3594,81 L653.6406,81 L653.6406,68.6094 L661.3594,68.6094 L661.3594,70.7656 L656.0938,70.7656 L656.0938,73.4375 L660.8594,73.4375 L660.8594,75.5938 L656.0938,75.5938 L656.0938,78.8438 L661.3594,78.8438 L661.3594,81 Z "/><text fill="#000000" font-family="sans-serif" font-size="12" lengthAdjust="spacingAndGlyphs" textLength="47" x="677.75" y="79.1543">policies</text><line style="stroke: #A80036; stroke-width: 1.5;" x1="611" x2="759" y1="91" y2="91"/><text fill="#000000" font-family="sans-serif" font-size="11" lengthAdjust="spacingAndGlyphs" textLength="107" x="616" y="105.2104">id: binary(16) «PK»</text><line style="stroke: #A80036; stroke-width: 1.0;" x1="611" x2="759" y1="111.8047" y2="111.8047"/><text fill="#000000" font-family="sans-serif" font-size="11" lengthAdjust="spacingAndGlyphs" textLength="138" x="616" y="126.0151">string name "ポリシー名"</text><!--MD5=[2f257e76f8e3329912bd507a0dd4f261]
class position_policies--><rect fill="#FEFECE" filter="url(#f167buyk70zdyo)" height="86.4141" id="position_policies" style="stroke: #A80036; stroke-width: 1.5;" width="225" x="442.5" y="193"/><ellipse cx="499.25" cy="209" fill="#ADD1B2" rx="11" ry="11" style="stroke: #A80036; stroke-width: 1.0;"/><path d="M503.3594,215 L495.6406,215 L495.6406,202.6094 L503.3594,202.6094 L503.3594,204.7656 L498.0938,204.7656 L498.0938,207.4375 L502.8594,207.4375 L502.8594,209.5938 L498.0938,209.5938 L498.0938,212.8438 L503.3594,212.8438 L503.3594,215 Z "/><text fill="#000000" font-family="sans-serif" font-size="12" lengthAdjust="spacingAndGlyphs" textLength="103" x="519.75" y="213.1543">position_policies</text><line style="stroke: #A80036; stroke-width: 1.5;" x1="443.5" x2="666.5" y1="225" y2="225"/><text fill="#000000" font-family="sans-serif" font-size="11" lengthAdjust="spacingAndGlyphs" textLength="107" x="448.5" y="239.2104">id: binary(16) «PK»</text><line style="stroke: #A80036; stroke-width: 1.0;" x1="443.5" x2="666.5" y1="245.8047" y2="245.8047"/><text fill="#000000" font-family="sans-serif" font-size="11" lengthAdjust="spacingAndGlyphs" textLength="204" x="448.5" y="260.0151">position_id: binary(16) «FK» "役職ID"</text><text fill="#000000" font-family="sans-serif" font-size="11" lengthAdjust="spacingAndGlyphs" textLength="213" x="448.5" y="272.8198">policy_id: binary(16) «FK» "ポリシーID"</text><path d="M38,362 L38,402.2656 L398,402.2656 L398,372 L388,362 L38,362 " fill="#FBFB77" filter="url(#f167buyk70zdyo)" style="stroke: #A80036; stroke-width: 1.0;"/><path d="M388,362 L388,372 L398,372 L388,362 " fill="#FBFB77" style="stroke: #A80036; stroke-width: 1.0;"/><text fill="#000000" font-family="sans-serif" font-size="13" lengthAdjust="spacingAndGlyphs" textLength="234" x="44" y="379.0669">役職ごとに設定されるデフォルトの権限</text><text fill="#000000" font-family="sans-serif" font-size="13" lengthAdjust="spacingAndGlyphs" textLength="339" x="44" y="394.1997">役職が追加・変更された際に、UserPolicyが上書きされる</text><!--MD5=[c4338755aabecda9480e1cd4778f674f]
class user_policies--><rect fill="#FEFECE" filter="url(#f167buyk70zdyo)" height="86.4141" id="user_policies" style="stroke: #A80036; stroke-width: 1.5;" width="225" x="702.5" y="193"/><ellipse cx="770.25" cy="209" fill="#ADD1B2" rx="11" ry="11" style="stroke: #A80036; stroke-width: 1.0;"/><path d="M774.3594,215 L766.6406,215 L766.6406,202.6094 L774.3594,202.6094 L774.3594,204.7656 L769.0938,204.7656 L769.0938,207.4375 L773.8594,207.4375 L773.8594,209.5938 L769.0938,209.5938 L769.0938,212.8438 L774.3594,212.8438 L774.3594,215 Z "/><text fill="#000000" font-family="sans-serif" font-size="12" lengthAdjust="spacingAndGlyphs" textLength="81" x="790.75" y="213.1543">user_policies</text><line style="stroke: #A80036; stroke-width: 1.5;" x1="703.5" x2="926.5" y1="225" y2="225"/><text fill="#000000" font-family="sans-serif" font-size="11" lengthAdjust="spacingAndGlyphs" textLength="107" x="708.5" y="239.2104">id: binary(16) «PK»</text><line style="stroke: #A80036; stroke-width: 1.0;" x1="703.5" x2="926.5" y1="245.8047" y2="245.8047"/><text fill="#000000" font-family="sans-serif" font-size="11" lengthAdjust="spacingAndGlyphs" textLength="211" x="708.5" y="260.0151">staff_id: binary(16)  «FK» "ユーザーID"</text><text fill="#000000" font-family="sans-serif" font-size="11" lengthAdjust="spacingAndGlyphs" textLength="213" x="708.5" y="272.8198">policy_id: binary(16) «FK» "ポリシーID"</text><path d="M433,362 L433,402.2656 L623,402.2656 L623,372 L613,362 L433,362 " fill="#FBFB77" filter="url(#f167buyk70zdyo)" style="stroke: #A80036; stroke-width: 1.0;"/><path d="M613,362 L613,372 L623,372 L613,362 " fill="#FBFB77" style="stroke: #A80036; stroke-width: 1.0;"/><text fill="#000000" font-family="sans-serif" font-size="13" lengthAdjust="spacingAndGlyphs" textLength="156" x="439" y="379.0669">ユーザーが持っている権限</text><text fill="#000000" font-family="sans-serif" font-size="13" lengthAdjust="spacingAndGlyphs" textLength="169" x="439" y="394.1997">認可にはこの情報を参照する</text><!--MD5=[b016a77ebb6b22a5d6d381114c43f7a5]
class user_policy_targets--><rect fill="#FEFECE" filter="url(#f167buyk70zdyo)" height="86.4141" id="user_policy_targets" style="stroke: #A80036; stroke-width: 1.5;" width="314" x="658" y="339"/><ellipse cx="750.25" cy="355" fill="#ADD1B2" rx="11" ry="11" style="stroke: #A80036; stroke-width: 1.0;"/><path d="M754.3594,361 L746.6406,361 L746.6406,348.6094 L754.3594,348.6094 L754.3594,350.7656 L749.0938,350.7656 L749.0938,353.4375 L753.8594,353.4375 L753.8594,355.5938 L749.0938,355.5938 L749.0938,358.8438 L754.3594,358.8438 L754.3594,361 Z "/><text fill="#000000" font-family="sans-serif" font-size="12" lengthAdjust="spacingAndGlyphs" textLength="121" x="770.75" y="359.1543">user_policy_targets</text><line style="stroke: #A80036; stroke-width: 1.5;" x1="659" x2="971" y1="371" y2="371"/><text fill="#000000" font-family="sans-serif" font-size="11" lengthAdjust="spacingAndGlyphs" textLength="107" x="664" y="385.2104">id: binary(16) «PK»</text><line style="stroke: #A80036; stroke-width: 1.0;" x1="659" x2="971" y1="391.8047" y2="391.8047"/><text fill="#000000" font-family="sans-serif" font-size="11" lengthAdjust="spacingAndGlyphs" textLength="289" x="664" y="406.0151">user_policy_id: binary(16) «FK» "ユーザーポリシーID"</text><text fill="#000000" font-family="sans-serif" font-size="11" lengthAdjust="spacingAndGlyphs" textLength="302" x="664" y="418.8198">target_user_id: binary(16) «FK» "ターゲットユーザーID"</text><path d="M586.5,485 L586.5,525.2656 A0,0 0 0 0 586.5,525.2656 L971.5,525.2656 A0,0 0 0 0 971.5,525.2656 L971.5,495 L961.5,485 L818.75,485 L814.75,425.02 L810.75,485 L586.5,485 A0,0 0 0 0 586.5,485 " fill="#FBFB77" filter="url(#f167buyk70zdyo)" style="stroke: #A80036; stroke-width: 1.0;"/><path d="M961.5,485 L961.5,495 L971.5,495 L961.5,485 " fill="#FBFB77" style="stroke: #A80036; stroke-width: 1.0;"/><text fill="#000000" font-family="sans-serif" font-size="13" lengthAdjust="spacingAndGlyphs" textLength="364" x="592.5" y="502.0669">特定のユーザーポリシーに関連するターゲットユーザーの管理</text><text fill="#000000" font-family="sans-serif" font-size="13" lengthAdjust="spacingAndGlyphs" textLength="203" x="592.5" y="517.1997">例: カレンダーの閲覧対象ユーザー</text><!--MD5=[8413f8248b2da7966d2de021109ec289]
class users--><rect fill="#FEFECE" filter="url(#f167buyk70zdyo)" height="48" id="users" style="stroke: #A80036; stroke-width: 1.5;" width="67" x="1172.5" y="72"/><ellipse cx="1187.5" cy="88" fill="#ADD1B2" rx="11" ry="11" style="stroke: #A80036; stroke-width: 1.0;"/><path d="M1191.6094,94 L1183.8906,94 L1183.8906,81.6094 L1191.6094,81.6094 L1191.6094,83.7656 L1186.3438,83.7656 L1186.3438,86.4375 L1191.1094,86.4375 L1191.1094,88.5938 L1186.3438,88.5938 L1186.3438,91.8438 L1191.6094,91.8438 L1191.6094,94 Z "/><text fill="#000000" font-family="sans-serif" font-size="12" lengthAdjust="spacingAndGlyphs" textLength="35" x="1201.5" y="92.1543">users</text><line style="stroke: #A80036; stroke-width: 1.5;" x1="1173.5" x2="1238.5" y1="104" y2="104"/><line style="stroke: #A80036; stroke-width: 1.5;" x1="1173.5" x2="1238.5" y1="112" y2="112"/><!--MD5=[6c84c4f3a21a87fd355cd02b69660fa8]
class positions--><rect fill="#FEFECE" filter="url(#f167buyk70zdyo)" height="48" id="positions" style="stroke: #A80036; stroke-width: 1.5;" width="89" x="1027.5" y="72"/><ellipse cx="1042.5" cy="88" fill="#ADD1B2" rx="11" ry="11" style="stroke: #A80036; stroke-width: 1.0;"/><path d="M1046.6094,94 L1038.8906,94 L1038.8906,81.6094 L1046.6094,81.6094 L1046.6094,83.7656 L1041.3438,83.7656 L1041.3438,86.4375 L1046.1094,86.4375 L1046.1094,88.5938 L1041.3438,88.5938 L1041.3438,91.8438 L1046.6094,91.8438 L1046.6094,94 Z "/><text fill="#000000" font-family="sans-serif" font-size="12" lengthAdjust="spacingAndGlyphs" textLength="57" x="1056.5" y="92.1543">positions</text><line style="stroke: #A80036; stroke-width: 1.5;" x1="1028.5" x2="1115.5" y1="104" y2="104"/><line style="stroke: #A80036; stroke-width: 1.5;" x1="1028.5" x2="1115.5" y1="112" y2="112"/><!--MD5=[390e7321322147f8391227fe8b66992c]
link position_policies to GMN5--><path d="M442.32,236 C344.35,236 218,236 218,236 C218,236 218,321.58 218,361.7 " fill="none" id="position_policies-GMN5" style="stroke: #A80036; stroke-width: 1.0; stroke-dasharray: 7.0,7.0;"/><!--MD5=[a0c1a28dc7e625f8f7e1492ec9df0662]
link user_policies to GMN9--><path d="M777.5,279.31 C777.5,295.03 777.5,309 777.5,309 C777.5,309 532.75,309 532.75,309 C532.75,309 532.75,340.07 532.75,361.67 " fill="none" id="user_policies-GMN9" style="stroke: #A80036; stroke-width: 1.0; stroke-dasharray: 7.0,7.0;"/><!--MD5=[08487274bbb669543550a1d509544c9e]
link policies to position_policies--><path d="M629.17,141.15 C629.17,141.15 629.17,184.97 629.17,184.97 " fill="none" id="policies-position_policies" style="stroke: #A80036; stroke-width: 1.0;"/><line style="stroke: #A80036; stroke-width: 1.0;" x1="629.17" x2="635.17" y1="184.97" y2="192.97"/><line style="stroke: #A80036; stroke-width: 1.0;" x1="629.17" x2="623.17" y1="184.97" y2="192.97"/><line style="stroke: #A80036; stroke-width: 1.0;" x1="629.17" x2="629.17" y1="184.97" y2="192.97"/><ellipse cx="629.17" cy="178.97" fill="none" rx="4" ry="4" style="stroke: #A80036; stroke-width: 1.0;"/><line style="stroke: #A80036; stroke-width: 1.0;" x1="625.17" x2="633.17" y1="137.15" y2="137.15"/><line style="stroke: #A80036; stroke-width: 1.0;" x1="625.17" x2="633.17" y1="140.15" y2="140.15"/><line style="stroke: #A80036; stroke-width: 1.0;" x1="629.17" x2="629.17" y1="141.15" y2="133.15"/><!--MD5=[3e410c4ca1440bafa1af5caeb2914890]
link policies to user_policies--><path d="M731.25,141.15 C731.25,141.15 731.25,184.97 731.25,184.97 " fill="none" id="policies-user_policies" style="stroke: #A80036; stroke-width: 1.0;"/><line style="stroke: #A80036; stroke-width: 1.0;" x1="731.25" x2="737.25" y1="184.97" y2="192.97"/><line style="stroke: #A80036; stroke-width: 1.0;" x1="731.25" x2="725.25" y1="184.97" y2="192.97"/><line style="stroke: #A80036; stroke-width: 1.0;" x1="731.25" x2="731.25" y1="184.97" y2="192.97"/><ellipse cx="731.25" cy="178.97" fill="none" rx="4" ry="4" style="stroke: #A80036; stroke-width: 1.0;"/><line style="stroke: #A80036; stroke-width: 1.0;" x1="727.25" x2="735.25" y1="137.15" y2="137.15"/><line style="stroke: #A80036; stroke-width: 1.0;" x1="727.25" x2="735.25" y1="140.15" y2="140.15"/><line style="stroke: #A80036; stroke-width: 1.0;" x1="731.25" x2="731.25" y1="141.15" y2="133.15"/><!--MD5=[60eea88c16a8b6e32b999ef7f1b2f856]
link users to user_policies--><path d="M1194.83,128.07 C1194.83,128.07 1194.83,236 1194.83,236 C1194.83,236 935.68,236 935.68,236 " fill="none" id="users-user_policies" style="stroke: #A80036; stroke-width: 1.0;"/><line style="stroke: #A80036; stroke-width: 1.0;" x1="935.68" x2="927.68" y1="236" y2="242"/><line style="stroke: #A80036; stroke-width: 1.0;" x1="935.68" x2="927.68" y1="236" y2="230"/><line style="stroke: #A80036; stroke-width: 1.0;" x1="935.68" x2="927.68" y1="236" y2="236"/><ellipse cx="941.68" cy="236" fill="none" rx="4" ry="4" style="stroke: #A80036; stroke-width: 1.0;"/><line style="stroke: #A80036; stroke-width: 1.0;" x1="1190.83" x2="1198.83" y1="124.07" y2="124.07"/><line style="stroke: #A80036; stroke-width: 1.0;" x1="1190.83" x2="1198.83" y1="127.07" y2="127.07"/><line style="stroke: #A80036; stroke-width: 1.0;" x1="1194.83" x2="1194.83" y1="128.07" y2="120.07"/><!--MD5=[287a4fc58412cac724cea39acf313a9f]
link positions to position_policies--><path d="M1072,128.19 C1072,128.19 1072,163 1072,163 C1072,163 648.33,163 648.33,163 C648.33,163 648.33,184.69 648.33,184.69 " fill="none" id="positions-position_policies" style="stroke: #A80036; stroke-width: 1.0;"/><line style="stroke: #A80036; stroke-width: 1.0;" x1="648.33" x2="654.33" y1="184.69" y2="192.69"/><line style="stroke: #A80036; stroke-width: 1.0;" x1="648.33" x2="642.33" y1="184.69" y2="192.69"/><line style="stroke: #A80036; stroke-width: 1.0;" x1="648.33" x2="648.33" y1="184.69" y2="192.69"/><ellipse cx="648.33" cy="178.69" fill="none" rx="4" ry="4" style="stroke: #A80036; stroke-width: 1.0;"/><line style="stroke: #A80036; stroke-width: 1.0;" x1="1068" x2="1076" y1="124.19" y2="124.19"/><line style="stroke: #A80036; stroke-width: 1.0;" x1="1068" x2="1076" y1="127.19" y2="127.19"/><line style="stroke: #A80036; stroke-width: 1.0;" x1="1072" x2="1072" y1="128.19" y2="120.19"/><!--MD5=[b76c18be5ef248a587318f3ae98b6419]
link user_policies to user_policy_targets--><path d="M852.5,287.02 C852.5,287.02 852.5,330.79 852.5,330.79 " fill="none" id="user_policies-user_policy_targets" style="stroke: #A80036; stroke-width: 1.0;"/><line style="stroke: #A80036; stroke-width: 1.0;" x1="852.5" x2="858.5" y1="330.79" y2="338.79"/><line style="stroke: #A80036; stroke-width: 1.0;" x1="852.5" x2="846.5" y1="330.79" y2="338.79"/><line style="stroke: #A80036; stroke-width: 1.0;" x1="852.5" x2="852.5" y1="330.79" y2="338.79"/><ellipse cx="852.5" cy="324.79" fill="none" rx="4" ry="4" style="stroke: #A80036; stroke-width: 1.0;"/><line style="stroke: #A80036; stroke-width: 1.0;" x1="848.5" x2="856.5" y1="283.02" y2="283.02"/><line style="stroke: #A80036; stroke-width: 1.0;" x1="848.5" x2="856.5" y1="286.02" y2="286.02"/><line style="stroke: #A80036; stroke-width: 1.0;" x1="852.5" x2="852.5" y1="287.02" y2="279.02"/><!--MD5=[642326cadcde8dc177b835bc50c8ca0b]
link users to user_policy_targets--><path d="M1217.17,128.38 C1217.17,128.38 1217.17,382 1217.17,382 C1217.17,382 980.22,382 980.22,382 " fill="none" id="users-user_policy_targets" style="stroke: #A80036; stroke-width: 1.0;"/><line style="stroke: #A80036; stroke-width: 1.0;" x1="980.22" x2="972.22" y1="382" y2="388"/><line style="stroke: #A80036; stroke-width: 1.0;" x1="980.22" x2="972.22" y1="382" y2="376"/><line style="stroke: #A80036; stroke-width: 1.0;" x1="980.22" x2="972.22" y1="382" y2="382"/><ellipse cx="986.22" cy="382" fill="none" rx="4" ry="4" style="stroke: #A80036; stroke-width: 1.0;"/><line style="stroke: #A80036; stroke-width: 1.0;" x1="1213.17" x2="1221.17" y1="124.38" y2="124.38"/><line style="stroke: #A80036; stroke-width: 1.0;" x1="1213.17" x2="1221.17" y1="127.38" y2="127.38"/><line style="stroke: #A80036; stroke-width: 1.0;" x1="1217.17" x2="1217.17" y1="128.38" y2="120.38"/><!--MD5=[a3f0d74917d79ea6b176f34a07f6cbac]
@startuml entity-relationship-diagram
skinparam linetype ortho

package 権限 {
  entity policies {
    id: binary(16) <<PK>>
    - -
    string name "ポリシー名"
  }

  entity position_policies {
    id: binary(16) <<PK>>
    - -
    position_id: binary(16) <<FK>> "役職ID"
    policy_id: binary(16) <<FK>> "ポリシーID"
  }
  note bottom of position_policies
    役職ごとに設定されるデフォルトの権限
    役職が追加・変更された際に、UserPolicyが上書きされる
  end note

  entity user_policies {
    id: binary(16) <<PK>>
    - -
    staff_id: binary(16)  <<FK>> "ユーザーID"
    policy_id: binary(16) <<FK>> "ポリシーID"
  }
  note bottom of user_policies
    ユーザーが持っている権限
    認可にはこの情報を参照する
  end note

  entity user_policy_targets {
    id: binary(16) <<PK>>
    - -
    user_policy_id: binary(16) <<FK>> "ユーザーポリシーID"
    target_user_id: binary(16) <<FK>> "ターゲットユーザーID"
  }
  note bottom of user_policy_targets
    特定のユーザーポリシーに関連するターゲットユーザーの管理
    例: カレンダーの閲覧対象ユーザー
  end note
}

package 職員情報 {
  entity users
}

package 施設情報 {
  entity positions
}

policies ||- -o{ position_policies
policies ||- -o{ user_policies
users ||- -o{ user_policies
positions ||- -o{ position_policies
user_policies ||- -o{ user_policy_targets
users ||- -o{ user_policy_targets
@enduml

PlantUML version 1.2020.02(Sun Mar 01 10:22:07 UTC 2020)
(GPL source distribution)
Java Runtime: OpenJDK Runtime Environment
JVM: OpenJDK 64-Bit Server VM
Java Version: 11.0.16+8
Operating System: Linux
Default Encoding: UTF-8
Language: en
Country: null
--></g></svg>