<svg xmlns="http://www.w3.org/2000/svg" xmlns:xlink="http://www.w3.org/1999/xlink" contentStyleType="text/css" height="560px" preserveAspectRatio="none" style="width:1283px;height:560px;background:#FFFFFF;" version="1.1" viewBox="0 0 1283 560" width="1283px" zoomAndPan="magnify"><defs/><g><!--cluster ??--><g id="cluster_&#27177;&#38480;"><path d="M8.5,6 L37.5,6 A3.75,3.75 0 0 1 40,8.5 L47,28.4883 L999.5,28.4883 A2.5,2.5 0 0 1 1002,30.9883 L1002,551.03 A2.5,2.5 0 0 1 999.5,553.53 L8.5,553.53 A2.5,2.5 0 0 1 6,551.03 L6,8.5 A2.5,2.5 0 0 1 8.5,6 " fill="none" style="stroke:#000000;stroke-width:1.5;"/><line style="stroke:#000000;stroke-width:1.5;" x1="6" x2="47" y1="28.4883" y2="28.4883"/><text fill="#000000" font-family="sans-serif" font-size="14" font-weight="bold" lengthAdjust="spacing" textLength="28" x="10" y="21.5352">&#27177;&#38480;</text></g><!--cluster ????--><g id="cluster_&#32887;&#21729;&#24773;&#22577;"><path d="M1178.5,22.49 L1235.5,22.49 A3.75,3.75 0 0 1 1238,24.99 L1245,44.9783 L1273.5,44.9783 A2.5,2.5 0 0 1 1276,47.4783 L1276,118.99 A2.5,2.5 0 0 1 1273.5,121.49 L1178.5,121.49 A2.5,2.5 0 0 1 1176,118.99 L1176,24.99 A2.5,2.5 0 0 1 1178.5,22.49 " fill="none" style="stroke:#000000;stroke-width:1.5;"/><line style="stroke:#000000;stroke-width:1.5;" x1="1176" x2="1245" y1="44.9783" y2="44.9783"/><text fill="#000000" font-family="sans-serif" font-size="14" font-weight="bold" lengthAdjust="spacing" textLength="56" x="1180" y="38.0252">&#32887;&#21729;&#24773;&#22577;</text></g><!--cluster ????--><g id="cluster_&#26045;&#35373;&#24773;&#22577;"><path d="M1028.5,22.49 L1085.5,22.49 A3.75,3.75 0 0 1 1088,24.99 L1095,44.9783 L1149.5,44.9783 A2.5,2.5 0 0 1 1152,47.4783 L1152,118.99 A2.5,2.5 0 0 1 1149.5,121.49 L1028.5,121.49 A2.5,2.5 0 0 1 1026,118.99 L1026,24.99 A2.5,2.5 0 0 1 1028.5,22.49 " fill="none" style="stroke:#000000;stroke-width:1.5;"/><line style="stroke:#000000;stroke-width:1.5;" x1="1026" x2="1095" y1="44.9783" y2="44.9783"/><text fill="#000000" font-family="sans-serif" font-size="14" font-weight="bold" lengthAdjust="spacing" textLength="56" x="1030" y="38.0252">&#26045;&#35373;&#24773;&#22577;</text></g><!--class policies--><g id="elem_policies"><rect codeLine="4" fill="#F1F1F1" height="80.9766" id="policies" rx="2.5" ry="2.5" style="stroke:#181818;stroke-width:0.5;" width="178.1748" x="585.91" y="41"/><ellipse cx="644.9178" cy="57" fill="#ADD1B2" rx="11" ry="11" style="stroke:#181818;stroke-width:1.0;"/><path d="M648.5321,63.5 L640.8123,63.5 L640.8123,51.1069 L648.5321,51.1069 L648.5321,53.2651 L643.2611,53.2651 L643.2611,55.938 L648.034,55.938 L648.034,58.0962 L643.2611,58.0962 L643.2611,61.3418 L648.5321,61.3418 Z " fill="#000000"/><text fill="#000000" font-family="sans-serif" font-size="14" lengthAdjust="spacing" textLength="51.6592" x="665.4178" y="62.291">policies</text><line style="stroke:#181818;stroke-width:0.5;" x1="586.91" x2="763.0848" y1="73" y2="73"/><ellipse cx="596.91" cy="86.7441" fill="#000000" rx="3" ry="3" style="stroke:#000000;stroke-width:1.0;"/><text fill="#000000" font-family="sans-serif" font-size="14" lengthAdjust="spacing" textLength="95.5869" x="605.91" y="90.5352">binary id &#171;PK&#187;</text><line style="stroke:#181818;stroke-width:1.0;" x1="586.91" x2="763.0848" y1="97.4883" y2="97.4883"/><text fill="#000000" font-family="sans-serif" font-size="14" lengthAdjust="spacing" textLength="166.1748" x="591.91" y="115.0234">string name "&#12509;&#12522;&#12471;&#12540;&#21517;"</text></g><!--class position_policies--><g id="elem_position_policies"><rect codeLine="10" fill="#F1F1F1" height="97.4648" id="position_policies" rx="2.5" ry="2.5" style="stroke:#181818;stroke-width:0.5;" width="239.7529" x="418.12" y="181.98"/><ellipse cx="476.8339" cy="197.98" fill="#ADD1B2" rx="11" ry="11" style="stroke:#181818;stroke-width:1.0;"/><path d="M480.4481,204.48 L472.7284,204.48 L472.7284,192.0869 L480.4481,192.0869 L480.4481,194.2451 L475.1771,194.2451 L475.1771,196.918 L479.9501,196.918 L479.9501,199.0762 L475.1771,199.0762 L475.1771,202.3218 L480.4481,202.3218 Z " fill="#000000"/><text fill="#000000" font-family="sans-serif" font-size="14" lengthAdjust="spacing" textLength="113.8252" x="497.3339" y="203.271">position_policies</text><line style="stroke:#181818;stroke-width:0.5;" x1="419.12" x2="656.8729" y1="213.98" y2="213.98"/><ellipse cx="429.12" cy="227.7241" fill="#000000" rx="3" ry="3" style="stroke:#000000;stroke-width:1.0;"/><text fill="#000000" font-family="sans-serif" font-size="14" lengthAdjust="spacing" textLength="95.5869" x="438.12" y="231.5152">binary id &#171;PK&#187;</text><line style="stroke:#181818;stroke-width:1.0;" x1="419.12" x2="656.8729" y1="238.4683" y2="238.4683"/><text fill="#000000" font-family="sans-serif" font-size="14" lengthAdjust="spacing" textLength="214.9287" x="424.12" y="256.0034">binary position_id &#171;FK&#187; "&#24441;&#32887;ID"</text><text fill="#000000" font-family="sans-serif" font-size="14" lengthAdjust="spacing" textLength="227.7529" x="424.12" y="272.4917">binary policy_id &#171;FK&#187; "&#12509;&#12522;&#12471;&#12540;ID"</text></g><g id="elem_GMN5"><path d="M21.83,367.87 L21.83,408.4911 L380.1635,408.4911 L380.1635,377.87 L370.1635,367.87 L21.83,367.87 " fill="#FEFFDD" style="stroke:#181818;stroke-width:0.5;"/><path d="M370.1635,367.87 L370.1635,377.87 L380.1635,377.87 L370.1635,367.87 " fill="#FEFFDD" style="stroke:#181818;stroke-width:1.0;"/><text fill="#000000" font-family="sans-serif" font-size="13" lengthAdjust="spacing" textLength="234" x="27.83" y="385.4384">&#24441;&#32887;&#12372;&#12392;&#12395;&#35373;&#23450;&#12373;&#12428;&#12427;&#12487;&#12501;&#12457;&#12523;&#12488;&#12398;&#27177;&#38480;</text><text fill="#000000" font-family="sans-serif" font-size="13" lengthAdjust="spacing" textLength="337.3335" x="27.83" y="400.7489">&#24441;&#32887;&#12364;&#36861;&#21152;&#12539;&#22793;&#26356;&#12373;&#12428;&#12383;&#38555;&#12395;&#12289;UserPolicy&#12364;&#19978;&#26360;&#12365;&#12373;&#12428;&#12427;</text></g><!--class user_policies--><g id="elem_user_policies"><rect codeLine="21" fill="#F1F1F1" height="97.4648" id="user_policies" rx="2.5" ry="2.5" style="stroke:#181818;stroke-width:0.5;" width="239.7529" x="693.12" y="181.98"/><ellipse cx="764.7401" cy="197.98" fill="#ADD1B2" rx="11" ry="11" style="stroke:#181818;stroke-width:1.0;"/><path d="M768.3544,204.48 L760.6346,204.48 L760.6346,192.0869 L768.3544,192.0869 L768.3544,194.2451 L763.0834,194.2451 L763.0834,196.918 L767.8563,196.918 L767.8563,199.0762 L763.0834,199.0762 L763.0834,202.3218 L768.3544,202.3218 Z " fill="#000000"/><text fill="#000000" font-family="sans-serif" font-size="14" lengthAdjust="spacing" textLength="88.0127" x="785.2401" y="203.271">user_policies</text><line style="stroke:#181818;stroke-width:0.5;" x1="694.12" x2="931.8729" y1="213.98" y2="213.98"/><ellipse cx="704.12" cy="227.7241" fill="#000000" rx="3" ry="3" style="stroke:#000000;stroke-width:1.0;"/><text fill="#000000" font-family="sans-serif" font-size="14" lengthAdjust="spacing" textLength="95.5869" x="713.12" y="231.5152">binary id &#171;PK&#187;</text><line style="stroke:#181818;stroke-width:1.0;" x1="694.12" x2="931.8729" y1="238.4683" y2="238.4683"/><text fill="#000000" font-family="sans-serif" font-size="14" lengthAdjust="spacing" textLength="217.1162" x="699.12" y="256.0034">binary user_id &#171;FK&#187; "&#12518;&#12540;&#12470;&#12540;ID"</text><text fill="#000000" font-family="sans-serif" font-size="14" lengthAdjust="spacing" textLength="227.7529" x="699.12" y="272.4917">binary policy_id &#171;FK&#187; "&#12509;&#12522;&#12471;&#12540;ID"</text></g><g id="elem_GMN9"><path d="M415,367.87 L415,408.4911 L605,408.4911 L605,377.87 L595,367.87 L415,367.87 " fill="#FEFFDD" style="stroke:#181818;stroke-width:0.5;"/><path d="M595,367.87 L595,377.87 L605,377.87 L595,367.87 " fill="#FEFFDD" style="stroke:#181818;stroke-width:1.0;"/><text fill="#000000" font-family="sans-serif" font-size="13" lengthAdjust="spacing" textLength="156" x="421" y="385.4384">&#12518;&#12540;&#12470;&#12540;&#12364;&#25345;&#12387;&#12390;&#12356;&#12427;&#27177;&#38480;</text><text fill="#000000" font-family="sans-serif" font-size="13" lengthAdjust="spacing" textLength="169" x="421" y="400.7489">&#35469;&#21487;&#12395;&#12399;&#12371;&#12398;&#24773;&#22577;&#12434;&#21442;&#29031;&#12377;&#12427;</text></g><!--class user_policy_targets--><g id="elem_user_policy_targets"><rect codeLine="32" fill="#F1F1F1" height="97.4648" id="user_policy_targets" rx="2.5" ry="2.5" style="stroke:#181818;stroke-width:0.5;" width="346.5781" x="639.71" y="339.44"/><ellipse cx="743.2779" cy="355.44" fill="#ADD1B2" rx="11" ry="11" style="stroke:#181818;stroke-width:1.0;"/><path d="M746.8921,361.94 L739.1724,361.94 L739.1724,349.5469 L746.8921,349.5469 L746.8921,351.7051 L741.6211,351.7051 L741.6211,354.378 L746.3941,354.378 L746.3941,356.5362 L741.6211,356.5362 L741.6211,359.7818 L746.8921,359.7818 Z " fill="#000000"/><text fill="#000000" font-family="sans-serif" font-size="14" lengthAdjust="spacing" textLength="130.9424" x="763.7779" y="360.731">user_policy_targets</text><line style="stroke:#181818;stroke-width:0.5;" x1="640.71" x2="985.2881" y1="371.44" y2="371.44"/><ellipse cx="650.71" cy="385.1841" fill="#000000" rx="3" ry="3" style="stroke:#000000;stroke-width:1.0;"/><text fill="#000000" font-family="sans-serif" font-size="14" lengthAdjust="spacing" textLength="95.5869" x="659.71" y="388.9752">binary id &#171;PK&#187;</text><line style="stroke:#181818;stroke-width:1.0;" x1="640.71" x2="985.2881" y1="395.9283" y2="395.9283"/><text fill="#000000" font-family="sans-serif" font-size="14" lengthAdjust="spacing" textLength="320.1064" x="645.71" y="413.4634">binary user_policy_id &#171;FK&#187; "&#12518;&#12540;&#12470;&#12540;&#12509;&#12522;&#12471;&#12540;ID"</text><text fill="#000000" font-family="sans-serif" font-size="14" lengthAdjust="spacing" textLength="334.5781" x="645.71" y="429.9517">binary target_user_id &#171;FK&#187; "&#12479;&#12540;&#12466;&#12483;&#12488;&#12518;&#12540;&#12470;&#12540;ID"</text></g><g id="elem_GMN13"><path d="M601.5,496.91 L601.5,537.5311 A0,0 0 0 0 601.5,537.5311 L986.5,537.5311 A0,0 0 0 0 986.5,537.5311 L986.5,506.91 L976.5,496.91 L817,496.91 L813,437.33 L809,496.91 L601.5,496.91 A0,0 0 0 0 601.5,496.91 " fill="#FEFFDD" style="stroke:#181818;stroke-width:0.5;"/><path d="M976.5,496.91 L976.5,506.91 L986.5,506.91 L976.5,496.91 " fill="#FEFFDD" style="stroke:#181818;stroke-width:0.5;"/><text fill="#000000" font-family="sans-serif" font-size="13" lengthAdjust="spacing" textLength="364" x="607.5" y="514.4784">&#29305;&#23450;&#12398;&#12518;&#12540;&#12470;&#12540;&#12509;&#12522;&#12471;&#12540;&#12395;&#38306;&#36899;&#12377;&#12427;&#12479;&#12540;&#12466;&#12483;&#12488;&#12518;&#12540;&#12470;&#12540;&#12398;&#31649;&#29702;</text><text fill="#000000" font-family="sans-serif" font-size="13" lengthAdjust="spacing" textLength="203.2266" x="607.5" y="529.7889">&#20363;: &#12459;&#12524;&#12531;&#12480;&#12540;&#12398;&#38322;&#35239;&#23550;&#35937;&#12518;&#12540;&#12470;&#12540;</text></g><!--class users--><g id="elem_users"><rect codeLine="45" fill="#F1F1F1" height="48" id="users" rx="2.5" ry="2.5" style="stroke:#181818;stroke-width:0.5;" width="68.4902" x="1191.75" y="57.49"/><ellipse cx="1206.75" cy="73.49" fill="#ADD1B2" rx="11" ry="11" style="stroke:#181818;stroke-width:1.0;"/><path d="M1210.3643,79.99 L1202.6445,79.99 L1202.6445,67.5969 L1210.3643,67.5969 L1210.3643,69.7551 L1205.0933,69.7551 L1205.0933,72.428 L1209.8662,72.428 L1209.8662,74.5862 L1205.0933,74.5862 L1205.0933,77.8318 L1210.3643,77.8318 Z " fill="#000000"/><text fill="#000000" font-family="sans-serif" font-size="14" lengthAdjust="spacing" textLength="36.4902" x="1220.75" y="78.781">users</text><line style="stroke:#181818;stroke-width:0.5;" x1="1192.75" x2="1259.2402" y1="89.49" y2="89.49"/><line style="stroke:#181818;stroke-width:0.5;" x1="1192.75" x2="1259.2402" y1="97.49" y2="97.49"/></g><!--class positions--><g id="elem_positions"><rect codeLine="49" fill="#F1F1F1" height="48" id="positions" rx="2.5" ry="2.5" style="stroke:#181818;stroke-width:0.5;" width="94.3027" x="1041.85" y="57.49"/><ellipse cx="1056.85" cy="73.49" fill="#ADD1B2" rx="11" ry="11" style="stroke:#181818;stroke-width:1.0;"/><path d="M1060.4643,79.99 L1052.7445,79.99 L1052.7445,67.5969 L1060.4643,67.5969 L1060.4643,69.7551 L1055.1933,69.7551 L1055.1933,72.428 L1059.9662,72.428 L1059.9662,74.5862 L1055.1933,74.5862 L1055.1933,77.8318 L1060.4643,77.8318 Z " fill="#000000"/><text fill="#000000" font-family="sans-serif" font-size="14" lengthAdjust="spacing" textLength="62.3027" x="1070.85" y="78.781">positions</text><line style="stroke:#181818;stroke-width:0.5;" x1="1042.85" x2="1135.1527" y1="89.49" y2="89.49"/><line style="stroke:#181818;stroke-width:0.5;" x1="1042.85" x2="1135.1527" y1="97.49" y2="97.49"/></g><!--link position_policies to GMN5--><g id="link_position_policies_GMN5"><path d="M417.76,230.71 C320.98,230.71 201,230.71 201,230.71 C201,230.71 201,324.91 201,367.59 " fill="none" id="position_policies-GMN5" style="stroke:#181818;stroke-width:1.0;stroke-dasharray:7.0,7.0;"/></g><!--link user_policies to GMN9--><g id="link_user_policies_GMN9"><path d="M773.04,279.68 C773.04,295.69 773.04,309.44 773.04,309.44 C773.04,309.44 511.56,309.44 511.56,309.44 C511.56,309.44 511.56,344.16 511.56,367.49 " fill="none" id="user_policies-GMN9" style="stroke:#181818;stroke-width:1.0;stroke-dasharray:7.0,7.0;"/></g><!--link policies to position_policies--><g id="link_policies_position_policies"><path codeLine="52" d="M609.9,130.27 C609.9,148.56 609.9,144.3 609.9,163.49 " fill="none" id="policies-position_policies" style="stroke:#181818;stroke-width:1.0;"/><line style="stroke:#181818;stroke-width:1.0;" x1="605.9" x2="613.9" y1="126.27" y2="126.27"/><line style="stroke:#181818;stroke-width:1.0;" x1="605.9" x2="613.9" y1="129.27" y2="129.27"/><line style="stroke:#181818;stroke-width:1.0;" x1="609.9" x2="609.9" y1="130.27" y2="122.27"/><line style="stroke:#181818;stroke-width:1.0;" x1="609.9" x2="615.9" y1="173.49" y2="181.49"/><line style="stroke:#181818;stroke-width:1.0;" x1="609.9" x2="603.9" y1="173.49" y2="181.49"/><line style="stroke:#181818;stroke-width:1.0;" x1="609.9" x2="609.9" y1="173.49" y2="181.49"/><ellipse cx="609.9" cy="167.49" fill="none" rx="4" ry="4" style="stroke:#181818;stroke-width:1.0;"/></g><!--link policies to user_policies--><g id="link_policies_user_policies"><path codeLine="53" d="M728.61,130.27 C728.61,148.56 728.61,144.3 728.61,163.49 " fill="none" id="policies-user_policies" style="stroke:#181818;stroke-width:1.0;"/><line style="stroke:#181818;stroke-width:1.0;" x1="724.61" x2="732.61" y1="126.27" y2="126.27"/><line style="stroke:#181818;stroke-width:1.0;" x1="724.61" x2="732.61" y1="129.27" y2="129.27"/><line style="stroke:#181818;stroke-width:1.0;" x1="728.61" x2="728.61" y1="130.27" y2="122.27"/><line style="stroke:#181818;stroke-width:1.0;" x1="728.61" x2="734.61" y1="173.49" y2="181.49"/><line style="stroke:#181818;stroke-width:1.0;" x1="728.61" x2="722.61" y1="173.49" y2="181.49"/><line style="stroke:#181818;stroke-width:1.0;" x1="728.61" x2="728.61" y1="173.49" y2="181.49"/><ellipse cx="728.61" cy="167.49" fill="none" rx="4" ry="4" style="stroke:#181818;stroke-width:1.0;"/></g><!--link users to user_policies--><g id="link_users_user_policies"><path codeLine="54" d="M1214.58,113.8 C1214.58,156.08 1214.58,230.71 1214.58,230.71 C1214.58,230.71 1069.53,230.71 951.22,230.71 " fill="none" id="users-user_policies" style="stroke:#181818;stroke-width:1.0;"/><line style="stroke:#181818;stroke-width:1.0;" x1="1210.58" x2="1218.58" y1="109.8" y2="109.8"/><line style="stroke:#181818;stroke-width:1.0;" x1="1210.58" x2="1218.58" y1="112.8" y2="112.8"/><line style="stroke:#181818;stroke-width:1.0;" x1="1214.58" x2="1214.58" y1="113.8" y2="105.8"/><line style="stroke:#181818;stroke-width:1.0;" x1="941.22" x2="933.22" y1="230.71" y2="236.71"/><line style="stroke:#181818;stroke-width:1.0;" x1="941.22" x2="933.22" y1="230.71" y2="224.71"/><line style="stroke:#181818;stroke-width:1.0;" x1="941.22" x2="933.22" y1="230.71" y2="230.71"/><ellipse cx="947.22" cy="230.71" fill="none" rx="4" ry="4" style="stroke:#181818;stroke-width:1.0;"/></g><!--link positions to position_policies--><g id="link_positions_position_policies"><path codeLine="55" d="M1089,113.75 C1089,134.14 1089,151.98 1089,151.98 C1089,151.98 633.89,151.98 633.89,151.98 C633.89,151.98 633.89,147.73 633.89,163.74 " fill="none" id="positions-position_policies" style="stroke:#181818;stroke-width:1.0;"/><line style="stroke:#181818;stroke-width:1.0;" x1="1085" x2="1093" y1="109.75" y2="109.75"/><line style="stroke:#181818;stroke-width:1.0;" x1="1085" x2="1093" y1="112.75" y2="112.75"/><line style="stroke:#181818;stroke-width:1.0;" x1="1089" x2="1089" y1="113.75" y2="105.75"/><line style="stroke:#181818;stroke-width:1.0;" x1="633.89" x2="639.89" y1="173.74" y2="181.74"/><line style="stroke:#181818;stroke-width:1.0;" x1="633.89" x2="627.89" y1="173.74" y2="181.74"/><line style="stroke:#181818;stroke-width:1.0;" x1="633.89" x2="633.89" y1="173.74" y2="181.74"/><ellipse cx="633.89" cy="167.74" fill="none" rx="4" ry="4" style="stroke:#181818;stroke-width:1.0;"/></g><!--link user_policies to user_policy_targets--><g id="link_user_policies_user_policy_targets"><path codeLine="56" d="M852.96,287.67 C852.96,306.54 852.96,302.08 852.96,320.98 " fill="none" id="user_policies-user_policy_targets" style="stroke:#181818;stroke-width:1.0;"/><line style="stroke:#181818;stroke-width:1.0;" x1="848.96" x2="856.96" y1="283.67" y2="283.67"/><line style="stroke:#181818;stroke-width:1.0;" x1="848.96" x2="856.96" y1="286.67" y2="286.67"/><line style="stroke:#181818;stroke-width:1.0;" x1="852.96" x2="852.96" y1="287.67" y2="279.67"/><line style="stroke:#181818;stroke-width:1.0;" x1="852.96" x2="858.96" y1="330.98" y2="338.98"/><line style="stroke:#181818;stroke-width:1.0;" x1="852.96" x2="846.96" y1="330.98" y2="338.98"/><line style="stroke:#181818;stroke-width:1.0;" x1="852.96" x2="852.96" y1="330.98" y2="338.98"/><ellipse cx="852.96" cy="324.98" fill="none" rx="4" ry="4" style="stroke:#181818;stroke-width:1.0;"/></g><!--link users to user_policy_targets--><g id="link_users_user_policy_targets"><path codeLine="57" d="M1237.42,113.81 C1237.42,186.35 1237.42,388.18 1237.42,388.18 C1237.42,388.18 1121.83,388.18 1004.54,388.18 " fill="none" id="users-user_policy_targets" style="stroke:#181818;stroke-width:1.0;"/><line style="stroke:#181818;stroke-width:1.0;" x1="1233.42" x2="1241.42" y1="109.81" y2="109.81"/><line style="stroke:#181818;stroke-width:1.0;" x1="1233.42" x2="1241.42" y1="112.81" y2="112.81"/><line style="stroke:#181818;stroke-width:1.0;" x1="1237.42" x2="1237.42" y1="113.81" y2="105.81"/><line style="stroke:#181818;stroke-width:1.0;" x1="994.54" x2="986.54" y1="388.18" y2="394.18"/><line style="stroke:#181818;stroke-width:1.0;" x1="994.54" x2="986.54" y1="388.18" y2="382.18"/><line style="stroke:#181818;stroke-width:1.0;" x1="994.54" x2="986.54" y1="388.18" y2="388.18"/><ellipse cx="1000.54" cy="388.18" fill="none" rx="4" ry="4" style="stroke:#181818;stroke-width:1.0;"/></g><!--SRC=[fPJDJjj058NtUOfHbfNo0XLYXIfLtR3fEZ8mf2E87TdJXGMHCXwW1H8HbJOIH1MaL2502O9M1LG23tCPntwBJiPWndM2Ihl8Z-nppxdtynqxSyGi6RPHHFF4nDGjOMJPz8sLoPICwJcZW97VEGYtwcWXWn0sAQ4kAbdpP9fWHrr3w1cQ8gPXkuZCeB6noLVZu-foBgT-76eJiu1CeuXH5lXdu8VWdGE_4lLQLYhA6TtO8PHOPlv92NVtuc8bUY55A2jwbm4xVpcHJGgbkQlBzBOYSLb-J8jYD6LHQXMHDPjkJdb62S0-0ki0EmewnwAx3UmJU5Nmre6_0ox_7m0_0luUM3UYcIYj1ZSziROB_9VukketVznLivrmkoajeS9UEzYUL5rBzUt5cj-y05QBKnJ06TMl1lEjBFedaAemGQSjkO3tCwRploWJhIa_FKFEw5SPi3rWRM1BSa0DMd1O4nid0onCVcyEYF9biNiAtWUnuVMNzu5j_GKIDqyDku3fqy4C6rdhFJL-N1q5vbDqlHjLVGQS3rOa1VjHVl4SAgc_Ugcshpkg9SajR7m9AtiHfKUofKc_s-hNLvJnxVNwSmIUtE5lmBy3hqIAi74MjFV5oNLmsjABTVhbXpU9t7QnsOgUb_u-6OpZw4A_qPC7AIsyFuAH-7wr5nTpEMjXoFdyKv5SEvKw_5QSCzexURfIBW_FPKHCBFWD]--></g></svg>