<?xml version="1.0" encoding="UTF-8" standalone="no"?><svg xmlns="http://www.w3.org/2000/svg" xmlns:xlink="http://www.w3.org/1999/xlink" contentScriptType="application/ecmascript" contentStyleType="text/css" height="731px" preserveAspectRatio="none" style="width:1554px;height:731px;" version="1.1" viewBox="0 0 1554 731" width="1554px" zoomAndPan="magnify"><defs><filter height="300%" id="fqexz9j3xfb0g" width="300%" x="-1" y="-1"><feGaussianBlur result="blurOut" stdDeviation="2.0"/><feColorMatrix in="blurOut" result="blurOut2" type="matrix" values="0 0 0 0 0 0 0 0 0 0 0 0 0 0 0 0 0 0 .4 0"/><feOffset dx="4.0" dy="4.0" in="blurOut2" result="blurOut3"/><feBlend in="SourceGraphic" in2="blurOut3" mode="normal"/></filter></defs><g><rect fill="#FFFFFF" filter="url(#fqexz9j3xfb0g)" height="508.3906" style="stroke: #A80036; stroke-width: 1.0;" width="10" x="167.5" y="117.4297"/><rect fill="#FFFFFF" filter="url(#fqexz9j3xfb0g)" height="437.5586" style="stroke: #A80036; stroke-width: 1.0;" width="10" x="503.5" y="159.1289"/><rect fill="#FFFFFF" filter="url(#fqexz9j3xfb0g)" height="366.7266" style="stroke: #A80036; stroke-width: 1.0;" width="10" x="839.5" y="200.8281"/><rect fill="#FFFFFF" filter="url(#fqexz9j3xfb0g)" height="41.6992" style="stroke: #A80036; stroke-width: 1.0;" width="10" x="1112.5" y="229.9609"/><rect fill="#FFFFFF" filter="url(#fqexz9j3xfb0g)" height="41.6992" style="stroke: #A80036; stroke-width: 1.0;" width="10" x="1181" y="325.9258"/><rect fill="#FFFFFF" filter="url(#fqexz9j3xfb0g)" height="29.1328" style="stroke: #A80036; stroke-width: 1.0;" width="10" x="1246.5" y="396.7578"/><rect fill="#FFFFFF" filter="url(#fqexz9j3xfb0g)" height="29.1328" style="stroke: #A80036; stroke-width: 1.0;" width="10" x="1246.5" y="509.2891"/><line style="stroke: #A80036; stroke-width: 1.0; stroke-dasharray: 5.0,5.0;" x1="91" x2="91" y1="86.2969" y2="643.8203"/><line style="stroke: #A80036; stroke-width: 1.0; stroke-dasharray: 5.0,5.0;" x1="172" x2="172" y1="86.2969" y2="643.8203"/><line style="stroke: #A80036; stroke-width: 1.0; stroke-dasharray: 5.0,5.0;" x1="508.5" x2="508.5" y1="86.2969" y2="643.8203"/><line style="stroke: #A80036; stroke-width: 1.0; stroke-dasharray: 5.0,5.0;" x1="844" x2="844" y1="86.2969" y2="643.8203"/><line style="stroke: #A80036; stroke-width: 1.0; stroke-dasharray: 5.0,5.0;" x1="1117" x2="1117" y1="86.2969" y2="643.8203"/><line style="stroke: #A80036; stroke-width: 1.0; stroke-dasharray: 5.0,5.0;" x1="1186" x2="1186" y1="86.2969" y2="643.8203"/><line style="stroke: #A80036; stroke-width: 1.0; stroke-dasharray: 5.0,5.0;" x1="1251" x2="1251" y1="86.2969" y2="643.8203"/><text fill="#000000" font-family="sans-serif" font-size="14" lengthAdjust="spacingAndGlyphs" textLength="56" x="60" y="82.9951">ユーザー</text><ellipse cx="91" cy="13" fill="#FEFECE" filter="url(#fqexz9j3xfb0g)" rx="8" ry="8" style="stroke: #A80036; stroke-width: 2.0;"/><path d="M91,21 L91,48 M78,29 L104,29 M91,48 L78,63 M91,48 L104,63 " fill="none" filter="url(#fqexz9j3xfb0g)" style="stroke: #A80036; stroke-width: 2.0;"/><text fill="#000000" font-family="sans-serif" font-size="14" lengthAdjust="spacingAndGlyphs" textLength="56" x="60" y="655.8154">ユーザー</text><ellipse cx="91" cy="669.1172" fill="#FEFECE" filter="url(#fqexz9j3xfb0g)" rx="8" ry="8" style="stroke: #A80036; stroke-width: 2.0;"/><path d="M91,677.1172 L91,704.1172 M78,685.1172 L104,685.1172 M91,704.1172 L78,719.1172 M91,704.1172 L104,719.1172 " fill="none" filter="url(#fqexz9j3xfb0g)" style="stroke: #A80036; stroke-width: 2.0;"/><rect fill="#FEFECE" filter="url(#fqexz9j3xfb0g)" height="30.2969" style="stroke: #A80036; stroke-width: 1.5;" width="77" x="132" y="51"/><text fill="#000000" font-family="sans-serif" font-size="14" lengthAdjust="spacingAndGlyphs" textLength="63" x="139" y="70.9951">Frontend</text><rect fill="#FEFECE" filter="url(#fqexz9j3xfb0g)" height="30.2969" style="stroke: #A80036; stroke-width: 1.5;" width="77" x="132" y="642.8203"/><text fill="#000000" font-family="sans-serif" font-size="14" lengthAdjust="spacingAndGlyphs" textLength="63" x="139" y="662.8154">Frontend</text><rect fill="#FEFECE" filter="url(#fqexz9j3xfb0g)" height="30.2969" style="stroke: #A80036; stroke-width: 1.5;" width="94" x="459.5" y="51"/><text fill="#000000" font-family="sans-serif" font-size="14" lengthAdjust="spacingAndGlyphs" textLength="80" x="466.5" y="70.9951">APIGateway</text><rect fill="#FEFECE" filter="url(#fqexz9j3xfb0g)" height="30.2969" style="stroke: #A80036; stroke-width: 1.5;" width="94" x="459.5" y="642.8203"/><text fill="#000000" font-family="sans-serif" font-size="14" lengthAdjust="spacingAndGlyphs" textLength="80" x="466.5" y="662.8154">APIGateway</text><rect fill="#FEFECE" filter="url(#fqexz9j3xfb0g)" height="30.2969" style="stroke: #A80036; stroke-width: 1.5;" width="75" x="805" y="51"/><text fill="#000000" font-family="sans-serif" font-size="14" lengthAdjust="spacingAndGlyphs" textLength="61" x="812" y="70.9951">Backend</text><rect fill="#FEFECE" filter="url(#fqexz9j3xfb0g)" height="30.2969" style="stroke: #A80036; stroke-width: 1.5;" width="75" x="805" y="642.8203"/><text fill="#000000" font-family="sans-serif" font-size="14" lengthAdjust="spacingAndGlyphs" textLength="61" x="812" y="662.8154">Backend</text><text fill="#000000" font-family="sans-serif" font-size="14" lengthAdjust="spacingAndGlyphs" textLength="39" x="1095" y="82.9951">Redis</text><path d="M1099.5,34 C1099.5,24 1117.5,24 1117.5,24 C1117.5,24 1135.5,24 1135.5,34 L1135.5,60 C1135.5,70 1117.5,70 1117.5,70 C1117.5,70 1099.5,70 1099.5,60 L1099.5,34 " fill="#FEFECE" filter="url(#fqexz9j3xfb0g)" style="stroke: #000000; stroke-width: 1.5;"/><path d="M1099.5,34 C1099.5,44 1117.5,44 1117.5,44 C1117.5,44 1135.5,44 1135.5,34 " fill="none" style="stroke: #000000; stroke-width: 1.5;"/><text fill="#000000" font-family="sans-serif" font-size="14" lengthAdjust="spacingAndGlyphs" textLength="39" x="1095" y="655.8154">Redis</text><path d="M1099.5,669.1172 C1099.5,659.1172 1117.5,659.1172 1117.5,659.1172 C1117.5,659.1172 1135.5,659.1172 1135.5,669.1172 L1135.5,695.1172 C1135.5,705.1172 1117.5,705.1172 1117.5,705.1172 C1117.5,705.1172 1099.5,705.1172 1099.5,695.1172 L1099.5,669.1172 " fill="#FEFECE" filter="url(#fqexz9j3xfb0g)" style="stroke: #000000; stroke-width: 1.5;"/><path d="M1099.5,669.1172 C1099.5,679.1172 1117.5,679.1172 1117.5,679.1172 C1117.5,679.1172 1135.5,679.1172 1135.5,669.1172 " fill="none" style="stroke: #000000; stroke-width: 1.5;"/><rect fill="#FEFECE" filter="url(#fqexz9j3xfb0g)" height="30.2969" style="stroke: #A80036; stroke-width: 1.5;" width="68" x="1150" y="51"/><text fill="#000000" font-family="sans-serif" font-size="14" lengthAdjust="spacingAndGlyphs" textLength="54" x="1157" y="70.9951">Cognito</text><rect fill="#FEFECE" filter="url(#fqexz9j3xfb0g)" height="30.2969" style="stroke: #A80036; stroke-width: 1.5;" width="68" x="1150" y="642.8203"/><text fill="#000000" font-family="sans-serif" font-size="14" lengthAdjust="spacingAndGlyphs" textLength="54" x="1157" y="662.8154">Cognito</text><rect fill="#FEFECE" filter="url(#fqexz9j3xfb0g)" height="30.2969" style="stroke: #A80036; stroke-width: 1.5;" width="35" x="1232" y="51"/><text fill="#000000" font-family="sans-serif" font-size="14" lengthAdjust="spacingAndGlyphs" textLength="21" x="1239" y="70.9951">DB</text><rect fill="#FEFECE" filter="url(#fqexz9j3xfb0g)" height="30.2969" style="stroke: #A80036; stroke-width: 1.5;" width="35" x="1232" y="642.8203"/><text fill="#000000" font-family="sans-serif" font-size="14" lengthAdjust="spacingAndGlyphs" textLength="21" x="1239" y="662.8154">DB</text><rect fill="#FFFFFF" filter="url(#fqexz9j3xfb0g)" height="508.3906" style="stroke: #A80036; stroke-width: 1.0;" width="10" x="167.5" y="117.4297"/><rect fill="#FFFFFF" filter="url(#fqexz9j3xfb0g)" height="437.5586" style="stroke: #A80036; stroke-width: 1.0;" width="10" x="503.5" y="159.1289"/><rect fill="#FFFFFF" filter="url(#fqexz9j3xfb0g)" height="366.7266" style="stroke: #A80036; stroke-width: 1.0;" width="10" x="839.5" y="200.8281"/><rect fill="#FFFFFF" filter="url(#fqexz9j3xfb0g)" height="41.6992" style="stroke: #A80036; stroke-width: 1.0;" width="10" x="1112.5" y="229.9609"/><rect fill="#FFFFFF" filter="url(#fqexz9j3xfb0g)" height="41.6992" style="stroke: #A80036; stroke-width: 1.0;" width="10" x="1181" y="325.9258"/><rect fill="#FFFFFF" filter="url(#fqexz9j3xfb0g)" height="29.1328" style="stroke: #A80036; stroke-width: 1.0;" width="10" x="1246.5" y="396.7578"/><rect fill="#FFFFFF" filter="url(#fqexz9j3xfb0g)" height="29.1328" style="stroke: #A80036; stroke-width: 1.0;" width="10" x="1246.5" y="509.2891"/><polygon fill="#A80036" points="155.5,113.4297,165.5,117.4297,155.5,121.4297,159.5,117.4297" style="stroke: #A80036; stroke-width: 1.0;"/><line style="stroke: #A80036; stroke-width: 1.0;" x1="91" x2="161.5" y1="117.4297" y2="117.4297"/><text fill="#000000" font-family="sans-serif" font-size="13" lengthAdjust="spacingAndGlyphs" textLength="40" x="98" y="112.3638">Action</text><polygon fill="#A80036" points="491.5,155.1289,501.5,159.1289,491.5,163.1289,495.5,159.1289" style="stroke: #A80036; stroke-width: 1.0;"/><line style="stroke: #A80036; stroke-width: 1.0;" x1="177.5" x2="497.5" y1="159.1289" y2="159.1289"/><text fill="#000000" font-family="sans-serif" font-size="13" lengthAdjust="spacingAndGlyphs" textLength="307" x="184.5" y="154.063">Get: /schedules -header: {sessionId: SessionID}</text><path d="M8,130.4297 L8,170.4297 L159,170.4297 L159,140.4297 L149,130.4297 L8,130.4297 " fill="#FBFB77" filter="url(#fqexz9j3xfb0g)" style="stroke: #A80036; stroke-width: 1.0;"/><path d="M149,130.4297 L149,140.4297 L159,140.4297 L149,130.4297 " fill="#FBFB77" style="stroke: #A80036; stroke-width: 1.0;"/><text fill="#000000" font-family="sans-serif" font-size="13" lengthAdjust="spacingAndGlyphs" textLength="113" x="14" y="147.4966">sessionIDを元に、</text><text fill="#000000" font-family="sans-serif" font-size="13" lengthAdjust="spacingAndGlyphs" textLength="130" x="14" y="162.6294">認証状態の確認を行う</text><polygon fill="#A80036" points="827.5,196.8281,837.5,200.8281,827.5,204.8281,831.5,200.8281" style="stroke: #A80036; stroke-width: 1.0;"/><line style="stroke: #A80036; stroke-width: 1.0;" x1="513.5" x2="833.5" y1="200.8281" y2="200.8281"/><text fill="#000000" font-family="sans-serif" font-size="13" lengthAdjust="spacingAndGlyphs" textLength="307" x="520.5" y="195.7622">Get: /schedules -header: {sessionId: SessionID}</text><polygon fill="#A80036" points="1100.5,225.9609,1110.5,229.9609,1100.5,233.9609,1104.5,229.9609" style="stroke: #A80036; stroke-width: 1.0;"/><line style="stroke: #A80036; stroke-width: 1.0;" x1="849.5" x2="1106.5" y1="229.9609" y2="229.9609"/><text fill="#000000" font-family="sans-serif" font-size="13" lengthAdjust="spacingAndGlyphs" textLength="244" x="856.5" y="224.895">getAccessToken(sessionID: sessionID)</text><polygon fill="#A80036" points="860.5,267.6602,850.5,271.6602,860.5,275.6602,856.5,271.6602" style="stroke: #A80036; stroke-width: 1.0;"/><line style="stroke: #A80036; stroke-width: 1.0; stroke-dasharray: 2.0,2.0;" x1="854.5" x2="1116.5" y1="271.6602" y2="271.6602"/><text fill="#000000" font-family="sans-serif" font-size="13" lengthAdjust="spacingAndGlyphs" textLength="82" x="866.5" y="266.5942">accessToken</text><path d="M1127,242.9609 L1127,282.9609 L1421,282.9609 L1421,252.9609 L1411,242.9609 L1127,242.9609 " fill="#FBFB77" filter="url(#fqexz9j3xfb0g)" style="stroke: #A80036; stroke-width: 1.0;"/><path d="M1411,242.9609 L1411,252.9609 L1421,252.9609 L1411,242.9609 " fill="#FBFB77" style="stroke: #A80036; stroke-width: 1.0;"/><text fill="#000000" font-family="sans-serif" font-size="13" lengthAdjust="spacingAndGlyphs" textLength="273" x="1133" y="260.0278">セッションIDに紐づくアクセストークンを取得</text><text fill="#000000" font-family="sans-serif" font-size="13" lengthAdjust="spacingAndGlyphs" textLength="195" x="1133" y="275.1606">存在しない場合は、エラーを返す</text><polygon fill="#A80036" points="1169,321.9258,1179,325.9258,1169,329.9258,1173,325.9258" style="stroke: #A80036; stroke-width: 1.0;"/><line style="stroke: #A80036; stroke-width: 1.0;" x1="849.5" x2="1175" y1="325.9258" y2="325.9258"/><text fill="#000000" font-family="sans-serif" font-size="13" lengthAdjust="spacingAndGlyphs" textLength="235" x="856.5" y="320.8599">GetUser(accessToken: accessToken)</text><path d="M1196,297.2266 L1196,337.2266 L1542,337.2266 L1542,307.2266 L1532,297.2266 L1196,297.2266 " fill="#FBFB77" filter="url(#fqexz9j3xfb0g)" style="stroke: #A80036; stroke-width: 1.0;"/><path d="M1532,297.2266 L1532,307.2266 L1542,307.2266 L1532,297.2266 " fill="#FBFB77" style="stroke: #A80036; stroke-width: 1.0;"/><text fill="#000000" font-family="sans-serif" font-size="13" lengthAdjust="spacingAndGlyphs" textLength="325" x="1202" y="314.2935">アクセストークンを元に、職員（ユーザー）情報を取得</text><text fill="#000000" font-family="sans-serif" font-size="13" lengthAdjust="spacingAndGlyphs" textLength="169" x="1202" y="329.4263">失敗した場合、エラーを返す</text><polygon fill="#A80036" points="860.5,363.625,850.5,367.625,860.5,371.625,856.5,367.625" style="stroke: #A80036; stroke-width: 1.0;"/><line style="stroke: #A80036; stroke-width: 1.0; stroke-dasharray: 2.0,2.0;" x1="854.5" x2="1185" y1="367.625" y2="367.625"/><text fill="#000000" font-family="sans-serif" font-size="13" lengthAdjust="spacingAndGlyphs" textLength="78" x="866.5" y="362.5591">職員情報返却</text><polygon fill="#A80036" points="1234.5,392.7578,1244.5,396.7578,1234.5,400.7578,1238.5,396.7578" style="stroke: #A80036; stroke-width: 1.0;"/><line style="stroke: #A80036; stroke-width: 1.0;" x1="849.5" x2="1240.5" y1="396.7578" y2="396.7578"/><text fill="#000000" font-family="sans-serif" font-size="13" lengthAdjust="spacingAndGlyphs" textLength="91" x="856.5" y="391.6919">職員の権限取得</text><polygon fill="#A80036" points="860.5,421.8906,850.5,425.8906,860.5,429.8906,856.5,425.8906" style="stroke: #A80036; stroke-width: 1.0;"/><line style="stroke: #A80036; stroke-width: 1.0; stroke-dasharray: 2.0,2.0;" x1="854.5" x2="1250.5" y1="425.8906" y2="425.8906"/><text fill="#000000" font-family="sans-serif" font-size="13" lengthAdjust="spacingAndGlyphs" textLength="91" x="866.5" y="420.8247">権限情報を返却</text><line style="stroke: #A80036; stroke-width: 1.0; stroke-dasharray: 2.0,2.0;" x1="849.5" x2="891.5" y1="461.0898" y2="461.0898"/><line style="stroke: #A80036; stroke-width: 1.0; stroke-dasharray: 2.0,2.0;" x1="891.5" x2="891.5" y1="461.0898" y2="474.0898"/><line style="stroke: #A80036; stroke-width: 1.0; stroke-dasharray: 2.0,2.0;" x1="850.5" x2="891.5" y1="474.0898" y2="474.0898"/><polygon fill="#A80036" points="860.5,470.0898,850.5,474.0898,860.5,478.0898,856.5,474.0898" style="stroke: #A80036; stroke-width: 1.0;"/><text fill="#000000" font-family="sans-serif" font-size="13" lengthAdjust="spacingAndGlyphs" textLength="130" x="856.5" y="456.0239">職員の権限情報を確認</text><path d="M998,438.8906 L998,478.8906 L1266,478.8906 L1266,448.8906 L1256,438.8906 L998,438.8906 " fill="#FBFB77" filter="url(#fqexz9j3xfb0g)" style="stroke: #A80036; stroke-width: 1.0;"/><path d="M1256,438.8906 L1256,448.8906 L1266,448.8906 L1256,438.8906 " fill="#FBFB77" style="stroke: #A80036; stroke-width: 1.0;"/><text fill="#000000" font-family="sans-serif" font-size="13" lengthAdjust="spacingAndGlyphs" textLength="143" x="1004" y="455.9575">職員に権限があるか確認</text><text fill="#000000" font-family="sans-serif" font-size="13" lengthAdjust="spacingAndGlyphs" textLength="247" x="1004" y="471.0903">成功時、処理を実行し、レスポンスを返す</text><polygon fill="#A80036" points="1234.5,505.2891,1244.5,509.2891,1234.5,513.2891,1238.5,509.2891" style="stroke: #A80036; stroke-width: 1.0;"/><line style="stroke: #A80036; stroke-width: 1.0;" x1="849.5" x2="1240.5" y1="509.2891" y2="509.2891"/><text fill="#000000" font-family="sans-serif" font-size="13" lengthAdjust="spacingAndGlyphs" textLength="234" x="856.5" y="504.2231">権限内に存在する職員の予定情報を取得</text><polygon fill="#A80036" points="860.5,534.4219,850.5,538.4219,860.5,542.4219,856.5,538.4219" style="stroke: #A80036; stroke-width: 1.0;"/><line style="stroke: #A80036; stroke-width: 1.0; stroke-dasharray: 2.0,2.0;" x1="854.5" x2="1250.5" y1="538.4219" y2="538.4219"/><text fill="#000000" font-family="sans-serif" font-size="13" lengthAdjust="spacingAndGlyphs" textLength="130" x="866.5" y="533.356">職員の予定情報を返却</text><polygon fill="#A80036" points="524.5,563.5547,514.5,567.5547,524.5,571.5547,520.5,567.5547" style="stroke: #A80036; stroke-width: 1.0;"/><line style="stroke: #A80036; stroke-width: 1.0; stroke-dasharray: 2.0,2.0;" x1="518.5" x2="843.5" y1="567.5547" y2="567.5547"/><text fill="#000000" font-family="sans-serif" font-size="13" lengthAdjust="spacingAndGlyphs" textLength="252" x="530.5" y="562.4888">Response"200":{schedules: schedules}</text><polygon fill="#A80036" points="188.5,592.6875,178.5,596.6875,188.5,600.6875,184.5,596.6875" style="stroke: #A80036; stroke-width: 1.0;"/><line style="stroke: #A80036; stroke-width: 1.0; stroke-dasharray: 2.0,2.0;" x1="182.5" x2="507.5" y1="596.6875" y2="596.6875"/><text fill="#000000" font-family="sans-serif" font-size="13" lengthAdjust="spacingAndGlyphs" textLength="252" x="194.5" y="591.6216">Response"200":{schedules: schedules}</text><polygon fill="#A80036" points="102,621.8203,92,625.8203,102,629.8203,98,625.8203" style="stroke: #A80036; stroke-width: 1.0;"/><line style="stroke: #A80036; stroke-width: 1.0; stroke-dasharray: 2.0,2.0;" x1="96" x2="171.5" y1="625.8203" y2="625.8203"/><text fill="#000000" font-family="sans-serif" font-size="13" lengthAdjust="spacingAndGlyphs" textLength="52" x="108" y="620.7544">画面表示</text><!--MD5=[b87187097a4727c07d772541b13c53c3]
@startuml Auth
Actor ユーザー
Participant Frontend as Front
Participant APIGateway as Gateway
Participant Backend as Back
Database Redis
Participant Cognito
Participant DB

ユーザー -> Front: Action
activate Front
Front -> Gateway: Get: /schedules -header: {sessionId: SessionID}
note left
sessionIDを元に、
認証状態の確認を行う
end note

activate Gateway
Gateway -> Back: Get: /schedules -header: {sessionId: SessionID}
activate Back
Back -> Redis: getAccessToken(sessionID: sessionID)

activate Redis
Redis - -> Back: accessToken
note right
セッションIDに紐づくアクセストークンを取得
存在しない場合は、エラーを返す
end note
deactivate Redis

Back -> Cognito: GetUser(accessToken: accessToken)
note right
アクセストークンを元に、職員（ユーザー）情報を取得
失敗した場合、エラーを返す
end note
activate Cognito
Cognito - -> Back: 職員情報返却
deactivate Cognito

Back-> DB: 職員の権限取得
activate DB
DB - -> Back: 権限情報を返却
deactivate DB
Back - -> Back: 職員の権限情報を確認
note right
職員に権限があるか確認
成功時、処理を実行し、レスポンスを返す
end note

Back -> DB: 権限内に存在する職員の予定情報を取得
activate DB
DB - -> Back: 職員の予定情報を返却
deactivate DB
Back - -> Gateway: Response"200":{schedules: schedules}
deactivate Back
Gateway - -> Front: Response"200":{schedules: schedules}
deactivate Gateway
Front - -> ユーザー: 画面表示
deactivate Front
@enduml

PlantUML version 1.2020.02(Sun Mar 01 10:22:07 UTC 2020)
(GPL source distribution)
Java Runtime: OpenJDK Runtime Environment
JVM: OpenJDK 64-Bit Server VM
Java Version: 11.0.16+8
Operating System: Linux
Default Encoding: UTF-8
Language: en
Country: null
--></g></svg>