<svg xmlns="http://www.w3.org/2000/svg" xmlns:xlink="http://www.w3.org/1999/xlink" contentStyleType="text/css" height="530px" preserveAspectRatio="none" style="width:1082px;height:530px;background:#FFFFFF;" version="1.1" viewBox="0 0 1082 530" width="1082px" zoomAndPan="magnify"><defs/><g><line style="stroke:#181818;stroke-width:0.5;stroke-dasharray:5.0,5.0;" x1="36" x2="36" y1="81.4883" y2="449.9043"/><line style="stroke:#181818;stroke-width:0.5;stroke-dasharray:5.0,5.0;" x1="114" x2="114" y1="81.4883" y2="449.9043"/><line style="stroke:#181818;stroke-width:0.5;stroke-dasharray:5.0,5.0;" x1="334.2739" x2="334.2739" y1="81.4883" y2="449.9043"/><line style="stroke:#181818;stroke-width:0.5;stroke-dasharray:5.0,5.0;" x1="461.6689" x2="461.6689" y1="81.4883" y2="449.9043"/><line style="stroke:#181818;stroke-width:0.5;stroke-dasharray:5.0,5.0;" x1="553.9482" x2="553.9482" y1="81.4883" y2="449.9043"/><line style="stroke:#181818;stroke-width:0.5;stroke-dasharray:5.0,5.0;" x1="723.8975" x2="723.8975" y1="81.4883" y2="449.9043"/><text fill="#000000" font-family="sans-serif" font-size="14" lengthAdjust="spacing" textLength="56" x="5" y="78.5352">&#12518;&#12540;&#12470;&#12540;</text><ellipse cx="36" cy="13.5" fill="#E2E2F0" rx="8" ry="8" style="stroke:#181818;stroke-width:0.5;"/><path d="M36,21.5 L36,48.5 M23,29.5 L49,29.5 M36,48.5 L23,63.5 M36,48.5 L49,63.5 " fill="none" style="stroke:#181818;stroke-width:0.5;"/><text fill="#000000" font-family="sans-serif" font-size="14" lengthAdjust="spacing" textLength="56" x="5" y="462.4395">&#12518;&#12540;&#12470;&#12540;</text><ellipse cx="36" cy="473.8926" fill="#E2E2F0" rx="8" ry="8" style="stroke:#181818;stroke-width:0.5;"/><path d="M36,481.8926 L36,508.8926 M23,489.8926 L49,489.8926 M36,508.8926 L23,523.8926 M36,508.8926 L49,523.8926 " fill="none" style="stroke:#181818;stroke-width:0.5;"/><rect fill="#E2E2F0" height="30.4883" rx="2.5" ry="2.5" style="stroke:#181818;stroke-width:0.5;" width="75.0586" x="77" y="50"/><text fill="#000000" font-family="sans-serif" font-size="14" lengthAdjust="spacing" textLength="61.0586" x="84" y="70.5352">Frontend</text><rect fill="#E2E2F0" height="30.4883" rx="2.5" ry="2.5" style="stroke:#181818;stroke-width:0.5;" width="75.0586" x="77" y="448.9043"/><text fill="#000000" font-family="sans-serif" font-size="14" lengthAdjust="spacing" textLength="61.0586" x="84" y="469.4395">Frontend</text><rect fill="#E2E2F0" height="30.4883" rx="2.5" ry="2.5" style="stroke:#181818;stroke-width:0.5;" width="92.1484" x="288.2739" y="50"/><text fill="#000000" font-family="sans-serif" font-size="14" lengthAdjust="spacing" textLength="78.1484" x="295.2739" y="70.5352">APIGateway</text><rect fill="#E2E2F0" height="30.4883" rx="2.5" ry="2.5" style="stroke:#181818;stroke-width:0.5;" width="92.1484" x="288.2739" y="448.9043"/><text fill="#000000" font-family="sans-serif" font-size="14" lengthAdjust="spacing" textLength="78.1484" x="295.2739" y="469.4395">APIGateway</text><rect fill="#E2E2F0" height="30.4883" rx="2.5" ry="2.5" style="stroke:#181818;stroke-width:0.5;" width="67.5869" x="428.6689" y="50"/><text fill="#000000" font-family="sans-serif" font-size="14" lengthAdjust="spacing" textLength="53.5869" x="435.6689" y="70.5352">Cognito</text><rect fill="#E2E2F0" height="30.4883" rx="2.5" ry="2.5" style="stroke:#181818;stroke-width:0.5;" width="67.5869" x="428.6689" y="448.9043"/><text fill="#000000" font-family="sans-serif" font-size="14" lengthAdjust="spacing" textLength="53.5869" x="435.6689" y="469.4395">Cognito</text><rect fill="#E2E2F0" height="30.4883" rx="2.5" ry="2.5" style="stroke:#181818;stroke-width:0.5;" width="70.4375" x="518.9482" y="50"/><text fill="#000000" font-family="sans-serif" font-size="14" lengthAdjust="spacing" textLength="56.4375" x="525.9482" y="70.5352">Backend</text><rect fill="#E2E2F0" height="30.4883" rx="2.5" ry="2.5" style="stroke:#181818;stroke-width:0.5;" width="70.4375" x="518.9482" y="448.9043"/><text fill="#000000" font-family="sans-serif" font-size="14" lengthAdjust="spacing" textLength="56.4375" x="525.9482" y="469.4395">Backend</text><rect fill="#E2E2F0" height="30.4883" rx="2.5" ry="2.5" style="stroke:#181818;stroke-width:0.5;" width="32.5391" x="707.8975" y="50"/><text fill="#000000" font-family="sans-serif" font-size="14" lengthAdjust="spacing" textLength="18.5391" x="714.8975" y="70.5352">DB</text><rect fill="#E2E2F0" height="30.4883" rx="2.5" ry="2.5" style="stroke:#181818;stroke-width:0.5;" width="32.5391" x="707.8975" y="448.9043"/><text fill="#000000" font-family="sans-serif" font-size="14" lengthAdjust="spacing" textLength="18.5391" x="714.8975" y="469.4395">DB</text><polygon fill="#181818" points="102.5293,108.7988,112.5293,112.7988,102.5293,116.7988,106.5293,112.7988" style="stroke:#181818;stroke-width:1.0;"/><line style="stroke:#181818;stroke-width:1.0;stroke-dasharray:2.0,2.0;" x1="36" x2="108.5293" y1="112.7988" y2="112.7988"/><text fill="#000000" font-family="sans-serif" font-size="13" lengthAdjust="spacing" textLength="40.3013" x="43" y="108.0566">Action</text><polygon fill="#181818" points="322.3481,138.1094,332.3481,142.1094,322.3481,146.1094,326.3481,142.1094" style="stroke:#181818;stroke-width:1.0;"/><line style="stroke:#181818;stroke-width:1.0;stroke-dasharray:2.0,2.0;" x1="114.5293" x2="328.3481" y1="142.1094" y2="142.1094"/><text fill="#000000" font-family="sans-serif" font-size="13" lengthAdjust="spacing" textLength="67.9453" x="121.5293" y="137.3672">Get: /hoge</text><polygon fill="#181818" points="450.4624,178.0752,460.4624,182.0752,450.4624,186.0752,454.4624,182.0752" style="stroke:#181818;stroke-width:1.0;"/><line style="stroke:#181818;stroke-width:1.0;stroke-dasharray:2.0,2.0;" x1="334.3481" x2="456.4624" y1="182.0752" y2="182.0752"/><text fill="#000000" font-family="sans-serif" font-size="13" lengthAdjust="spacing" textLength="104.1143" x="341.3481" y="177.333">Token&#24773;&#22577;&#12434;&#26908;&#35388;</text><path d="M467,155.1094 L467,195.1094 L839,195.1094 L839,165.1094 L829,155.1094 L467,155.1094 " fill="#FEFFDD" style="stroke:#181818;stroke-width:0.5;"/><path d="M829,155.1094 L829,165.1094 L839,165.1094 L829,155.1094 " fill="#FEFFDD" style="stroke:#181818;stroke-width:0.5;"/><text fill="#000000" font-family="sans-serif" font-size="13" lengthAdjust="spacing" textLength="130" x="473" y="172.6777">&#12488;&#12540;&#12463;&#12531;&#12398;&#26908;&#35388;&#12434;&#34892;&#12358;</text><text fill="#000000" font-family="sans-serif" font-size="13" lengthAdjust="spacing" textLength="351.4063" x="473" y="187.9883">&#25104;&#21151;&#26178;&#12289;Backend&#12398;&#12456;&#12531;&#12489;&#12509;&#12452;&#12531;&#12488;&#12408;&#12398;&#12450;&#12463;&#12475;&#12473;&#12434;&#35377;&#21487;&#12377;&#12427;</text><polygon fill="#181818" points="345.3481,202.7305,335.3481,206.7305,345.3481,210.7305,341.3481,206.7305" style="stroke:#181818;stroke-width:1.0;"/><line style="stroke:#181818;stroke-width:1.0;stroke-dasharray:2.0,2.0;" x1="339.3481" x2="461.4624" y1="206.7305" y2="206.7305"/><polygon fill="#181818" points="542.167,232.041,552.167,236.041,542.167,240.041,546.167,236.041" style="stroke:#181818;stroke-width:1.0;"/><line style="stroke:#181818;stroke-width:1.0;stroke-dasharray:2.0,2.0;" x1="334.3481" x2="548.167" y1="236.041" y2="236.041"/><text fill="#000000" font-family="sans-serif" font-size="13" lengthAdjust="spacing" textLength="65" x="341.3481" y="231.2988">&#12522;&#12463;&#12456;&#12473;&#12488;</text><polygon fill="#181818" points="712.167,261.3516,722.167,265.3516,712.167,269.3516,716.167,265.3516" style="stroke:#181818;stroke-width:1.0;"/><line style="stroke:#181818;stroke-width:1.0;stroke-dasharray:2.0,2.0;" x1="554.167" x2="718.167" y1="265.3516" y2="265.3516"/><text fill="#000000" font-family="sans-serif" font-size="13" lengthAdjust="spacing" textLength="104" x="561.167" y="260.6094">&#12518;&#12540;&#12470;&#12540;&#24773;&#22577;&#21462;&#24471;</text><polygon fill="#181818" points="565.167,275.3516,555.167,279.3516,565.167,283.3516,561.167,279.3516" style="stroke:#181818;stroke-width:1.0;"/><line style="stroke:#181818;stroke-width:1.0;stroke-dasharray:2.0,2.0;" x1="559.167" x2="723.167" y1="279.3516" y2="279.3516"/><line style="stroke:#181818;stroke-width:1.0;stroke-dasharray:2.0,2.0;" x1="554.167" x2="596.167" y1="312.8174" y2="312.8174"/><line style="stroke:#181818;stroke-width:1.0;stroke-dasharray:2.0,2.0;" x1="596.167" x2="596.167" y1="312.8174" y2="325.8174"/><line style="stroke:#181818;stroke-width:1.0;stroke-dasharray:2.0,2.0;" x1="555.167" x2="596.167" y1="325.8174" y2="325.8174"/><polygon fill="#181818" points="565.167,321.8174,555.167,325.8174,565.167,329.8174,561.167,325.8174" style="stroke:#181818;stroke-width:1.0;"/><text fill="#000000" font-family="sans-serif" font-size="13" lengthAdjust="spacing" textLength="156" x="561.167" y="308.0752">&#12518;&#12540;&#12470;&#12540;&#12398;&#27177;&#38480;&#24773;&#22577;&#12434;&#30906;&#35469;</text><path d="M729,292.3516 L729,332.3516 L1075,332.3516 L1075,302.3516 L1065,292.3516 L729,292.3516 " fill="#FEFFDD" style="stroke:#181818;stroke-width:0.5;"/><path d="M1065,292.3516 L1065,302.3516 L1075,302.3516 L1065,292.3516 " fill="#FEFFDD" style="stroke:#181818;stroke-width:0.5;"/><text fill="#000000" font-family="sans-serif" font-size="13" lengthAdjust="spacing" textLength="325" x="735" y="309.9199">&#12496;&#12483;&#12463;&#12456;&#12531;&#12489;&#12391;&#12399;&#12289;&#12522;&#12463;&#12456;&#12473;&#12488;&#12363;&#12425;&#27177;&#38480;&#24773;&#22577;&#12434;&#30906;&#35469;&#12377;&#12427;</text><text fill="#000000" font-family="sans-serif" font-size="13" lengthAdjust="spacing" textLength="247" x="735" y="325.2305">&#25104;&#21151;&#26178;&#12289;&#20966;&#29702;&#12434;&#23455;&#34892;&#12375;&#12289;&#12524;&#12473;&#12509;&#12531;&#12473;&#12434;&#36820;&#12377;</text><polygon fill="#181818" points="712.167,355.2832,722.167,359.2832,712.167,363.2832,716.167,359.2832" style="stroke:#181818;stroke-width:1.0;"/><line style="stroke:#181818;stroke-width:1.0;stroke-dasharray:2.0,2.0;" x1="554.167" x2="718.167" y1="359.2832" y2="359.2832"/><text fill="#000000" font-family="sans-serif" font-size="13" lengthAdjust="spacing" textLength="78" x="561.167" y="354.541">&#12522;&#12477;&#12540;&#12473;&#21462;&#24471;</text><polygon fill="#181818" points="565.167,369.2832,555.167,373.2832,565.167,377.2832,561.167,373.2832" style="stroke:#181818;stroke-width:1.0;"/><line style="stroke:#181818;stroke-width:1.0;stroke-dasharray:2.0,2.0;" x1="559.167" x2="723.167" y1="373.2832" y2="373.2832"/><polygon fill="#181818" points="345.3481,398.5938,335.3481,402.5938,345.3481,406.5938,341.3481,402.5938" style="stroke:#181818;stroke-width:1.0;"/><line style="stroke:#181818;stroke-width:1.0;stroke-dasharray:2.0,2.0;" x1="339.3481" x2="553.167" y1="402.5938" y2="402.5938"/><text fill="#000000" font-family="sans-serif" font-size="13" lengthAdjust="spacing" textLength="195.8188" x="351.3481" y="397.8516">Response"200":{"message": ok}</text><polygon fill="#181818" points="125.5293,427.9043,115.5293,431.9043,125.5293,435.9043,121.5293,431.9043" style="stroke:#181818;stroke-width:1.0;"/><line style="stroke:#181818;stroke-width:1.0;stroke-dasharray:2.0,2.0;" x1="119.5293" x2="333.3481" y1="431.9043" y2="431.9043"/><text fill="#000000" font-family="sans-serif" font-size="13" lengthAdjust="spacing" textLength="195.8188" x="131.5293" y="427.1621">Response"200":{"message": ok}</text><!--SRC=[VLBTIiCm5BxFKuJTY-9bBuJLuV1En1SeCymYDcCDY8XW4zJg58U8Cb2cOsWLSGn1dByFS-YSRs6IncqTifjocdFEzvTa2uoMCOWR4E_0d-KNBJXbvXRSakCnF5Uc7YFUCdRyf4vrimlpUOUHTMT3zKsPcfYbHSzbD7LcEuLL0wdAL2zdes4jU69Y9k6rSBR0NEeX_QVF3P-5yqIs9rTeaQ0_EQflk2syH2LVL-p4LstW9ztcHIzwHnvb19VTuWgJZA5cR85uWk0n6P2JlUj327PHDwp61_LkZSDsOBJBAU2H6XVx82w1DtKTGl2YMmq5nj-0TnHCr8wFMn3KW5UGCgweaL4tx2IbNZ5PycBkDLIae4I8rAbkvsmhTMk9lVZuBFuyHpcx3p7O-0CSx2YlqTrFhThFvhlnshi_IcTJ1I6CXiHlS0j1IsOneWs22l3zVm6Dz-4WuxsRx-gkd8WVwphdSutueB4k5LEItTUfN1waDk9V2lZGTZhZdFSVoYBnIzJpIMPwQYfZRMRMYEyxHPAnC5tTIgLltjpOXLy0]--></g></svg>