<svg xmlns="http://www.w3.org/2000/svg" xmlns:xlink="http://www.w3.org/1999/xlink" contentStyleType="text/css" height="400px" preserveAspectRatio="none" style="width:800px;height:400px;background:#FFFFFF;" version="1.1" viewBox="0 0 800 400" width="800px" zoomAndPan="magnify"><defs/><g><line style="stroke:#181818;stroke-width:0.5;stroke-dasharray:5.0,5.0;" x1="36" x2="36" y1="81.4883" y2="319.6621"/><line style="stroke:#181818;stroke-width:0.5;stroke-dasharray:5.0,5.0;" x1="163.4707" x2="163.4707" y1="81.4883" y2="319.6621"/><line style="stroke:#181818;stroke-width:0.5;stroke-dasharray:5.0,5.0;" x1="572.1826" x2="572.1826" y1="81.4883" y2="319.6621"/><line style="stroke:#181818;stroke-width:0.5;stroke-dasharray:5.0,5.0;" x1="699.6079" x2="699.6079" y1="81.4883" y2="319.6621"/><line style="stroke:#181818;stroke-width:0.5;stroke-dasharray:5.0,5.0;" x1="765.1948" x2="765.1948" y1="81.4883" y2="319.6621"/><text fill="#000000" font-family="sans-serif" font-size="14" lengthAdjust="spacing" textLength="56" x="5" y="78.5352">&#12518;&#12540;&#12470;&#12540;</text><ellipse cx="36" cy="13.5" fill="#E2E2F0" rx="8" ry="8" style="stroke:#181818;stroke-width:0.5;"/><path d="M36,21.5 L36,48.5 M23,29.5 L49,29.5 M36,48.5 L23,63.5 M36,48.5 L49,63.5 " fill="none" style="stroke:#181818;stroke-width:0.5;"/><text fill="#000000" font-family="sans-serif" font-size="14" lengthAdjust="spacing" textLength="56" x="5" y="332.1973">&#12518;&#12540;&#12470;&#12540;</text><ellipse cx="36" cy="343.6504" fill="#E2E2F0" rx="8" ry="8" style="stroke:#181818;stroke-width:0.5;"/><path d="M36,351.6504 L36,378.6504 M23,359.6504 L49,359.6504 M36,378.6504 L23,393.6504 M36,378.6504 L49,393.6504 " fill="none" style="stroke:#181818;stroke-width:0.5;"/><rect fill="#E2E2F0" height="30.4883" rx="2.5" ry="2.5" style="stroke:#181818;stroke-width:0.5;" width="75.0586" x="126.4707" y="50"/><text fill="#000000" font-family="sans-serif" font-size="14" lengthAdjust="spacing" textLength="61.0586" x="133.4707" y="70.5352">Frontend</text><rect fill="#E2E2F0" height="30.4883" rx="2.5" ry="2.5" style="stroke:#181818;stroke-width:0.5;" width="75.0586" x="126.4707" y="318.6621"/><text fill="#000000" font-family="sans-serif" font-size="14" lengthAdjust="spacing" textLength="61.0586" x="133.4707" y="339.1973">Frontend</text><rect fill="#E2E2F0" height="30.4883" rx="2.5" ry="2.5" style="stroke:#181818;stroke-width:0.5;" width="70.4375" x="537.1826" y="50"/><text fill="#000000" font-family="sans-serif" font-size="14" lengthAdjust="spacing" textLength="56.4375" x="544.1826" y="70.5352">Backend</text><rect fill="#E2E2F0" height="30.4883" rx="2.5" ry="2.5" style="stroke:#181818;stroke-width:0.5;" width="70.4375" x="537.1826" y="318.6621"/><text fill="#000000" font-family="sans-serif" font-size="14" lengthAdjust="spacing" textLength="56.4375" x="544.1826" y="339.1973">Backend</text><rect fill="#E2E2F0" height="30.4883" rx="2.5" ry="2.5" style="stroke:#181818;stroke-width:0.5;" width="67.5869" x="666.6079" y="50"/><text fill="#000000" font-family="sans-serif" font-size="14" lengthAdjust="spacing" textLength="53.5869" x="673.6079" y="70.5352">Cognito</text><rect fill="#E2E2F0" height="30.4883" rx="2.5" ry="2.5" style="stroke:#181818;stroke-width:0.5;" width="67.5869" x="666.6079" y="318.6621"/><text fill="#000000" font-family="sans-serif" font-size="14" lengthAdjust="spacing" textLength="53.5869" x="673.6079" y="339.1973">Cognito</text><text fill="#000000" font-family="sans-serif" font-size="14" lengthAdjust="spacing" textLength="36.6475" x="744.1948" y="78.5352">Redis</text><path d="M747.5186,29 C747.5186,19 765.5186,19 765.5186,19 C765.5186,19 783.5186,19 783.5186,29 L783.5186,55 C783.5186,65 765.5186,65 765.5186,65 C765.5186,65 747.5186,65 747.5186,55 L747.5186,29 " fill="#E2E2F0" style="stroke:#181818;stroke-width:1.5;"/><path d="M747.5186,29 C747.5186,39 765.5186,39 765.5186,39 C765.5186,39 783.5186,39 783.5186,29 " fill="none" style="stroke:#181818;stroke-width:1.5;"/><text fill="#000000" font-family="sans-serif" font-size="14" lengthAdjust="spacing" textLength="36.6475" x="744.1948" y="332.1973">Redis</text><path d="M747.5186,345.1504 C747.5186,335.1504 765.5186,335.1504 765.5186,335.1504 C765.5186,335.1504 783.5186,335.1504 783.5186,345.1504 L783.5186,371.1504 C783.5186,381.1504 765.5186,381.1504 765.5186,381.1504 C765.5186,381.1504 747.5186,381.1504 747.5186,371.1504 L747.5186,345.1504 " fill="#E2E2F0" style="stroke:#181818;stroke-width:1.5;"/><path d="M747.5186,345.1504 C747.5186,355.1504 765.5186,355.1504 765.5186,355.1504 C765.5186,355.1504 783.5186,355.1504 783.5186,345.1504 " fill="none" style="stroke:#181818;stroke-width:1.5;"/><polygon fill="#181818" points="152,108.7988,162,112.7988,152,116.7988,156,112.7988" style="stroke:#181818;stroke-width:1.0;"/><line style="stroke:#181818;stroke-width:1.0;stroke-dasharray:2.0,2.0;" x1="36" x2="158" y1="112.7988" y2="112.7988"/><text fill="#000000" font-family="sans-serif" font-size="13" lengthAdjust="spacing" textLength="104" x="43" y="108.0566">&#12518;&#12540;&#12470;&#12540;&#24773;&#22577;&#20837;&#21147;</text><polygon fill="#181818" points="560.4014,138.1094,570.4014,142.1094,560.4014,146.1094,564.4014,142.1094" style="stroke:#181818;stroke-width:1.0;"/><line style="stroke:#181818;stroke-width:1.0;stroke-dasharray:2.0,2.0;" x1="164" x2="566.4014" y1="142.1094" y2="142.1094"/><text fill="#000000" font-family="sans-serif" font-size="13" lengthAdjust="spacing" textLength="384.4014" x="171" y="137.3672">Post: /auth/login -body: {username, password, facility_code}</text><polygon fill="#181818" points="688.4014,167.4199,698.4014,171.4199,688.4014,175.4199,692.4014,171.4199" style="stroke:#181818;stroke-width:1.0;"/><line style="stroke:#181818;stroke-width:1.0;stroke-dasharray:2.0,2.0;" x1="572.4014" x2="694.4014" y1="171.4199" y2="171.4199"/><text fill="#000000" font-family="sans-serif" font-size="13" lengthAdjust="spacing" textLength="104" x="579.4014" y="166.6777">&#12518;&#12540;&#12470;&#12540;&#24773;&#22577;&#26908;&#35388;</text><polygon fill="#181818" points="583.4014,196.7305,573.4014,200.7305,583.4014,204.7305,579.4014,200.7305" style="stroke:#181818;stroke-width:1.0;"/><line style="stroke:#181818;stroke-width:1.0;stroke-dasharray:2.0,2.0;" x1="577.4014" x2="699.4014" y1="200.7305" y2="200.7305"/><text fill="#000000" font-family="sans-serif" font-size="13" lengthAdjust="spacing" textLength="78" x="589.4014" y="195.9883">&#12488;&#12540;&#12463;&#12531;&#36820;&#21364;</text><polygon fill="#181818" points="753.5186,226.041,763.5186,230.041,753.5186,234.041,757.5186,230.041" style="stroke:#181818;stroke-width:1.0;"/><line style="stroke:#181818;stroke-width:1.0;stroke-dasharray:2.0,2.0;" x1="572.4014" x2="759.5186" y1="230.041" y2="230.041"/><text fill="#000000" font-family="sans-serif" font-size="13" lengthAdjust="spacing" textLength="151.7915" x="579.4014" y="225.2988">SessionID&#12539;&#12488;&#12540;&#12463;&#12531;&#20445;&#23384;</text><polygon fill="#181818" points="175,255.3516,165,259.3516,175,263.3516,171,259.3516" style="stroke:#181818;stroke-width:1.0;"/><line style="stroke:#181818;stroke-width:1.0;stroke-dasharray:2.0,2.0;" x1="169" x2="571.4014" y1="259.3516" y2="259.3516"/><text fill="#000000" font-family="sans-serif" font-size="13" lengthAdjust="spacing" textLength="85.2363" x="181" y="254.6094">SessionId&#36820;&#21364;</text><line style="stroke:#181818;stroke-width:1.0;stroke-dasharray:2.0,2.0;" x1="164" x2="206" y1="288.6621" y2="288.6621"/><line style="stroke:#181818;stroke-width:1.0;stroke-dasharray:2.0,2.0;" x1="206" x2="206" y1="288.6621" y2="301.6621"/><line style="stroke:#181818;stroke-width:1.0;stroke-dasharray:2.0,2.0;" x1="165" x2="206" y1="301.6621" y2="301.6621"/><polygon fill="#181818" points="175,297.6621,165,301.6621,175,305.6621,171,301.6621" style="stroke:#181818;stroke-width:1.0;"/><text fill="#000000" font-family="sans-serif" font-size="13" lengthAdjust="spacing" textLength="156.3555" x="171" y="283.9199">Cookie&#12395;SessionID&#12434;&#20445;&#23384;</text><!--SRC=[RO_1IWCn48RlUOfvW2wzxq7G5i5RqGUGwIRMq9efIOeKyM13GGGlua5GmOEA8AM8nOk5FapSqiUmkutiBdWP1lwFxv_PJYnfyExLkxaVVQqdQw6sCf5zL1PsDIah50SqcxsIxc3I3M6sLh86TPIqn9feiOr6mBxWqZ1Mhe8esjfeuye9IpTEdpxIyKjwTS_oF2UpZXXQPDPu7GVskDwZZbGGjOaFOpWR6A4LdeWQzD6OKzAy1aUOo9wqmyE4k3XdcI9tXVF-wrq-FwpUvYmGfMRlBdDqwjtdQd6RNiyAN_vT30V264bgh-dTTnd_MJocaxi23q__uJpeYby3q23gIk4ltWlnw2R8s2y0]--></g></svg>