<svg xmlns="http://www.w3.org/2000/svg" xmlns:xlink="http://www.w3.org/1999/xlink" contentStyleType="text/css" height="357px" preserveAspectRatio="none" style="width:747px;height:357px;background:#FFFFFF;" version="1.1" viewBox="0 0 747 357" width="747px" zoomAndPan="magnify"><defs/><g><line style="stroke:#181818;stroke-width:0.5;stroke-dasharray:5.0,5.0;" x1="36" x2="36" y1="81.4883" y2="276.041"/><line style="stroke:#181818;stroke-width:0.5;stroke-dasharray:5.0,5.0;" x1="163.4707" x2="163.4707" y1="81.4883" y2="276.041"/><line style="stroke:#181818;stroke-width:0.5;stroke-dasharray:5.0,5.0;" x1="405.5947" x2="405.5947" y1="81.4883" y2="276.041"/><line style="stroke:#181818;stroke-width:0.5;stroke-dasharray:5.0,5.0;" x1="650.02" x2="650.02" y1="81.4883" y2="276.041"/><line style="stroke:#181818;stroke-width:0.5;stroke-dasharray:5.0,5.0;" x1="712.6069" x2="712.6069" y1="81.4883" y2="276.041"/><text fill="#000000" font-family="sans-serif" font-size="14" lengthAdjust="spacing" textLength="56" x="5" y="78.5352">&#12518;&#12540;&#12470;&#12540;</text><ellipse cx="36" cy="13.5" fill="#E2E2F0" rx="8" ry="8" style="stroke:#181818;stroke-width:0.5;"/><path d="M36,21.5 L36,48.5 M23,29.5 L49,29.5 M36,48.5 L23,63.5 M36,48.5 L49,63.5 " fill="none" style="stroke:#181818;stroke-width:0.5;"/><text fill="#000000" font-family="sans-serif" font-size="14" lengthAdjust="spacing" textLength="56" x="5" y="288.5762">&#12518;&#12540;&#12470;&#12540;</text><ellipse cx="36" cy="300.0293" fill="#E2E2F0" rx="8" ry="8" style="stroke:#181818;stroke-width:0.5;"/><path d="M36,308.0293 L36,335.0293 M23,316.0293 L49,316.0293 M36,335.0293 L23,350.0293 M36,335.0293 L49,350.0293 " fill="none" style="stroke:#181818;stroke-width:0.5;"/><rect fill="#E2E2F0" height="30.4883" rx="2.5" ry="2.5" style="stroke:#181818;stroke-width:0.5;" width="75.0586" x="126.4707" y="50"/><text fill="#000000" font-family="sans-serif" font-size="14" lengthAdjust="spacing" textLength="61.0586" x="133.4707" y="70.5352">Frontend</text><rect fill="#E2E2F0" height="30.4883" rx="2.5" ry="2.5" style="stroke:#181818;stroke-width:0.5;" width="75.0586" x="126.4707" y="275.041"/><text fill="#000000" font-family="sans-serif" font-size="14" lengthAdjust="spacing" textLength="61.0586" x="133.4707" y="295.5762">Frontend</text><rect fill="#E2E2F0" height="30.4883" rx="2.5" ry="2.5" style="stroke:#181818;stroke-width:0.5;" width="70.4375" x="370.5947" y="50"/><text fill="#000000" font-family="sans-serif" font-size="14" lengthAdjust="spacing" textLength="56.4375" x="377.5947" y="70.5352">Backend</text><rect fill="#E2E2F0" height="30.4883" rx="2.5" ry="2.5" style="stroke:#181818;stroke-width:0.5;" width="70.4375" x="370.5947" y="275.041"/><text fill="#000000" font-family="sans-serif" font-size="14" lengthAdjust="spacing" textLength="56.4375" x="377.5947" y="295.5762">Backend</text><rect fill="#E2E2F0" height="30.4883" rx="2.5" ry="2.5" style="stroke:#181818;stroke-width:0.5;" width="67.5869" x="617.02" y="50"/><text fill="#000000" font-family="sans-serif" font-size="14" lengthAdjust="spacing" textLength="53.5869" x="624.02" y="70.5352">Cognito</text><rect fill="#E2E2F0" height="30.4883" rx="2.5" ry="2.5" style="stroke:#181818;stroke-width:0.5;" width="67.5869" x="617.02" y="275.041"/><text fill="#000000" font-family="sans-serif" font-size="14" lengthAdjust="spacing" textLength="53.5869" x="624.02" y="295.5762">Cognito</text><text fill="#000000" font-family="sans-serif" font-size="14" lengthAdjust="spacing" textLength="18.5391" x="700.3374" y="78.5352">DB</text><path d="M694.6069,29 C694.6069,19 712.6069,19 712.6069,19 C712.6069,19 730.6069,19 730.6069,29 L730.6069,55 C730.6069,65 712.6069,65 712.6069,65 C712.6069,65 694.6069,65 694.6069,55 L694.6069,29 " fill="#E2E2F0" style="stroke:#181818;stroke-width:1.5;"/><path d="M694.6069,29 C694.6069,39 712.6069,39 712.6069,39 C712.6069,39 730.6069,39 730.6069,29 " fill="none" style="stroke:#181818;stroke-width:1.5;"/><text fill="#000000" font-family="sans-serif" font-size="14" lengthAdjust="spacing" textLength="18.5391" x="700.3374" y="288.5762">DB</text><path d="M694.6069,301.5293 C694.6069,291.5293 712.6069,291.5293 712.6069,291.5293 C712.6069,291.5293 730.6069,291.5293 730.6069,301.5293 L730.6069,327.5293 C730.6069,337.5293 712.6069,337.5293 712.6069,337.5293 C712.6069,337.5293 694.6069,337.5293 694.6069,327.5293 L694.6069,301.5293 " fill="#E2E2F0" style="stroke:#181818;stroke-width:1.5;"/><path d="M694.6069,301.5293 C694.6069,311.5293 712.6069,311.5293 712.6069,311.5293 C712.6069,311.5293 730.6069,311.5293 730.6069,301.5293 " fill="none" style="stroke:#181818;stroke-width:1.5;"/><polygon fill="#181818" points="152,108.7988,162,112.7988,152,116.7988,156,112.7988" style="stroke:#181818;stroke-width:1.0;"/><line style="stroke:#181818;stroke-width:1.0;stroke-dasharray:2.0,2.0;" x1="36" x2="158" y1="112.7988" y2="112.7988"/><text fill="#000000" font-family="sans-serif" font-size="13" lengthAdjust="spacing" textLength="104" x="43" y="108.0566">&#12518;&#12540;&#12470;&#12540;&#24773;&#22577;&#20837;&#21147;</text><polygon fill="#181818" points="393.8135,138.1094,403.8135,142.1094,393.8135,146.1094,397.8135,142.1094" style="stroke:#181818;stroke-width:1.0;"/><line style="stroke:#181818;stroke-width:1.0;stroke-dasharray:2.0,2.0;" x1="164" x2="399.8135" y1="142.1094" y2="142.1094"/><text fill="#000000" font-family="sans-serif" font-size="13" lengthAdjust="spacing" textLength="217.8135" x="171" y="137.3672">Post&#65306;buddy.api.com/auth/signup</text><polygon fill="#181818" points="638.8135,167.4199,648.8135,171.4199,638.8135,175.4199,642.8135,171.4199" style="stroke:#181818;stroke-width:1.0;"/><line style="stroke:#181818;stroke-width:1.0;stroke-dasharray:2.0,2.0;" x1="405.8135" x2="644.8135" y1="171.4199" y2="171.4199"/><text fill="#000000" font-family="sans-serif" font-size="13" lengthAdjust="spacing" textLength="221" x="412.8135" y="166.6777">&#12518;&#12540;&#12470;&#12540;&#12503;&#12540;&#12523;&#12395;&#12518;&#12540;&#12470;&#12540;&#24773;&#22577;&#12434;&#30331;&#37682;</text><polygon fill="#181818" points="416.8135,181.4199,406.8135,185.4199,416.8135,189.4199,412.8135,185.4199" style="stroke:#181818;stroke-width:1.0;"/><line style="stroke:#181818;stroke-width:1.0;stroke-dasharray:2.0,2.0;" x1="410.8135" x2="649.8135" y1="185.4199" y2="185.4199"/><polygon fill="#181818" points="700.6069,210.7305,710.6069,214.7305,700.6069,218.7305,704.6069,214.7305" style="stroke:#181818;stroke-width:1.0;"/><line style="stroke:#181818;stroke-width:1.0;stroke-dasharray:2.0,2.0;" x1="405.8135" x2="706.6069" y1="214.7305" y2="214.7305"/><text fill="#000000" font-family="sans-serif" font-size="13" lengthAdjust="spacing" textLength="126.7119" x="412.8135" y="209.9883">"&#12518;&#12540;&#12470;&#12540;&#24773;&#22577;"&#12434;&#20445;&#23384;</text><polygon fill="#181818" points="416.8135,224.7305,406.8135,228.7305,416.8135,232.7305,412.8135,228.7305" style="stroke:#181818;stroke-width:1.0;"/><line style="stroke:#181818;stroke-width:1.0;stroke-dasharray:2.0,2.0;" x1="410.8135" x2="711.6069" y1="228.7305" y2="228.7305"/><polygon fill="#181818" points="175,254.041,165,258.041,175,262.041,171,258.041" style="stroke:#181818;stroke-width:1.0;"/><line style="stroke:#181818;stroke-width:1.0;stroke-dasharray:2.0,2.0;" x1="169" x2="404.8135" y1="258.041" y2="258.041"/><text fill="#000000" font-family="sans-serif" font-size="13" lengthAdjust="spacing" textLength="195.8188" x="181" y="253.2988">Response"200":{"message": ok}</text><!--SRC=[SqmkoIzIUDoyx77pdiTDsu0aLq1YKKbcScP1Obw9WbjHVbv9QbwAGc8nX8qYwvIOd0sL135Hv9ppq_CoI_AvKX9B4fCIYrCLN9oukBYGBLBGrRM366g5ue1dpQrF5snyshhqQTTiBh0yM2N81Yk5WFpYalTxPYMLfgHKwYKMPEebv-Vg9vQMPEWNPwRdbHPmWPI1rKCTW6hsu-RfO7BruyRLc7O-RfhqVERkbpsRkA2QuHOZZ7Lnib9GmjIg1DJxPF_SfsjdSBauOT46zMTGQd51VbvngfAHWO6ILRLIRcfnSM9wgfALGdvsBG00]--></g></svg>